<?xml version="1.0" encoding="UTF-8"?>
<svg width="1024px" height="1024px" viewBox="0 0 1024 1024" version="1.1" xmlns="http://www.w3.org/2000/svg" xmlns:xlink="http://www.w3.org/1999/xlink">
    <title>4 - Layer</title>
    <g id="Template---App-Icons-Copy" stroke="none" stroke-width="1" fill="none" fill-rule="evenodd">
        <g id="4---Layer" fill="color(display-p3 0.000 0.000 0.000)">
            <path d="M289,0 L274.41,249 L522.41,248.999 L537,0 L547,0 L532.41,248.999 L780.41,248.999 L795,0 L805,0 L790.41,248.999 L1024,249 L1024,259 L789.824,259 L775.293,507 L1024,507 L1024,517 L774.707,517 L760.176,765 L1024,765 L1024,775 L759.59,775 L745,1024 L735,1024 L749.59,775 L501.59,775 L487,1024 L477,1024 L491.59,775 L243.59,775 L229,1024 L219,1024 L233.59,775 L0,775 L0,765 L234.176,765 L248.707,517 L0,517 L0,507 L249.293,507 L263.824,259 L0,259 L0,249 L264.41,249 L279,0 L289,0 Z M506.707,517 L258.707,517 L244.176,765 L492.176,765 L506.707,517 Z M764.707,517 L516.707,517 L502.176,765 L750.176,765 L764.707,517 Z M521.824,259 L273.824,259 L259.293,507 L507.293,507 L521.824,259 Z M779.824,259 L531.824,259 L517.293,507 L765.293,507 L779.824,259 Z" id="Combined-Shape"></path>
        </g>
    </g>
</svg>