<?xml version="1.0" encoding="UTF-8" standalone="no"?>
<svg width="16px" height="16px" viewBox="0 0 16 16" version="1.1" xmlns="http://www.w3.org/2000/svg" xmlns:xlink="http://www.w3.org/1999/xlink">
    <!-- Generator: Sketch 3.8.3 (29802) - http://www.bohemiancoding.com/sketch -->
    <title>16_default_collection</title>
    <desc>Created with Sketch.</desc>
    <defs></defs>
    <g id="Page-3" stroke="none" stroke-width="1" fill="none" fill-rule="evenodd">
        <g id="Icons" transform="translate(-77.000000, -116.000000)" fill="#000000">
            <polygon id="Shape" opacity="0.119999997" points="78 123 92 123 92 130 78 130"></polygon>
            <path d="M77,129.5 C77,130.32 77.67,131 78.5,131 L91.5,131 C92.33,131 93,130.32 93,129.5 L93,120.5 C93,119.67 92.33,119 91.5,119 L84.5,119 L84.85,119.15 L82.85,117.15 L82.7,117 L78.5,117 C77.67,117 77,117.67 77,118.5 L77,122.5 L77,129.5 Z M92,123 L92,130 L78,130 L78,123 L92,123 Z M82.5,118 L82.15,117.85 L84.15,119.85 L84.3,120 L91.5,120 C91.78,120 92,120.22 92,120.5 L92,122 L78,122 L78,118.5 C78,118.22 78.22,118 78.5,118 L82.5,118 Z" id="Shape"></path>
        </g>
    </g>
</svg>