<svg xmlns="http://www.w3.org/2000/svg" width="16" height="16" viewBox="0 0 16 16">
  <path fill="#000000" fill-rule="evenodd" d="M50.8425926,143 L48.6851852,143 L49.94,140.8 C50.34,139.8 51.48,139 52.48,139 L57.52,139 C58.52,139 59.65,139.8 60.06,140.8 L61.3066667,143 L59.1533333,143 L63,143 L63,144 L57,144 C57,144.55 56.56,145 56,145 L54,145 C53.44,145 53,144.56 53,144 L47,144 L47,143 L50.8425926,143 Z M47.2918919,143 L47,143 L47,147.5 C47,148.9 48.1,150 49.5,150 L60.5,150 C61.88,150 63,148.88 63,147.5 L63,143 L62.7081081,143 L60.84,139.8 C60.37,138.8 59.1,138 58,138 L52,138 C50.9,138 49.63,138.8 49.16,139.8 L47.2918919,143 Z" transform="translate(-47 -136)"/>
</svg>
