<?xml version="1.0" encoding="UTF-8" standalone="no"?>
<svg width="16px" height="16px" viewBox="0 0 16 16" version="1.1" xmlns="http://www.w3.org/2000/svg" xmlns:xlink="http://www.w3.org/1999/xlink">
    <!-- Generator: Sketch 3.8.3 (29802) - http://www.bohemiancoding.com/sketch -->
    <title>16_inbox</title>
    <desc>Created with Sketch.</desc>
    <defs></defs>
    <g id="Page-3" stroke="none" stroke-width="1" fill="none" fill-rule="evenodd">
        <g id="Icons" transform="translate(-47.000000, -116.000000)" fill="#000000">
            <path d="M48,124 L48,127 C48,128.1 48.9,129 50,129 L60,129 C61.1,129 62,128.1 62,127 L62,124 L58,124 C58,124.55 57.56,125 57,125 L54,125 C53.44,125 53,124.56 53,124 L48,124 Z" id="Shape" opacity="0.119999997"></path>
            <path d="M47.2918919,123 L47,123 L47,127.5 C47,128.9 48.1,130 49.5,130 L60.5,130 C61.88,130 63,128.88 63,127.5 L63,123 L62.7081081,123 L60.84,119.8 C60.37,118.8 59.1,118 58,118 L52,118 C50.9,118 49.63,118.8 49.16,119.8 L47.2918919,123 Z M48.6851852,123 L53,123 L53,124 C53,124.56 53.44,125 54,125 L56,125 C56.56,125 57,124.55 57,124 L57,123 L61.3066667,123 L60.06,120.8 C59.65,119.8 58.52,119 57.52,119 L52.48,119 C51.48,119 50.34,119.8 49.94,120.8 L48.6851852,123 Z M48,124 L48,127 C48,128.1 48.9,129 50,129 L60,129 C61.1,129 62,128.1 62,127 L62,124 L58,124 C58,125.1 57.1,126 56,126 L54,126 C52.9,126 52,125.1 52,124 L48,124 Z" id="Shape"></path>
        </g>
    </g>
</svg>