<?xml version="1.0" encoding="UTF-8" standalone="no"?>
<svg width="24px" height="24px" viewBox="0 0 24 24" version="1.1" xmlns="http://www.w3.org/2000/svg" xmlns:xlink="http://www.w3.org/1999/xlink">
    <!-- Generator: Sketch 3.8.3 (29802) - http://www.bohemiancoding.com/sketch -->
    <title>24_cloud</title>
    <desc>Created with Sketch.</desc>
    <defs></defs>
    <g id="Page-3" stroke="none" stroke-width="1" fill="none" fill-rule="evenodd">
        <g id="Artboard-10" transform="translate(-40.000000, -10.000000)" fill="#000000">
            <path d="M59.5,20.5 L59.5,20.5 L59.5,22 C61.981,22 64,24.019 64,26.5 C64,28.981 61.981,31 59.5,31 L46,31 C42.691,31 40,28.309 40,25 C40,22.1635 41.9845,19.7935 44.635,19.171 C45.265,15.67 48.319,13 52,13 C56.1355,13 59.5,16.3645 59.5,20.5 L59.5,20.5 Z" id="Mask-Copy-8" opacity="0.0899999961"></path>
            <path d="M63.8879798,25.5 C63.9612817,25.821717 64,26.1564286 64,26.5 C64,28.981 61.981,31 59.5,31 L46,31 C42.691,31 40,28.309 40,25 C40,24.6595747 40.0285844,24.3258688 40.0834739,24.0010968 C40.5612221,26.8350773 43.032019,29 46,29 L59.5,29 C61.6374286,29 63.4319539,27.501468 63.8879798,25.5 Z" id="Combined-Shape" opacity="0.0899999961"></path>
            <path d="M58.5,20.5 L58.5,20.5 C58.5,16.9167847 55.5832153,14 52,14 C48.8523398,14 46.1723569,16.2740886 45.6191921,19.348104 L45.5028967,19.9943744 L44.8636401,20.144511 C42.6175549,20.6720296 41,22.6755544 41,25 C41,27.7567153 43.2432847,30 46,30 L59.5,30 C61.4287153,30 63,28.4287153 63,26.5 C63,24.5712847 61.4287153,23 59.5,23 L58.5,23 L58.5,22 L58.5,20.5 Z M59.5,20.5 L59.5,20.5 L59.5,22 C61.981,22 64,24.019 64,26.5 C64,28.981 61.981,31 59.5,31 L46,31 C42.691,31 40,28.309 40,25 C40,22.1635 41.9845,19.7935 44.635,19.171 C45.265,15.67 48.319,13 52,13 C56.1355,13 59.5,16.3645 59.5,20.5 L59.5,20.5 Z" id="Mask-Copy-2"></path>
        </g>
    </g>
</svg>