<?xml version="1.0" encoding="UTF-8" standalone="no"?>
<svg width="24px" height="24px" viewBox="0 0 24 24" version="1.1" xmlns="http://www.w3.org/2000/svg" xmlns:xlink="http://www.w3.org/1999/xlink">
    <!-- Generator: Sketch 3.8.3 (29802) - http://www.bohemiancoding.com/sketch -->
    <title>24_explore</title>
    <desc>Created with Sketch.</desc>
    <defs></defs>
    <g id="Page-3" stroke="none" stroke-width="1" fill="none" fill-rule="evenodd">
        <g id="Artboard-10" transform="translate(-40.000000, -70.000000)" fill="#000000">
            <path d="M56.6069364,84.0231214 L58.4251195,90.0837315 C58.7442217,91.1474056 58.2837935,91.4628451 57.400308,90.800231 L52,86.75 L46.599692,90.800231 C45.7162065,91.4628451 45.2557783,91.1474056 45.5748805,90.0837315 L47.3930636,84.0231214 L42.5709366,80.2343074 C41.7033323,79.5526182 41.8896739,79 42.991155,79 L48.8888889,79 L51.2747977,72.8648058 C51.6753159,71.834902 52.322998,71.8305664 52.7252023,72.8648058 L55.1111111,79 L61.008845,79 C62.1085295,79 62.3032217,79.5474687 61.4290634,80.2343074 L56.6069364,84.0231214 L56.6069364,84.0231214 L56.6069364,84.0231214 Z" id="Combined-Shape-Copy-3" opacity="0.0899999961"></path>
            <path d="M43.5018477,79 L42.991155,79 C41.8896739,79 41.7033323,79.5526182 42.5709366,80.2343074 L47.3930636,84.0231214 L45.5748805,90.0837315 C45.2557783,91.1474056 45.7162065,91.4628451 46.599692,90.800231 L52,86.75 L57.400308,90.800231 C58.2837935,91.4628451 58.7442217,91.1474056 58.4251195,90.0837315 L56.6069364,84.0231214 L56.6069364,84.0231214 L61.4290634,80.2343074 C62.3032217,79.5474687 62.1085295,79 61.008845,79 L60.4981523,79 L55.6069364,83.0231214 C55.6069364,83.0231214 58.2837935,89.4628451 57.400308,88.800231 L52,84.75 L46.599692,88.800231 C45.7162065,89.4628451 48.3930636,83.0231214 48.3930636,83.0231214 L43.5018477,79 Z" id="Combined-Shape" opacity="0.0899999961"></path>
            <path d="M56.6069364,84.0231214 L58.4251195,90.0837315 C58.7442217,91.1474056 58.2837935,91.4628451 57.400308,90.800231 L52,86.75 L46.599692,90.800231 C45.7162065,91.4628451 45.2557783,91.1474056 45.5748805,90.0837315 L47.3930636,84.0231214 L42.5709366,80.2343074 C41.7033323,79.5526182 41.8896739,79 42.991155,79 L48.8888889,79 L51.2747977,72.8648058 C51.6753159,71.834902 52.322998,71.8305664 52.7252023,72.8648058 L55.1111111,79 L61.008845,79 C62.1085295,79 62.3032217,79.5474687 61.4290634,80.2343074 L56.6069364,84.0231214 L56.6069364,84.0231214 Z M55.6491101,84.3104693 L55.4533077,83.6577944 L55.9891149,83.236803 L60.0999985,80 L55.1111111,80 L54.427044,80 L54.1791064,79.3624463 L52.0014342,73.75 L49.8208936,79.3624463 L49.572956,80 L48.8888889,80 L43.9000015,80 L48.0108851,83.236803 L48.5466923,83.6577944 L48.3508899,84.3104693 L46.8056641,89.4385986 L51.4,85.95 L52,85.5 L52.6,85.95 L57.1968994,89.4385986 L55.6491101,84.3104693 Z" id="Combined-Shape"></path>
        </g>
    </g>
</svg>