<?xml version="1.0" encoding="UTF-8" standalone="no"?>
<svg width="24px" height="24px" viewBox="0 0 24 24" version="1.1" xmlns="http://www.w3.org/2000/svg" xmlns:xlink="http://www.w3.org/1999/xlink">
    <!-- Generator: Sketch 3.8.3 (29802) - http://www.bohemiancoding.com/sketch -->
    <title>24_home_active</title>
    <desc>Created with Sketch.</desc>
    <defs></defs>
    <g id="Page-3" stroke="none" stroke-width="1" fill="none" fill-rule="evenodd">
        <g id="Artboard-10" transform="translate(-74.000000, -100.000000)" fill="#000000">
            <g id="Group-4-Copy" transform="translate(75.000000, 102.000000)">
                <path d="M0.0671655983,5.00748397 C0.0300710626,4.45106594 0.43945834,4 1.00246167,4 L20.9975383,4 C21.5511826,4 21.970072,4.44892021 21.9328344,5.00748397 L21.0671656,17.992516 C21.0300711,18.5489341 20.5446944,19 20.0081969,19 L1.99180311,19 C1.44404538,19 0.970071986,18.5510798 0.932834402,17.992516 L0.0671655983,5.00748397 Z M10.6465485,9.08908295 C10.5968345,9.15091412 10.5580173,9.20136946 10.5312703,9.23760947 L10.7612914,9.24229586 C10.8426666,9.35382591 10.9219624,9.46827436 11,9.58355713 C11,9.58355713 11.1012936,9.4463129 11.2686386,9.25263242 L11.4824314,9.25698818 C11.4505323,9.20986449 11.4188707,9.16368485 11.3874167,9.11844485 C11.8111535,8.65123137 12.5117716,8 13.125,8 C14.7125,8 16,9.28125 16,10.875 C16,12.26875 15.14375,13.6875 13.55,14.98125 C12.675,15.7125 11.71875,16.28125 11.175,16.54375 C11.125,16.56875 11,16.58125 11,16.58125 C11,16.58125 10.8875,16.56875 10.825,16.55 C10.28125,16.28125 9.325,15.7125 8.45,14.9875 C6.85625,13.6875 6,12.2625 6,10.875 C6,9.2875 7.28125,8 8.875,8 C9.63754412,8 10.1804052,8.4839662 10.6465485,9.08908295 L10.6465485,9.08908295 Z" id="Combined-Shape"></path>
                <rect id="Combined-Shape-Copy-7" opacity="0.7" x="3" y="2" width="16" height="1" rx="0.5"></rect>
                <rect id="Combined-Shape-Copy-8" opacity="0.4" x="5" y="0" width="12" height="1" rx="0.5"></rect>
            </g>
        </g>
    </g>
</svg>