<?xml version="1.0" encoding="UTF-8" standalone="no"?>
<svg width="24px" height="24px" viewBox="0 0 24 24" version="1.1" xmlns="http://www.w3.org/2000/svg" xmlns:xlink="http://www.w3.org/1999/xlink">
    <!-- Generator: Sketch 3.8.3 (29802) - http://www.bohemiancoding.com/sketch -->
    <title>24_install</title>
    <desc>Created with Sketch.</desc>
    <defs></defs>
    <g id="Page-3" stroke="none" stroke-width="1" fill="none" fill-rule="evenodd">
        <g id="Artboard-10" transform="translate(-40.000000, -100.000000)" fill="#000000">
            <path d="M51.5,120 L51.5,120 C46.8055796,120 43,116.19442 43,111.5 C43,106.80558 46.8055796,103 51.5,103 C56.1944204,103 60,106.80558 60,111.5 C60,116.19442 56.1944204,120 51.5,120 L51.5,120 Z" id="Oval-484-Copy-2" opacity="0.0899999961"></path>
            <path d="M43.0144618,111 C43.004865,111.165441 43,111.332153 43,111.5 C43,116.19442 46.8055796,120 51.5,120 C56.1944204,120 60,116.19442 60,111.5 C60,111.332153 59.995135,111.165441 59.9855382,111 C59.7267293,115.46169 56.026573,119 51.5,119 C46.973427,119 43.2732707,115.46169 43.0144618,111 Z" id="Combined-Shape" opacity="0.0899999961"></path>
            <path d="M51.5,120 L51.5,120 C56.1944204,120 60,116.19442 60,111.5 C60,106.80558 56.1944204,103 51.5,103 C46.8055796,103 43,106.80558 43,111.5 C43,116.19442 46.8055796,120 51.5,120 L51.5,120 Z M51.5,121 L51.5,121 C46.2532949,121 42,116.746705 42,111.5 C42,106.253295 46.2532949,102 51.5,102 C56.7467051,102 61,106.253295 61,111.5 C61,116.746705 56.7467051,121 51.5,121 L51.5,121 Z" id="Combined-Shape"></path>
            <path d="M48.0384615,112 L52,115.678571 L52,117 L46,111.5 L52,106 L52,107.321429 L48.0384615,111 L57,111 L57,112 L48.0384615,112 Z" id="Rectangle-1319" transform="translate(51.500000, 111.500000) rotate(-90.000000) translate(-51.500000, -111.500000) "></path>
        </g>
    </g>
</svg>