<?xml version="1.0" encoding="UTF-8" standalone="no"?>
<svg width="24px" height="24px" viewBox="0 0 24 24" version="1.1" xmlns="http://www.w3.org/2000/svg" xmlns:xlink="http://www.w3.org/1999/xlink">
    <!-- Generator: Sketch 3.8.3 (29802) - http://www.bohemiancoding.com/sketch -->
    <title>24_settings</title>
    <desc>Created with Sketch.</desc>
    <defs></defs>
    <g id="Page-3" stroke="none" stroke-width="1" fill="none" fill-rule="evenodd">
        <g id="Artboard-10" transform="translate(-40.000000, -40.000000)" fill="#000000">
            <path d="M51.5,60 L51.5,60 C46.8055796,60 43,56.1944204 43,51.5 C43,46.8055796 46.8055796,43 51.5,43 C56.1944204,43 60,46.8055796 60,51.5 C60,56.1944204 56.1944204,60 51.5,60 L51.5,60 Z" id="Oval-484-Copy-2" opacity="0.0899999961"></path>
            <path d="M43.0144618,50 C43.004865,50.1654415 43,50.3321526 43,50.5 C43,55.1944204 46.8055796,59 51.5,59 C56.1944204,59 60,55.1944204 60,50.5 C60,50.3321526 59.995135,50.1654415 59.9855382,50 C59.7267293,54.4616897 56.026573,58 51.5,58 C46.973427,58 43.2732707,54.4616897 43.0144618,50 Z" id="Combined-Shape" opacity="0.0899999961"></path>
            <path d="M48.6438823,43.491756 C49.3869903,43.2267066 50.1778172,43.0621541 51,43.0144618 L51,41 L52,41 L52,43.0144618 C52.8221828,43.0621541 53.6130097,43.2267066 54.3561177,43.491756 L55.1424244,41.6393335 L56.0629293,42.0300646 L55.2764525,43.8828879 C55.9564713,44.2206802 56.5848334,44.6468543 57.1465109,45.1463823 L58.5710678,43.7218254 L59.2781746,44.4289322 L57.8536177,45.8534891 C58.3205852,46.3785551 58.7234499,46.9618956 59.0499353,47.5912341 L60.888859,46.7724925 L61.2955956,47.686038 L59.4571653,48.5045599 C59.752182,49.2878649 59.9348532,50.1262252 59.9855382,51 L62,51 L62,52 L59.9855382,52 C59.9348532,52.8737748 59.752182,53.7121351 59.4571653,54.4954401 L61.2955956,55.313962 L60.888859,56.2275075 L59.0499353,55.4087659 C58.7234499,56.0381044 58.3205852,56.6214449 57.8536177,57.1465109 L59.2781746,58.5710678 L58.5710678,59.2781746 L57.1465109,57.8536177 C56.5848334,58.3531457 55.9564713,58.7793198 55.2764525,59.1171121 L56.0629293,60.9699354 L55.1424244,61.3606665 L54.3561177,59.508244 C53.6130097,59.7732934 52.8221828,59.9378459 52,59.9855382 L52,62 L51,62 L51,59.9855382 C50.1778172,59.9378459 49.3869903,59.7732934 48.6438823,59.508244 L47.8575756,61.3606665 L46.9370707,60.9699354 L47.7235475,59.1171121 C47.0435287,58.7793198 46.4151666,58.3531457 45.8534891,57.8536177 L44.4289322,59.2781746 L43.7218254,58.5710678 L45.1463823,57.1465109 C44.6794148,56.6214449 44.2765501,56.0381044 43.9500647,55.4087659 L42.111141,56.2275075 L41.7044044,55.313962 L43.5428347,54.4954401 C43.247818,53.7121351 43.0651468,52.8737748 43.0144618,52 L41,52 L41,51 L43.0144618,51 C43.0651468,50.1262252 43.247818,49.2878649 43.5428347,48.5045599 L41.7044044,47.686038 L42.111141,46.7724925 L43.9500647,47.5912341 C44.2765501,46.9618956 44.6794148,46.3785551 45.1463823,45.8534891 L43.7218254,44.4289322 L44.4289322,43.7218254 L45.8534891,45.1463823 C46.4151666,44.6468543 47.0435287,44.2206802 47.7235475,43.8828879 L46.9370707,42.0300646 L47.8575756,41.6393335 L48.6438823,43.491756 Z M51.5,59 C55.6421356,59 59,55.6421356 59,51.5 C59,47.3578644 55.6421356,44 51.5,44 C47.3578644,44 44,47.3578644 44,51.5 C44,55.6421356 47.3578644,59 51.5,59 Z" id="Combined-Shape"></path>
            <path d="M51.847383,52 L60,52 L60,51 L51.847383,51 L48.5205033,43.1623626 L47.5999985,43.5530937 L50.9732601,51.5 L47.5999985,59.4469063 L48.5205033,59.8376374 L51.847383,52 Z" id="Combined-Shape"></path>
        </g>
    </g>
</svg>