<?xml version="1.0" encoding="UTF-8" standalone="no"?>
<svg width="24px" height="24px" viewBox="0 0 24 24" version="1.1" xmlns="http://www.w3.org/2000/svg" xmlns:xlink="http://www.w3.org/1999/xlink">
    <!-- Generator: Sketch 3.8.1 (29687) - http://www.bohemiancoding.com/sketch -->
    <title>24_settings_active</title>
    <desc>Created with Sketch.</desc>
    <defs></defs>
    <g id="Page-3" stroke="none" stroke-width="1" fill="none" fill-rule="evenodd">
        <g id="Artboard-10" transform="translate(-10.000000, -40.000000)" fill="#000000">
            <path d="M21.847383,52 L29,52 L29,51 L21.847383,51 L19.0730816,44.4641553 L18.1525767,44.8548865 L20.9732601,51.5 L18.1892888,58.0586253 L19.1097936,58.4493564 L21.847383,52 Z M18.6438823,43.491756 C19.3869903,43.2267066 20.1778172,43.0621541 21,43.0144618 L21,41 L22,41 L22,43.0144618 C22.8221828,43.0621541 23.6130097,43.2267066 24.3561177,43.491756 L25.1424244,41.6393335 L26.0629293,42.0300646 L25.2764525,43.8828879 C25.9564713,44.2206802 26.5848334,44.6468543 27.1465109,45.1463823 L28.5710678,43.7218254 L29.2781746,44.4289322 L27.8536177,45.8534891 C28.3205852,46.3785551 28.7234499,46.9618956 29.0499353,47.5912341 L30.888859,46.7724925 L31.2955956,47.686038 L29.4571653,48.5045599 C29.752182,49.2878649 29.9348532,50.1262252 29.9855382,51 L32,51 L32,52 L29.9855382,52 C29.9348532,52.8737748 29.752182,53.7121351 29.4571653,54.4954401 L31.2955956,55.313962 L30.888859,56.2275075 L29.0499353,55.4087659 C28.7234499,56.0381044 28.3205852,56.6214449 27.8536177,57.1465109 L29.2781746,58.5710678 L28.5710678,59.2781746 L27.1465109,57.8536177 C26.5848334,58.3531457 25.9564713,58.7793198 25.2764525,59.1171121 L26.0629293,60.9699354 L25.1424244,61.3606665 L24.3561177,59.508244 C23.6130097,59.7732934 22.8221828,59.9378459 22,59.9855382 L22,62 L21,62 L21,59.9855382 C20.1778172,59.9378459 19.3869903,59.7732934 18.6438823,59.508244 L17.8575756,61.3606665 L16.9370707,60.9699354 L17.7235475,59.1171121 C17.0435287,58.7793198 16.4151666,58.3531457 15.8534891,57.8536177 L14.4289322,59.2781746 L13.7218254,58.5710678 L15.1463823,57.1465109 C14.6794148,56.6214449 14.2765501,56.0381044 13.9500647,55.4087659 L12.111141,56.2275075 L11.7044044,55.313962 L13.5428347,54.4954401 C13.247818,53.7121351 13.0651468,52.8737748 13.0144618,52 L11,52 L11,51 L13.0144618,51 C13.0651468,50.1262252 13.247818,49.2878649 13.5428347,48.5045599 L11.7044044,47.686038 L12.111141,46.7724925 L13.9500647,47.5912341 C14.2765501,46.9618956 14.6794148,46.3785551 15.1463823,45.8534891 L13.7218254,44.4289322 L14.4289322,43.7218254 L15.8534891,45.1463823 C16.4151666,44.6468543 17.0435287,44.2206802 17.7235475,43.8828879 L16.9370707,42.0300646 L17.8575756,41.6393335 L18.6438823,43.491756 Z" id="Combined-Shape"></path>
        </g>
    </g>
</svg>