<svg xmlns="http://www.w3.org/2000/svg" width="48" height="48" viewBox="0 0 48 48">
  <path d="M36.728,31.072 L33.9,28.24 L36.728,25.412 C39.2726982,22.8894938 40.2733122,19.1982938 39.350994,15.7359455 C38.4286759,12.2735973 35.7244027,9.56932415 32.2620545,8.64700597 C28.7997062,7.72468779 25.1085062,8.7253018 22.586,11.27 L19.758,14.1 L16.928,11.272 L19.76,8.444 C25.227619,2.97638098 34.092381,2.97638098 39.56,8.444 C45.027619,13.911619 45.027619,22.776381 39.56,28.244 L36.73,31.072 L36.728,31.072 Z M31.072,36.728 L28.242,39.556 C22.7743809,45.0236188 13.9096192,45.0236187 8.44200021,39.5559998 C2.97438127,34.0883808 2.97438117,25.2236191 8.442,19.756 L11.272,16.928 L14.1,19.76 L11.272,22.588 C8.7273018,25.1105062 7.72668779,28.8017062 8.64900597,32.2640545 C9.57132415,35.7264027 12.2755973,38.4306759 15.7379455,39.352994 C19.2002938,40.2753122 22.8914938,39.2746982 25.414,36.73 L28.242,33.902 L31.072,36.73 L31.072,36.728 Z M29.656,15.514 L32.486,18.344 L18.344,32.484 L15.514,29.656 L29.656,15.516 L29.656,15.514 Z"/>
</svg>
