<?xml version="1.0" encoding="UTF-8" standalone="no"?>
<svg width="80px" height="80px" viewBox="0 0 80 80" version="1.1" xmlns="http://www.w3.org/2000/svg" xmlns:xlink="http://www.w3.org/1999/xlink">
    <!-- Generator: Sketch 3.8.3 (29802) - http://www.bohemiancoding.com/sketch -->
    <title>80_grid_active</title>
    <desc>Created with Sketch.</desc>
    <defs></defs>
    <g id="Page-3" stroke="none" stroke-width="1" fill="none" fill-rule="evenodd">
        <g id="Artboard-7" transform="translate(-327.000000, -183.000000)" fill="#000000">
            <path d="M327,184.997498 C327,183.89431 327.898438,183 328.997498,183 L405.002502,183 C406.10569,183 407,183.898438 407,184.997498 L407,261.002502 C407,262.10569 406.101562,263 405.002502,263 L328.997498,263 C327.89431,263 327,262.101562 327,261.002502 L327,184.997498 Z M329,185 L405,185 L405,261 L329,261 L329,185 Z" id="Combined-Shape-Copy-8"></path>
            <rect id="Combined-Shape-Copy-12" opacity="0.1" x="327" y="183" width="80" height="80" rx="2"></rect>
            <g id="view_grid-copy" transform="translate(333.000000, 189.000000)">
                <g id="Group">
                    <rect id="ghgh454" x="0" y="28" width="31" height="1"></rect>
                    <rect id="gghhg65" x="0" y="31" width="11" height="1"></rect>
                    <rect id="yt6756" x="0" y="0" width="31" height="26" rx="1"></rect>
                </g>
                <g id="Group-Copy" transform="translate(37.000000, 0.000000)">
                    <rect id="1231313" x="0" y="28" width="31" height="1"></rect>
                    <rect id="123" x="0" y="31" width="12" height="1"></rect>
                    <rect id="12" x="0" y="0" width="31" height="26" rx="1"></rect>
                </g>
                <g id="Group-Copy-3" transform="translate(0.000000, 38.000000)">
                    <rect id="9" x="0" y="28" width="31" height="1"></rect>
                    <rect id="8" x="0" y="31" width="11" height="1"></rect>
                    <rect id="7" x="0" y="0" width="31" height="26" rx="1"></rect>
                </g>
                <g id="Group-Copy-2" transform="translate(37.000000, 38.000000)">
                    <rect id="1" x="0" y="28" width="31" height="1"></rect>
                    <rect id="2" x="0" y="31" width="12" height="1"></rect>
                    <rect id="3" x="0" y="0" width="31" height="26" rx="1"></rect>
                </g>
            </g>
        </g>
    </g>
</svg>