<?xml version="1.0" encoding="UTF-8" standalone="no"?>
<svg width="80px" height="80px" viewBox="0 0 80 80" version="1.1" xmlns="http://www.w3.org/2000/svg" xmlns:xlink="http://www.w3.org/1999/xlink">
    <!-- Generator: Sketch 3.8.3 (29802) - http://www.bohemiancoding.com/sketch -->
    <title>80_grid</title>
    <desc>Created with Sketch.</desc>
    <defs></defs>
    <g id="Page-3" stroke="none" stroke-width="1" fill="none" fill-rule="evenodd">
        <g id="Artboard-7" transform="translate(-327.000000, -93.000000)" fill="#000000">
            <g id="view_grid" transform="translate(333.000000, 99.000000)">
                <g id="Group">
                    <rect id="ghgh454" x="0" y="28" width="31" height="1"></rect>
                    <rect id="gghhg65" opacity="0.6" x="0" y="31" width="11" height="1"></rect>
                    <rect id="yt6756" opacity="0.2" x="0" y="0" width="31" height="26" rx="1"></rect>
                    <path d="M0,1.00329963 C0,0.449192547 0.438225746,0 0.996315107,0 L30.0036849,0 C30.5539345,0 31,0.451278687 31,1.00329963 L31,24.9967004 C31,25.5508075 30.5617743,26 30.0036849,26 L0.996315107,26 C0.446065467,26 0,25.5487213 0,24.9967004 L0,1.00329963 Z M1,1 L30,1 L30,25 L1,25 L1,1 Z" id="Combined-Shape"></path>
                </g>
                <g id="Group-Copy" transform="translate(37.000000, 0.000000)">
                    <rect id="1231313" x="0" y="28" width="31" height="1"></rect>
                    <rect id="123" opacity="0.6" x="0" y="31" width="12" height="1"></rect>
                    <rect id="12" opacity="0.2" x="0" y="0" width="31" height="26" rx="1"></rect>
                    <path d="M0,1.00329963 C0,0.449192547 0.438225746,0 0.996315107,0 L30.0036849,0 C30.5539345,0 31,0.451278687 31,1.00329963 L31,24.9967004 C31,25.5508075 30.5617743,26 30.0036849,26 L0.996315107,26 C0.446065467,26 0,25.5487213 0,24.9967004 L0,1.00329963 Z M1,1 L30,1 L30,25 L1,25 L1,1 Z" id="Combined-Shape"></path>
                </g>
                <g id="Group-Copy-3" transform="translate(0.000000, 38.000000)">
                    <rect id="9" x="0" y="28" width="31" height="1"></rect>
                    <rect id="8" opacity="0.6" x="0" y="31" width="11" height="1"></rect>
                    <rect id="7" opacity="0.2" x="0" y="0" width="31" height="26" rx="1"></rect>
                    <path d="M0,1.00329963 C0,0.449192547 0.438225746,0 0.996315107,0 L30.0036849,0 C30.5539345,0 31,0.451278687 31,1.00329963 L31,24.9967004 C31,25.5508075 30.5617743,26 30.0036849,26 L0.996315107,26 C0.446065467,26 0,25.5487213 0,24.9967004 L0,1.00329963 Z M1,1 L30,1 L30,25 L1,25 L1,1 Z" id="Combined-Shape"></path>
                </g>
                <g id="Group-Copy-2" transform="translate(37.000000, 38.000000)">
                    <rect id="1" x="0" y="28" width="31" height="1"></rect>
                    <rect id="2" opacity="0.6" x="0" y="31" width="12" height="1"></rect>
                    <rect id="3" opacity="0.2" x="0" y="0" width="31" height="26" rx="1"></rect>
                    <path d="M0,1.00329963 C0,0.449192547 0.438225746,0 0.996315107,0 L30.0036849,0 C30.5539345,0 31,0.451278687 31,1.00329963 L31,24.9967004 C31,25.5508075 30.5617743,26 30.0036849,26 L0.996315107,26 C0.446065467,26 0,25.5487213 0,24.9967004 L0,1.00329963 Z M1,1 L30,1 L30,25 L1,25 L1,1 Z" id="Combined-Shape"></path>
                </g>
            </g>
        </g>
    </g>
</svg>