<?xml version="1.0" encoding="UTF-8" standalone="no"?>
<svg width="80px" height="80px" viewBox="0 0 80 80" version="1.1" xmlns="http://www.w3.org/2000/svg" xmlns:xlink="http://www.w3.org/1999/xlink">
    <!-- Generator: Sketch 3.8.3 (29802) - http://www.bohemiancoding.com/sketch -->
    <title>80_list</title>
    <desc>Created with Sketch.</desc>
    <defs></defs>
    <g id="Page-3" stroke="none" stroke-width="1" fill="none" fill-rule="evenodd">
        <g id="Artboard-7" transform="translate(-82.000000, -93.000000)" fill="#000000">
            <g id="list" transform="translate(88.000000, 99.000000)">
                <g id="Group">
                    <rect id="Combined-Shape" x="23" y="7" width="45" height="1"></rect>
                    <rect id="Combined-Shape-Copy" opacity="0.6" x="23" y="10" width="25" height="1"></rect>
                    <rect id="Combined-Shape-Copy-2" opacity="0.2" x="0" y="0" width="18" height="18" rx="1"></rect>
                    <path d="M0,0.993397683 C0,0.444759292 0.444946289,0 0.993397683,0 L17.0066023,0 C17.5552407,0 18,0.444946289 18,0.993397683 L18,17.0066023 C18,17.5552407 17.5550537,18 17.0066023,18 L0.993397683,18 C0.444759292,18 0,17.5550537 0,17.0066023 L0,0.993397683 Z M1,1 L17,1 L17,17 L1,17 L1,1 Z" id="Combined-Shape"></path>
                </g>
                <g id="Group-Copy" transform="translate(0.000000, 25.000000)">
                    <rect id="Combined-Shape" x="23" y="7" width="45" height="1"></rect>
                    <rect id="Combined-Shape-Copy" opacity="0.6" x="23" y="10" width="25" height="1"></rect>
                    <rect id="Combined-Shape-Copy-2" opacity="0.2" x="0" y="0" width="18" height="18" rx="1"></rect>
                    <path d="M0,0.993397683 C0,0.444759292 0.444946289,0 0.993397683,0 L17.0066023,0 C17.5552407,0 18,0.444946289 18,0.993397683 L18,17.0066023 C18,17.5552407 17.5550537,18 17.0066023,18 L0.993397683,18 C0.444759292,18 0,17.5550537 0,17.0066023 L0,0.993397683 Z M1,1 L17,1 L17,17 L1,17 L1,1 Z" id="Combined-Shape"></path>
                </g>
                <g id="Group-Copy-7" transform="translate(0.000000, 50.000000)">
                    <rect id="Combined-Shape" x="23" y="8" width="45" height="1"></rect>
                    <rect id="Combined-Shape-Copy" opacity="0.6" x="23" y="11" width="25" height="1"></rect>
                    <rect id="Combined-Shape-Copy-2" opacity="0.2" x="0" y="0" width="18" height="18" rx="1"></rect>
                    <path d="M0,0.993397683 C0,0.444759292 0.444946289,0 0.993397683,0 L17.0066023,0 C17.5552407,0 18,0.444946289 18,0.993397683 L18,17.0066023 C18,17.5552407 17.5550537,18 17.0066023,18 L0.993397683,18 C0.444759292,18 0,17.5550537 0,17.0066023 L0,0.993397683 Z M1,1 L17,1 L17,17 L1,17 L1,1 Z" id="Combined-Shape"></path>
                </g>
            </g>
        </g>
    </g>
</svg>