<?xml version="1.0" encoding="UTF-8" standalone="no"?>
<svg width="80px" height="80px" viewBox="0 0 80 80" version="1.1" xmlns="http://www.w3.org/2000/svg" xmlns:xlink="http://www.w3.org/1999/xlink">
    <!-- Generator: Sketch 3.8.3 (29802) - http://www.bohemiancoding.com/sketch -->
    <title>80_moodboard</title>
    <desc>Created with Sketch.</desc>
    <defs></defs>
    <g id="Page-3" stroke="none" stroke-width="1" fill="none" fill-rule="evenodd">
        <g id="Artboard-7" transform="translate(-472.000000, -93.000000)" fill="#000000">
            <g id="view_masonry" transform="translate(478.000000, 99.000000)">
                <g id="Group">
                    <rect id="Rectangle-1210" opacity="0.2" x="0" y="0" width="32" height="30" rx="1"></rect>
                    <path d="M0,0.998153687 C0,0.446888627 0.452362061,0 0.992786407,0 L31.0072136,0 C31.5555144,0 32,0.447365195 32,0.998153687 L32,29.0018463 C32,29.5531114 31.5476379,30 31.0072136,30 L0.992786407,30 C0.444485615,30 0,29.5526348 0,29.0018463 L0,0.998153687 Z M1,1 L31,1 L31,29 L1,29 L1,1 Z" id="Combined-Shape"></path>
                </g>
                <g id="Group-Copy" transform="translate(36.000000, 0.000000)">
                    <rect id="Rectangle-1210" opacity="0.2" x="0" y="0" width="32" height="10" rx="1"></rect>
                    <path d="M0,0.995397568 C0,0.445654671 0.452362061,0 0.992786407,0 L31.0072136,0 C31.5555144,0 32,0.455664396 32,0.995397568 L32,9.00460243 C32,9.55434533 31.5476379,10 31.0072136,10 L0.992786407,10 C0.444485615,10 0,9.5443356 0,9.00460243 L0,0.995397568 Z M1,1 L31,1 L31,9 L1,9 L1,1 Z" id="Combined-Shape"></path>
                </g>
                <g id="Group-Copy-3" transform="translate(0.000000, 34.000000)">
                    <rect id="Rectangle-1210" opacity="0.2" x="0" y="0" width="32" height="20" rx="1"></rect>
                    <path d="M0,0.99180311 C0,0.444045377 0.452362061,0 0.992786407,0 L31.0072136,0 C31.5555144,0 32,0.455305576 32,0.99180311 L32,19.0081969 C32,19.5559546 31.5476379,20 31.0072136,20 L0.992786407,20 C0.444485615,20 0,19.5446944 0,19.0081969 L0,0.99180311 Z M1,1 L31,1 L31,19 L1,19 L1,1 Z" id="Combined-Shape"></path>
                </g>
                <g id="Group-Copy-2" transform="translate(36.000000, 14.000000)">
                    <rect id="Rectangle-1210" opacity="0.2" x="0" y="0" width="32" height="20" rx="1"></rect>
                    <path d="M0,0.99180311 C0,0.444045377 0.452362061,0 0.992786407,0 L31.0072136,0 C31.5555144,0 32,0.455305576 32,0.99180311 L32,19.0081969 C32,19.5559546 31.5476379,20 31.0072136,20 L0.992786407,20 C0.444485615,20 0,19.5446944 0,19.0081969 L0,0.99180311 Z M1,1 L31,1 L31,19 L1,19 L1,1 Z" id="Combined-Shape"></path>
                </g>
                <g id="Group-Copy-5" transform="translate(0.000000, 58.000000)">
                    <rect id="Rectangle-1210" opacity="0.2" x="0" y="0" width="32" height="15" rx="1"></rect>
                    <path d="M0,1.00087166 C0,0.448105505 0.452362061,0 0.992786407,0 L31.0072136,0 C31.5555144,0 32,0.444630861 32,1.00087166 L32,14.9991283 C32,15.5518945 31.5476379,16 31.0072136,16 L0.992786407,16 C0.444485615,16 0,15.5553691 0,14.9991283 L0,1.00087166 Z M1,1 L31,1 L31,15 L1,15 L1,1 Z" id="Combined-Shape"></path>
                </g>
                <g id="Group-Copy-4" transform="translate(36.000000, 38.000000)">
                    <rect id="Rectangle-1210" opacity="0.2" x="0" y="0" width="32" height="35" rx="1"></rect>
                    <path d="M0,1.00041944 C0,0.447903039 0.452362061,0 0.992786407,0 L31.0072136,0 C31.5555144,0 32,0.455173016 32,1.00041944 L32,34.9995806 C32,35.552097 31.5476379,36 31.0072136,36 L0.992786407,36 C0.444485615,36 0,35.544827 0,34.9995806 L0,1.00041944 Z M1,1 L31,1 L31,35 L1,35 L1,1 Z" id="Combined-Shape"></path>
                </g>
            </g>
        </g>
    </g>
</svg>