<?xml version="1.0" encoding="UTF-8" standalone="no"?>
<svg width="80px" height="80px" viewBox="0 0 80 80" version="1.1" xmlns="http://www.w3.org/2000/svg" xmlns:xlink="http://www.w3.org/1999/xlink">
    <!-- Generator: Sketch 3.8.3 (29802) - http://www.bohemiancoding.com/sketch -->
    <title>80_simple</title>
    <desc>Created with Sketch.</desc>
    <defs>
        <path d="M0,5 C0,2.23857625 2.24419519,0 5,0 C7.76142375,0 10,2.24419519 10,5 C10,7.76142375 7.75580481,10 5,10 C2.23857625,10 0,7.75580481 0,5 Z M1,5 C1,2.790861 2.79535615,1 5,1 C7.209139,1 9,2.79535615 9,5 C9,7.209139 7.20464385,9 5,9 C2.790861,9 1,7.20464385 1,5 Z" id="path-1"></path>
        <path d="M0,5 C0,2.23857625 2.24419519,0 5,0 C7.76142375,0 10,2.24419519 10,5 C10,7.76142375 7.75580481,10 5,10 C2.23857625,10 0,7.75580481 0,5 Z M1,5 C1,2.790861 2.79535615,1 5,1 C7.209139,1 9,2.79535615 9,5 C9,7.209139 7.20464385,9 5,9 C2.790861,9 1,7.20464385 1,5 Z" id="path-3"></path>
        <path d="M0,5 C0,2.23857625 2.24419519,0 5,0 C7.76142375,0 10,2.24419519 10,5 C10,7.76142375 7.75580481,10 5,10 C2.23857625,10 0,7.75580481 0,5 Z M1,5 C1,2.790861 2.79535615,1 5,1 C7.209139,1 9,2.79535615 9,5 C9,7.209139 7.20464385,9 5,9 C2.790861,9 1,7.20464385 1,5 Z" id="path-5"></path>
        <path d="M0,5 C0,2.23857625 2.24419519,0 5,0 C7.76142375,0 10,2.24419519 10,5 C10,7.76142375 7.75580481,10 5,10 C2.23857625,10 0,7.75580481 0,5 Z M1,5 C1,2.790861 2.79535615,1 5,1 C7.209139,1 9,2.79535615 9,5 C9,7.209139 7.20464385,9 5,9 C2.790861,9 1,7.20464385 1,5 Z" id="path-7"></path>
    </defs>
    <g id="Page-3" stroke="none" stroke-width="1" fill="none" fill-rule="evenodd">
        <g id="Artboard-7" transform="translate(-212.000000, -93.000000)">
            <g id="view_simple" transform="translate(219.000000, 101.000000)">
                <g id="Group">
                    <rect id="Rectangle-1212" fill="#000000" x="17" y="5" width="50" height="1"></rect>
                    <rect id="Rectangle-1210" fill="#000000" opacity="0.2" x="0" y="0" width="10" height="10" rx="5"></rect>
                    <mask id="mask-2" fill="white">
                        <use xlink:href="#path-1"></use>
                    </mask>
                    <use id="Combined-Shape" fill="#000000" xlink:href="#path-1"></use>
                </g>
                <g id="Group-Copy" transform="translate(0.000000, 18.000000)">
                    <rect id="Rectangle-1212" fill="#000000" x="17" y="4" width="25" height="1"></rect>
                    <rect id="Rectangle-1210" fill="#000000" opacity="0.2" x="0" y="0" width="10" height="10" rx="5"></rect>
                    <mask id="mask-4" fill="white">
                        <use xlink:href="#path-3"></use>
                    </mask>
                    <use id="Combined-Shape" fill="#000000" xlink:href="#path-3"></use>
                </g>
                <g id="Group-Copy-7" transform="translate(0.000000, 36.000000)">
                    <rect id="Rectangle-1212" fill="#000000" x="17" y="5" width="50" height="1"></rect>
                    <rect id="Rectangle-1210" fill="#000000" opacity="0.2" x="0" y="0" width="10" height="10" rx="5"></rect>
                    <mask id="mask-6" fill="white">
                        <use xlink:href="#path-5"></use>
                    </mask>
                    <use id="Combined-Shape" fill="#000000" xlink:href="#path-5"></use>
                </g>
                <g id="Group-Copy-8" transform="translate(0.000000, 54.000000)">
                    <rect id="Rectangle-1212" fill="#000000" x="17" y="5" width="25" height="1"></rect>
                    <rect id="Rectangle-1210" fill="#000000" opacity="0.2" x="0" y="0" width="10" height="10" rx="5"></rect>
                    <mask id="mask-8" fill="white">
                        <use xlink:href="#path-7"></use>
                    </mask>
                    <use id="Combined-Shape" fill="#000000" xlink:href="#path-7"></use>
                </g>
            </g>
        </g>
    </g>
</svg>