<?xml version="1.0" encoding="UTF-8" standalone="no"?>
<svg width="20px" height="20px" viewBox="0 0 20 20" version="1.1" xmlns="http://www.w3.org/2000/svg" xmlns:xlink="http://www.w3.org/1999/xlink">
    <!-- Generator: Sketch 3.8.3 (29802) - http://www.bohemiancoding.com/sketch -->
    <title>apple</title>
    <desc>Created with Sketch.</desc>
    <defs></defs>
    <g id="Page-3" stroke="none" stroke-width="1" fill="none" fill-rule="evenodd">
        <g id="Artboard-10" transform="translate(-74.000000, -10.000000)" fill="#000000">
            <path d="M86.3619011,13.710213 C87.1211558,12.7884822 87.5341981,11.5960625 87.4099746,10.4638991 L87.3590746,10 L86.8927719,10.0188405 C85.8452074,10.0611664 84.6200432,10.6914489 83.8810006,11.5565073 C83.1233891,12.4349857 82.6661716,13.6402214 82.8101732,14.7320082 L82.8631694,15.1338127 L83.2672419,15.1651316 C84.3908115,15.2522174 85.5828171,14.650911 86.3610544,13.711238 L86.3619011,13.710213 Z M88.7424914,20.5598726 C88.7336033,19.6664732 89.0510555,18.9178437 89.5925925,18.2963011 C89.7738874,18.088222 89.9682906,17.9091992 90.1645503,17.7582879 C90.2834227,17.6668825 90.3746419,17.6063049 90.4604063,17.5539182 L90.8863608,17.2742698 L90.598705,16.8536814 C89.650682,15.4675544 88.2682584,14.9092403 86.9145013,14.8535023 C86.2106604,14.7811091 85.5409741,14.9338863 84.6106215,15.2920085 C83.561151,15.6959829 83.6114488,15.6784738 83.4474704,15.6784738 C83.2610614,15.6784738 83.1608151,15.6445989 82.3338171,15.3206914 C81.5673447,15.0204896 81.0512729,14.8842315 80.4689176,14.8944997 C78.7700915,14.9197077 77.1971854,15.8769046 76.3200995,17.402626 C74.7973846,20.0441268 75.5278934,24.181336 77.483212,27.0065588 C78.7201562,28.7934554 79.5228298,29.5452901 80.7546712,29.498439 C81.2440616,29.4791276 81.5964242,29.3783783 82.1350362,29.150482 C82.2054642,29.1205689 82.2054642,29.1205689 82.2742453,29.0912496 C82.849141,28.8466806 83.1672805,28.7612134 83.6849177,28.7612134 C84.1733579,28.7612134 84.4745197,28.8432175 85.0179478,29.0778017 C85.0869755,29.1076654 85.0869755,29.1076654 85.1578482,29.1382029 C85.7332687,29.3850897 86.1171306,29.486155 86.6664033,29.4756594 C87.9206939,29.4528339 88.6364235,28.7837469 89.8234624,27.0477749 C90.2245364,26.4614598 90.5512622,25.8440502 90.8122146,25.2277025 C90.9046508,25.009376 90.9826157,24.8055651 91.0481162,24.617426 C91.0871682,24.5052557 91.1162991,24.4145541 91.130817,24.3666682 L91.2758423,23.9415942 L90.8687034,23.7519679 C90.7791393,23.7160332 90.6688166,23.6647361 90.521031,23.5801876 C90.2731196,23.4383569 90.0252389,23.2589823 89.7945844,23.0396991 C89.142508,22.41977 88.751944,21.60965 88.7424959,20.5603448 L88.7424914,20.5598726 Z" id="Combined-Shape" opacity="0.119999997"></path>
            <path d="M89.5925925,18.2963011 C89.7738874,18.088222 89.9682906,17.9091992 90.1645503,17.7582879 C90.2834227,17.6668825 90.3746419,17.6063049 90.4604063,17.5539182 L90.8863608,17.2742698 L90.598705,16.8536814 C89.650682,15.4675544 88.4973149,15 86.9145013,15 C85.8806157,15 85.5409741,14.9338863 84.6106215,15.2920085 C83.561151,15.6959829 83.6114488,15.6784738 83.4474704,15.6784738 C83.2610614,15.6784738 83.1608151,15.6445989 82.3338171,15.3206914 C81.5673447,15.0204896 81.5368652,15 80.4689176,15 C78.7678383,15 77.1971854,15.8769046 76.3200995,17.402626 C74.7973846,20.0441268 75.5278934,24.181336 77.483212,27.0065588 C78.7201562,28.7934554 79.5228298,29.5452901 80.7546712,29.498439 C81.2440616,29.4791276 81.5964242,29.3783783 82.1350362,29.150482 C82.2054642,29.1205689 82.2054642,29.1205689 82.2742453,29.0912496 C82.849141,28.8466806 83.1672805,28.7612134 83.6849177,28.7612134 C84.1733579,28.7612134 84.4745197,28.8432175 85.0179478,29.0778017 C85.0869755,29.1076654 85.0869755,29.1076654 85.1578482,29.1382029 C85.7332687,29.3850897 86.1171306,29.486155 86.6664033,29.4756594 C87.9206939,29.4528339 88.6364235,28.7837469 89.8234624,27.0477749 C90.2245364,26.4614598 90.5512622,25.8440502 90.8122146,25.2277025 C90.9046508,25.009376 90.9826157,24.8055651 91.0481162,24.617426 C91.0871682,24.5052557 91.1162991,24.4145541 91.130817,24.3666682 L91.2758423,23.9415942 L90.8687034,23.7519679 C90.7791393,23.7160332 90.6688166,23.6647361 90.521031,23.5801876 C90.2731196,23.4383569 90.0252389,23.2589823 89.7945844,23.0396991 C89.142508,22.41977 88.751944,21.60965 88.7424959,20.5603448 C88.7336033,19.6664732 89.0510555,18.9178437 89.5925925,18.2963011 Z M87.7425364,20.5693486 C87.7545623,21.9049394 88.2664344,22.9666805 89.1055683,23.7644451 C89.3979976,24.0424577 89.7103142,24.2684601 90.0244512,24.4481787 C90.2150061,24.5571956 90.370105,24.6293124 90.4464978,24.658468 L90.6576006,24.2052179 L90.1843841,24.0437676 C90.1619724,24.1154515 90.1377462,24.1908817 90.1037142,24.2886331 C90.0451478,24.4568551 89.9749415,24.640384 89.8913493,24.8378218 C89.6548499,25.3964133 89.3587471,25.955955 88.9980449,26.4832521 C87.9946675,27.9506304 87.4484388,28.4612625 86.6477534,28.4758334 C86.2670116,28.4831085 86.008652,28.4150862 85.5521426,28.2192187 C85.4844361,28.1900451 85.4844361,28.1900451 85.414273,28.1596915 C84.7567751,27.8758662 84.3357101,27.7612134 83.6849177,27.7612134 C83.007035,27.7612134 82.570522,27.8784813 81.8827815,28.1710561 C81.8129733,28.2008122 81.8129733,28.2008122 81.7453643,28.2295282 C81.3081882,28.4145052 81.0594152,28.4856357 80.715953,28.4991891 C79.9766376,28.5273072 79.3381505,27.9292599 78.3054603,26.4374298 C76.5484696,23.8987694 75.8874999,20.1553915 77.1867577,17.9015281 C77.8911091,16.6762849 79.1432675,15.91428 80.4851514,15.8943669 C80.9029811,15.8870016 81.3163022,15.9961306 81.9691252,16.2518196 C82.9941392,16.6532835 83.0686853,16.6784738 83.4474704,16.6784738 C83.6687621,16.6784738 83.9015753,16.6243701 84.2028891,16.5194802 C84.3724201,16.460465 85.1371081,16.1608752 84.9698577,16.2252551 C85.764892,15.9192213 86.3055144,15.7958878 86.843409,15.8505199 C87.9424271,15.8966722 89.0342336,16.3376158 89.7732924,17.4182113 L90.1859987,17.1359463 L89.9115911,16.7179745 C89.8300887,16.7670312 89.7059419,16.8494757 89.5549859,16.9655513 C89.3086844,17.1549416 89.0659848,17.3784399 88.8386271,17.6393869 C88.145744,18.4346352 87.7310284,19.4126353 87.7425409,20.5698208 L87.7425364,20.5693486 Z M87.4099746,10.4638991 L87.3590746,10 L86.8927719,10.0188405 C85.8452074,10.0611664 84.6200432,10.6914489 83.8810006,11.5565073 C83.1233891,12.4349857 82.6661716,13.6402214 82.8101732,14.7320082 L82.8631694,15 L83.2672419,15 C84.5073243,15 85.5828171,14.650911 86.3610544,13.711238 C87.1211558,12.7884822 87.5341981,11.5960625 87.4099746,10.4638991 Z M85.5908924,13.000423 C85.0065244,13.7060109 84.116488,14.1549891 83.3445182,14.0951552 L83.8015869,14.5282786 C83.6988034,13.7489977 84.0530296,12.8152491 84.6397994,12.1348616 C85.2046328,11.4737255 86.172536,10.9757901 86.933143,10.9450585 L86.4159403,10.5 C86.5088717,11.34697 86.1866643,12.2771566 85.5900458,13.0014481 L85.5908924,13.000423 Z" id="Combined-Shape"></path>
        </g>
    </g>
</svg>