<?xml version="1.0" encoding="UTF-8"?>
<svg width="20px" height="20px" viewBox="0 0 20 20" version="1.1" xmlns="http://www.w3.org/2000/svg" xmlns:xlink="http://www.w3.org/1999/xlink">
    <!-- Generator: Sketch 44.1 (41455) - http://www.bohemiancoding.com/sketch -->
    <title>broken</title>
    <desc>Created with Sketch.</desc>
    <defs></defs>
    <g id="Page-1" stroke="none" stroke-width="1" fill="none" fill-rule="evenodd">
        <polygon id="Rectangle-2" fill="#000000" opacity="0.200000003" points="3 11 5.52197266 10 9.57592773 12 13.5734863 10 16 11 16 17 3 17"></polygon>
        <path d="M16,7.83380025 L16,2 L3,2 L3,7.83380025 L5.47429337,5.81650647 L9.5,8.83578644 L13.5257066,5.81650647 L16,7.83380025 Z M17,9.93933983 L13.5,7.08578644 L9.5,10.0857864 L5.5,7.08578644 L2,9.93933983 L2,2 C2,1.44771525 2.44771525,1 3,1 L16,1 C16.5522847,1 17,1.44771525 17,2 L17,9.93933983 Z M13.4995821,10.164527 L9.5,13.1642136 L5.50118409,10.1651016 L3,12.048399 L3,17 L16,17 L16,12.0424537 L13.4995821,10.164527 Z M17,17 C17,17.5522847 16.5522847,18 16,18 L3,18 C2.44771525,18 2,17.5522847 2,17 L2,11.5495817 L5.5,8.91421356 L9.5,11.9142136 L13.5,8.91421356 L17,11.5428715 L17,17 Z" id="Rectangle" fill="#000000" fill-rule="nonzero"></path>
    </g>
</svg>