<svg xmlns="http://www.w3.org/2000/svg" width="20" height="20" viewBox="0 0 20 20">
  <g fill="none" fill-rule="evenodd">
    <path fill="#000" fill-rule="nonzero" d="M5,18 C2.23857626,18 0,15.7614237 0,13 C0,10.5630001 1.7434793,8.53321166 4.05116048,8.08991202 C4.43338962,4.65307902 6.95112632,2 10,2 C13.3137085,2 16,5.13400676 16,9 C16,9.34092046 15.9791101,9.67614864 15.9387421,10.0040373 L16,10 C18.209139,10 20,11.790861 20,14 C20,16.209139 18.209139,18 16,18 L5,18 Z" opacity=".15"/>
    <path fill="#000" fill-rule="nonzero" d="M17.2708248,3.62629523 L18.0182348,4.29065923 C18.2234871,4.47310557 18.2431787,4.78694503 18.0623413,4.9936163 L11.0597573,13.9965463 L10.7443833,14.3513413 C10.5676216,14.5501979 10.2660907,14.5758006 10.0583316,14.4095935 L9.64644661,14.0761694 L6.64644661,11.0761694 C6.46629359,10.8960164 6.45040915,10.6092135 6.60956599,10.410268 L7.23426199,9.62939999 C7.42042477,9.3966971 7.76752775,9.37747297 7.97824939,9.58819461 L10.2616303,11.8715755 L16.5623547,3.6707477 C16.745201,3.46178048 17.0632923,3.44182206 17.2708248,3.62629523 Z"/>
  </g>
</svg>
