<svg xmlns="http://www.w3.org/2000/svg" width="20" height="20" viewBox="0 0 20 20">
  <g fill="none" fill-rule="evenodd">
    <path fill="#000" fill-rule="nonzero" d="M5,18 C2.23857626,18 0,15.7614237 0,13 C0,10.5630001 1.7434793,8.53321166 4.05116048,8.08991202 C4.43338962,4.65307902 6.95112632,2 10,2 C13.3137085,2 16,5.13400676 16,9 C16,9.34092046 15.9791101,9.67614864 15.9387421,10.0040373 L16,10 C18.209139,10 20,11.790861 20,14 C20,16.209139 18.209139,18 16,18 L5,18 Z" opacity=".15"/>
    <path fill="#000" fill-rule="nonzero" d="M6.464466,13.535534 C7.369288,14.440356 8.619288,15 10,15 C12.418958,15 14.436712,13.28224 14.899982,11 L13.873983,11 C13.42994,12.725227 11.863839,14 10,14 C8.895431,14 7.895431,13.552285 7.171573,12.828427 L9,11 L5,11 L5,15 L6.464466,13.535534 Z M5.100018,9 C5.563288,6.71776 7.581042,5 10,5 C11.380712,5 12.630712,5.559644 13.535534,6.464466 L15,5 L14.993355,9 L14.946669,9 L12.436991,9 L11,9 L12.828427,7.171573 C12.104569,6.447715 11.104569,6 10,6 C8.136161,6 6.57006,7.274773 6.126017,9 L5.100018,9 Z"/>
  </g>
</svg>
