<?xml version="1.0" encoding="UTF-8" standalone="no"?>
<svg width="20px" height="20px" viewBox="0 0 20 20" version="1.1" xmlns="http://www.w3.org/2000/svg" xmlns:xlink="http://www.w3.org/1999/xlink">
    <!-- Generator: Sketch 3.8.3 (29802) - http://www.bohemiancoding.com/sketch -->
    <title>cloud</title>
    <desc>Created with Sketch.</desc>
    <defs></defs>
    <g id="Page-3" stroke="none" stroke-width="1" fill="none" fill-rule="evenodd">
        <g id="Icons" transform="translate(-17.000000, -46.000000)" fill="#000000">
            <path d="M33.25,54.25 L33.25,54.25 L33.25,55.5 C35.3175,55.5 37,57.1825 37,59.25 C37,61.3175 35.3175,63 33.25,63 L22,63 C19.2425,63 17,60.7575 17,58 C17,55.63625 18.65375,53.66125 20.8625,53.1425 C21.3875,50.225 23.9325,48 27,48 C30.44625,48 33.25,50.80375 33.25,54.25 L33.25,54.25 Z" id="Mask-Copy-3" opacity="0.119999997"></path>
            <path d="M36.8645989,58.25 C36.9528365,58.5684814 37,58.9038446 37,59.25 C37,61.3175 35.3175,63 33.25,63 L22,63 C19.2425,63 17,60.7575 17,58 C17,57.6578178 17.0346562,57.3237824 17.1006355,57.0011321 C17.5654714,59.2803624 19.5852745,61 22,61 L33.25,61 C34.9713446,61 36.4258157,59.8337285 36.8645989,58.25 Z" id="Combined-Shape" opacity="0.15"></path>
            <path d="M32.25,54.25 L32.25,54.25 C32.25,51.3560347 29.8939653,49 27,49 C24.4581265,49 22.2934668,50.8368131 21.8466921,53.319604 L21.7303967,53.9658744 L21.0911401,54.116011 C19.2941131,54.5380632 18,56.1409687 18,58 C18,60.2052153 19.7947847,62 22,62 L33.25,62 C34.7652153,62 36,60.7652153 36,59.25 C36,57.7347847 34.7652153,56.5 33.25,56.5 L32.25,56.5 L32.25,55.5 L32.25,54.25 Z M33.25,54.25 L33.25,54.25 L33.25,55.5 C35.3175,55.5 37,57.1825 37,59.25 C37,61.3175 35.3175,63 33.25,63 L22,63 C19.2425,63 17,60.7575 17,58 C17,55.63625 18.65375,53.66125 20.8625,53.1425 C21.3875,50.225 23.9325,48 27,48 C30.44625,48 33.25,50.80375 33.25,54.25 L33.25,54.25 Z" id="Mask-Copy"></path>
        </g>
    </g>
</svg>