<svg xmlns="http://www.w3.org/2000/svg" width="20" height="20" viewBox="0 0 20 20">
  <g fill="none" fill-rule="evenodd">
    <polygon fill="#000" points="7 4 16 4 16 13 13 13 12 8 7 7" opacity=".1"/>
    <path fill="#000" fill-rule="nonzero" d="M16,3 C16.5522847,3 17,3.44771525 17,4 L17,13 C17,13.5522847 16.5522847,14 16,14 L14,14 L14,16 C14,16.5522847 13.5522847,17 13,17 L4,17 C3.44771525,17 3,16.5522847 3,16 L3,7 C3,6.44771525 3.44771525,6 4,6 L6,6 L6,4 C6,3.44771525 6.44771525,3 7,3 L16,3 Z M13,7 L4,7 L4,16 L13,16 L13,7 Z M16,4 L7,4 L7,6 L13,6 C13.5522847,6 14,6.44771525 14,7 L14,13 L16,13 L16,4 Z M11,11 L11,12 L6,12 L6,11 L11,11 Z"/>
  </g>
</svg>
