<?xml version="1.0" encoding="UTF-8" standalone="no"?>
<svg width="20px" height="20px" viewBox="0 0 20 20" version="1.1" xmlns="http://www.w3.org/2000/svg" xmlns:xlink="http://www.w3.org/1999/xlink">
    <!-- Generator: Sketch 3.8.3 (29802) - http://www.bohemiancoding.com/sketch -->
    <title>default_collection</title>
    <desc>Created with Sketch.</desc>
    <defs></defs>
    <g id="Page-3" stroke="none" stroke-width="1" fill="none" fill-rule="evenodd">
        <g id="Icons" transform="translate(-77.000000, -46.000000)" fill="#000000">
            <g id="Group" transform="translate(78.000000, 48.000000)">
                <polygon id="Shape" opacity="0.119999997" points="1 5 17 5 17 15 1 15"></polygon>
                <polygon id="Shape-Copy-9" opacity="0.119999997" points="1 14 17 14 17 15 1 15"></polygon>
                <path d="M0,14.5 C0,15.32 0.67,16 1.5,16 L16.5,16 C17.33,16 18,15.32 18,14.5 L18,3.5 C18,2.67 17.33,2 16.5,2 L7.5,2 L7.85,2.15 L5.85,0.15 L5.7,0 L1.5,0 C0.67,0 0,0.67 0,1.5 L0,5.5 L0,14.5 Z M17,5 L17,15 L1,15 L1,5 L17,5 Z M5.5,1 L5.15,0.85 L7.15,2.85 L7.3,3 L16.5,3 C16.78,3 17,3.22 17,3.5 L17,4 L1,4 L1,1.5 C1,1.22 1.22,1 1.5,1 L5.5,1 Z" id="Shape"></path>
            </g>
        </g>
    </g>
</svg>