<?xml version="1.0" encoding="UTF-8" standalone="no"?>
<svg width="20px" height="20px" viewBox="0 0 20 20" version="1.1" xmlns="http://www.w3.org/2000/svg" xmlns:xlink="http://www.w3.org/1999/xlink">
    <!-- Generator: Sketch 3.8.3 (29802) - http://www.bohemiancoding.com/sketch -->
    <title>diamond_active</title>
    <desc>Created with Sketch.</desc>
    <defs></defs>
    <g id="Page-3" stroke="none" stroke-width="1" fill="none" fill-rule="evenodd">
        <g id="Artboard-10" transform="translate(-224.000000, -10.000000)" fill="#000000">
            <path d="M234.084177,12 L233.915823,12 L230.454284,17 L237.545716,17 L234.084177,12 Z M235.300438,12 L238.004602,12 C238.554345,12 239.283148,12.3397772 239.643427,12.7721119 L242.725352,16.4704221 C242.859999,16.6319993 242.966608,16.8108873 243.045532,17 L238.761976,17 L235.300438,12 Z M232.699562,12 L229.995398,12 C229.455664,12 228.711928,12.3456863 228.356573,12.7721119 L225.274648,16.4704221 C225.14022,16.6317355 225.033716,16.8106573 224.954863,17 L229.238024,17 L232.699562,12 Z M235.252587,26.7314288 C235.30747,26.6871111 235.360547,26.6394531 235.411546,26.5884537 L242.588454,19.4115463 C242.96934,19.0306603 243.178807,18.5205974 243.210944,18 L237.872015,18 L235.252587,26.7314288 Z M234.076611,27.1712458 C234.025555,27.1731886 233.97444,27.173185 233.923386,27.1712354 L231.172015,18 L236.827985,18 L234.076611,27.1712458 Z M224.789774,18 C224.821762,18.5203093 225.030511,19.0305108 225.411546,19.4115463 L232.588454,26.5884537 C232.639441,26.6394414 232.692517,26.6870944 232.747408,26.7314115 L230.127985,18 L224.789774,18 Z" id="Combined-Shape"></path>
        </g>
    </g>
</svg>