<?xml version="1.0" encoding="UTF-8" standalone="no"?>
<svg width="20px" height="20px" viewBox="0 0 20 20" version="1.1" xmlns="http://www.w3.org/2000/svg" xmlns:xlink="http://www.w3.org/1999/xlink">
    <!-- Generator: Sketch 3.8.3 (29802) - http://www.bohemiancoding.com/sketch -->
    <title>duplicates</title>
    <desc>Created with Sketch.</desc>
    <defs></defs>
    <g id="Page-3" stroke="none" stroke-width="1" fill="none" fill-rule="evenodd">
        <g id="Icons" transform="translate(-650.000000, -46.000000)" fill="#000000">
            <path d="M656,60 L669,60 L669,64.0001925 C669,64.5523709 668.552511,65 668.001498,65 L656.998502,65 C656.447045,65 656,64.5562834 656,64.0001925 L656,60 Z M663,52 L668.009222,52 C668.556414,52 669,52.4530363 669,52.9970301 L669,60 L663,60 L663,52 Z" id="Combined-Shape" opacity="0.119999997"></path>
            <path d="M656,64 L657,64 L657,65 L656.5,65 C656.223858,65 656,64.7680664 656,64.5 L656,64 Z M656,62 L657,62 L657,63 L656,63 L656,62 Z M656,60 L657,60 L657,61 L656,61 L656,60 Z M658,64 L659,64 L659,65 L658,65 L658,64 Z M660,64 L661,64 L661,65 L660,65 L660,64 Z M662,64 L663,64 L663,65 L662,65 L662,64 Z M664,64 L665,64 L665,65 L664,65 L664,64 Z M666,64 L667,64 L667,65 L666,65 L666,64 Z M668,64 L669,64 L669,64.5 C669,64.7761424 668.768066,65 668.5,65 L668,65 L668,64 Z M668,62 L669,62 L669,63 L668,63 L668,62 Z M668,60 L669,60 L669,61 L668,61 L668,60 Z M668,58 L669,58 L669,59 L668,59 L668,58 Z M668,56 L669,56 L669,57 L668,57 L668,56 Z M668,54 L669,54 L669,55 L668,55 L668,54 Z M668,52 L668.5,52 C668.776142,52 669,52.2319336 669,52.5 L669,53 L668,53 L668,52 Z M666,52 L667,52 L667,53 L666,53 L666,52 Z M664,52 L665,52 L665,53 L664,53 L664,52 Z" id="Combined-Shape"></path>
            <path d="M651,47.9985023 C651,47.4470447 651.447489,47 651.998502,47 L663.001498,47 C663.552955,47 664,47.4474894 664,47.9985023 L664,59.0014977 C664,59.5529553 663.552511,60 663.001498,60 L651.998502,60 C651.447045,60 651,59.5525106 651,59.0014977 L651,47.9985023 Z M652,48 L663,48 L663,59 L652,59 L652,48 Z" id="Combined-Shape"></path>
        </g>
    </g>
</svg>