<?xml version="1.0" encoding="UTF-8" standalone="no"?>
<svg width="20px" height="20px" viewBox="0 0 20 20" version="1.1" xmlns="http://www.w3.org/2000/svg" xmlns:xlink="http://www.w3.org/1999/xlink">
    <!-- Generator: Sketch 3.8.3 (29802) - http://www.bohemiancoding.com/sketch -->
    <title>duplicates_active</title>
    <desc>Created with Sketch.</desc>
    <defs></defs>
    <g id="Page-3" stroke="none" stroke-width="1" fill="none" fill-rule="evenodd">
        <g id="Icons" transform="translate(-650.000000, -76.000000)" fill="#000000">
            <path d="M656,90 L669,90 L669,94.0001925 C669,94.5523709 668.552511,95 668.001498,95 L656.998502,95 C656.447045,95 656,94.5562834 656,94.0001925 L656,90 Z M663,82 L668.009222,82 C668.556414,82 669,82.4530363 669,82.9970301 L669,90 L663,90 L663,82 Z" id="Combined-Shape-Copy-4" opacity="0.119999997"></path>
            <path d="M656,94 L657,94 L657,95 L656.5,95 C656.223858,95 656,94.7680664 656,94.5 L656,94 Z M656,92 L657,92 L657,93 L656,93 L656,92 Z M656,90 L657,90 L657,91 L656,91 L656,90 Z M658,94 L659,94 L659,95 L658,95 L658,94 Z M660,94 L661,94 L661,95 L660,95 L660,94 Z M662,94 L663,94 L663,95 L662,95 L662,94 Z M664,94 L665,94 L665,95 L664,95 L664,94 Z M666,94 L667,94 L667,95 L666,95 L666,94 Z M668,94 L669,94 L669,94.5 C669,94.7761424 668.768066,95 668.5,95 L668,95 L668,94 Z M668,92 L669,92 L669,93 L668,93 L668,92 Z M668,90 L669,90 L669,91 L668,91 L668,90 Z M668,88 L669,88 L669,89 L668,89 L668,88 Z M668,86 L669,86 L669,87 L668,87 L668,86 Z M668,84 L669,84 L669,85 L668,85 L668,84 Z M668,82 L668.5,82 C668.776142,82 669,82.2319336 669,82.5 L669,83 L668,83 L668,82 Z M666,82 L667,82 L667,83 L666,83 L666,82 Z M664,82 L665,82 L665,83 L664,83 L664,82 Z" id="Combined-Shape-Copy-3"></path>
            <rect id="Combined-Shape-Copy-2" x="651" y="77" width="13" height="13" rx="1"></rect>
        </g>
    </g>
</svg>