<?xml version="1.0" encoding="UTF-8" standalone="no"?>
<svg width="20px" height="20px" viewBox="0 0 20 20" version="1.1" xmlns="http://www.w3.org/2000/svg" xmlns:xlink="http://www.w3.org/1999/xlink">
    <!-- Generator: Sketch 3.8.3 (29802) - http://www.bohemiancoding.com/sketch -->
    <title>exit</title>
    <desc>Created with Sketch.</desc>
    <defs></defs>
    <g id="Page-3" stroke="none" stroke-width="1" fill="none" fill-rule="evenodd">
        <g id="Icons" transform="translate(-620.000000, -16.000000)" fill="#000000">
            <rect id="Rectangle-1785" opacity="0.0899999961" x="627" y="20" width="10" height="11"></rect>
            <path d="M629.5,22.5 L625.5,22.5 C624.4,22.5 623.5,23.4 623.5,24.5 L623.5,31.5 C623.5,32.6 624.4,33.5 625.5,33.5 L634.5,33.5 C635.6,33.5 636.5,32.6 636.5,31.5 L636.5,24.5 C636.5,23.4 635.6,22.5 634.5,22.5 L630.5,22.5 L630.5,19.9090909 L630.5,19.6428571 L633.5,20.5 L630,17.5 L626.5,20.5 L629.5,19.6428571 L629.5,19.9090909 L629.5,22.5 L627.5,22.5 L627.5,23.5 L629.5,23.5 L629.5,22.5 Z M629.5,23.5 L625.346154,23.5 C624.872308,23.5 624.5,23.95 624.5,24.5 L624.5,31.5 C624.5,32.04 624.880769,32.5 625.346154,32.5 L634.653846,32.5 C635.127692,32.5 635.5,32.05 635.5,31.5 L635.5,24.5 C635.5,23.96 635.119231,23.5 634.653846,23.5 L630.5,23.5 L630.5,28.0909091 L630.5,28.5 L629.5,28.5 L629.5,28.0909091 L629.5,23.5 Z M630.5,23.5 L632.5,23.5 L632.5,22.5 L630.5,22.5 L630.5,23.5 Z" id="share" transform="translate(630.000000, 25.500000) rotate(-90.000000) translate(-630.000000, -25.500000) "></path>
        </g>
    </g>
</svg>