<?xml version="1.0" encoding="UTF-8" standalone="no"?>
<svg width="20px" height="20px" viewBox="0 0 20 20" version="1.1" xmlns="http://www.w3.org/2000/svg" xmlns:xlink="http://www.w3.org/1999/xlink">
    <!-- Generator: Sketch 3.8.3 (29802) - http://www.bohemiancoding.com/sketch -->
    <title>facebook</title>
    <desc>Created with Sketch.</desc>
    <defs></defs>
    <g id="Page-3" stroke="none" stroke-width="1" fill="none" fill-rule="evenodd">
        <g id="Artboard-10" transform="translate(-254.000000, -40.000000)" fill="#000000">
            <path d="M255,41.9933977 C255,41.4447593 255.444946,41 255.993398,41 L272.006602,41 C272.555241,41 273,41.4449463 273,41.9933977 L273,58.0066023 C273,58.5552407 272.555054,59 272.006602,59 L255.993398,59 C255.444759,59 255,58.5550537 255,58.0066023 L255,41.9933977 Z M264.685828,59 L264.685828,51.9951875 L262.185516,51.9951875 L262.185516,49.4972656 L264.686391,49.4972656 L264.686391,47.1915781 C264.686391,44.8660625 266.059453,43.4960938 268.133672,43.4960938 C269.127609,43.4960938 269.938453,43.6024063 270.1875,43.6354531 L270.1875,46.2472813 L268.517719,46.2465781 C267.389625,46.2465781 267.178547,46.806125 267.178547,47.5926406 L267.178547,49.4972656 L270.069234,49.4972656 L269.660859,51.9951875 L267.178547,51.9951875 L267.178547,59 L264.685828,59 Z" id="Combined-Shape"></path>
        </g>
    </g>
</svg>