<?xml version="1.0" encoding="UTF-8" standalone="no"?>
<svg width="20px" height="20px" viewBox="0 0 20 20" version="1.1" xmlns="http://www.w3.org/2000/svg" xmlns:xlink="http://www.w3.org/1999/xlink">
    <!-- Generator: Sketch 3.6.1 (26313) - http://www.bohemiancoding.com/sketch -->
    <title>fonts</title>
    <desc>Created with Sketch.</desc>
    <defs></defs>
    <g id="Page-3" stroke="none" stroke-width="1" fill="none" fill-rule="evenodd">
        <g id="Icons" transform="translate(-440.000000, -16.000000)" fill="#000000">
            <g id="fonts" transform="translate(441.000000, 17.000000)">
                <path d="M15,3.02150409 L15,2.89 C15.0000001,2.28466797 15.0325963,1.89 14.8525963,1.69 C14.5525963,1.17 14.0525963,0.95 13.3525963,0.95 C12.5725963,0.95 12.0625963,1.09 11.7125963,1.42 C11.3125963,1.8 11.1425963,2.34 11.1425963,2.92 L11.2225963,2.97 L10.2225963,2.97 C10.2225963,2.14 10.4925963,1.34 11.1225963,0.74 C11.7025963,0.2 12.4225963,0 13.4225963,0 C14.4625963,0 15.2225963,0.38 15.7225963,1.2 C16.0225963,1.6 16.0000001,2.13317871 16,2.9 L16,7.46 L16,7.76 L16,8.06 C16.1025963,8.3 16.1625963,8.39 16.2625963,8.43 C16.4825963,8.52 16.7525963,8.34 17.4025963,7.57 L18.1525963,8.22 C17.2525963,9.3 16.6525963,9.67 15.8525963,9.37 C15.3642237,9.16488351 15.0666573,8.72125922 15.0040701,8.16026703 C12.8939311,9.89885156 11.0268198,9.818371 10.2725963,8.3 C9.77259631,7.25 9.97259631,6.1 10.7725963,5.2 C11.2741102,4.65026359 12.4081353,4.10052717 15,3.02150409 Z M15,4.2426969 L15,6.92720645 C14.9069488,7.03529426 14.7531846,7.17955878 14.5125963,7.36 C12.8125963,8.76 11.7125963,8.76 11.2925963,7.86 C10.9925963,7.26 11.0925963,6.56 11.6325963,5.96 C11.9882889,5.60430745 12.9607527,5.09046843 15,4.2426969 Z" id="Shape"></path>
                <path d="M5.96153846,3.69230769 C6.06774707,3.43740704 5.94720835,3.14467014 5.69230769,3.03846154 C5.43740704,2.93225293 5.14467014,3.05279165 5.03846154,3.30769231 L0.0384615385,16.3076923 C-0.0677470673,16.562593 0.0527916539,16.8553299 0.307692308,16.9615385 C0.562592961,17.0677471 0.855329856,16.9472083 0.961538462,16.6923077 L5.96153846,3.69230769 Z M5.96153846,3.30769231 C5.85532986,3.05279165 5.56259296,2.93225293 5.30769231,3.03846154 C5.05279165,3.14467014 4.93225293,3.43740704 5.03846154,3.69230769 L10.0384615,16.6923077 C10.1446701,16.9472083 10.437407,17.0677471 10.6923077,16.9615385 C10.9472083,16.8553299 11.0677471,16.562593 10.9615385,16.3076923 L5.96153846,3.30769231 Z" id="Line"></path>
                <path d="M2.5,13 L8.5,13 L9,13 L9,12 L8.5,12 L2.5,12 L2,12 L2,13 L2.5,13 L2.5,13 Z" id="Line"></path>
            </g>
        </g>
    </g>
</svg>