<?xml version="1.0" encoding="UTF-8" standalone="no"?>
<svg width="20px" height="20px" viewBox="0 0 20 20" version="1.1" xmlns="http://www.w3.org/2000/svg" xmlns:xlink="http://www.w3.org/1999/xlink">
    <!-- Generator: Sketch 3.6.1 (26313) - http://www.bohemiancoding.com/sketch -->
    <title>fullscreen</title>
    <desc>Created with Sketch.</desc>
    <defs></defs>
    <g id="Page-3" stroke="none" stroke-width="1" fill="none" fill-rule="evenodd">
        <g id="Icons" transform="translate(-130.000000, -16.000000)" fill="#000000">
            <path d="M139.5,32 L133.5,32 C133.223858,32 133,32.2238576 133,32.5 C133,32.7761424 133.223858,33 133.5,33 L139.5,33 C139.776142,33 140,32.7761424 140,32.5 C140,32.2238576 139.776142,32 139.5,32 L139.5,32 Z M138.146447,27.1464466 L133.146447,32.1464466 C132.951184,32.3417088 132.951184,32.6582912 133.146447,32.8535534 C133.341709,33.0488155 133.658291,33.0488155 133.853553,32.8535534 L138.853553,27.8535534 C139.048816,27.6582912 139.048816,27.3417088 138.853553,27.1464466 C138.658291,26.9511845 138.341709,26.9511845 138.146447,27.1464466 L138.146447,27.1464466 Z M145,21.7071068 L145,26.5 C145,26.7761424 145.223858,27 145.5,27 C145.776142,27 146,26.7761424 146,26.5 L146,20.5 C146,20.3619288 145.944036,20.2369288 145.853553,20.1464466 C145.763071,20.0559644 145.638071,20 145.5,20 L139.5,20 C139.223858,20 139,20.2238576 139,20.5 C139,20.7761424 139.223858,21 139.5,21 L144.292893,21 L140.146447,25.1464466 C139.951184,25.3417088 139.951184,25.6582912 140.146447,25.8535534 C140.341709,26.0488155 140.658291,26.0488155 140.853553,25.8535534 L145,21.7071068 Z M134,32.5 L134,26.5 C134,26.2238576 133.776142,26 133.5,26 C133.223858,26 133,26.2238576 133,26.5 L133,32.5 C133,32.7761424 133.223858,33 133.5,33 C133.776142,33 134,32.7761424 134,32.5 Z" id="fullscreen"></path>
        </g>
    </g>
</svg>