<?xml version="1.0" encoding="UTF-8" standalone="no"?>
<svg width="20px" height="20px" viewBox="0 0 20 20" version="1.1" xmlns="http://www.w3.org/2000/svg" xmlns:xlink="http://www.w3.org/1999/xlink">
    <!-- Generator: Sketch 3.8.3 (29802) - http://www.bohemiancoding.com/sketch -->
    <title>google</title>
    <desc>Created with Sketch.</desc>
    <defs></defs>
    <g id="Page-3" stroke="none" stroke-width="1" fill="none" fill-rule="evenodd">
        <g id="Artboard-10" transform="translate(-314.000000, -40.000000)" fill="#000000">
            <path d="M324.009651,48.291689 L332.454692,48.291689 C332.734584,49.8697051 332.67185,51.5152815 332.227882,53.0595174 C331.817694,54.4734584 331.040751,55.786059 329.95496,56.7849866 C329.00429,56.0466488 328.053619,55.308311 327.102949,54.5699732 C328.043968,53.9378016 328.70992,52.9147453 328.898123,51.7951743 L324.004826,51.7951743 C324.009651,50.6273458 324.009651,49.4595174 324.009651,48.291689 L324.009651,48.291689 Z" id="googleBlue" opacity="0.99000001"></path>
            <path d="M321.075603,41.4922252 C323.01555,40.8214477 325.191957,40.8359249 327.122252,41.5453083 C328.193566,41.9410188 329.17319,42.5587131 330.012869,43.3356568 C329.732976,43.6396783 329.428954,43.9243968 329.13941,44.2187668 C328.589276,44.7689008 328.039142,45.3190349 327.489008,45.8691689 C326.9437,45.3479893 326.277748,44.9522788 325.553887,44.7302949 C324.704558,44.4745308 323.787668,44.4359249 322.919035,44.6241287 C321.90563,44.8412869 320.964611,45.372118 320.235925,46.1152815 C319.647185,46.7088472 319.203217,47.4423592 318.932976,48.2337802 C317.953351,47.4713137 316.973727,46.7136729 315.989276,45.9512064 C317.02681,43.8761394 318.889544,42.2402145 321.075603,41.4922252 L321.075603,41.4922252 Z" id="googleRed"></path>
            <path d="M315.212332,48.2 C315.371582,47.4182306 315.632172,46.6557641 315.994102,45.941555 C316.973727,46.7040214 317.953351,47.4616622 318.937802,48.2241287 C318.551743,49.3485255 318.551743,50.5983914 318.937802,51.7179625 C317.958177,52.480429 316.978552,53.2428954 315.998928,54.0005362 C315.091689,52.2294906 314.816622,50.1495979 315.212332,48.2 L315.212332,48.2 Z" id="googleYellow"></path>
            <path d="M315.989276,54.0053619 C316.968901,53.2477212 317.948525,52.4852547 318.92815,51.7227882 C319.304558,52.827882 320.028418,53.8075067 320.983914,54.4782842 C321.582306,54.8981233 322.26756,55.197319 322.981769,55.3420912 C323.686327,55.4868633 324.415013,55.4675603 325.124397,55.3469169 C325.828954,55.2214477 326.509383,54.9656836 327.102949,54.5651475 C328.053619,55.3034853 329.00429,56.0418231 329.95496,56.7801609 C328.927078,57.7308311 327.638606,58.3774799 326.277748,58.6911528 C324.772118,59.0337802 323.179625,59.0434316 321.683646,58.6428954 C320.496515,58.3292225 319.381769,57.7646113 318.421448,56.997319 C317.412869,56.1962466 316.57319,55.1635389 315.989276,54.0053619 L315.989276,54.0053619 Z" id="googleGreen"></path>
        </g>
    </g>
</svg>