<?xml version="1.0" encoding="UTF-8" standalone="no"?>
<svg width="20px" height="20px" viewBox="0 0 20 20" version="1.1" xmlns="http://www.w3.org/2000/svg" xmlns:xlink="http://www.w3.org/1999/xlink">
    <!-- Generator: Sketch 3.6.1 (26313) - http://www.bohemiancoding.com/sketch -->
    <title>image_active</title>
    <desc>Created with Sketch.</desc>
    <defs></defs>
    <g id="Page-3" stroke="none" stroke-width="1" fill="none" fill-rule="evenodd">
        <g id="Icons" transform="translate(-247.000000, -136.000000)" fill="#000000">
            <path d="M257,154 C261.418278,154 265,150.418278 265,146 C265,141.581722 261.418278,138 257,138 C252.581722,138 249,141.581722 249,146 C249,150.418278 252.581722,154 257,154 Z M258,142 L260,142 L260,144 L258,144 L258,142 Z M251,150 L254.417847,145.334961 L258.121094,149 L260.360962,147.47998 L263,150 C263,150 261.252441,153 257,153 C252.747559,153 251,150 251,150 Z" id="Oval-448"></path>
        </g>
    </g>
</svg>