<?xml version="1.0" encoding="UTF-8" standalone="no"?>
<svg width="20px" height="20px" viewBox="0 0 20 20" version="1.1" xmlns="http://www.w3.org/2000/svg" xmlns:xlink="http://www.w3.org/1999/xlink">
    <!-- Generator: Sketch 3.6.1 (26313) - http://www.bohemiancoding.com/sketch -->
    <title>image</title>
    <desc>Created with Sketch.</desc>
    <defs></defs>
    <g id="Page-3" stroke="none" stroke-width="1" fill="none" fill-rule="evenodd">
        <g id="Icons" transform="translate(-277.000000, -46.000000)" fill="#000000">
            <path d="M281,60 L284.417847,55.3349609 L288.121094,59 L290.360962,57.4799805 L293.41394,60.2928467 L290.666992,62.737793 L285.174316,63.3601074 L282,62 L281,60 Z" id="Rectangle-1271" opacity="0.1"></path>
            <path d="M287,63 L287,63 C290.865993,63 294,59.8659932 294,56 C294,52.1340068 290.865993,49 287,49 C283.134007,49 280,52.1340068 280,56 C280,59.8659932 283.134007,63 287,63 L287,63 Z M287,64 L287,64 C282.581722,64 279,60.418278 279,56 C279,51.581722 282.581722,48 287,48 C291.418278,48 295,51.581722 295,56 C295,60.418278 291.418278,64 287,64 L287,64 Z" id="Combined-Shape"></path>
            <path d="M285.210321,55.2605734 L288.207107,58.2573593 L290.5,56.9644661 L293.7052,60.244751 L292.572598,60.4477409 L289.793344,57.672023 L290.991167,57.8355313 L288.698274,59.1284245 L288.036892,59.501358 L287.5,58.9644661 L283.86039,55.3248558 L280.199951,59.7694092 L281.259806,60.0448647 L285.210321,55.2605734 Z M284.572449,56.0260011 L285.186829,55.2881268 L284.5,54.5502525 L283.865173,55.3517456 L284.572449,56.0260011 Z" id="Combined-Shape-Copy"></path>
            <rect id="Rectangle-1270" x="288" y="52" width="2" height="2"></rect>
        </g>
    </g>
</svg>