<?xml version="1.0" encoding="UTF-8" standalone="no"?>
<svg width="20px" height="20px" viewBox="0 0 20 20" version="1.1" xmlns="http://www.w3.org/2000/svg" xmlns:xlink="http://www.w3.org/1999/xlink">
    <!-- Generator: Sketch 3.8.3 (29802) - http://www.bohemiancoding.com/sketch -->
    <title>import</title>
    <desc>Created with Sketch.</desc>
    <defs></defs>
    <g id="Page-3" stroke="none" stroke-width="1" fill="none" fill-rule="evenodd">
        <g id="Icons" transform="translate(-530.000000, -16.000000)" fill="#000000">
            <path d="M546.25,24.25 L546.25,25.5 C548.3175,25.5 550,27.1825 550,29.25 C550,31.3175 548.3175,33 546.25,33 L535,33 C532.2425,33 530,30.7575 530,28 C530,25.63625 531.65375,23.66125 533.8625,23.1425 C534.3875,20.225 536.9325,18 540,18 C543.44625,18 546.25,20.80375 546.25,24.25 L546.25,24.25 Z" id="Path-Copy" opacity="0.119999997"></path>
            <path d="M546.25,24.25 L546.25,25.5 C548.3175,25.5 550,27.1825 550,29.25 C550,31.3175 548.3175,33 546.25,33 L535,33 C532.2425,33 530,30.7575 530,28 C530,25.63625 531.65375,23.66125 533.8625,23.1425 C534.3875,20.225 536.9325,18 540,18 C543.44625,18 546.25,20.80375 546.25,24.25 Z M545.25,24.25 C545.25,21.3560347 542.893965,19 540,19 C537.458126,19 535.293467,20.8368131 534.846692,23.319604 L534.730397,23.9658744 L534.09114,24.116011 C532.294113,24.5380632 531,26.1409687 531,28 C531,30.2052153 532.794785,32 535,32 L546.25,32 C547.765215,32 549,30.7652153 549,29.25 C549,27.7347847 547.765215,26.5 546.25,26.5 L545.25,26.5 L545.25,25.5 L545.25,24.25 Z" id="Mask-Copy-3"></path>
            <path d="M537.071429,27 L539,28.6875 L539,30 L535,26.5 L539,23 L539,24.3125 L537.071429,26 L544,26 L544,27 L537.071429,27 Z" id="Rectangle-1319-Copy-5" transform="translate(539.500000, 26.500000) scale(-1, 1) rotate(90.000000) translate(-539.500000, -26.500000) "></path>
        </g>
    </g>
</svg>