<svg xmlns="http://www.w3.org/2000/svg" width="20" height="20" viewBox="0 0 20 20">
  <path fill="#000000" fill-rule="evenodd" d="M10.212465,14.5 L9,14.5 L9,13.5 L10.212465,13.5 C10.4673412,13.2136124 10.9321344,13 11.5,13 C12.3713371,13 13,13.5029303 13,14 C13,14.4970697 12.3713371,15 11.5,15 C10.9321344,15 10.4673412,14.7863876 10.212465,14.5 Z M10,15.6001465 C10.4178303,15.8512221 10.937197,16 11.5,16 C12.8807119,16 14,15.1045695 14,14 C14,12.8954305 12.8807119,12 11.5,12 C10.937197,12 10.4178303,12.1487779 10,12.3998535 L10,10 L18.9870679,10 C18.7356474,14.8487018 14.8487018,18.7356474 10,18.9870679 L10,15.6001465 Z M8.78753498,5.5 C8.53265876,5.78638761 8.06786557,6 7.5,6 C6.62866287,6 6,5.4970697 6,5 C6,4.5029303 6.62866287,4 7.5,4 C8.06786557,4 8.53265876,4.21361239 8.78753498,4.5 L10,4.5 L10,5.5 L8.78753498,5.5 Z M9,3.39985353 C8.58216973,3.14877793 8.06280296,3 7.5,3 C6.11928813,3 5,3.8954305 5,5 C5,6.1045695 6.11928813,7 7.5,7 C8.06280296,7 8.58216973,6.85122207 9,6.60014647 L9,9 L0.0129320586,9 C0.264352641,4.15129822 4.15129822,0.264352641 9,0.0129320586 L9,3.39985353 Z M4.5,10.212465 L4.5,9 L5.5,9 L5.5,10.212465 C5.78638761,10.4673412 6,10.9321344 6,11.5 C6,12.3713371 5.4970697,13 5,13 C4.5029303,13 4,12.3713371 4,11.5 C4,10.9321344 4.21361239,10.4673412 4.5,10.212465 Z M6.60014647,10 L9,10 L9,18.9870679 C4.15129822,18.7356474 0.264352641,14.8487018 0.0129320586,10 L3.39985353,10 C3.14877793,10.4178303 3,10.937197 3,11.5 C3,12.8807119 3.8954305,14 5,14 C6.1045695,14 7,12.8807119 7,11.5 C7,10.937197 6.85122207,10.4178303 6.60014647,10 Z M13.5,8.78753498 C13.2136124,8.53265876 13,8.06786557 13,7.5 C13,6.62866287 13.5029303,6 14,6 C14.4970697,6 15,6.62866287 15,7.5 C15,8.06786557 14.7863876,8.53265876 14.5,8.78753498 L14.5,10 L13.5,10 L13.5,8.78753498 Z M12.3998535,9 L10,9 L10,0.0129320586 C14.8487018,0.264352641 18.7356474,4.15129822 18.9870679,9 L15.6001465,9 C15.8512221,8.58216973 16,8.06280296 16,7.5 C16,6.11928813 15.1045695,5 14,5 C12.8954305,5 12,6.11928813 12,7.5 C12,8.06280296 12.1487779,8.58216973 12.3998535,9 Z"/>
</svg>
