<svg xmlns="http://www.w3.org/2000/svg" width="20" height="20" viewBox="0 0 20 20">
  <g fill="none" fill-rule="evenodd">
    <polygon fill="#000000" points="10 1 12.661 1 15.763 2.982 18 6.241 18 9 10 9" opacity=".15"/>
    <polygon fill="#000000" points="1 10 3.661 10 6.763 11.982 9 15.241 9 18 1 18" opacity=".15" transform="rotate(180 5 14)"/>
    <path fill="#000000" d="M10.212465,14.5 C10.4673412,14.7863876 10.9321344,15 11.5,15 C12.3713371,15 13,14.4970697 13,14 C13,13.5029303 12.3713371,13 11.5,13 C10.9321344,13 10.4673412,13.2136124 10.212465,13.5 L9,13.5 L9,14.5 L10.212465,14.5 Z M10,15.6001465 L10,17.9855382 C14.2962482,17.7363261 17.7363261,14.2962482 17.9855382,10 L10,10 L10,12.3998535 C10.4178303,12.1487779 10.937197,12 11.5,12 C12.8807119,12 14,12.8954305 14,14 C14,15.1045695 12.8807119,16 11.5,16 C10.937197,16 10.4178303,15.8512221 10,15.6001465 Z M8.78753498,5.5 L10,5.5 L10,4.5 L8.78753498,4.5 C8.53265876,4.21361239 8.06786557,4 7.5,4 C6.62866287,4 6,4.5029303 6,5 C6,5.4970697 6.62866287,6 7.5,6 C8.06786557,6 8.53265876,5.78638761 8.78753498,5.5 Z M9,3.39985353 L9,1.01446179 C4.70375176,1.26367394 1.26367394,4.70375176 1.01446179,9 L9,9 L9,6.60014647 C8.58216973,6.85122207 8.06280296,7 7.5,7 C6.11928813,7 5,6.1045695 5,5 C5,3.8954305 6.11928813,3 7.5,3 C8.06280296,3 8.58216973,3.14877793 9,3.39985353 Z M4.5,10.212465 C4.21361239,10.4673412 4,10.9321344 4,11.5 C4,12.3713371 4.5029303,13 5,13 C5.4970697,13 6,12.3713371 6,11.5 C6,10.9321344 5.78638761,10.4673412 5.5,10.212465 L5.5,9 L4.5,9 L4.5,10.212465 Z M6.60014647,10 C6.85122207,10.4178303 7,10.937197 7,11.5 C7,12.8807119 6.1045695,14 5,14 C3.8954305,14 3,12.8807119 3,11.5 C3,10.937197 3.14877793,10.4178303 3.39985353,10 L1.01446179,10 C1.26367394,14.2962482 4.70375176,17.7363261 9,17.9855382 L9,10 L6.60014647,10 Z M13.5,8.78753498 L13.5,10 L14.5,10 L14.5,8.78753498 C14.7863876,8.53265876 15,8.06786557 15,7.5 C15,6.62866287 14.4970697,6 14,6 C13.5029303,6 13,6.62866287 13,7.5 C13,8.06786557 13.2136124,8.53265876 13.5,8.78753498 Z M12.3998535,9 C12.1487779,8.58216973 12,8.06280296 12,7.5 C12,6.11928813 12.8954305,5 14,5 C15.1045695,5 16,6.11928813 16,7.5 C16,8.06280296 15.8512221,8.58216973 15.6001465,9 L17.9855382,9 C17.7363261,4.70375176 14.2962482,1.26367394 10,1.01446179 L10,9 L12.3998535,9 Z M0.0129320586,10 L0,10 L0,9 L0.0129320586,9 C0.264352641,4.15129822 4.15129822,0.264352641 9,0.0129320586 L9,0 L10,0 L10,0.0129320586 C14.8487018,0.264352641 18.7356474,4.15129822 18.9870679,9 L19,9 L19,10 L18.9870679,10 C18.7356474,14.8487018 14.8487018,18.7356474 10,18.9870679 L10,19 L9,19 L9,18.9870679 C4.15129822,18.7356474 0.264352641,14.8487018 0.0129320586,10 Z"/>
  </g>
</svg>
