<?xml version="1.0" encoding="UTF-8"?>
<svg width="20px" height="20px" viewBox="0 0 20 20" version="1.1" xmlns="http://www.w3.org/2000/svg" xmlns:xlink="http://www.w3.org/1999/xlink">
    <!-- Generator: Sketch 40.3 (33839) - http://www.bohemiancoding.com/sketch -->
    <title>like_outline</title>
    <desc>Created with Sketch.</desc>
    <defs></defs>
    <g id="Page-3" stroke="none" stroke-width="1" fill="none" fill-rule="evenodd">
        <g id="Artboard-10" transform="translate(-194.000000, -70.000000)" fill="#000000">
            <path d="M204.324758,75.2767318 C204.527653,75.0350631 204.648794,74.8878956 204.69419,74.8250779 C205.598149,73.8329393 206.674945,73.0999985 207.446125,73.0999985 C209.765228,73.0999985 212.17,75.4279852 212.17,77.723875 C212.17,80.0742881 210.705074,82.5222931 207.903226,84.7967346 C206.539433,85.9364092 204.886123,86.9941552 203.685601,87.573718 C203.617077,87.5846861 203.564764,87.5916612 203.535248,87.5946127 L203.585,88.0921313 L203.640216,87.5951894 C203.602015,87.590945 203.538858,87.5823981 203.479422,87.5714759 C203.447493,87.5656087 203.422516,87.559982 203.410699,87.5564369 C202.265845,86.9827761 200.622668,85.9315127 199.270659,84.8112768 C196.468506,82.5255798 195,80.0660408 195,77.723875 C195,75.3139915 197.389539,73.0090687 199.704331,73.0996164 C200.781376,73.0249762 201.610636,73.568885 202.546678,74.7839941 C202.55004,74.8016375 202.659017,74.957442 202.843229,75.2116025 C202.978452,75.3979671 203.101333,75.564698 203.183622,75.6754765 L203.558436,76.180057 L203.965789,75.7013603 C204.055649,75.5957616 204.190091,75.437077 204.324758,75.2767318 Z M203.986378,75.0791701 C203.906124,74.9711308 203.78519,74.8070411 203.6646,74.6408515 C203.505907,74.421909 203.394999,74.2633448 203.380039,74.2363692 C202.219091,72.7200975 201.118254,71.9980618 199.687882,72.1012956 C196.860751,71.9876193 194,74.7470676 194,77.723875 C194,80.4073543 195.623867,83.127102 198.635611,85.5837396 C200.046211,86.7525422 201.754883,87.8457071 203.045481,88.4835893 C203.176043,88.5300708 203.233852,88.5430938 203.298687,88.5550078 C203.38621,88.571091 203.470012,88.5824318 203.529784,88.5890732 L203.634752,88.5896499 C203.693957,88.5837294 203.774725,88.5729603 203.8605,88.5558054 C203.962187,88.535468 204.045893,88.511552 204.126582,88.4712074 C205.393814,87.8594937 207.11659,86.7573052 208.538981,85.5685923 C211.54892,83.1252955 213.17,80.4163454 213.17,77.723875 C213.17,74.8683084 210.310382,72.0999985 207.446125,72.0999985 C206.307318,72.0999985 205.033365,72.9671379 203.918571,74.1963133 C203.859864,74.2723092 203.736286,74.422438 203.566117,74.6251273 C203.426006,74.7919564 203.29279,74.9491945 203.204211,75.0532863 L203.986378,75.0791701 Z" id="Shape-Copy-5"></path>
        </g>
    </g>
</svg>