<?xml version="1.0" encoding="UTF-8" standalone="no"?>
<svg width="10px" height="10px" viewBox="0 0 10 10" version="1.1" xmlns="http://www.w3.org/2000/svg" xmlns:xlink="http://www.w3.org/1999/xlink">
    <!-- Generator: Sketch 3.7.2 (28276) - http://www.bohemiancoding.com/sketch -->
    <title>micro_link</title>
    <desc>Created with Sketch.</desc>
    <defs></defs>
    <g id="Page-3" stroke="none" stroke-width="1" fill="none" fill-rule="evenodd">
        <g id="Icons" transform="translate(-257.000000, -166.000000)" fill="#000000">
            <path d="M260,173 C258.891799,173 258,172.110572 258,171 C258,169.897699 258.902422,169 260.009775,169 L260.990225,169 C262.100971,169 263,169.895303 263,171 L263,171.966207 L264,171.966207 L264,171 C264,169.342086 262.652328,168 260.990225,168 L260.009775,168 C258.351309,168 257,169.344237 257,171 C257,172.663454 258.34011,174 260,174 L260,173 L260,173 Z" id="Rectangle-1309"></path>
            <path d="M264,169 C265.108201,169 266,169.889428 266,171 C266,172.102301 265.097578,173 263.990225,173 L263.009775,173 C261.899029,173 261,172.104697 261,171 L261,169.950435 L260,169.950435 L260,171 C260,172.657914 261.347672,174 263.009775,174 L263.990225,174 C265.648691,174 267,172.655763 267,171 C267,169.336546 265.65989,168 264,168 L264,169 L264,169 Z" id="Rectangle-1309-Copy"></path>
        </g>
    </g>
</svg>