<?xml version="1.0" encoding="UTF-8" standalone="no"?>
<svg width="10px" height="10px" viewBox="0 0 10 10" version="1.1" xmlns="http://www.w3.org/2000/svg" xmlns:xlink="http://www.w3.org/1999/xlink">
    <!-- Generator: Sketch 3.8.3 (29802) - http://www.bohemiancoding.com/sketch -->
    <title>micro_note</title>
    <desc>Created with Sketch.</desc>
    <defs></defs>
    <g id="Page-3" stroke="none" stroke-width="1" fill="none" fill-rule="evenodd">
        <g id="Icons" transform="translate(-297.000000, -186.000000)" fill="#000000">
            <path d="M303,187 L299.062338,187 C298.476479,187 298,187.475625 298,188.062338 L298,193.937662 C298,194.523521 298.475625,195 299.062338,195 L304.937662,195 C305.523521,195 306,194.524375 306,193.937662 L306,190 L305.117649,190 L305.117649,194.05576 L299.016807,194.05576 L299.016807,188.018587 L303,188.018587 L303,187 Z M306.640504,187.067232 L307,186.711488 L306.281009,186 L305.921513,186.355744 L301.232943,190.932768 L300.873447,191.288512 L301.592438,192 L301.951934,191.644256 L306.640504,187.067232 Z" id="Rectangle-343"></path>
        </g>
    </g>
</svg>