<?xml version="1.0" encoding="UTF-8" standalone="no"?>
<svg width="20px" height="20px" viewBox="0 0 20 20" version="1.1" xmlns="http://www.w3.org/2000/svg" xmlns:xlink="http://www.w3.org/1999/xlink">
    <!-- Generator: Sketch 3.8.3 (29802) - http://www.bohemiancoding.com/sketch -->
    <title>microsoft</title>
    <desc>Created with Sketch.</desc>
    <defs></defs>
    <g id="Page-3" stroke="none" stroke-width="1" fill="none" fill-rule="evenodd">
        <g id="Artboard-10" transform="translate(-104.000000, -10.000000)" fill="#000000">
            <path d="M112,27.4450501 L112,20.496654 L105,20.496654 L105,26.3931615 L112,27.4450501 Z M112,19.5040783 L112,12.5549499 L105,13.6068385 L105,19.5040783 L112,19.5040783 Z M123,29.0003661 L123,20.496654 L113,20.496654 L113,27.5889388 L123,29.0003661 Z M113,12.410695 L113,19.5040783 L123,19.5 L123,11 L113.255111,12.410695 L113,12.410695 Z" id="Shape-Copy" opacity="0.119999997"></path>
            <path d="M123,29 L113,27.5886014 L113,20.4964608 L123,20.4964608 L123,29 Z M114,26.8000002 L122,27.8000002 L122,21.5 L114,21.5 L114,26.8000002 Z M112,27.4447156 L105,26.3928484 L105,20.4964608 L112,20.4964608 L112,27.4447156 Z M106,25.6000004 L111,26.3000002 L111,21.5 L106,21.5 L106,25.6000004 Z M112,12.4964608 L105,13.548328 L105,19.4447156 L112,19.4447156 L112,12.4964608 Z M106,14.3999996 L111,13.6999998 L111,18.5 L106,18.5 L106,14.3999996 Z M113,12.4106663 L123,11 L123,19.4998271 L113,19.5039053 L113,12.4106663 Z M114,13.1999998 L122,12.1999998 L122,18.5 L114,18.5 L114,13.1999998 Z" id="Combined-Shape"></path>
        </g>
    </g>
</svg>