<?xml version="1.0" encoding="UTF-8"?>
<svg width="10px" height="10px" viewBox="0 0 10 10" version="1.1" xmlns="http://www.w3.org/2000/svg" xmlns:xlink="http://www.w3.org/1999/xlink">
    <!-- Generator: Sketch 39.1 (31720) - http://www.bohemiancoding.com/sketch -->
    <title>micro_screenshot</title>
    <desc>Created with Sketch.</desc>
    <defs></defs>
    <g id="Page-3" stroke="none" stroke-width="1" fill="none" fill-rule="evenodd">
        <g id="Icons" transform="translate(-317.000000, -186.000000)" fill="#000000">
            <path d="M317,186.995398 C317,186.445655 317.455664,186 317.995398,186 L326.004602,186 C326.554345,186 327,186.455664 327,186.995398 L327,195.004602 C327,195.554345 326.544336,196 326.004602,196 L317.995398,196 C317.445655,196 317,195.544336 317,195.004602 L317,186.995398 Z M318,187 L319,187 L319,188 L318,188 L318,187 Z M320,187 L321,187 L321,188 L320,188 L320,187 Z M322,187 L323,187 L323,188 L322,188 L322,187 Z M318,189 L326,189 L326,195 L318,195 L318,189 Z" id="Combined-Shape"></path>
        </g>
    </g>
</svg>