<?xml version="1.0" encoding="UTF-8"?>
<svg width="10px" height="10px" viewBox="0 0 10 10" version="1.1" xmlns="http://www.w3.org/2000/svg" xmlns:xlink="http://www.w3.org/1999/xlink">
    <!-- Generator: Sketch 41 (35326) - http://www.bohemiancoding.com/sketch -->
    <title>micro_open</title>
    <desc>Created with Sketch.</desc>
    <defs></defs>
    <g id="Welcome" stroke="none" stroke-width="1" fill="none" fill-rule="evenodd">
        <g id="Artboard" transform="translate(-12.000000, -12.000000)" fill="#000000">
            <path d="M19.2928932,14 L15.5,14 C15.2238576,14 15,13.7761424 15,13.5 C15,13.2238576 15.2238576,13 15.5,13 L20.5,13 C20.6380712,13 20.7630712,13.0559644 20.8535534,13.1464466 C20.9440356,13.2369288 21,13.3619288 21,13.5 L21,18.5 C21,18.7761424 20.7761424,19 20.5,19 C20.2238576,19 20,18.7761424 20,18.5 L20,14.7071068 L13.8535534,20.8535534 C13.6582912,21.0488155 13.3417088,21.0488155 13.1464466,20.8535534 C12.9511845,20.6582912 12.9511845,20.3417088 13.1464466,20.1464466 L19.2928932,14 Z" id="Combined-Shape"></path>
        </g>
    </g>
</svg>