<?xml version="1.0" encoding="UTF-8" standalone="no"?>
<svg width="20px" height="20px" viewBox="0 0 20 20" version="1.1" xmlns="http://www.w3.org/2000/svg" xmlns:xlink="http://www.w3.org/1999/xlink">
    <!-- Generator: Sketch 3.8.3 (29802) - http://www.bohemiancoding.com/sketch -->
    <title>mobile</title>
    <desc>Created with Sketch.</desc>
    <defs></defs>
    <g id="Page-3" stroke="none" stroke-width="1" fill="none" fill-rule="evenodd">
        <g id="Icons" transform="translate(-560.000000, -46.000000)" fill="#000000">
            <rect id="Combined-Shape" opacity="0.1" x="564" y="47" width="12" height="18" rx="2"></rect>
            <path d="M564,48.9950893 C564,47.8932319 564.90195,47 566.00853,47 L573.99147,47 C575.10075,47 576,47.8926228 576,48.9950893 L576,63.0049107 C576,64.1067681 575.09805,65 573.99147,65 L566.00853,65 C564.89925,65 564,64.1073772 564,63.0049107 L564,48.9950893 Z M565,49.0008717 C565,48.4481055 565.455664,48 565.995398,48 L574.004602,48 C574.554345,48 575,48.4446309 575,49.0008717 L575,62.9991283 C575,63.5518945 574.544336,64 574.004602,64 L565.995398,64 C565.445655,64 565,63.5553691 565,62.9991283 L565,49.0008717 Z M570,63 C570.552285,63 571,62.5522847 571,62 C571,61.4477153 570.552285,61 570,61 C569.447715,61 569,61.4477153 569,62 C569,62.5522847 569.447715,63 570,63 Z M569,49 L571,49 L571,50 L569,50 L569,49 Z" id="Combined-Shape"></path>
        </g>
    </g>
</svg>