<?xml version="1.0" encoding="UTF-8" standalone="no"?>
<svg width="20px" height="20px" viewBox="0 0 20 20" version="1.1" xmlns="http://www.w3.org/2000/svg" xmlns:xlink="http://www.w3.org/1999/xlink">
    <!-- Generator: Sketch 3.8.3 (29802) - http://www.bohemiancoding.com/sketch -->
    <title>more_circle</title>
    <desc>Created with Sketch.</desc>
    <defs></defs>
    <g id="Page-3" stroke="none" stroke-width="1" fill="none" fill-rule="evenodd">
        <g id="Artboard-10" transform="translate(-374.000000, -40.000000)" fill="#000000">
            <path d="M374,41.9907951 C374,40.8913093 374.898212,40 375.990795,40 L392.009205,40 C393.108691,40 394,40.8982124 394,41.9907951 L394,58.0092049 C394,59.1086907 393.101788,60 392.009205,60 L375.990795,60 C374.891309,60 374,59.1017876 374,58.0092049 L374,41.9907951 Z M375,41.9933977 C375,41.4447593 375.444946,41 375.993398,41 L392.006602,41 C392.555241,41 393,41.4449463 393,41.9933977 L393,58.0066023 C393,58.5552407 392.555054,59 392.006602,59 L375.993398,59 C375.444759,59 375,58.5550537 375,58.0066023 L375,41.9933977 Z" id="Combined-Shape"></path>
            <path d="M384,56 C384.552285,56 385,55.5522847 385,55 C385,54.4477153 384.552285,54 384,54 C383.447715,54 383,54.4477153 383,55 C383,55.5522847 383.447715,56 384,56 Z M384,51 C384.552285,51 385,50.5522847 385,50 C385,49.4477153 384.552285,49 384,49 C383.447715,49 383,49.4477153 383,50 C383,50.5522847 383.447715,51 384,51 Z M384,46 C384.552285,46 385,45.5522847 385,45 C385,44.4477153 384.552285,44 384,44 C383.447715,44 383,44.4477153 383,45 C383,45.5522847 383.447715,46 384,46 Z" id="Combined-Shape"></path>
        </g>
    </g>
</svg>