<?xml version="1.0" encoding="UTF-8" standalone="no"?>
<svg width="20px" height="20px" viewBox="0 0 20 20" version="1.1" xmlns="http://www.w3.org/2000/svg" xmlns:xlink="http://www.w3.org/1999/xlink">
    <!-- Generator: Sketch 3.8.3 (29802) - http://www.bohemiancoding.com/sketch -->
    <title>new_note_active</title>
    <desc>Created with Sketch.</desc>
    <defs></defs>
    <g id="Page-3" stroke="none" stroke-width="1" fill="none" fill-rule="evenodd">
        <g id="Artboard-10" transform="translate(-224.000000, -40.000000)" fill="#000000">
            <path d="M240.017947,43.2749464 C239.72185,43.1002765 239.376672,43 239.008116,43 L227.991884,43 C226.893397,43 226,43.8917969 226,44.9918842 L226,56.0081158 C226,57.1066027 226.891797,58 227.991884,58 L239.008116,58 C240.106603,58 241,57.1082031 241,56.0081158 L241,44.9918842 C241,44.6235849 240.899751,44.27834 240.725015,43.9820915 L242.365451,42.3416553 L242.719005,41.988102 L242.011898,41.2809952 L241.658345,41.6345486 L240.017947,43.2749464 Z M240.017947,43.2749464 C240.309334,43.4468381 240.553188,43.6907757 240.725015,43.9820915 L231.853553,52.8535534 L231.5,53.2071068 L230.792893,52.5 L231.146447,52.1464466 L240.017947,43.2749464 Z" id="Rectangle-343"></path>
        </g>
    </g>
</svg>