<?xml version="1.0" encoding="UTF-8" standalone="no"?>
<svg width="20px" height="20px" viewBox="0 0 20 20" version="1.1" xmlns="http://www.w3.org/2000/svg" xmlns:xlink="http://www.w3.org/1999/xlink">
    <!-- Generator: Sketch 3.6.1 (26313) - http://www.bohemiancoding.com/sketch -->
    <title>new_bookmark</title>
    <desc>Created with Sketch.</desc>
    <defs></defs>
    <g id="Page-3" stroke="none" stroke-width="1" fill="none" fill-rule="evenodd">
        <g id="Icons" transform="translate(-247.000000, -46.000000)" fill="#000000">
            <path d="M259,52.3333333 L257,47 L254.75,53 L248,53 L253.4,56.6 L251,63 L257,59 L263,63 L260.6,56.6 L262,55.6666667 L262,54 L259,54 L259,52.3333333 Z" id="Combined-Shape"></path>
            <path d="M263,53 L260.5,53 L260,53 L260,52 L260.5,52 L263,52 L263,49.5 L263,49 L264,49 L264,49.5 L264,52 L266.5,52 L267,52 L267,53 L266.5,53 L264,53 L264,55.5 L264,56 L263,56 L263,55.5 L263,53 Z" id="Rectangle-1179"></path>
        </g>
    </g>
</svg>