<?xml version="1.0" encoding="UTF-8" standalone="no"?>
<svg width="20px" height="20px" viewBox="0 0 20 20" version="1.1" xmlns="http://www.w3.org/2000/svg" xmlns:xlink="http://www.w3.org/1999/xlink">
    <!-- Generator: Sketch 3.8.3 (29802) - http://www.bohemiancoding.com/sketch -->
    <title>open</title>
    <desc>Created with Sketch.</desc>
    <defs></defs>
    <g id="Page-3" stroke="none" stroke-width="1" fill="none" fill-rule="evenodd">
        <g id="Icons" transform="translate(-190.000000, -16.000000)" fill="#000000">
            <path d="M207.993118,23.0000008 L207.993118,18.5000008 C207.993118,18.2225043 207.770615,17.9995123 207.493118,18.0000008 L202.993118,18.0000008 C202.715623,18.0004893 202.493623,18.2219858 202.493118,18.5000008 C202.492613,18.7780158 202.715623,19.0004908 202.993118,19.0000008 L206.238618,19.0000008 L197.846618,27.3915109 C197.651123,27.5870059 197.651123,27.9039909 197.846618,28.0990009 C198.042113,28.2940059 198.358613,28.2940059 198.553618,28.0990009 L206.993118,19.6594858 L206.993118,23.0000008 C206.992613,23.2774958 207.215623,23.5004908 207.493118,23.5000008 C207.770615,23.4995108 207.992615,23.2774958 207.993118,23.0000008 Z M204,32 L194.967499,32.01651 C194.423996,32.01651 193.983505,31.575989 193.983505,31.032501 L194,22 C194,21.45651 194.457,21 195,21 L199.5,21 L199.5,20 L195,20 C193.913498,20 193,21.110505 193,22.19699 L193,31.032501 C193,32.118988 193.880996,33 194.967499,33 L203.802995,33 C204.889495,33 206,32.086487 206,31 L206,26.5 L205,26.5 L205,31 C205,31.5434875 204.543,32 204,32 Z" id="open"></path>
        </g>
    </g>
</svg>