<?xml version="1.0" encoding="UTF-8" standalone="no"?>
<svg width="20px" height="20px" viewBox="0 0 20 20" version="1.1" xmlns="http://www.w3.org/2000/svg" xmlns:xlink="http://www.w3.org/1999/xlink">
    <!-- Generator: Sketch 3.8.3 (29802) - http://www.bohemiancoding.com/sketch -->
    <title>profile_active</title>
    <desc>Created with Sketch.</desc>
    <defs></defs>
    <g id="Page-3" stroke="none" stroke-width="1" fill="none" fill-rule="evenodd">
        <g id="Artboard-10" transform="translate(-284.000000, -10.000000)" fill="#000000">
            <g id="Group-Copy" transform="translate(284.000000, 10.000000)">
                <path d="M19,9.5 C19,4.25 14.75,0 9.5,0 C4.25,0 0,4.25 0,9.5 C0,14.75 4.25,19 9.5,19 C14.75,19 19,14.75 19,9.5 Z M9.5,17.94 C4.84,17.94 1.06,14.16 1.06,9.5 C1.06,4.84 4.84,1.06 9.5,1.06 C14.16,1.06 17.94,4.84 17.94,9.5 C17.94,14.16 14.16,17.94 9.5,17.94 L9.5,17.94 Z" id="Shape"></path>
                <path d="M3.48109921,15.9416313 C3.19438119,16.2429344 3.19438119,16.2429344 3.24192033,16.5535752 C3.31127691,16.6992299 3.31127691,16.6992299 3.36263266,16.7559808 C3.40802243,16.8062275 3.46246394,16.8525168 3.53192236,16.90422 C3.64168734,16.9859265 3.79898819,17.087114 3.99056804,17.1996893 C4.41248112,17.447612 4.95852412,17.727027 5.5293128,17.9807437 C7.06709202,18.6642898 8.51890763,19.063039 9.64556901,18.9991993 C10.7111651,19.0632573 12.1211701,18.6625679 13.5891782,17.9771693 C14.1354026,17.7221425 14.6543612,17.4413142 15.0511647,17.1925328 C15.2333627,17.0783012 15.3820141,16.975515 15.485476,16.8915113 C15.5538431,16.8360021 15.6071223,16.7857882 15.6515077,16.7290679 C15.7036674,16.6622857 15.7036674,16.6622857 15.7622074,16.4939557 C15.7633589,16.1748367 15.7633589,16.1748367 15.4892322,15.9334016 L12.4149836,14.1445951 C12.1644482,14.0182165 12.0237358,13.7905535 12.0237358,13.5415094 L12.0237358,12.3502453 L11.5237358,12.3502453 L11.8988169,12.6808723 C11.9971541,12.5693133 12.105254,12.430486 12.2186252,12.2707533 C12.6551597,11.6541585 12.9940009,10.9680654 13.2304193,10.2330192 L12.754434,10.0799245 L12.9019409,10.557671 C13.5066107,10.3709757 13.9301887,9.81361972 13.9301887,9.1729434 L13.9301887,7.90173585 C13.9301887,7.48688787 13.7514958,7.10078367 13.4478068,6.82633876 L13.112566,7.19730189 L13.612566,7.19730189 L13.612566,5.35967925 C13.6112301,5.40173133 13.6112301,5.40173133 13.6163034,5.34153976 C13.6519818,4.84507129 13.5668223,4.26029591 13.2562223,3.69052346 C12.6763798,2.62684534 11.4857508,2 9.61728302,2 C7.74881524,2 6.55818628,2.62684534 5.9783437,3.69052346 C5.66774379,4.26029591 5.58258427,4.84507129 5.61826263,5.34153976 C5.62333592,5.40173133 5.62333592,5.40173133 5.62630018,5.42511386 L5.622,7.19730189 L6.122,7.19730189 L5.78675925,6.82633876 C5.48307021,7.10078367 5.30437736,7.48688787 5.30437736,7.90173585 L5.30437736,9.1729434 C5.30437736,9.67095469 5.56050498,10.1264917 5.97228241,10.3924079 L6.2435283,9.97237736 L5.75621376,10.0842904 C5.87593368,10.6055991 6.06828173,11.1073078 6.31303891,11.5825093 C6.5698629,12.0811387 6.82845502,12.4546978 7.00924878,12.6709489 L6.89284906,12.3502453 L6.89284906,13.5117547 C6.89284906,13.7525806 6.76151656,13.9738375 6.55014263,14.0890954 L3.46207266,15.9525539 L3.48109921,15.9416313 Z" id="Fill-129"></path>
            </g>
        </g>
    </g>
</svg>