<?xml version="1.0" encoding="UTF-8" standalone="no"?>
<svg width="20px" height="20px" viewBox="0 0 20 20" version="1.1" xmlns="http://www.w3.org/2000/svg" xmlns:xlink="http://www.w3.org/1999/xlink">
    <!-- Generator: Sketch 3.6.1 (26313) - http://www.bohemiancoding.com/sketch -->
    <title>refresh</title>
    <desc>Created with Sketch.</desc>
    <defs></defs>
    <g id="Page-3" stroke="none" stroke-width="1" fill="none" fill-rule="evenodd">
        <g id="Icons" transform="translate(-340.000000, -16.000000)" fill="#000000">
            <path d="M354.940637,21.0411588 C353.674613,19.779753 351.928367,19 350,19 C346.134007,19 343,22.1340068 343,26 C343,29.8659932 346.134007,33 350,33 C353.865993,33 357,29.8659932 357,26 L356,26 C356,29.3137085 353.313708,32 350,32 C346.686292,32 344,29.3137085 344,26 C344,22.6862915 346.686292,20 350,20 C351.652523,20 353.149012,20.6680667 354.234118,21.7488536 L351.986711,24 L356.978405,24 L356.978405,19 L354.940637,21.0411588 Z" id="Oval-445"></path>
        </g>
    </g>
</svg>