<?xml version="1.0" encoding="UTF-8" standalone="no"?>
<svg width="20px" height="20px" viewBox="0 0 20 20" version="1.1" xmlns="http://www.w3.org/2000/svg" xmlns:xlink="http://www.w3.org/1999/xlink">
    <!-- Generator: Sketch 3.8.3 (29802) - http://www.bohemiancoding.com/sketch -->
    <title>select_all</title>
    <desc>Created with Sketch.</desc>
    <defs></defs>
    <g id="Page-3" stroke="none" stroke-width="1" fill="none" fill-rule="evenodd">
        <g id="Icons" transform="translate(-487.000000, -136.000000)" fill="#000000">
            <path d="M489,139.5 C489,139.223858 489.231934,139 489.5,139 L490,139 L490,140 L489,140 L489,139.5 Z M489,141 L490,141 L490,142 L489,142 L489,141 Z M489,143 L490,143 L490,144 L489,144 L489,143 Z M489,145 L490,145 L490,146 L489,146 L489,145 Z M489,147 L490,147 L490,148 L489,148 L489,147 Z M489,149 L490,149 L490,150 L489,150 L489,149 Z M489,151 L490,151 L490,152 L489,152 L489,151 Z M489,153 L490,153 L490,154 L489.5,154 C489.223858,154 489,153.768066 489,153.5 L489,153 Z M503,141 L504,141 L504,142 L503,142 L503,141 Z M503,143 L504,143 L504,144 L503,144 L503,143 Z M503,145 L504,145 L504,146 L503,146 L503,145 Z M503,147 L504,147 L504,148 L503,148 L503,147 Z M503,149 L504,149 L504,150 L503,150 L503,149 Z M503,151 L504,151 L504,152 L503,152 L503,151 Z M491,139 L492,139 L492,140 L491,140 L491,139 Z M493,139 L494,139 L494,140 L493,140 L493,139 Z M495,139 L496,139 L496,140 L495,140 L495,139 Z M497,139 L498,139 L498,140 L497,140 L497,139 Z M499,139 L500,139 L500,140 L499,140 L499,139 Z M501,139 L502,139 L502,140 L501,140 L501,139 Z M503,139 L503.5,139 C503.776142,139 504,139.231934 504,139.5 L504,140 L503,140 L503,139 Z M491,153 L492,153 L492,154 L491,154 L491,153 Z M493,153 L494,153 L494,154 L493,154 L493,153 Z M495,153 L496,153 L496,154 L495,154 L495,153 Z M497,153 L498,153 L498,154 L497,154 L497,153 Z M499,153 L500,153 L500,154 L499,154 L499,153 Z M501,153 L502,153 L502,154 L501,154 L501,153 Z M503,153 L504,153 L504,153.5 C504,153.776142 503.768066,154 503.5,154 L503,154 L503,153 Z" id="Combined-Shape"></path>
            <polygon id="Path" points="494.252591 150.335636 495.624695 150.219131 491.5 146.320923 491.5 147.780869 495.116662 151.373954 502.5 142.664364 502.5 140.969788"></polygon>
        </g>
    </g>
</svg>