<?xml version="1.0" encoding="UTF-8"?>
<svg width="20px" height="20px" viewBox="0 0 20 20" version="1.1" xmlns="http://www.w3.org/2000/svg" xmlns:xlink="http://www.w3.org/1999/xlink">
    <!-- Generator: Sketch 42 (36781) - http://www.bohemiancoding.com/sketch -->
    <title>normal-config</title>
    <desc>Created with Sketch.</desc>
    <defs></defs>
    <g id="Welcome" stroke="none" stroke-width="1" fill="none" fill-rule="evenodd">
        <g id="Artboard" transform="translate(-201.000000, -101.000000)" fill-rule="nonzero" fill="#000000">
            <path d="M206.931094,115.416376 L208.343921,114.631472 C208.628139,114.473573 208.971379,114.463708 209.264197,114.605022 C209.399031,114.670093 209.537476,114.727523 209.678961,114.777004 C209.985646,114.88426 210.221108,115.133823 210.310365,115.446222 L210.754301,117 L211.245699,117 L211.689635,115.446222 C211.778892,115.133823 212.014354,114.88426 212.321039,114.777004 C212.462524,114.727523 212.600969,114.670093 212.735803,114.605022 C213.028621,114.463708 213.371861,114.473573 213.656079,114.631472 L215.068906,115.416376 L215.416376,115.068906 L214.631472,113.656079 C214.473573,113.371861 214.463708,113.028621 214.605022,112.735803 C214.670093,112.600969 214.727523,112.462524 214.777004,112.321039 C214.88426,112.014354 215.133823,111.778892 215.446222,111.689635 L217,111.245699 L217,110.754301 L215.446222,110.310365 C215.133823,110.221108 214.88426,109.985646 214.777004,109.678961 C214.727523,109.537476 214.670093,109.399031 214.605022,109.264197 C214.463708,108.971379 214.473573,108.628139 214.631472,108.343921 L215.416376,106.931094 L215.068906,106.583624 L213.656079,107.368528 C213.371861,107.526427 213.028621,107.536292 212.735803,107.394978 C212.600969,107.329907 212.462524,107.272477 212.321039,107.222996 C212.014354,107.11574 211.778892,106.866177 211.689635,106.553778 L211.245699,105 L210.754301,105 L210.310365,106.553778 C210.221108,106.866177 209.985646,107.11574 209.678961,107.222996 C209.537476,107.272477 209.399031,107.329907 209.264197,107.394978 C208.971379,107.536292 208.628139,107.526427 208.343921,107.368528 L206.931094,106.583624 L206.583624,106.931094 L207.368528,108.343921 C207.526427,108.628139 207.536292,108.971379 207.394978,109.264197 C207.329907,109.399031 207.272477,109.537476 207.222996,109.678961 C207.11574,109.985646 206.866177,110.221108 206.553778,110.310365 L205,110.754301 L205,111.245699 L206.553778,111.689635 C206.866177,111.778892 207.11574,112.014354 207.222996,112.321039 C207.272477,112.462524 207.329907,112.600969 207.394978,112.735803 C207.536292,113.028621 207.526427,113.371861 207.368528,113.656079 L206.583624,115.068906 L206.931094,115.416376 Z M204.481138,112.137468 C204.215413,112.061547 204,111.785965 204,111.495316 L204,110.504684 C204,110.225955 204.217172,109.937951 204.481138,109.862532 L206.279057,109.348841 C206.341272,109.170946 206.413257,108.997639 206.49437,108.829564 L205.586157,107.19478 C205.451946,106.953199 205.494491,106.606014 205.700012,106.400494 L206.400494,105.700012 C206.597585,105.50292 206.954799,105.452834 207.19478,105.586157 L208.829564,106.49437 C208.997639,106.413257 209.170946,106.341272 209.348841,106.279057 L209.862532,104.481138 C209.938453,104.215413 210.214035,104 210.504684,104 L211.495316,104 C211.774045,104 212.062049,104.217172 212.137468,104.481138 L212.651159,106.279057 C212.829054,106.341272 213.002361,106.413257 213.170436,106.49437 L214.80522,105.586157 C215.046801,105.451946 215.393986,105.494491 215.599506,105.700012 L216.299988,106.400494 C216.49708,106.597585 216.547166,106.954799 216.413843,107.19478 L215.50563,108.829564 C215.586743,108.997639 215.658728,109.170946 215.720943,109.348841 L217.518862,109.862532 C217.784587,109.938453 218,110.214035 218,110.504684 L218,111.495316 C218,111.774045 217.782828,112.062049 217.518862,112.137468 L215.720943,112.651159 C215.658728,112.829054 215.586743,113.002361 215.50563,113.170436 L216.413843,114.80522 C216.548054,115.046801 216.505509,115.393986 216.299988,115.599506 L215.599506,116.299988 C215.402415,116.49708 215.045201,116.547166 214.80522,116.413843 L213.170436,115.50563 C213.002361,115.586743 212.829054,115.658728 212.651159,115.720943 L212.137468,117.518862 C212.061547,117.784587 211.785965,118 211.495316,118 L210.504684,118 C210.225955,118 209.937951,117.782828 209.862532,117.518862 L209.348841,115.720943 C209.170946,115.658728 208.997639,115.586743 208.829564,115.50563 L207.19478,116.413843 C206.953199,116.548054 206.606014,116.505509 206.400494,116.299988 L205.700012,115.599506 C205.50292,115.402415 205.452834,115.045201 205.586157,114.80522 L206.49437,113.170436 C206.413257,113.002361 206.341272,112.829054 206.279057,112.651159 L204.481138,112.137468 Z M211,113 C212.104569,113 213,112.104569 213,111 C213,109.895431 212.104569,109 211,109 C209.895431,109 209,109.895431 209,111 C209,112.104569 209.895431,113 211,113 Z M211,114 C209.343146,114 208,112.656854 208,111 C208,109.343146 209.343146,108 211,108 C212.656854,108 214,109.343146 214,111 C214,112.656854 212.656854,114 211,114 Z" id="Combined-Shape"></path>
        </g>
    </g>
</svg>