<?xml version="1.0" encoding="UTF-8"?>
<svg width="20px" height="20px" viewBox="0 0 20 20" version="1.1" xmlns="http://www.w3.org/2000/svg" xmlns:xlink="http://www.w3.org/1999/xlink">
    <!-- Generator: Sketch 39.1 (31720) - http://www.bohemiancoding.com/sketch -->
    <title>settings_alt</title>
    <desc>Created with Sketch.</desc>
    <defs></defs>
    <g id="Page-3" stroke="none" stroke-width="1" fill="none" fill-rule="evenodd">
        <g id="Icons" transform="translate(-137.000000, -186.000000)" fill="#000000">
            <path d="M153.983598,196 C153.935593,196.729329 153.783334,197.430182 153.541583,198.087797 L155.38205,198.907225 L154.975314,199.820771 L153.134359,199.001125 C152.839933,199.557884 152.477476,200.073118 152.058056,200.535758 L153.458924,201.986399 L152.739585,202.681057 L151.33879,201.230492 C150.86228,201.633262 150.334852,201.977674 149.767534,202.252698 L150.522355,204.120943 L149.595171,204.49555 L148.840469,202.627598 C148.255421,202.819593 147.638627,202.941563 147,202.983598 L147,205 L146,205 L146,202.983598 C145.361373,202.941563 144.744579,202.819593 144.159531,202.627598 L143.404829,204.49555 L142.477645,204.120943 L143.232466,202.252698 C142.665148,201.977674 142.13772,201.633262 141.66121,201.230492 L140.260415,202.681057 L139.541076,201.986399 L140.941944,200.535758 C140.522524,200.073118 140.160067,199.557884 139.865641,199.001125 L138.024686,199.820771 L137.61795,198.907225 L139.458417,198.087797 C139.216666,197.430182 139.064407,196.729329 139.016402,196 L137,196 L137,195 L139.016402,195 C139.064407,194.270671 139.216666,193.569818 139.458417,192.912203 L137.61795,192.092775 L138.024686,191.179229 L139.865641,191.998875 C140.160067,191.442116 140.522524,190.926882 140.941944,190.464242 L139.541076,189.013601 L140.260415,188.318943 L141.66121,189.769508 C142.13772,189.366738 142.665148,189.022326 143.232466,188.747302 L142.477645,186.879057 L143.404829,186.50445 L144.159531,188.372402 C144.744579,188.180407 145.361373,188.058437 146,188.016402 L146,186 L147,186 L147,188.016402 C147.638627,188.058437 148.255421,188.180407 148.840469,188.372402 L149.595171,186.50445 L150.522355,186.879057 L149.767534,188.747302 C150.334852,189.022326 150.86228,189.366738 151.33879,189.769508 L152.739585,188.318943 L153.458924,189.013601 L152.058056,190.464242 C152.477476,190.926882 152.839933,191.442116 153.134359,191.998875 L154.975314,191.179229 L155.38205,192.092775 L153.541583,192.912203 C153.783334,193.569818 153.935593,194.270671 153.983598,195 L156,195 L156,196 L153.983598,196 Z M146.5,202 C150.089851,202 153,199.089851 153,195.5 C153,191.910149 150.089851,189 146.5,189 C142.910149,189 140,191.910149 140,195.5 C140,199.089851 142.910149,202 146.5,202 Z" id="Combined-Shape"></path>
            <path d="M146.787013,196 L153,196 L153,195 L146.787013,195 L143.520503,189.162363 L142.599998,189.553094 L145.92765,195.5 L142.599998,201.446906 L143.520503,201.837637 L146.787013,196 Z" id="Combined-Shape"></path>
        </g>
    </g>
</svg>