<?xml version="1.0" encoding="UTF-8"?>
<svg width="20px" height="20px" viewBox="0 0 20 20" version="1.1" xmlns="http://www.w3.org/2000/svg" xmlns:xlink="http://www.w3.org/1999/xlink">
    <!-- Generator: Sketch 39.1 (31720) - http://www.bohemiancoding.com/sketch -->
    <title>settings_active</title>
    <desc>Created with Sketch.</desc>
    <defs></defs>
    <g id="Page-1" stroke="none" stroke-width="1" fill="none" fill-rule="evenodd">
        <path d="M12.8217448,16.2261468 C12.5271836,16.3718958 12.2216754,16.4988648 11.9067848,16.6054893 C11.6504139,17.4140792 10.8937857,18 9.9951185,18 L9.0048815,18 C8.10842726,18 7.34939191,17.4165935 7.09286253,16.6053699 C6.77797774,16.4987298 6.47247602,16.3717456 6.17792208,16.225982 C5.42481602,16.6167149 4.47526242,16.4960777 3.83969401,15.8605093 L3.13949071,15.160306 C2.50548786,14.5263031 2.38136883,13.576826 2.77385318,12.8217448 C2.62810421,12.5271836 2.50113516,12.2216754 2.39451072,11.9067848 C1.5859208,11.6504139 1,10.8937857 1,9.9951185 L1,9.0048815 C1,8.10842726 1.58340648,7.34939191 2.39463014,7.09286253 C2.50127017,6.77797774 2.62825437,6.47247602 2.77401804,6.17792208 C2.3832851,5.42481602 2.5039223,4.47526242 3.13949071,3.83969401 L3.83969401,3.13949071 C4.47369686,2.50548786 5.42317395,2.38136883 6.17825525,2.77385318 C6.47281636,2.62810421 6.77832457,2.50113516 7.09321519,2.39451072 C7.34958608,1.5859208 8.10621429,1 9.0048815,1 L9.9951185,1 C10.8915727,1 11.6506081,1.58340648 11.9071375,2.39463014 C12.2220223,2.50127017 12.527524,2.62825437 12.8220779,2.77401804 C13.575184,2.3832851 14.5247376,2.5039223 15.160306,3.13949071 L15.8605093,3.83969401 C16.4945121,4.47369686 16.6186312,5.42317395 16.2261468,6.17825525 C16.3718958,6.47281636 16.4988648,6.77832457 16.6054893,7.09321519 C17.4140792,7.34958608 18,8.10621429 18,9.0048815 L18,9.9951185 C18,10.8915727 17.4165935,11.6506081 16.6053699,11.9071375 C16.4987298,12.2220223 16.3717456,12.527524 16.225982,12.8220779 C16.6167149,13.575184 16.4960777,14.5247376 15.8605093,15.160306 L15.160306,15.8605093 C14.5263031,16.4945121 13.576826,16.6186312 12.8217448,16.2261468 Z M6,9.5 C6,7.56700338 7.56700338,6 9.5,6 C11.4329966,6 13,7.56700338 13,9.5 C13,11.4329966 11.4329966,13 9.5,13 C7.56700338,13 6,11.4329966 6,9.5 Z M7,9.5 C7,8.11928813 8.11928813,7 9.5,7 C10.8807119,7 12,8.11928813 12,9.5 C12,10.8807119 10.8807119,12 9.5,12 C8.11928813,12 7,10.8807119 7,9.5 Z" id="Combined-Shape" fill="#000000"></path>
    </g>
</svg>