<?xml version="1.0" encoding="UTF-8" standalone="no"?>
<svg width="20px" height="20px" viewBox="0 0 20 20" version="1.1" xmlns="http://www.w3.org/2000/svg" xmlns:xlink="http://www.w3.org/1999/xlink">
    <!-- Generator: Sketch 3.8.3 (29802) - http://www.bohemiancoding.com/sketch -->
    <title>sharing</title>
    <desc>Created with Sketch.</desc>
    <defs></defs>
    <g id="Page-3" stroke="none" stroke-width="1" fill="none" fill-rule="evenodd">
        <g id="Icons" transform="translate(-137.000000, -146.000000)" fill="#000000">
            <path d="M147.490304,160.273549 L147.196595,160.144595 C146.94606,160.018217 146.805347,159.790554 146.805347,159.541509 L146.805347,159.350245 L146.571203,159.350245 C146.672081,158.531323 146.869233,157.624638 146.996162,157.148777 C147.211555,157.562976 147.423799,157.868948 147.558061,158.029542 L147.654277,158.144628 C147.469022,158.540296 147.250711,158.916965 147.000237,159.270753 C146.886865,159.430486 146.778765,159.569313 146.680428,159.680872 L146.547002,159.56326 C146.473786,160.270962 146.487431,160.874288 146.703395,161.013622 L146.829507,160.956137 C147.114308,160.801145 147.343022,160.560568 147.490304,160.273549 Z M151.476207,163.342814 C151.46534,163.542102 151.45303,163.703576 151.433119,163.729068 C151.388734,163.785788 151.335455,163.836002 151.267087,163.891511 C151.163625,163.975515 150.832776,164.192533 150.832776,164.192533 L137.772179,164.199689 C137.772179,164.199689 137.423299,163.985926 137.313534,163.90422 C137.244075,163.852517 137.189634,163.806227 137.144244,163.755981 C137.092888,163.69923 137.092888,162.69923 137.023532,162.553575 C136.975993,162.242934 136.975993,162.242934 137.243684,161.952554 L141.331754,160.089095 C141.543128,159.973838 141.67446,159.752581 141.67446,159.511755 L141.67446,159.350245 L141.79086,159.670949 C141.610066,159.454698 141.351474,159.081139 141.09465,158.582509 C140.849893,158.107308 140.657545,157.605599 140.537825,157.08429 L141.02514,156.972377 L140.753894,157.392408 C140.342116,157.126492 140.085989,156.670955 140.085989,156.172943 L140.085989,154.901736 C140.085989,154.486888 140.264682,154.100784 140.568371,153.826339 L140.903611,154.197302 L140.403611,154.197302 L140.407912,153.425114 C140.404947,153.401731 140.404947,153.401731 140.399874,153.34154 C140.364196,152.845071 140.449355,152.260296 140.759955,151.690523 C141.339798,150.626845 142.530427,150 144.398894,150 C145.252215,150 145.964158,150.130742 146.541111,150.374125 C146.414324,150.687697 146.378326,151.005805 146.397302,151.26986 C146.399764,151.298599 146.399764,151.298599 146.403611,151.359679 L146.403611,151.414908 C145.932253,151.149109 145.278353,151 144.398894,151 C142.878685,151 142.032438,151.445534 141.637971,152.169156 C141.432751,152.545616 141.374165,152.947914 141.397302,153.26986 C141.399764,153.298599 141.399764,153.298599 141.403611,153.359679 L141.403611,154.197302 L141.403611,154.419371 L141.238852,154.568265 C141.140939,154.65675 141.085989,154.775481 141.085989,154.901736 L141.085989,156.172943 C141.085989,156.326213 141.165673,156.467936 141.296386,156.552347 L141.466997,156.662523 L141.512454,156.860464 C141.61222,157.294884 141.77505,157.7196 141.983658,158.124617 C142.203314,158.551084 142.421201,158.865841 142.558061,159.029542 L142.67446,159.16877 L142.67446,159.350245 L142.67446,159.511755 C142.67446,160.118531 142.343226,160.676564 141.829507,160.956137 L137.74143,162.819599 C138.016361,162.528821 138.016361,162.528821 137.97194,162.236524 C137.912993,162.112991 137.912993,162.112991 137.910643,162.10206 C137.986858,162.158793 138.278803,163.337522 138.278803,163.337522 L150.301581,163.345283 C150.301581,163.345283 150.301832,163.344186 150.302319,163.342056 L151.476207,163.342814 Z" id="Fill-129-Copy-2"></path>
            <path d="M142.023532,162.553575 C142.092888,162.69923 142.092888,163.69923 142.144244,163.755981 C142.189634,163.806227 142.244075,163.852517 142.313534,163.90422 C142.423299,163.985926 142.772179,164.199689 142.772179,164.199689 L155.832776,164.192533 C155.832776,164.192533 156.163625,163.975515 156.267087,163.891511 C156.335455,163.836002 156.388734,163.785788 156.433119,163.729068 C156.485279,163.662286 156.485279,162.662286 156.543819,162.493956 C156.54497,162.174837 156.54497,162.174837 156.270844,161.933402 L152.196595,160.144595 C151.94606,160.018217 151.805347,159.790554 151.805347,159.541509 L151.805347,158.350245 L151.305347,158.350245 L151.680428,158.680872 C151.778765,158.569313 151.886865,158.430486 152.000237,158.270753 C152.436771,157.654158 152.775612,156.968065 153.012031,156.233019 L152.536045,156.079925 L152.683552,156.557671 C153.288222,156.370976 153.7118,155.81362 153.7118,155.172943 L153.7118,153.901736 C153.7118,153.486888 153.533107,153.100784 153.229418,152.826339 L152.894177,153.197302 L153.394177,153.197302 L153.394177,151.359679 C153.433593,150.845071 153.348434,150.260296 153.037834,149.690523 C152.457991,148.626845 151.267362,148 149.398894,148 C147.530427,148 146.339798,148.626845 145.759955,149.690523 C145.449355,150.260296 145.364196,150.845071 145.399874,151.34154 C145.404947,151.401731 145.404947,151.401731 145.407912,151.425114 L145.403611,153.197302 L145.903611,153.197302 L145.568371,152.826339 C145.264682,153.100784 145.085989,153.486888 145.085989,153.901736 L145.085989,155.172943 C145.085989,155.670955 145.342116,156.126492 145.753894,156.392408 L146.02514,155.972377 L145.537825,156.08429 C145.657545,156.605599 145.849893,157.107308 146.09465,157.582509 C146.351474,158.081139 146.610066,158.454698 146.79086,158.670949 L146.67446,158.350245 L146.67446,159.511755 C146.67446,159.752581 146.543128,159.973838 146.331754,160.089095 L142.243684,161.952554 C141.975993,162.242934 141.975993,162.242934 142.023532,162.553575 Z M146.829507,160.956137 C147.343226,160.676564 147.67446,160.118531 147.67446,159.511755 L147.67446,158.350245 L147.67446,158.16877 L147.558061,158.029542 C147.421201,157.865841 147.203314,157.551084 146.983658,157.124617 C146.77505,156.7196 146.61222,156.294884 146.512454,155.860464 L146.466997,155.662523 L146.296386,155.552347 C146.165673,155.467936 146.085989,155.326213 146.085989,155.172943 L146.085989,153.901736 C146.085989,153.775481 146.140939,153.65675 146.238852,153.568265 L146.403611,153.419371 L146.403611,153.197302 L146.403611,151.359679 C146.399764,151.298599 146.399764,151.298599 146.397302,151.26986 C146.374165,150.947914 146.432751,150.545616 146.637971,150.169156 C147.032438,149.445534 147.878685,149 149.398894,149 C150.919104,149 151.765351,149.445534 152.159818,150.169156 C152.365038,150.545616 152.423624,150.947914 152.400487,151.26986 C152.398025,151.298599 152.394177,153.197302 152.394177,153.197302 L152.394177,153.419371 L152.558937,153.568265 C152.65685,153.65675 152.7118,153.775481 152.7118,153.901736 L152.7118,155.172943 C152.7118,155.369105 152.579472,155.543226 152.388538,155.602178 L152.139776,155.678985 L152.06006,155.92683 C151.85433,156.566464 151.560792,157.160826 151.184417,157.692447 C151.090398,157.824913 151.003327,157.936735 150.930266,158.019618 L150.805347,158.161333 L150.805347,158.350245 L150.805347,159.541509 C150.805347,160.169336 151.160072,160.743257 151.721646,161.024044 L155.795895,162.81285 C155.427574,162.629801 155.492345,162.308623 155.645584,162.112797 C155.569888,162.169477 155.301581,163.345283 155.301581,163.345283 L143.278803,163.337522 C143.278803,163.337522 142.986858,162.158793 142.910643,162.10206 C142.912993,162.112991 142.912993,162.112991 142.97194,162.236524 C143.016361,162.528821 143.016361,162.528821 142.74143,162.819599 L146.829507,160.956137 Z" id="Fill-129"></path>
        </g>
    </g>
</svg>