<?xml version="1.0" encoding="UTF-8" standalone="no"?>
<svg width="20px" height="20px" viewBox="0 0 20 20" version="1.1" xmlns="http://www.w3.org/2000/svg" xmlns:xlink="http://www.w3.org/1999/xlink">
    <!-- Generator: Sketch 3.8.3 (29802) - http://www.bohemiancoding.com/sketch -->
    <title>share</title>
    <desc>Created with Sketch.</desc>
    <defs></defs>
    <g id="Page-3" stroke="none" stroke-width="1" fill="none" fill-rule="evenodd">
        <g id="Icons" transform="translate(-220.000000, -16.000000)" fill="#000000">
            <rect id="Rectangle-1785" opacity="0.0899999961" x="224" y="23" width="11" height="10"></rect>
            <rect id="Rectangle-1785-Copy" opacity="0.0899999961" x="224" y="32" width="11" height="1"></rect>
            <path d="M230,20.1428571 L230,20.4090909 L230,23 L234,23 C235.1,23 236,23.9 236,25 L236,32 C236,33.1 235.1,34 234,34 L225,34 C223.9,34 223,33.1 223,32 L223,25 C223,23.9 223.9,23 225,23 L229,23 L229,20.4090909 L229,20.1428571 L226,21 L229.5,18 L233,21 L230,20.1428571 Z M229,24 L224.846154,24 C224.372308,24 224,24.45 224,25 L224,32 C224,32.54 224.380769,33 224.846154,33 L234.153846,33 C234.627692,33 235,32.55 235,32 L235,25 C235,24.46 234.619231,24 234.153846,24 L230,24 L230,28.5909091 L230,29 L229,29 L229,28.5909091 L229,24 Z M230,24 L232,24 L232,23 L230,23 L230,24 Z M229,24 L227,24 L227,23 L229,23 L229,24 Z" id="share"></path>
        </g>
    </g>
</svg>