<?xml version="1.0" encoding="UTF-8" standalone="no"?>
<svg width="20px" height="20px" viewBox="0 0 20 20" version="1.1" xmlns="http://www.w3.org/2000/svg" xmlns:xlink="http://www.w3.org/1999/xlink">
    <!-- Generator: Sketch 3.8.3 (29802) - http://www.bohemiancoding.com/sketch -->
    <title>sidebar_alt_active</title>
    <desc>Created with Sketch.</desc>
    <defs></defs>
    <g id="Page-3" stroke="none" stroke-width="1" fill="none" fill-rule="evenodd">
        <g id="Artboard-10" transform="translate(-194.000000, -10.000000)" fill="#000000">
            <path d="M194,13.0008717 C194,12.4481055 194.455306,12 194.991803,12 L213.008197,12 C213.555955,12 214,12.4446309 214,13.0008717 L214,26.9991283 C214,27.5518945 213.544694,28 213.008197,28 L194.991803,28 C194.444045,28 194,27.5553691 194,26.9991283 L194,13.0008717 Z M201,12 L202,12 L202,28 L201,28 L201,12 Z M196,18 L199,18 L199,19 L196,19 L196,18 Z M196,16 L199,16 L199,17 L196,17 L196,16 Z M196,14 L199,14 L199,15 L196,15 L196,14 Z" id="Combined-Shape"></path>
        </g>
    </g>
</svg>