<?xml version="1.0" encoding="UTF-8" standalone="no"?>
<svg width="20px" height="20px" viewBox="0 0 20 20" version="1.1" xmlns="http://www.w3.org/2000/svg" xmlns:xlink="http://www.w3.org/1999/xlink">
    <!-- Generator: Sketch 3.6.1 (26313) - http://www.bohemiancoding.com/sketch -->
    <title>size_big</title>
    <desc>Created with Sketch.</desc>
    <defs></defs>
    <g id="Page-3" stroke="none" stroke-width="1" fill="none" fill-rule="evenodd">
        <g id="Icons" transform="translate(-247.000000, -76.000000)">
            <path d="M250,81.0024733 L250,81.0024733 L250,90.9975267 C250,90.9957712 250.004202,91 250.000872,91 L263.999128,91 C264.000987,91 264,91.0009909 264,90.9975267 L264,81.0024733 C264,81.0042288 263.995798,81 263.999128,81 L250.000872,81 C249.999013,81 250,80.9990091 250,81.0024733 L250,81.0024733 Z M249,81.0024733 C249,80.4488226 249.444631,80 250.000872,80 L263.999128,80 C264.551894,80 265,80.455761 265,81.0024733 L265,90.9975267 C265,91.5511774 264.555369,92 263.999128,92 L250.000872,92 C249.448106,92 249,91.544239 249,90.9975267 L249,81.0024733 Z M260,83 L262,83 L262,85 L260,85 L260,83 Z" id="Rectangle-1265" fill="#000000"></path>
            <path d="M265.040039,91.5 L260.5,86.9644661 L258.207107,88.2573593 L254.5,84.5502525 L249,91" id="Combined-Shape" stroke="#000000" stroke-linecap="round"></path>
        </g>
    </g>
</svg>