<svg xmlns="http://www.w3.org/2000/svg" width="20" height="20" viewBox="0 0 20 20">
  <path d="M11 4L15 14 7 14 11 4zM13.25 12L8.75 12 8 14 14 14 13.25 12zM11 6L9.125 11 12.875 11 11 6zM.23246125 9.00005325L5.56579425 1.00005325 0 1.00005325 0 0 6.49321325 0C6.49807825 0 6.50294225 0 6.50780825 0L7.0001065 0 7.0001065.49321325C7.0001065.49807825 7.0001065.50294225 7.0001065.50780825L6.76764525 1.00005325 1.43431225 9.00005325 7.0001065 9.00005325 7.0001065 10.0001065.50689025 10.0001065C.50202825 10.0001065.49716425 10.0001065.49229825 10.0001065L0 10.0001065 0 9.50689025C0 9.50202825 0 9.49716425 0 9.49229825L.23246125 9.00005325z" transform="translate(2 3)"/>
</svg>
