<?xml version="1.0" encoding="UTF-8" standalone="no"?>
<svg width="20px" height="20px" viewBox="0 0 20 20" version="1.1" xmlns="http://www.w3.org/2000/svg" xmlns:xlink="http://www.w3.org/1999/xlink">
    <!-- Generator: Sketch 3.8.3 (29802) - http://www.bohemiancoding.com/sketch -->
    <title>sort_lastUpdate</title>
    <desc>Created with Sketch.</desc>
    <defs></defs>
    <g id="Page-3" stroke="none" stroke-width="1" fill="none" fill-rule="evenodd">
        <g id="Icons" transform="translate(-530.000000, -76.000000)" fill="#000000">
            <path d="M539.5,93 L539.5,93 C535.357864,93 532,89.6421356 532,85.5 C532,81.3578644 535.357864,78 539.5,78 C543.642136,78 547,81.3578644 547,85.5 C547,89.6421356 543.642136,93 539.5,93 L539.5,93 Z" id="Combined-Shape" opacity="0.1"></path>
            <path d="M539.5,92 L539.5,92 C543.089851,92 546,89.0898509 546,85.5 C546,81.9101491 543.089851,79 539.5,79 C535.910149,79 533,81.9101491 533,85.5 C533,89.0898509 535.910149,92 539.5,92 L539.5,92 Z M539.5,93 L539.5,93 C535.357864,93 532,89.6421356 532,85.5 C532,81.3578644 535.357864,78 539.5,78 C543.642136,78 547,81.3578644 547,85.5 C547,89.6421356 543.642136,93 539.5,93 L539.5,93 Z" id="Combined-Shape-Copy-10"></path>
            <path d="M539,81.5 L539,85.5 C539,85.7761424 539.223858,86 539.5,86 C539.776142,86 540,85.7761424 540,85.5 L540,81.5 C540,81.2238576 539.776142,81 539.5,81 C539.223858,81 539,81.2238576 539,81.5 L539,81.5 Z" id="Line"></path>
            <path d="M539.146447,85.8535534 L541.681981,88.3890873 C541.877243,88.5843494 542.193825,88.5843494 542.389087,88.3890873 C542.584349,88.1938251 542.584349,87.8772427 542.389087,87.6819805 L539.853553,85.1464466 C539.658291,84.9511845 539.341709,84.9511845 539.146447,85.1464466 C538.951184,85.3417088 538.951184,85.6582912 539.146447,85.8535534 L539.146447,85.8535534 Z" id="Line"></path>
        </g>
    </g>
</svg>