<?xml version="1.0" encoding="UTF-8" standalone="no"?>
<svg width="20px" height="20px" viewBox="0 0 20 20" version="1.1" xmlns="http://www.w3.org/2000/svg" xmlns:xlink="http://www.w3.org/1999/xlink">
    <!-- Generator: Sketch 3.8.3 (29802) - http://www.bohemiancoding.com/sketch -->
    <title>sort_title</title>
    <desc>Created with Sketch.</desc>
    <defs></defs>
    <g id="Page-3" stroke="none" stroke-width="1" fill="none" fill-rule="evenodd">
        <g id="Icons" transform="translate(-500.000000, -76.000000)" fill="#000000">
            <path d="M503.75,87 L503,89 L509,89 L508.25,87 L503.75,87 Z M504.125,86 L506,81 L507.875,86 L504.125,86 Z M502,89 L506,79 L510,89 L502,89 Z" id="Rectangle-1315-Copy-2"></path>
            <path d="M510.232408,92 L515.565741,84 L510,84 L510,83 L516.49316,83 C516.498025,82.9999292 516.502889,82.9999291 516.507755,83 L517,83 L517,83.4931596 C517.000071,83.4980245 517.000071,83.5028888 517,83.507755 L517,84 L516.767592,84 L511.434259,92 L517,92 L517,93 L510.506837,93 C510.501975,93.0000708 510.497111,93.0000709 510.492245,93 L510,93 L510,92.5068375 C509.999929,92.5019754 509.999929,92.4971112 510,92.492245 L510,92 L510.232408,92 Z" id="Combined-Shape"></path>
        </g>
    </g>
</svg>