<?xml version="1.0" encoding="UTF-8"?>
<svg width="20px" height="20px" viewBox="0 0 20 20" version="1.1" xmlns="http://www.w3.org/2000/svg" xmlns:xlink="http://www.w3.org/1999/xlink">
    <!-- Generator: Sketch 40.3 (33839) - http://www.bohemiancoding.com/sketch -->
    <title>sort_lastUpdate_active</title>
    <desc>Created with Sketch.</desc>
    <defs></defs>
    <g id="Page-3" stroke="none" stroke-width="1" fill="none" fill-rule="evenodd">
        <g id="Icons" transform="translate(-530.000000, -106.000000)" fill="#000000">
            <path d="M540,115.292893 L542.389087,117.681981 C542.584349,117.877243 542.584349,118.193825 542.389087,118.389087 C542.193825,118.584349 541.877243,118.584349 541.681981,118.389087 L539.146447,115.853553 C539.097631,115.804738 539.061019,115.74834 539.036612,115.68815 C539.013991,115.634803 539,115.569036 539,115.5 L539,111.5 C539,111.223858 539.223858,111 539.5,111 C539.776142,111 540,111.223858 540,111.5 L540,115.292893 Z M539.5,123 C543.642136,123 547,119.642136 547,115.5 C547,111.357864 543.642136,108 539.5,108 C535.357864,108 532,111.357864 532,115.5 C532,119.642136 535.357864,123 539.5,123 Z" id="Oval"></path>
        </g>
    </g>
</svg>