<?xml version="1.0" encoding="UTF-8"?>
<svg width="20px" height="20px" viewBox="0 0 20 20" version="1.1" xmlns="http://www.w3.org/2000/svg" xmlns:xlink="http://www.w3.org/1999/xlink">
    <!-- Generator: Sketch 40.3 (33839) - http://www.bohemiancoding.com/sketch -->
    <title>sort_title_active</title>
    <desc>Created with Sketch.</desc>
    <defs></defs>
    <g id="Page-3" stroke="none" stroke-width="1" fill="none" fill-rule="evenodd">
        <g id="Icons" transform="translate(-500.000000, -106.000000)" fill="#000000">
            <path d="M503.75,117 L503,119 L509,119 L508.25,117 L503.75,117 Z M504.125,116 L506,111 L507.875,116 L504.125,116 Z M502,119 L506,109 L510,119 L502,119 Z" id="Rectangle-1315-Copy-9"></path>
            <path d="M510.232408,122 L515.565741,114 L510,114 L510,113 L516.49316,113 C516.498025,112.999929 516.502889,112.999929 516.507755,113 L517,113 L517,113.49316 C517.000071,113.498025 517.000071,113.502889 517,113.507755 L517,114 L516.767592,114 L511.434259,122 L517,122 L517,123 L510.506837,123 C510.501975,123.000071 510.497111,123.000071 510.492245,123 L510,123 L510,122.506837 C509.999929,122.501975 509.999929,122.497111 510,122.492245 L510,122 L510.232408,122 Z" id="Combined-Shape-Copy-17"></path>
        </g>
    </g>
</svg>