<?xml version="1.0" encoding="UTF-8" standalone="no"?>
<svg width="20px" height="20px" viewBox="0 0 20 20" version="1.1" xmlns="http://www.w3.org/2000/svg" xmlns:xlink="http://www.w3.org/1999/xlink">
    <!-- Generator: Sketch 3.8.3 (29802) - http://www.bohemiancoding.com/sketch -->
    <title>tag</title>
    <desc>Created with Sketch.</desc>
    <defs></defs>
    <g id="Page-3" stroke="none" stroke-width="1" fill="none" fill-rule="evenodd">
        <g id="Icons" transform="translate(-620.000000, -46.000000)" fill="#000000">
            <path d="M622.002929,50 L632.997771,50 C633.551287,50 634.283148,50.3397772 634.643427,50.7721119 L638.356573,55.2278881 C638.711928,55.6543137 638.716852,56.3397772 638.356573,56.7721119 L634.643427,61.2278881 C634.288072,61.6543137 633.54435,62 632.997771,62 L622.002929,62 C621.449027,62 621,61.5469637 621,61.0029699 L621,50.9970301 C621,50.4463856 621.437881,50 622.002929,50 Z" id="Path" opacity="0.0899999961"></path>
            <path d="M622.002929,50 L632.997771,50 C633.551287,50 634.283148,50.3397772 634.643427,50.7721119 L638.356573,55.2278881 C638.711928,55.6543137 638.716852,56.3397772 638.356573,56.7721119 L634.643427,61.2278881 C634.288072,61.6543137 633.54435,62 632.997771,62 L622.002929,62 C621.449027,62 621,61.5469637 621,61.0029699 L621,50.9970301 C621,50.4463856 621.437881,50 622.002929,50 Z M622,61.0029699 C622,60.9966842 633.549988,60.9980688 633.549988,60.9980688 L637.702576,56.0030918 L633.549988,51 L622.002929,51 C621.99442,51 622,61.0029699 622,61.0029699 Z" id="Rectangle-1309"></path>
            <rect id="Rectangle-1424" x="624" y="54" width="1" height="4"></rect>
            <rect id="Rectangle-1424-Copy" x="626" y="54" width="1" height="4"></rect>
        </g>
    </g>
</svg>