<?xml version="1.0" encoding="UTF-8"?>
<svg width="20px" height="20px" viewBox="0 0 20 20" version="1.1" xmlns="http://www.w3.org/2000/svg" xmlns:xlink="http://www.w3.org/1999/xlink">
    <!-- Generator: Sketch 39.1 (31720) - http://www.bohemiancoding.com/sketch -->
    <title>view_gallery</title>
    <desc>Created with Sketch.</desc>
    <defs></defs>
    <g id="Page-3" stroke="none" stroke-width="1" fill="none" fill-rule="evenodd">
        <g id="Icons" transform="translate(-457.000000, -166.000000)" fill="#000000">
            <path d="M459,169.997545 C459,169.446616 459.437881,169 460.002929,169 L464.997071,169 C465.550973,169 466,169.446311 466,169.997545 L466,177.002455 C466,177.553384 465.562119,178 464.997071,178 L460.002929,178 C459.449027,178 459,177.553689 459,177.002455 L459,169.997545 Z M459,179.999807 C459,179.447629 459.437881,179 460.002929,179 L464.997071,179 C465.550973,179 466,179.443717 466,179.999807 L466,183.000193 C466,183.552371 465.562119,184 464.997071,184 L460.002929,184 C459.449027,184 459,183.556283 459,183.000193 L459,179.999807 Z M467,169.990778 C467,169.443586 467.437881,169 468.002929,169 L472.997071,169 C473.550973,169 474,169.450975 474,169.990778 L474,174.009222 C474,174.556414 473.562119,175 472.997071,175 L468.002929,175 C467.449027,175 467,174.549025 467,174.009222 L467,169.990778 Z M467,176.99703 C467,176.446386 467.437881,176 468.002929,176 L472.997071,176 C473.550973,176 474,176.453036 474,176.99703 L474,183.00297 C474,183.553614 473.562119,184 472.997071,184 L468.002929,184 C467.449027,184 467,183.546964 467,183.00297 L467,176.99703 Z" id="Combined-Shape" opacity="0.0899999961"></path>
            <path d="M459,169.997545 C459,169.446616 459.437881,169 460.002929,169 L464.997071,169 C465.550973,169 466,169.446311 466,169.997545 L466,177.002455 C466,177.553384 465.562119,178 464.997071,178 L460.002929,178 C459.449027,178 459,177.553689 459,177.002455 L459,169.997545 Z M459,179.999807 C459,179.447629 459.437881,179 460.002929,179 L464.997071,179 C465.550973,179 466,179.443717 466,179.999807 L466,183.000193 C466,183.552371 465.562119,184 464.997071,184 L460.002929,184 C459.449027,184 459,183.556283 459,183.000193 L459,179.999807 Z M467,169.990778 C467,169.443586 467.437881,169 468.002929,169 L472.997071,169 C473.550973,169 474,169.450975 474,169.990778 L474,174.009222 C474,174.556414 473.562119,175 472.997071,175 L468.002929,175 C467.449027,175 467,174.549025 467,174.009222 L467,169.990778 Z M467,176.99703 C467,176.446386 467.437881,176 468.002929,176 L472.997071,176 C473.550973,176 474,176.453036 474,176.99703 L474,183.00297 C474,183.553614 473.562119,184 472.997071,184 L468.002929,184 C467.449027,184 467,183.546964 467,183.00297 L467,176.99703 Z M460,170 L465,170 L465,177 L460,177 L460,170 Z M468,177 L473,177 L473,183 L468,183 L468,177 Z M468,170 L473,170 L473,174 L468,174 L468,170 Z M460,180 L465,180 L465,183 L460,183 L460,180 Z" id="Combined-Shape-Copy-9"></path>
        </g>
    </g>
</svg>