<?xml version="1.0" encoding="UTF-8" standalone="no"?>
<svg width="20px" height="20px" viewBox="0 0 20 20" version="1.1" xmlns="http://www.w3.org/2000/svg" xmlns:xlink="http://www.w3.org/1999/xlink">
    <!-- Generator: Sketch 3.8.3 (29802) - http://www.bohemiancoding.com/sketch -->
    <title>vk</title>
    <desc>Created with Sketch.</desc>
    <defs></defs>
    <g id="Page-3" stroke="none" stroke-width="1" fill="none" fill-rule="evenodd">
        <g id="Artboard-10" transform="translate(-344.000000, -40.000000)" fill="#000000">
            <path d="M345.003066,44.8600089 C344.879737,44.1074399 348.517931,44.5733859 348.517931,44.5733859 C348.517931,44.5733859 350.629934,49.8772056 351.462402,49.8772055 C352.29487,49.8772054 351.894052,45.3797098 351.894052,45.3797098 C351.894052,45.3797098 350.861175,45.1109352 350.861175,44.6988141 C350.861175,44.286693 351.894052,44 351.894052,44 C351.894052,44 354.567067,44 354.931019,44 C355.29497,44 355.439809,44.5913042 355.439809,44.985507 C355.43981,45.3797098 355.439809,49.8055323 355.439809,49.8055323 L356.272277,49.8055323 C356.272277,49.8055323 357.013309,48.6144875 357.598,47.4044788 C358.182691,46.1944701 358.89295,44.5733859 358.89295,44.5733859 L362.423231,44.5733859 C362.423231,44.5733859 363.070706,44.5911642 362.993626,45.1287835 C362.888765,45.8601701 360.540092,49.3333996 360.049156,50.5221947 C359.67917,51.4181102 361.603431,52.6307368 362.423231,53.9266735 C362.955293,54.7677538 362.993626,55.7544111 362.993626,55.7544111 L358.800514,55.7544111 L356.703867,53.317451 C356.703867,53.317451 356.272277,53.1383379 355.933064,53.3891242 C355.59385,53.6399106 355.578494,54.1416932 355.578494,54.1416932 L355.578494,55.7544111 L352.29487,55.7544111 C352.29487,55.7544111 349.782049,54.8943322 347.654631,51.1314872 C345.527212,47.3686422 345.126395,45.6125779 345.003066,44.8600089 L345.003066,44.8600089 Z" id="vkontakte"></path>
        </g>
    </g>
</svg>