<?xml version="1.0" encoding="UTF-8" standalone="no"?>
<svg width="20px" height="20px" viewBox="0 0 20 20" version="1.1" xmlns="http://www.w3.org/2000/svg" xmlns:xlink="http://www.w3.org/1999/xlink">
    <!-- Generator: Sketch 3.6.1 (26313) - http://www.bohemiancoding.com/sketch -->
    <title>web_active</title>
    <desc>Created with Sketch.</desc>
    <defs></defs>
    <g id="Page-3" stroke="none" stroke-width="1" fill="none" fill-rule="evenodd">
        <g id="Icons" transform="translate(-307.000000, -136.000000)" fill="#000000">
            <path d="M309,140.006845 C309,139.45078 309.444631,139 310.000872,139 L323.999128,139 C324.551894,139 325,139.449949 325,140.006845 L325,151.993155 C325,152.54922 324.555369,153 323.999128,153 L310.000872,153 C309.448106,153 309,152.550051 309,151.993155 L309,140.006845 Z M309,144 L325,144 L325,145 L309,145 L309,144 Z M319,145 L320,145 L320,153 L319,153 L319,145 Z M311,141 L312,141 L312,142 L311,142 L311,141 Z M313,141 L314,141 L314,142 L313,142 L313,141 Z M315,141 L316,141 L316,142 L315,142 L315,141 Z" id="Combined-Shape"></path>
        </g>
    </g>
</svg>