<svg xmlns="http://www.w3.org/2000/svg" width="320" height="161" viewBox="0 0 320 161">
  <g fill="none">
    <path fill="#1988E0" d="M21.3535766,107.26073 C23.5969009,107.26073 25.4154745,109.079304 25.4154745,111.322628 C25.4154745,113.565952 23.5969009,115.384526 21.3535766,115.384526 C19.1102524,115.384526 17.2916788,113.565952 17.2916788,111.322628 C17.2916788,109.079304 19.1102524,107.26073 21.3535766,107.26073 Z M273.333723,105.506569 C275.577047,105.506569 277.39562,107.325143 277.39562,109.568467 C277.39562,111.811791 275.577047,113.630365 273.333723,113.630365 C271.090398,113.630365 269.271825,111.811791 269.271825,109.568467 C269.271825,107.325143 271.090398,105.506569 273.333723,105.506569 Z M32.6063728,83.4229664 C32.8953097,85.5213607 31.4284546,87.456675 29.3300602,87.7456119 L16.5872275,89.5002268 C14.4888332,89.7891637 12.5535188,88.3223086 12.264582,86.2239142 C11.9756451,84.1255198 13.4425002,82.1902055 15.5408946,81.9012687 L28.2837273,80.1466537 C30.3821216,79.8577169 32.317436,81.324572 32.6063728,83.4229664 Z M282.33427,66.8529363 C283.488851,68.6287985 282.985203,71.004392 281.209341,72.1589728 L270.425136,79.170348 C268.649274,80.3249288 266.27368,79.8212808 265.119099,78.0454186 C263.964519,76.2695564 264.468167,73.893963 266.244029,72.7393821 L277.028234,65.7280069 C278.804096,64.5734261 281.179689,65.0770741 282.33427,66.8529363 Z M34.5530179,33.9401908 C39.3562864,34.4331714 42.8504651,38.7266296 42.3574844,43.5298981 L41.9542194,47.4590389 C41.4612388,52.2623074 37.1677805,55.7564861 32.3645121,55.2635055 C27.5612436,54.7705248 24.0670649,50.4770666 24.5600455,45.6737981 L24.9633106,41.7446573 C25.4562912,36.9413889 29.7497494,33.4472102 34.5530179,33.9401908 Z M256.254241,28.1258506 L273.621457,40.5458066 L271.114639,44.0511684 C270.560849,44.8255516 269.484151,45.004377 268.709768,44.4505862 L254.146841,34.0360842 C253.372458,33.4822934 253.193633,32.4055956 253.747424,31.6312124 L256.254241,28.1258506 Z"/>
    <path  d="M232.89927,0 C234.417627,0.00433019951 235.872075,0.611651067 236.942649,1.68835762 C238.013223,2.76506418 238.612226,4.22295726 238.60793,5.74131387 L238.60793,5.74131387 L238.607207,78.1969227 C240.708027,77.3683828 242.831397,76.1493864 244.643166,74.6249827 C249.514488,70.5263021 251.681151,64.9060856 250.090967,58.3053572 L250.041628,58.1050355 C249.003458,53.9799395 249.22004,50.3786347 250.513016,47.2855457 C251.580549,44.7317658 253.334784,42.6258298 255.578105,40.9262298 C256.919669,39.909825 258.353779,39.1005584 259.788246,38.4759727 C260.235276,38.2813303 260.654671,38.1170481 261.038392,37.9812977 L261.180599,37.9317252 C261.437557,37.843498 261.624887,37.7860762 261.731129,37.7569334 C262.104345,37.654558 262.489888,37.8741177 262.592264,38.2473336 C262.690983,38.6072205 262.490352,38.9785696 262.141255,39.0964292 L261.988996,39.1418994 L261.859627,39.1826105 C261.790891,39.2047593 261.716148,39.2296115 261.635713,39.2572291 C261.248501,39.390179 260.815286,39.5573317 260.347726,39.7609132 C259.009428,40.3436255 257.670774,41.0990264 256.424423,42.0432949 C254.366713,43.6022717 252.770811,45.5181304 251.806048,47.8260604 C250.651354,50.5883502 250.441284,53.8204567 251.355589,57.5806371 L251.400708,57.7629937 C253.221818,64.9990494 250.857183,71.2281134 245.545447,75.697353 C243.473643,77.4405479 241.023591,78.811041 238.607414,79.6954649 L238.607814,113.146662 C238.632471,113.060361 238.656907,112.973657 238.681121,112.886549 L238.900616,112.083082 C241.378178,103.059159 243.944369,96.8000368 247.527456,91.6228287 C251.624121,85.7035509 257.102002,81.253846 264.785953,77.7484613 C265.138047,77.5878371 265.553688,77.7430548 265.714312,78.0951497 C265.874937,78.4472445 265.719719,78.8628854 265.367624,79.0235095 C257.907431,82.4268168 252.628577,86.7148518 248.679843,92.420383 C245.237457,97.3942927 242.741983,103.446583 240.325756,112.186649 L240.101772,113.005344 C239.674377,114.583673 239.175598,116.041213 238.607695,117.384239 L238.607711,134.1028 C239.178234,133.850031 239.755312,133.532182 240.333031,133.141954 C243.686408,130.876867 246.488452,126.51808 248.417353,119.569029 L248.475537,119.357658 C250.262975,112.809713 254.531034,109.260738 260.455579,108.161892 C263.741998,107.552349 267.23613,107.743823 270.599391,108.430026 C271.213211,108.555263 271.776866,108.688775 272.28192,108.823297 L272.43167,108.863677 C272.559056,108.898452 272.676549,108.931649 272.783731,108.962913 L273.006446,109.029569 C273.059084,109.045774 273.097985,109.058144 273.122635,109.066242 C273.490307,109.187023 273.690452,109.582992 273.569671,109.950664 C273.453203,110.305205 273.080853,110.503972 272.724736,110.40942 L272.531346,110.349864 L272.314021,110.285961 C272.261898,110.271017 272.207248,110.255599 272.150125,110.239752 L272.062594,110.215665 C271.548529,110.075332 270.96354,109.934655 270.319225,109.803196 C267.117777,109.150008 263.794817,108.967913 260.711154,109.539851 C255.345093,110.535114 251.542259,113.662576 249.877326,119.547544 L249.827529,119.726721 C247.814506,127.101057 244.807396,131.810895 241.11748,134.303302 C240.278975,134.869682 239.437525,135.302537 238.60759,135.618377 L238.607,159.364 L319.219854,159.364672 C319.606856,159.364672 319.920584,159.678399 319.920584,160.065401 C319.920584,160.438582 319.628865,160.743629 319.261027,160.764942 L319.219854,160.766131 L178.424195,160.767747 C178.374769,160.784803 178.322849,160.79648 178.269143,160.802081 L178.18733,160.80584 L174.888,160.766042 L0.700729927,160.766131 C0.313727475,160.766131 0,160.452404 0,160.065401 C0,159.692221 0.291718532,159.387174 0.659556721,159.365861 L0.700729927,159.364672 L68.241,159.364042 L68.2385299,123.110584 C65.9192369,122.634457 62.8345483,123.459383 58.6059296,125.957473 L58.3139763,126.131513 C54.0615316,128.690236 50.4312622,129.215932 47.2904626,127.966426 C44.8197353,126.983495 42.8237155,125.02741 40.8220533,122.029835 L40.7185116,121.873859 C40.619648,121.724057 40.5198433,121.570909 40.4139983,121.406726 L39.5941901,120.115942 C37.765294,117.22762 36.649129,115.87216 34.7539543,114.5925 C32.2961278,112.932925 28.8884673,111.915744 23.9422747,111.540178 C23.556383,111.510878 23.267309,111.174298 23.2966098,110.788406 C23.3248642,110.416296 23.6388411,110.134212 24.0072372,110.14081 L24.0483823,110.142741 C29.2200939,110.53543 32.8581352,111.62138 35.5382088,113.43102 C37.6001991,114.823318 38.8125328,116.277035 40.6825783,119.215498 L41.3283297,120.235485 L41.5912028,120.646276 C41.6740194,120.774744 41.7528792,120.896033 41.8303351,121.013997 L41.8882038,121.101907 C43.7812785,123.970369 45.617194,125.792456 47.8085155,126.664231 C50.4781644,127.726299 53.6172567,127.288381 57.4573057,125.010801 L57.5915456,124.930604 C62.0827016,122.229474 65.5098169,121.234861 68.2388661,121.685586 L68.236,89.5810419 L67.859699,89.360322 C55.6243982,82.2267868 45.8055838,80.5985148 33.0710812,84.3394734 C32.699769,84.4485522 32.3103352,84.23597 32.2012565,83.8646578 C32.0921777,83.4933456 32.3047599,83.1039119 32.6760721,82.9948331 C45.6907563,79.1715668 55.8352759,80.8031061 68.2365586,87.958789 L68.2333582,68.2157552 C68.225426,68.2049609 68.2177534,68.1938779 68.2103548,68.1825092 L67.7390616,67.4538146 C67.458701,67.0177032 67.1623725,66.5522784 66.816222,66.0050716 L65.2247353,63.4813905 C61.2840632,57.2573678 59.030801,54.2117374 56.0020657,51.4539181 C51.9728727,47.7851307 47.5152338,45.9727359 42.0462844,46.1380742 C41.6594587,46.1497687 41.3363942,45.8456649 41.3246996,45.4588391 C41.313005,45.0720134 41.6171089,44.7489489 42.0039346,44.7372543 C47.8536202,44.5604056 52.6583969,46.5139403 56.9456179,50.4176755 L57.1393688,50.595397 C60.1586249,53.3854517 62.4340998,56.4648836 66.2811578,62.5302357 L68.1444389,65.483046 L68.234,65.6250419 L68.2300733,5.96959109 C68.2313948,4.49479127 68.784387,3.07740546 69.7744454,1.99323883 L69.9651753,1.79392983 C71.0094192,0.75249296 72.4029617,0.14190123 73.8684745,0.07601552 L74.1440338,0.0700730212 L172.48,0.0420418818 C172.589563,0.0420418818 172.698834,0.044835727 172.807718,0.0503842381 L172.776642,0.0280291971 Z M165.411971,148.054891 L114.782607,148.055979 C114.866719,148.13607 114.950615,148.213228 115.034231,148.287369 C115.3238,148.544119 115.350404,148.986999 115.093653,149.276567 C114.836903,149.566136 114.394023,149.59274 114.104455,149.335989 C113.69051,148.968958 113.273452,148.539539 112.859016,148.055806 L89.5617874,148.05489 C88.7140018,148.053873 87.9005633,148.389811 87.3005493,148.988747 C86.7505364,149.537772 86.4211923,150.26653 86.3697302,151.036865 L86.3626277,151.247883 L86.362,159.364042 L168.611,159.364042 L168.611971,151.248303 C168.611506,150.471166 168.327957,149.723399 167.818539,149.142834 L167.674049,148.988747 C167.124036,148.439723 166.394688,148.111689 165.623291,148.061613 L165.411971,148.054891 Z M222.159416,147.77927 L195.557372,147.77927 C194.52119,147.779889 193.527728,148.192265 192.795694,148.925613 C192.06366,149.658961 191.653067,150.653162 191.654307,151.689343 L191.654307,151.689343 L191.654,159.364 L226.06,159.364 L226.060146,151.689343 C226.06129,150.733241 225.711797,149.812867 225.082655,149.100183 L224.919584,148.926438 C224.188056,148.193157 223.195193,147.780508 222.159416,147.77927 L222.159416,147.77927 Z M172.4802,1.44350171 L74.1429753,1.47153172 C72.9479105,1.4693857 71.8009987,1.94234278 70.9548224,2.78624446 C70.1650578,3.57388602 69.6967882,4.62437041 69.6378623,5.73201376 L69.6315328,5.97016583 L69.6429781,159.254891 L84.9611679,159.254891 L84.961168,151.247464 C84.9618268,150.147315 85.3568361,149.08808 86.0677665,148.258705 L86.2373998,148.071476 L86.3104588,147.996875 C87.1160917,147.192689 88.1891833,146.718087 89.3195957,146.65957 L89.5626277,146.653431 L111.772275,146.654357 C110.518731,144.881492 109.338662,142.657332 108.401721,140.220745 L93.0926715,140.220496 L92.9631839,140.257141 C85.7096757,142.255402 78.3404096,140.44212 74.4655791,136.468807 L74.2577119,136.249948 L74.1420927,136.122985 C72.4528852,134.228492 72.1249009,131.582219 73.6793172,129.768756 C75.0752785,128.118527 76.5874584,126.574737 78.202911,125.148566 L78.2026632,109.689922 C76.4935886,107.284928 75.0953891,104.526101 74.0800217,101.387459 L73.902016,100.820401 L73.8390066,100.611049 C73.4323389,99.2364197 73.7438302,97.7494365 74.6680097,96.6535915 C75.5430123,95.616058 76.8562846,95.0607021 78.2017409,95.1478622 L78.1999657,33.2598202 C77.5021098,32.7519952 76.8717747,32.2230809 76.3146779,31.6723241 C74.0736013,29.4567519 73.091236,26.9475373 73.6464531,24.1865259 C74.0434995,22.2120732 75.6148957,20.4501233 78.2026357,18.8951584 C78.2037956,14.9491696 81.4017243,11.7512409 85.3465693,11.7512409 L85.3465693,11.7512409 L107.109525,11.7512916 C115.143044,10.9118737 123.169205,10.6336258 128.396885,11.0179509 L128.817,11.0500419 L128.814248,11.0507445 L128.843112,11.05294 L128.817,11.05 L165.101314,11.0505109 C168.173435,11.0505109 170.828709,14.1023634 170.996276,17.3582844 L171.003822,17.5805618 L171.003822,134.305003 C171.007312,135.872734 170.386997,137.377457 169.279689,138.48725 C168.237513,139.531766 166.844539,140.145677 165.377237,140.214284 L165.101314,140.22073 L119.045171,140.221178 C120.740987,142.272421 122.532823,143.876188 124.090316,144.745148 C124.428277,144.933704 124.549393,145.36053 124.360837,145.698491 C124.172282,146.036452 123.745455,146.157569 123.407495,145.969013 C121.462709,144.883974 119.251805,142.823365 117.253198,140.220759 L109.908238,140.221075 C110.929531,142.749353 112.212181,145.00006 113.519671,146.654211 L165.41113,146.653431 C166.630752,146.651969 167.800962,147.135248 168.66414,147.996875 C169.469773,148.801061 169.946303,149.873297 170.006854,151.004627 L170.013431,151.247883 L170.013431,159.307445 L174.859,159.364042 L177.494,159.364042 L177.494891,6.45605839 C177.494891,5.24686087 177.058824,4.08319676 176.273639,3.1756096 L176.100073,2.98512291 L176.026708,2.91023693 C175.086908,1.97082101 173.81131,1.44350171 172.4802,1.44350171 Z M126.85747,12.3301594 L126.854955,12.4249742 C126.833779,12.6531859 126.701204,12.866448 126.483232,12.9810754 C122.859398,14.8867859 119.040926,17.7648922 114.801286,21.6633229 C106.362066,29.4403892 101.253633,39.1746528 99.5488558,49.6492079 C98.0315017,58.9721922 99.348912,68.3988776 102.96047,75.707071 C103.010222,75.8077469 103.033559,75.9145948 103.033143,76.0197449 C105.942868,80.99894 109.965177,84.6519689 114.625081,86.4799728 L114.952,86.604 L114.994205,86.595905 C115.008573,86.5935849 115.023104,86.5916935 115.037786,86.5902454 C120.212182,86.0798618 128.399192,89.7543466 134.485792,95.0411926 C134.533952,95.083025 134.57502,95.1299872 134.608887,95.18056 C137.074532,95.985938 139.004004,97.5928188 139.346494,99.5142078 L139.359953,99.5951598 C139.472088,100.320699 139.482919,100.946014 139.43057,102.786959 L139.399643,103.822451 C139.310023,106.966911 139.369602,108.810204 139.736972,110.89748 C140.270805,113.930545 141.4164,116.411266 143.369152,118.348334 C145.694177,120.654686 149.136426,122.147294 153.916417,122.700114 C154.300857,122.744576 154.576464,123.092269 154.532002,123.476709 C154.487541,123.861149 154.139847,124.136756 153.755408,124.092294 C148.68009,123.505319 144.94533,121.885874 142.382173,119.343303 C140.204344,117.182965 138.937363,114.43939 138.356727,111.140409 L138.314179,110.891957 C137.9642,108.789157 137.910037,106.898332 137.998567,103.788904 L138.037082,102.475302 C138.077314,100.952135 138.063987,100.385388 137.974911,99.8090457 C137.780346,98.5480692 136.420835,97.3594656 134.587445,96.6629692 L134.626226,96.4544558 C133.588284,101.905918 133.270482,106.985925 134.447621,109.299786 C134.623099,109.644718 134.48573,110.066595 134.140798,110.242073 C133.795866,110.417552 133.373989,110.280182 133.198511,109.93525 C132.390301,108.34658 132.175832,105.831672 132.394014,102.614197 C132.536408,100.514349 132.848627,98.3176592 133.236682,96.2606608 C132.680664,96.1387915 132.098366,96.0608864 131.506739,96.0370985 C130.898906,96.0126591 130.322154,96.0436244 129.782165,96.1293561 L129.733218,96.38643 C128.657046,102.136404 128.315296,107.44345 129.486888,109.842585 C129.656709,110.190337 129.512467,110.609913 129.164715,110.779734 C128.816962,110.949555 128.397386,110.805314 128.227565,110.457561 C127.431147,108.826692 127.228372,106.225644 127.460369,102.884598 C127.604721,100.805752 127.904073,98.6245938 128.278587,96.5492644 C127.980524,96.6758177 127.699144,96.8249372 127.437212,96.9967053 C127.372895,97.0676848 127.29378,97.1216654 127.207746,97.1583332 C126.057438,98.0085755 125.328096,99.3383211 125.17105,101.128855 L125.128882,101.638552 C125.054871,102.48945 124.901582,104.128623 124.892973,104.225625 C124.464373,109.054927 124.429363,112.821989 125.02091,116.626147 C126.152625,123.904047 129.465372,129.09657 135.681207,131.637503 C136.039435,131.783941 136.211124,132.193053 136.064687,132.55128 C135.918249,132.909508 135.509137,133.081197 135.15091,132.93476 C128.422949,130.184478 124.836872,124.563527 123.636093,116.841486 C123.115026,113.490578 123.062976,110.194164 123.328192,106.249758 L123.440094,106.298832 C121.98496,105.635306 120.370754,105.114161 118.024035,104.535455 C115.711026,103.963957 113.453819,102.168524 111.268713,99.5914349 L111.229286,99.5790576 C109.137382,98.7807453 106.952301,98.3743704 104.774531,98.3472751 L104.725941,97.8688919 C104.982391,100.719479 105.605184,103.525125 106.578928,106.216488 C106.710595,106.580404 106.522319,106.982153 106.158403,107.113819 C105.794486,107.245485 105.392738,107.057209 105.261072,106.693293 C104.290568,104.010888 103.654608,101.219544 103.367223,98.3824799 C101.781749,98.4817632 100.21025,98.7824671 98.6935515,99.2796259 L98.5619567,98.882133 C99.4276633,101.598789 100.637061,104.19365 102.16075,106.603638 C102.367561,106.930746 102.27004,107.363574 101.942932,107.570385 C101.615823,107.777196 101.182995,107.679675 100.976184,107.352567 C99.4747761,104.97782 98.266267,102.430784 97.376569,99.7670542 C96.0979815,100.294559 94.8671611,100.968884 93.7112507,101.7857 C93.5558925,101.895482 93.3640859,101.936467 93.1800715,101.902604 L93.0709519,101.873256 L78.189781,96.5526423 L78.1000529,96.5456996 C77.4794893,96.5079509 76.8696646,96.6737053 76.3590672,97.008024 L76.192,97.125 L76.1995403,97.1457039 C76.2083254,97.1720769 76.2174595,97.1991668 76.2269462,97.2269608 L76.2564677,97.3124429 C76.4038631,97.7344358 76.5923137,98.2067549 76.8253485,98.7166995 C77.4930798,100.17788 78.3817331,101.640067 79.5183028,103.002991 C81.4970476,105.375815 84.0132312,107.191211 87.1383563,108.235855 C87.5053955,108.358546 87.7034788,108.755551 87.5807877,109.12259 C87.4580965,109.489629 87.0610916,109.687712 86.6940524,109.565021 C83.309399,108.433625 80.5800469,106.46443 78.441982,103.900556 C77.2203198,102.435593 76.267544,100.867899 75.5506784,99.2991992 C75.4251389,99.0244839 75.3113367,98.7592616 75.2087788,98.5050915 C75.0293854,99.0512121 75.015083,99.6462477 75.1825798,100.212427 C77.1110077,106.693699 80.6945153,111.516667 85.29128,114.94423 C85.4989141,115.099052 85.6042162,115.355779 85.5651018,115.61181 C85.3827307,116.805554 85.2792514,118.010023 85.2553407,119.217196 C85.2418863,119.90561 85.2367153,120.593925 85.2391201,121.303318 C85.2399441,121.546422 85.1147071,121.772583 84.9082158,121.900886 C81.0845264,124.276727 77.6566589,127.236946 74.7463404,130.677343 C74.6426736,130.798287 74.5514934,130.925532 74.4725538,131.058013 C74.570125,131.081516 74.6629179,131.126659 74.7446205,131.193089 L74.8565817,131.290482 C74.8722736,131.303773 74.8900432,131.318674 74.9098726,131.335112 C75.030854,131.435402 75.1755904,131.548353 75.3433009,131.670858 C75.8280019,132.024908 76.3956939,132.380425 77.0400247,132.712814 C78.7304573,133.584853 80.6276543,134.138873 82.6954602,134.222384 C85.3372196,134.329074 88.0879901,133.656368 90.9254628,132.039364 C91.2616998,131.847751 91.6896068,131.964992 91.8812198,132.301229 C92.0728328,132.637466 91.9555918,133.065373 91.6193548,133.256986 C88.5542209,135.003728 85.5434954,135.740007 82.6389066,135.622702 C80.3532013,135.530391 78.2601093,134.919165 76.3975127,133.958313 C75.6863147,133.59143 75.0576476,133.197726 74.5166516,132.802556 L74.3898953,132.708801 C74.272346,132.620731 74.1697049,132.540557 74.0822789,132.469734 C74.0681683,133.386649 74.4531745,134.366032 75.1868218,135.18884 C78.6312945,139.03026 85.771392,140.861289 92.8031831,138.846379 L92.8987465,138.82608 L92.8987465,138.82608 L92.9962044,138.81927 L107.897778,138.819711 C106.357881,134.231077 105.785851,129.342618 106.433461,124.65734 C106.486449,124.273983 106.840178,124.006166 107.223535,124.059154 C107.606893,124.112143 107.87471,124.465871 107.821722,124.849229 C107.184486,129.459457 107.790753,134.298126 109.379579,138.819743 L116.235056,138.820092 C116.009072,138.491565 115.78722,138.156507 115.57029,137.815635 C112.808121,133.475319 111.015516,128.537745 110.617095,123.526485 C110.586423,123.1407 110.874299,122.803095 111.260084,122.772423 C111.645869,122.741751 111.983474,123.029627 112.014146,123.415412 C112.393382,128.185352 114.10754,132.906854 116.752629,137.063197 C117.138951,137.670241 117.541236,138.257433 117.954194,138.82017 L165.101316,138.81927 C166.296814,138.819273 167.4432,138.343673 168.287597,137.49738 C169.075699,136.707509 169.540302,135.655293 169.596581,134.545247 L169.60236,134.306569 L169.60236,17.6817518 C169.60236,15.1036332 167.555948,12.5914838 165.290564,12.4575751 L165.101314,12.4519708 L128.755645,12.4513633 L128.726523,12.4495418 C128.141802,12.4007287 127.517276,12.3609885 126.85747,12.3301594 Z M98.6577735,122.533942 C100.226005,122.284155 101.625614,122.887201 101.783886,123.880881 C101.942159,124.874562 100.799161,125.882591 99.2309291,126.132378 C97.6626974,126.382164 96.2630891,125.779119 96.1048165,124.785438 C95.9465439,123.791758 97.0895417,122.783728 98.6577735,122.533942 Z M108.185314,108.132834 C110.484008,108.480295 111.147553,109.812634 109.90589,111.228945 C109.659926,111.509506 109.334205,111.79687 108.95755,112.075923 L108.885956,112.128 L108.909668,112.129385 C109.561904,112.165277 110.149898,112.248396 110.612008,112.384383 L110.697164,112.410501 C111.604751,112.700633 112.1636,113.26482 112.017372,114.107024 C111.89506,114.811482 111.243143,115.517423 110.04248,116.342722 C109.723554,116.561941 109.287301,116.481113 109.068081,116.162188 C108.848862,115.843262 108.92969,115.407009 109.248615,115.187789 C109.75008,114.843098 110.119181,114.53795 110.359176,114.278066 C110.501702,114.123729 110.583877,114.002273 110.618545,113.922777 L110.624234,113.908088 L110.614705,113.900744 C110.556339,113.858381 110.458183,113.809667 110.322896,113.762859 L110.270427,113.745411 C109.476456,113.491599 107.967499,113.450478 106.509148,113.591327 C106.485327,113.734033 106.43029,113.870678 106.347445,113.992409 L104.268613,117.056934 C104.040809,117.392678 103.637805,117.564305 103.237883,117.49589 C102.837961,117.427476 102.514924,117.131646 102.411679,116.73927 L101.033577,111.49781 C100.923431,111.085655 101.077529,110.648148 101.421655,110.395995 C101.765782,110.143842 102.229387,110.128738 102.589197,110.357956 L105.648,112.285 L105.850226,112.206724 C107.04176,111.723363 108.288761,110.947607 108.852066,110.30507 C108.972771,110.167387 109.051919,110.047242 109.089813,109.955567 L109.108889,109.903984 C109.110819,109.899421 109.112154,109.897385 109.113295,109.897056 L109.1078,109.88976 C109.086914,109.866809 109.03849,109.830173 108.95078,109.785359 L108.916024,109.768181 C108.706765,109.668017 108.393031,109.581612 107.975854,109.518553 C107.593198,109.460712 107.329884,109.103619 107.387725,108.720964 C107.445565,108.338308 107.802658,108.074993 108.185314,108.132834 Z M94.6320808,109.185422 C96.2003126,108.935636 97.5999209,109.538681 97.7581935,110.532361 C97.916466,111.526042 96.7734683,112.534071 95.2052365,112.783858 C93.6370047,113.033644 92.2373964,112.430599 92.0791239,111.436919 C91.9208513,110.443238 93.0638491,109.435209 94.6320808,109.185422 Z M115.462346,87.9617602 L115.204546,87.9814408 C112.407768,90.432874 110.843531,94.958282 111.978575,98.2681734 C112.004938,98.2898195 112.028567,98.3145673 112.050621,98.341374 C114.15277,100.896522 116.3104,102.668446 118.359892,103.174834 L118.727292,103.266464 C120.666925,103.755858 122.129066,104.217717 123.441223,104.769449 L123.450021,104.645519 L123.666,102.247042 L119.299676,100.401327 C118.943224,100.25062 118.776434,99.8394864 118.92714,99.4830338 C119.072465,99.1393118 119.459946,98.9719468 119.807047,99.09556 L119.845433,99.110498 L123.797434,100.780787 C123.993536,99.0316288 124.660891,97.6386304 125.677075,96.6234788 L122.542373,94.8995755 C122.203255,94.7131093 122.079506,94.2870388 122.265972,93.9479205 C122.445532,93.6213621 122.847277,93.4945152 123.179606,93.6520727 L123.217627,93.6715194 L126.884859,95.6866787 C128.166489,94.9224718 129.77005,94.5646783 131.563042,94.6367701 L131.788314,94.6487876 C126.348263,90.4791863 119.731687,87.6910332 115.462346,87.9617602 Z M98.5941676,81.298991 L98.4879116,81.3013537 C98.2385179,81.3258567 98.0211409,81.4815483 97.9176642,81.709781 C95.6566423,86.7013139 95.3319708,92.6972263 97.0090511,98.590365 L96.9631685,98.4215554 C97.3981949,98.2452042 97.8384414,98.0844436 98.2830526,97.9393817 C96.2587298,90.5513713 97.9790259,84.9732255 99.1953285,82.2890511 C99.2988051,82.0608184 99.2726607,81.7947185 99.1267437,81.5909887 C98.9808267,81.387259 98.7373053,81.2768507 98.4879116,81.3013537 Z M106.038344,84.6974234 L105.929053,84.7017866 C105.672779,84.7321358 105.453928,84.9008875 105.359416,85.1410219 C103.746562,88.7450548 103.043192,92.7241981 103.259233,96.9851601 C103.726389,96.9555292 104.193292,96.9420567 104.660595,96.9448261 C104.449915,92.8917715 105.114969,89.1181245 106.63708,85.7132847 C106.75332,85.4828822 106.733514,85.2072362 106.585527,84.9958198 C106.43754,84.7844033 106.185326,84.6714374 105.929053,84.7017866 Z M16.2242336,82.919708 C17.1139289,83.5740438 17.6511104,84.602968 17.6794309,85.707011 C17.7077515,86.811054 17.2240288,87.866166 16.3690511,88.5652555 L16.3690511,88.5652555 Z M15.3487783,85.8279168 C15.3996841,86.1976094 15.1523039,86.5395978 14.7908114,86.6108886 L14.7501854,86.6176834 L5.43748464,87.9000192 C5.05409973,87.9528104 4.70050917,87.6848112 4.64771802,87.3014263 C4.59681226,86.9317337 4.84419243,86.5897452 5.20568491,86.5184545 L5.24631098,86.5116596 L14.5590117,85.2293239 C14.9423966,85.1765327 15.2959872,85.4445319 15.3487783,85.8279168 Z M238.603212,83.4429197 L178.896,83.442 L178.896,84.844 L238.603212,84.8443796 L238.603212,83.4429197 Z M146.157312,22.2063092 C146.373935,22.5270043 146.289568,22.9625867 145.968873,23.1792099 L140.836448,26.5920838 C138.560376,28.1078609 136.757092,29.3390453 135.008757,30.5846564 L134.585641,30.8872463 C128.140525,35.5140616 123.658562,39.5502933 121.160504,43.3601446 C118.961016,46.7146392 118.475907,49.6853154 119.860121,52.3311104 L119.895825,52.3982482 L119.960114,52.4969107 C122.557547,56.4404898 126.161596,58.0987986 130.595837,57.9014239 L130.731839,57.8948026 C133.961315,57.724156 137.446838,56.5913419 140.996015,54.7937846 C142.249334,54.1590136 143.418768,53.4881527 144.535157,52.7875042 L144.813167,52.6117252 C145.09865,52.4298919 145.327786,52.2806813 145.605963,52.0962661 L146.212092,51.6938414 L146.274233,51.6546075 C146.283594,51.6488532 146.292532,51.6434508 146.301158,51.6383397 L146.501747,51.525078 C146.852096,51.3319658 146.823435,51.3982836 147.161411,51.691196 C147.299064,51.8104948 147.384851,51.9787073 147.400591,52.1601808 C148.261593,62.0872218 150.606862,69.1043851 154.27337,73.7203693 C157.343246,77.5852177 161.266925,79.7220975 166.2427,80.6615073 C166.622984,80.7333037 166.873063,81.0997876 166.801266,81.4800719 C166.72947,81.8603562 166.362986,82.1104351 165.982702,82.0386387 C160.694905,81.0403203 156.470426,78.7396207 153.175973,74.5920395 C149.509874,69.976571 147.132007,63.1770145 146.147168,53.7746872 L146.112934,53.4407007 L145.776794,53.6589132 L145.566055,53.7937786 C144.329629,54.5812973 143.031463,55.3338445 141.629231,56.0440352 C137.921103,57.9220971 134.260687,59.111752 130.805789,59.29431 C125.783063,59.5597126 121.618622,57.6496348 118.70361,53.1357663 L118.675932,53.0890248 L118.675932,53.0890248 C116.95326,49.9044953 117.506775,46.3766486 119.988512,42.5916884 C122.633309,38.5580425 127.29054,34.3810973 133.979095,29.5977665 L134.548835,29.1922795 C136.024758,28.1467336 137.556423,27.0988433 139.387204,25.8743624 L144.992426,22.1470843 C145.064977,22.0983835 145.129369,22.0550503 145.184411,22.0178704 C145.505106,21.8012473 145.940689,21.8856142 146.157312,22.2063092 Z M195.097226,72.8689051 L185.595328,72.8689051 C184.719034,72.8689051 184.008296,73.5785973 184.007007,74.4548905 L184.007007,74.4548905 L184.007007,76.7275912 C184.008294,77.6042634 184.718656,78.314626 185.595328,78.3159124 L185.595328,78.3159124 L195.097226,78.3159124 C195.973898,78.314626 196.684261,77.6042634 196.685547,76.7275912 L196.685547,76.7275912 L196.685547,74.4548905 C196.684259,73.5785973 195.97352,72.8689051 195.097226,72.8689051 L195.097226,72.8689051 Z M230.869489,72.8689051 L221.365255,72.8689051 C220.489873,72.8701915 219.780556,73.5795084 219.77927,74.4548905 L219.77927,74.4548905 L219.77927,76.7275912 C219.77927,77.6038854 220.488962,78.3146237 221.365255,78.3159124 L221.365255,78.3159124 L230.869489,78.3159124 C231.745782,78.3146237 232.455474,77.6038854 232.455474,76.7275912 L232.455474,76.7275912 L232.455474,74.4548905 C232.454188,73.5795084 231.744871,72.8701915 230.869489,72.8689051 L230.869489,72.8689051 Z M213.602001,74.4710891 C213.149264,74.0190208 212.46873,73.8843075 211.877909,74.1298009 C211.287088,74.3752944 210.902413,74.9526153 210.903356,75.5924088 C210.904646,76.464832 211.612247,77.1713869 212.484672,77.1713869 C213.124466,77.1713869 213.701217,76.7858582 213.945837,76.1946749 C214.190457,75.6034916 214.054738,74.9231574 213.602001,74.4710891 Z M204.103942,74.0134307 C203.231896,74.0134307 202.524964,74.7203632 202.524964,75.5924088 C202.524964,76.4644543 203.231896,77.1713869 204.103942,77.1713869 C204.975987,77.1713869 205.68292,76.4644543 205.68292,75.5924088 C205.68292,74.7203632 204.975987,74.0134307 204.103942,74.0134307 Z M195.099562,74.2773723 C195.148501,74.2773723 195.195436,74.2968133 195.230041,74.3314185 C195.264647,74.3660238 195.284088,74.4129586 195.284088,74.4618978 L195.284088,76.7345985 C195.284088,76.7835378 195.264647,76.8304726 195.230041,76.8650778 C195.195436,76.8996831 195.148501,76.9191241 195.099562,76.9191241 L185.595328,76.9191241 C185.492128,76.9191241 185.408467,76.8354634 185.408467,76.7322628 L185.408467,74.459562 C185.409083,74.4106216 185.429117,74.3639306 185.464161,74.3297625 C185.499205,74.2955945 185.546388,74.2767488 185.595328,74.2773723 L195.099562,74.2773723 Z M230.869489,74.2773723 C230.918428,74.2773723 230.965363,74.2968133 230.999968,74.3314185 C231.034574,74.3660238 231.054015,74.4129586 231.054015,74.4618978 L231.054015,76.7345985 C231.054015,76.7835378 231.034574,76.8304726 230.999968,76.8650778 C230.965363,76.8996831 230.918428,76.9191241 230.869489,76.9191241 L221.365255,76.9191241 C221.262055,76.9191241 221.178394,76.8354634 221.178394,76.7322628 L221.178394,74.459562 C221.17901,74.4106216 221.199044,74.3639306 221.234088,74.3297625 C221.269132,74.2955945 221.316315,74.2767488 221.365255,74.2773723 L230.869489,74.2773723 Z M97.5093795,14.4656398 C94.9419991,14.9036529 92.5549092,15.3899471 90.3688193,15.920157 C90.51295,16.375837 90.5841107,16.8529044 90.5810219,17.3337226 C90.5468951,18.3760914 90.0999549,19.3621779 89.3385817,20.0749248 C88.5772086,20.7876717 87.5638116,21.1686557 86.5214599,21.1340146 C84.6456299,21.0708759 83.1729475,19.9332688 82.8513926,18.2229437 C81.7558997,18.6536079 80.7646244,19.1013676 79.8835655,19.5651704 C80.3868588,19.9702459 80.6695205,20.6188632 80.580982,21.301651 C80.4493786,22.3165445 79.5440346,23.0492634 78.5240026,22.9664187 C77.7183252,22.9009834 77.0653672,22.3449563 76.8432177,21.6101363 C75.839551,22.5172929 75.2198283,23.4711309 75.0204083,24.4628172 C74.1713655,28.6849799 77.7773883,32.2499646 84.4670143,35.1066477 C86.620886,36.0264194 88.9339854,36.7991188 91.2477724,37.4286269 C91.7879073,37.5755804 92.3021688,37.7075268 92.7847337,37.824662 L93.1406233,37.9097393 L93.4840809,37.9892809 C93.6409072,38.0250048 93.7858303,38.0571686 93.9181237,38.0857979 L94.1070007,38.126094 L94.3622923,38.1792098 C94.7665386,38.2827372 94.9944564,38.7193635 94.8397875,39.1136853 C90.6922021,49.6877727 89.9561141,57.7115643 92.0711378,63.788652 C93.5745038,68.1082661 96.4089943,71.333156 100.72453,74.1637646 C97.7337114,66.9488497 96.7472489,58.1387429 98.1655967,49.4240768 C99.919927,38.6450547 105.177891,28.6258554 113.852124,20.6322168 C117.633889,17.1548096 121.09986,14.4640239 124.417618,12.5255106 L124.868446,12.2659573 C117.388375,12.1221241 106.59862,12.9149516 97.5093795,14.4656398 Z M289.664291,62.3801236 C289.867408,62.6925749 289.78958,63.106618 289.493801,63.3252087 L289.458709,63.3495464 L281.575497,68.474218 C281.251028,68.6851467 280.817003,68.5931043 280.606074,68.2686356 C280.402957,67.9561842 280.480785,67.5421412 280.776564,67.3235504 L280.811656,67.2992127 L288.694868,62.1745411 C289.019337,61.9636124 289.453362,62.0556548 289.664291,62.3801236 Z M238.603212,66.3357664 L178.896,66.335 L178.896,67.737 L238.603212,67.7372263 L238.603212,66.3357664 Z M238.526131,57.3010219 L178.896,57.301 L178.896,58.702 L238.526131,58.7024818 L238.526131,57.3010219 Z M36.120511,33.9471372 L37.5121897,34.1124248 L34.9802189,55.430965 L33.5885402,55.2656774 L36.120511,33.9471372 Z M135.570219,50.6557664 C136.629316,50.6557664 137.487883,51.5143339 137.487883,52.5734307 C137.487883,53.6325274 136.629316,54.4910949 135.570219,54.4910949 C134.511122,54.4910949 133.652555,53.6325274 133.652555,52.5734307 C133.652555,51.5143339 134.511122,50.6557664 135.570219,50.6557664 Z M128.70073,48.8175182 C129.759827,48.8175182 130.618394,49.6760858 130.618394,50.7351825 C130.618394,51.7942792 129.759827,52.6528467 128.70073,52.6528467 C127.641633,52.6528467 126.783066,51.7942792 126.783066,50.7351825 C126.783066,49.6760858 127.641633,48.8175182 128.70073,48.8175182 Z M19.2227811,48.1553675 L19.263808,48.1590334 L30.6716912,49.5114421 C31.0560025,49.5570024 31.3306145,49.9054821 31.2850542,50.2897934 C31.2411211,50.6603793 30.9155193,50.9289616 30.5477299,50.9068223 L30.506703,50.9031564 L19.0988197,49.5507476 C18.7145085,49.5051874 18.4398965,49.1567077 18.4854567,48.7723964 C18.5293898,48.4018105 18.8549917,48.1332282 19.2227811,48.1553675 Z M134.346277,39.9953285 C136.879853,39.9953285 138.933723,42.0491977 138.933723,44.5827737 C138.933723,47.1163498 136.879853,49.170219 134.346277,49.170219 C131.812701,49.170219 129.758832,47.1163498 129.758832,44.5827737 C129.758832,42.0491977 131.812701,39.9953285 134.346277,39.9953285 Z M238.526131,45.7927007 L178.896,45.792 L178.896,47.194 L238.526131,47.1941606 L238.526131,45.7927007 Z M126.526131,42.8216058 C127.585228,42.8216058 128.443796,43.6801734 128.443796,44.7392701 C128.443796,45.7983668 127.585228,46.6569343 126.526131,46.6569343 C125.467035,46.6569343 124.608467,45.7983668 124.608467,44.7392701 C124.608467,43.6801734 125.467035,42.8216058 126.526131,42.8216058 Z M19.9001533,42.4514259 L19.9411803,42.4550918 L31.3490635,43.8075005 C31.7333747,43.8530608 32.0079867,44.2015405 31.9624265,44.5858518 C31.9184934,44.9564377 31.5928915,45.22502 31.2251022,45.2028807 L31.1840752,45.1992148 L19.776192,43.846806 C19.3918807,43.8012458 19.1172688,43.4527661 19.162829,43.0684548 C19.2067621,42.6978689 19.5323639,42.4292866 19.9001533,42.4514259 Z M276.487198,35.6879342 C276.780059,35.9175083 276.840654,36.333566 276.632627,36.6359969 L276.606372,36.671724 L272.852796,41.4600452 C272.614039,41.7646202 272.173581,41.8179762 271.869006,41.5792191 C271.576145,41.349645 271.515551,40.9335873 271.723577,40.6311563 L271.749832,40.5954292 L275.503409,35.8071081 C275.742166,35.5025331 276.182623,35.4491771 276.487198,35.6879342 Z M20.5750486,36.7498117 L20.6160762,36.7534693 L32.0239595,38.1035423 C32.4082799,38.1490249 32.6829623,38.4974492 32.6374796,38.8817697 C32.5936214,39.2523644 32.2680737,39.5210125 31.9002799,39.4989474 L31.8592522,39.4952898 L20.451369,38.1452168 C20.0670485,38.0997342 19.7923662,37.7513099 19.8378489,37.3669895 C19.8817071,36.9963947 20.2072547,36.7277467 20.5750486,36.7498117 Z M272.201067,31.5349415 C272.493928,31.7645156 272.554522,32.1805733 272.346496,32.4830042 L272.320241,32.5187313 L268.566664,37.3070525 C268.327907,37.6116275 267.88745,37.6649835 267.582875,37.4262264 C267.290014,37.1966523 267.229419,36.7805946 267.437446,36.4781636 L267.463701,36.4424365 L271.217277,31.6541154 C271.456034,31.3495404 271.896492,31.2961844 272.201067,31.5349415 Z M238.526131,34.2843796 L178.896,34.284 L178.896,35.685 L238.526131,35.6858394 L238.526131,34.2843796 Z M266.843116,27.2023279 C267.135853,27.4320598 267.196223,27.8481501 266.988034,28.1504689 L266.96176,28.1861818 L263.205847,32.9721672 C262.966926,33.2766135 262.52644,33.329732 262.221993,33.0908108 C261.929257,32.8610788 261.868886,32.4449885 262.077076,32.1426698 L262.10335,32.1069569 L265.859262,27.3209715 C266.098183,27.0165252 266.53867,26.9634066 266.843116,27.2023279 Z M260.919482,23.5000356 C261.212273,23.7296982 261.272742,24.1457742 261.064624,24.4481422 L261.038359,24.4838614 L257.282446,29.2721826 C257.043597,29.5766855 256.603123,29.6299084 256.29862,29.3910593 C256.005829,29.1613967 255.94536,28.7453207 256.153478,28.4429526 L256.179744,28.4072335 L259.935656,23.6189123 C260.174505,23.3144094 260.614979,23.2611865 260.919482,23.5000356 Z M238.526131,25.209927 L178.896,25.209 L178.896,26.611 L238.526131,26.6113869 L238.526131,25.209927 Z M84.269781,22.3439416 C85.3288777,22.3439416 86.1874453,23.2025091 86.1874453,24.2616058 C86.1874453,25.3207026 85.3288777,26.1792701 84.269781,26.1792701 C83.2106843,26.1792701 82.3521168,25.3207026 82.3521168,24.2616058 C82.3521168,23.2025091 83.2106843,22.3439416 84.269781,22.3439416 Z M238.526131,9.97839416 L178.896,9.978 L178.896,11.379 L238.526131,11.379854 L238.526131,9.97839416 Z"/>
  </g>
</svg>
