<svg xmlns="http://www.w3.org/2000/svg" width="290" height="228" viewBox="0 0 290 228">
  <g fill="none" fill-rule="evenodd">
    <path fill="#1988E0" d="M93.941,183.516 C101.713,194.04 112.241,207.424 125.948,209.297 C118.367,214.297 108.23,212.928 99.648,212.851 C96.528,212.825 90.421,211.815 87.748,213.899 C86.573,214.82 90.193,216.699 90.707,216.899 C93.045,217.799 104.907,219.562 99.827,224.499 C96.096,228.126 87.894,226.929 83.204,227.22 C77.845,227.551 72.476,227.209 67.121,227.378 C59.146,227.627 50.966,227.978 43.075,226.556 C38.496,225.731 32.661,225.24 28.812,222.35 C26.393,220.534 27.752,218.063 30.276,216.972 C33.876,215.422 38.842,215.679 42.713,215.284 C43.308,215.222 47.398,214.919 47.474,214.144 C47.702,211.829 40.856,210.551 39.407,210.344 C34.489,209.638 29.607,209.285 24.816,207.868 C23.361,207.438 21.316,207.02 20.243,205.83 C18.474,203.877 19.915,201.577 21.608,200.123 C24.708,197.467 29.308,196.895 33.244,196.557 C38.08,196.139 43.938,197.705 48.153,195.882 C65.098,188.553 66.234,178.254 75.546,172.63 L75.51,172.838 C91.389,170.689 89.475,177.473 93.941,183.516 Z M239.129,164.356 C242.601,164.613 254.252,166.037 249.139,171.63 C240.153,181.463 218.614,177.565 209.763,181.594 C209.563,181.686 209.163,181.705 209.188,181.924 C209.588,185.911 222.637,187.811 214.635,191.899 C213.556517,192.409578 212.429098,192.809619 211.27,193.093 C201.924,195.676 189.979,194.44 179.323,196.82 C179.058,196.877 173.323,198.363 173.617,198.973 C175.079,202.017 181.958,202.75 184.817,203.798 C185.238,203.951 188.769,205.037 188.744,205.778 C188.637,208.96 178.754,209.386 176.58,209.348 C164.59,209.156 152.005,209.639 140.133,207.659 L139.976,207.214 C163.076,201.844 181.435,182.453 195.376,164.168 C209.995,165.439 224.547,163.285 239.129,164.356 Z M28.054,155.678 C25.7085959,161.8044 24.5175298,168.312035 24.541,174.872 C7.789,171.971 9.889,156.104 26.81,157.865 L26.81,157.865 Z M260.761,90.939 C264.027,90.808 266.91,88.386 270.21,88.874 L270.21,88.874 L269.546,88.874 C268.303,101.309 253.069,107.063 244.003,98.442 C241.85,96.393 240.61,93.134 239.927,90.313 C243.358,90.136 246.832,89.488 250.271,89.672 C253.81,89.86 257.183,91.081 260.761,90.939 Z"/>
    <path  fill-rule="nonzero" d="M119.116,0.387884958 C122.317917,0.378721721 125.49668,0.930740721 128.508,2.019 C132.790332,3.53131154 136.407037,6.49693174 138.729,10.4 C142.189,15.915 142.607,18.238 148.374,21.387 C153.898,24.387 162.802,27.057 161.881,38.462 C161.500139,41.8231568 160.673894,45.1187221 159.424,48.262 C159.772,48.502 159.668,48.398 160.019,48.987 L159.972903,49.1897282 C160.507254,49.74193 160.941697,50.384842 161.255,51.09 C162.865,54.85 160.669,59.29 157.379,60.928 C157.638,68.485 158.557,79.936 159.589,86.947 C172.03,85.565 186.569,85.922 197.538,91.933 C199.714384,93.1094386 201.752382,94.525572 203.614,96.155 C205.373657,97.7003397 206.937009,99.4557947 208.269,101.382 C209.57403,103.281097 210.648261,105.328849 211.469,107.482 C213.518,112.605 214.351,120.022 212.569,128.47 C209.242,146.07 187.835,180.717 161.206,198.475 C141.546,211.575 123.331,211.185 113.275,205.149 C101.882746,198.481254 90.1901359,179.580518 83.5782406,169.552288 L83.298,169.128 L83.198,168.636 L83.463,168.222 L83.946,168.13 C85.553,169.177 95.37,186.294 107.471,197.761 C107.596143,197.873286 107.942429,198.189082 108.129496,198.360773 L108.208,198.433 C113.625,203.41 117.635,205.143 123.576,206.155 C133.696,207.841 142.686,205.548 151.825,201.077 C176.287,188.577 199.684,157.967 207.89,135.677 C213.069,121.989 212.634,106.91 201.234,97.406 C193.399,90.878 182.672,88.996 172.428,88.778 C159.848988,88.778 158.820599,89.9951917 157.74307,89.1950821 L157.705,89.166 C157.321,88.728 157.352,88.631 157.221,87.566 C156.123366,78.5300651 155.497184,69.4430857 155.345,60.342 C155.336257,59.9662046 155.538541,59.6211414 155.861866,59.4430083 L155.974,59.39 C158.655,58.495 161.058,54.642 159.463,51.449 C158.688662,49.9840698 157.229262,49.0071743 155.580019,48.8494773 C154.076752,49.2625095 152.875308,50.405175 152.393,51.898 C152.254423,52.2313432 152.13784,52.5734094 152.044,52.922 C151.579,54.778 151.988,54.989 151.544,55.622 C150.835727,56.3312273 150.164812,55.830438 149.272941,55.2111569 L149.144,55.122 C145.917,52.794 144.488,49.632 143.836,45.722 C143.474454,43.1304738 143.448574,40.5031454 143.759,37.905 C142.728192,37.4769304 141.749542,36.9327508 140.842,36.283 C139.644307,35.383702 138.518867,34.3920046 137.476,33.317 C128.917,40.254 117.42,40.845 106.249,40.671 C94.96,40.35 90.465,27.95 92.761,18.118 C94.447,9.616 104.714,0.387884958 119.116,0.387884958 Z M43.285,124.231 L43.848,124.4 L43.855,124.4 L44.12,124.929 C43.872,125.746 44.142,125.229 43.032,126.653 C39.9876431,130.664969 37.3493561,134.969437 35.156,139.503 C30.9110692,147.951403 27.8695624,156.952392 26.12,166.244 C24.797,172.695 24.079,179.644 25.934,186.026 C27.619,192.078 31.22,195.276 34.934,196.232 C36.2262048,196.571942 37.5603549,196.725494 38.896,196.688 C45.182,196.423 51.131,193.448 56.171,189.595 C69.203,179.374 87.107,157.376 89.548,145.153 C89.908,143.425 89.615,144.088 90.032,143.353 L90.496,143.211 L90.508,143.211 L90.93,143.453 L90.9698866,143.573696 C91.1061389,143.969562 91.1278333,143.91525 90.884,145.502 C88.421,161.502 64.925,189.056 50.638,196.002 C47.5980265,197.498738 44.3443885,198.515142 40.993,199.015 C31.847,200.291 23.993,194.815 22.549,181.386 C21.921,175.214 22.767,170.097 23.949,164.528 C25.0782269,158.590217 26.8032078,152.782401 29.0972124,147.192526 L29.534,146.147 C35.662,131.8 42.383,125.017 42.748,124.5 L43.285,124.231 Z M280.328,164.413 C280.982,164.722 280.814,164.567 281.099,165.07 L281.099,165.077 C280.805,165.57 280.978,165.419 280.312,165.714 C280.126,165.714 279.963,165.814 278.163,166.06 C275.677492,166.379524 276.500477,166.174039 268.675028,166.16067 L267.877,166.16 C261.94,166.16 262.144,166.418 258.696,166.121 C257.39,166.009 257.755,166.09 257.053,165.791 L256.788,165.312 L256.788,165.3 L256.98,164.786 L257.51,164.467 C257.659,164.467 258.216,164.249 260.361,163.926 C260.361,163.740884 266.041909,163.687298 268.171633,163.680722 L269.434925,163.680518 C277.221852,163.690471 277.478966,163.846864 280.328,164.413 Z M218.846676,162.336891 L220.288154,162.337351 C224.224281,162.341339 224.42785,162.390225 226.72,162.985 C227.107,163.093 226.893,162.949 227.698,163.745 C226.798,164.497 227.367,164.345 224.616,164.759 C223.639991,164.848137 222.658997,164.869855 221.68,164.824 C213.594,164.717 209.633,165.175 207.575,164.024 L207.352,163.533 L207.352,163.526 L207.59,163.042 C207.927581,162.806933 208.326766,162.67619 208.738,162.666 C211.329875,162.226982 211.510239,162.332966 218.846676,162.336891 Z M88.725,123.548 C90.318335,124.160216 91.8354347,124.954839 93.246,125.916 C99.246,130.016 101.498,135.588 100.972,139.791 C111.884055,145.642672 123.165591,150.777536 134.745,155.163 C138.596,149.316 140.429,145.658 148.539,132.886 C149.721,131.039 149.402,131.44 149.939,131.025 L150.427,131.071 L150.434,131.071 C150.95,131.798 151.05,131.209 148.174,136.855 C144.347,144.39 141.962,148.269 140.198,151.171 C138.425708,153.935689 137.445813,155.653029 136.760487,156.660095 C140.031026,158.557462 143.255466,160.107855 143.627,160.406 C143.963146,160.649436 144.283769,160.913616 144.587,161.197 C145.398,162.005 145.107,161.537 145.642,162.759 C144.466,163.032 144.766,163.008 144.211,162.92 C143.348718,162.83652 142.511388,162.58369 141.747,162.176 C139.497,160.996 137.379,159.865 135.103,158.549 C134.503487,158.22507 133.952995,157.817672 133.468,157.339 L133.454948,157.325742 C133.339183,157.280653 133.217396,157.23394 133.089,157.186 C120.066,152.323 109.41,146.928 99.045,141.572 C97.922,140.851 98.632,140.059 98.545,138.494 C98.545,132.983 93.55,127.85 88.52,125.187 C88.027,124.955 88.199,125.077 87.706,124.557 L87.706,123.966 L88.125,123.559 L88.725,123.548 Z M87.314,142.24 L87.654,143.107 C87.354,145.464 87.123,145.918 85.354,148.73 C84.2435652,150.426339 82.9641381,152.005098 81.5356545,153.442233 L81.054,153.916 C80.3194523,154.520894 79.5076571,155.025323 78.64,155.416 C78.6283529,155.416 78.6276055,155.414879 78.6296353,155.41378 L78.632,155.411773 C78.5914948,155.420208 78.4608235,155.444 78.014,155.516 L77.542,155.286 L77.535,155.279 L77.427,154.768 L77.669,154.185 C77.7093125,154.1175 78.0326328,153.731836 78.6818076,152.905236 L78.816,152.734 C80.5903958,151.000526 82.1710204,149.079232 83.53,147.004 C85.157,144.292 84.676,144.767 86.305,142.812 C86.481,142.58 86.339,142.676 87.314,142.24 Z M2.754,147.061 C3.27,147.061 5.954,147.361 6.102,147.376 C10.72,147.854 10.831,147.799 11.991,148.316 C12.891,148.742 12.561,148.508 13.421,149.379 C12.408,150.065 12.775,149.902 11.807,150.143 C10.407,150.434 10.579,150.329 3.995,149.643 C3.37288691,149.64605 2.75367068,149.55812 2.157,149.382 C0.357,148.808 0.849,148.875 0.709,148.875 C0.086,148.419 0.239,148.617 0,148.027 L0,148.019 C0.34,147.483 0.154,147.649 0.847,147.313 C1.4762151,147.185843 2.11335337,147.101649 2.754,147.061 Z M77.755,106.4 C79.446,107.022 79.63,107.371 80.288,111.981 C81.311,119.004 80.423,115.134 81.812,121.519 C82.719,125.784 83.101,127.826 81.312,131.072 C81.0830764,131.47619 80.8292719,131.886279 80.5550146,132.298137 C80.2315856,132.859651 79.857098,133.390099 79.436,133.884 L79.2289076,134.110393 C77.0767861,136.815043 74.3119761,139.330999 72.223,140.456 C71.9108403,140.634792 71.5872517,140.789975 71.2549523,140.920858 C70.3073546,141.54642 69.3335298,142.134742 68.336,142.684 C68.1355294,142.818588 66.3193356,143.550215 65.9179418,143.705854 L65.86,143.728 L65.242,143.759 L64.793,143.448 L64.793,143.44 L64.739,142.899 L65.069,142.373 C65.4489877,142.042259 65.8360467,141.720003 66.2298842,141.406446 C64.6165834,141.357156 63.0059207,141.23239 61.403,141.035 C56.066,140.458 56.423,140.576 56.159,140.54 C56.152,140.54 55.965,140.699 55.959,140.705 L55.473,140.643 L55.373,140.528 L55.33,140.528 L54.769,140.313 L54.512,139.787 L54.512,139.776 C54.747,139.144 54.662,139.253 54.803,139.185 C54.2687905,137.471274 53.8338913,135.954796 53.4407411,134.509198 C53.2521688,134.883815 53.1043263,135.277387 53,135.684 C52.958,135.828 52.183,138.884 51.735,140.824 C51.087,143.493 50.735,143.524 49.574,144.27 C46.2653499,146.322202 42.7679162,148.051662 39.1299927,149.434938 L38.288,149.748 L37.671,149.771 L37.225,149.453 L37.225,149.445 L37.18,148.896 C37.18,148.89 37.52,148.384 37.525,148.378 C38.6472538,147.492256 39.8394953,146.698989 41.09,146.006 C43.7751197,144.768504 46.3745734,143.35302 48.871,141.769 C49.687,139.741 49.656,137.299 51.016,135.069 C51.3330499,134.514797 51.7288402,134.009533 52.191,133.569 C52.6969046,133.124039 52.7865958,133.051082 53.0336833,132.983162 C52.3516741,130.388585 51.7418508,127.881385 50.846,124.676 C49.046,118.376 46.763,113.501 47.735,110.87 C48.092,109.862 48.844,109.594 49.915,109.343 C51.037,109.133 52.48,108.956 52.52,108.943 C53.231,108.787 59.72,107.572 64.064,106.932 C67.247,106.472 74.7,105.432 77.755,106.4 Z M84.706,137.489 L84.936,138.406 C84.447,140.253 84.024,141.418 81.417,144.025 C79.8613315,145.558031 78.1669798,146.94285 76.355963,148.161837 L75.748,148.562 C75.4726,148.7087 75.46855,148.72742 75.079021,148.912676 L74.934,148.981 C74.2869919,149.259089 73.6261204,149.503745 72.954,149.714 C72.2381333,149.714 72.4116711,149.790658 71.9875686,149.48542 L71.887,149.414 L71.856,148.885 C72.399,148.007 71.95,148.629 73.038,147.591 C73.191,147.515 73.081,147.503 74.408,146.482 C76.0378361,145.457154 77.5649202,144.277348 78.968,142.959 C80.0207263,141.961756 80.9924576,140.882352 81.874,139.731 C82.874,138.639 83.125,138.479 83.712,137.865 C83.854,137.724 83.669,137.816 84.706,137.489 Z M227.341,146.316 C230.798,146.339 279.997,146.816 282.696,148.005 L282.896,148.446 L282.896,148.454 C282.487,149.333 283.007,148.971 277.518,149.325 C263.044,149.694 246.929,148.796 227.91,148.796 C221.547,148.753 224.141,148.896 212.522,148.661 C208.507,148.58 209.322,148.7 208.542,148.377 L208.293,147.851 L208.293,147.844 L208.507,147.303 L209.049,147.038 C210.443,147.038 214.5,146.316 227.341,146.316 Z M288.545,55.458 C289.569,55.696 289.355,55.628 289.862,55.958 L290,56.407 L290,56.415 C289.517,57.162 290.4,56.915 282.4,56.915 C280.594546,56.8333363 278.785756,56.9645734 277.011,57.306 C276.236861,57.4687593 275.48552,57.7237289 274.772969,58.065126 L274.42,58.243 C273.653809,58.658382 272.967755,59.2069541 272.394,59.863 C269.710714,62.8779276 269.006943,68.602926 268.054688,73.5730555 C269.739576,73.8010551 271.427017,74.1154534 273.12,74.53 C276.446,75.362 276.26,75.223 276.513,77.083 C277.430073,84.8244634 276.208419,91.2619411 274.032932,95.8020581 L273.868,96.139 C272.568528,98.8952985 270.810171,101.410763 268.668,103.578 C266.081201,106.164799 262.782666,107.881979 259.249782,108.72539 L259.248,108.502 C259.248,115.729 259.767,122.794 260.5,130.438 C260.812,130.438 261.408,130.414 262.35,130.449 C266.25,130.594 272.172,131.614 274.34,134.863 C276.308,138.063 272.733,141.073 269.04,141.641 C266.881773,141.947063 264.70924,142.141987 262.531,142.225 C256.912765,142.41376 251.288195,142.221319 245.696,141.649 C244.16975,141.515366 242.673374,141.146332 241.26,140.555 C237.793407,138.911019 237.374715,135.716115 240.931425,133.617595 L241.137,133.5 C244.537,131.61 248.316,131.865 252.137,131.5 C252.457598,131.407005 252.800996,131.432928 253.104,131.573 L253.369,131.973 L253.369,131.984 L253.25,132.452 C252.804,132.752 253.102,132.725 250.84,133.093 C247.545,133.618 245.72,133.773 243.282,134.855 C242.314047,135.271078 241.486645,135.957513 240.899,136.832 L240.899,136.847 L240.891,136.859 L240.891,136.874 C240.885244,136.887718 240.880236,136.901739 240.876,136.916 L240.876,137.047 C240.885853,137.062848 240.894866,137.079204 240.903,137.096 C241.019,137.561 241.841,138.17 243.11,138.596 C246.899,139.862 264.599,140.257 269.21,139.045 C269.794702,138.892723 270.358316,138.668688 270.888,138.378 C271.442426,138.104089 271.915964,137.690518 272.262,137.178 L272.269,137.159 L272.281,137.144 C272.29,137.125 272.281,137.144 272.342,137.017 L272.342,137.002 L272.35,136.99 L272.35,136.975 L272.357,136.959 C272.364,136.933 272.384,136.867 272.392,136.837 L272.392,136.825 L272.4,136.798 L272.4,136.529 C272.379894,136.427474 272.341976,136.330308 272.288,136.242 L272.281,136.222 C271.342,134.975 270.053,134.465 268.373,133.854 C266.511078,133.295647 264.585539,132.977076 262.643,132.906 C259.22,132.769 259.415,133.154 258.651,132.699 C258.092,132.22 258.159,132.356 257.776,127.809 C257.377153,123.431373 257.227245,119.034627 257.327,114.64 C257.41739,111.845349 257.472176,110.093428 257.609199,109.0504 C256.784632,109.183836 255.950995,109.269844 255.114641,109.309698 C255.532869,111.349036 255.726767,113.430182 255.694,115.515 C256.181,131.065 254.953,130.728 254.953,131.715 C254.626,132.3 254.786,132.154 254.27,132.39 L254.262,132.39 L253.871,132.16 L253.656,131.646 C252.861,125.346 253.598,127.472 253.211,115.234 C253.059675,113.265094 253.06373,111.287817 253.222896,109.320511 C248.654518,109.159576 244.132755,107.621213 240.6,104.698 C234.889733,99.9732697 233.796617,93.3748927 233.815131,86.2760637 C230.299834,88.2387101 226.569838,90.5541982 222.564,92.558 C221.913,92.878 221.632,93.05 220.964,92.731 C220.413,92.347 220.401,92.28 219.878,89.664 C218.078,80.894 219.088,73.344 226.134,67.706 C234.667,60.94 244.001,64.489 249.144,74.089 C250.087,75.912 249.944,75.742 249.969,76.261 C249.969,76.268 249.664,76.631 249.658,76.637 C249.028,76.637 249.347,76.8 248.789,76.346 C248.331845,75.5334135 247.828347,74.7477838 247.281,73.993 C243.312,68.393 236.847,64.793 230.635,67.771 C228.554733,68.8223692 226.700504,70.2709643 225.177,72.035 C222.757848,75.0132884 221.474952,78.7538863 221.557,82.59 C221.608043,85.0309108 221.906571,87.4603476 222.448,89.841 C224.632,88.832 233.074,83.741 233.621,83.558 C233.629,83.417 233.792,77.658 234.051,77.658 C234.196402,77.3522744 234.468206,77.1254053 234.795,77.037 C237.257,76.45 238.816,76.12 241.9,75.459 C245.806,74.622 244.795,74.687 245.7,74.822 L246.065,75.275 L246.065,75.283 L245.988,75.862 L245.524,76.246 C244.416,76.604 244.196,76.668 242.672,77.133 C235.584,79.267 236.207,78.886 236.193,79.19 C236.007886,83.6327273 236.294558,84.5956136 235.715371,85.1660448 C235.743794,85.8783884 235.780653,86.6863623 235.829,87.603 C235.973372,90.3892185 236.498929,93.1425047 237.391,95.786 C237.898303,97.2245917 238.595466,98.5889864 239.464,99.843 C245.005,107.721 257.155,108.993 264.911,103.532 C268.949,100.582 271.958,95.538 273.263,90.689 C274.412448,86.3308565 274.681021,81.787209 274.053,77.324 C271.912284,76.7656036 269.750871,76.2998579 267.574793,75.9274569 C267.338772,77.0581787 267.230455,77.5428641 267.142065,77.8046074 C268.3317,77.6435846 269.738222,77.4545726 270.538,77.323 C270.544667,77.3245556 270.595333,77.3363333 271.07,77.409 L271.381,77.754 C271.381,77.766 271.31,78.211 271.308,78.223 L270.913,78.576 C269.13604,79.3720464 267.296476,80.0202418 265.413,80.514 C261.001968,81.3751624 256.526032,81.8618954 252.033,81.969 C242.320226,82.2503871 239.778411,81.3633957 237.733213,81.0547074 L237.633,81.04 L237.108,80.729 L236.92,80.199 L236.92,80.192 L237.196,79.692 L237.764,79.473 C237.764,79.473 241.199,79.4 242.423,79.4 C244.887,79.4 248.414,79.707 254.168,79.4 C257.867661,79.2001546 261.550231,78.757872 265.192,78.076 C265.304149,78.0572569 265.476429,78.0317472 265.692693,78.001166 C265.543063,77.5938749 265.565769,77.7395 265.665,75.875 L265.674722,75.6265508 C261.319212,74.9921808 256.912355,74.7298292 252.502,74.845 C251.125,74.874 251.563,74.945 250.913,74.71 C250.904,74.694 250.692,74.291 250.686,74.273 L250.848,73.816 L251.293,73.582 C256.169857,73.0733014 260.985251,72.8701485 265.810339,73.3165611 C265.951717,71.6615248 266.186376,70.0140679 266.513,68.383 C266.837,67.737 267.442,59.183 273.238,56.063 C273.5,56.065 277.791,52.819 288.545,55.458 Z M7.072,133.877 C26.701,134.043 24.465,133.746 28.854,134.395 C31.093,134.83 30.469,134.608 31.207,134.995 L31.401,135.414 L31.401,135.422 L31.174,135.822 C30.631,136.05 30.967,136.031 28.794,136.24 C24.267,136.617 26.555,136.393 18.757,136.393 C12.109,136.362 5.657,136.41 5.229,136.248 C1.26,135.848 1.548,135.779 1.049,135.518 L0.832,135.004 L0.832,135 L1.075,134.5 L1.632,134.243 C1.823,134.237 5.345,133.846 7.072,133.877 Z M71.954,110.018 L71.946,110.018 L71.516,110.345 C71.289,111.126 71.342,110.624 71.389,112.314 C71.536,114.379 71.384,113.296 72.289,118.167 C73.873,126.629 73.563,126.571 74.8,129.451 C75.1,130.171 74.884,129.892 75.83,130.673 C76.425,129.599 76.321,129.939 76.341,129.156 C76.3988945,128.15071 76.3654238,127.142239 76.241,126.143 C76.111,125.303 73.95,113.163 73.731,112.943 C73.399,111.934 73.354,111.844 72.994,110.913 L72.9656283,110.841045 C72.8659636,110.583215 72.917016,110.662453 72.5734329,110.25695 L72.479,110.145 L71.954,110.018 Z M65.4491137,114.674358 C64.1107886,114.938504 63.3021536,116.5525 63.6429768,118.279319 C63.9838,120.006137 65.3450187,121.191868 66.6833437,120.927721 C68.0216687,120.663575 68.8303037,119.04958 68.4894805,117.322761 C68.1486573,115.595943 66.7874387,114.410212 65.4491137,114.674358 Z M108.805,40.775 C109.687,41.06 109.666,40.344 110.234,47.985 C111.734,66.249 110.892,76.209 116.563,79.048 C117.969672,79.6213839 119.466813,79.9409906 120.985,79.992 C121.544653,80.0400747 121.892411,80.0493749 122.164256,80.118498 C122.6958,80.0819677 123.366709,80.0347422 124.215,79.967 C124.641,79.927 125.549,79.909 126.702,79.836 C130.11639,79.6086868 133.489266,78.9576925 136.743,77.898 C139.767438,76.8895312 139.066123,77.0119268 140.720355,76.4050673 L140.888,76.344 C141.095,76.272 144.171,75.216 144.549,75.073 C145.209,75.071 144.9,74.92 145.465,75.29 L145.465,75.298 C145.495462,75.8232308 145.543817,75.6864024 145.271072,76.0861821 L145.196,76.198 C144.374492,76.9077986 143.496596,77.5495824 142.571,78.117 C142.316375,78.261375 142.264641,78.2939687 141.999105,78.4492539 L141.871,78.524 C137.515197,80.7481393 128.831855,82.8547405 123.024414,82.2474389 C122.923302,83.2866565 122.700711,85.1513365 122.382,88.709 C122.287,89.983 122.335,90.022 121.998,90.478 C121.238,91.198 120.866,90.841 119.05,90.371 C113.472462,88.9833858 107.689247,88.6204948 101.982,89.3 C90.5388627,90.4843137 77.2560484,95.8823914 67.5010251,101.787137 L66.92,102.142 L66.425,102.23 L66.014,101.969 L65.926,101.493 C66.269,100.957 66.097,101.137 66.726,100.687 C68.438,99.496 70.05,98.356 72.426,96.933 C86.476,88.502 104.532,83.933 119.966,88.051 C120.032,86.997 120.497,82.58 120.511,82.436 C118.416096,82.3952496 116.367109,81.8148927 114.562,80.751 C113.580576,80.1271113 112.735883,79.3106539 112.079,78.351 C107.907,72.256 108.597,53.489 108.152,42.837 C108.085,41.267 108.013,41.843 108.279,41.056 L108.793,40.775 L108.805,40.775 Z M242.487,84.345 C243.062,84.631 242.878,84.461 243.27,85.12 C243.480177,85.8297604 243.654399,86.5496761 243.792,87.277 C243.848268,88.1099167 243.952104,88.9389357 244.103,89.76 C244.418939,91.4544528 245.022661,93.0823038 245.888,94.573 C245.924,94.684 245.953,94.75 245.999,94.861 C246.02,94.913 246.415,96.047 246.452,96.139 C246.552,96.408 246.532,96.167 246.482,97.279 C245.4,97.173 245.606,97.226 245.35,97.072 C244.489765,96.6141481 243.788371,95.9099913 243.333791,95.0525717 L243.216,94.815 C243.088889,94.5714444 243.006815,94.4100617 242.835632,94.0260398 L242.767,93.871 C242.492579,93.2384064 242.260403,92.588314 242.072,91.925 C241.670501,90.4626342 241.418542,88.9632762 241.32,87.45 C241.351868,86.6634369 241.479475,85.883689 241.7,85.128 C242.092,84.464 241.909,84.635 242.479,84.345 L242.487,84.345 Z M236.58,69.567 C238.24762,69.6029243 239.872027,70.1041007 241.27,71.014 C241.87,71.398 241.657,71.207 242.08,71.728 L242.095,72.181 C240.924,72.612 241.595,72.528 239.934,72.262 C239.1117,72.1531457 238.284744,72.0870752 237.456469,72.0639188 C237.475986,72.1715361 237.469838,72.3890599 237.551,73.132 C237.619437,73.902625 237.647445,73.7653398 237.60948,73.8835967 L237.601,73.911 L237.543,74.003 C237.418596,74.1543993 237.278479,74.2921706 237.125,74.414 C235.718,74.6278182 235.884568,74.6922066 235.39208,74.3566799 L235.317,74.306 L235.233,74.225 L235.179,74.145 C235.179,73.945 234.954,72.384 235.018,72.16 L235.0234,72.1483499 C232.474447,72.532675 230.231987,73.9617845 228.80218,76.0411595 C229.093809,76.2074498 229.401473,76.5152251 230.017,77.044 C230.836375,77.750875 231.10116,77.8934922 231.247238,78.1631663 L231.275,78.219 C231.331,78.419 231.309,78.343 231.375,78.541 L231.375,78.553 L231.445,78.937 C230.545,80.154 230.74,79.978 230.473,80.004 C230.347184,80.0183162 230.220556,80.0230883 230.094198,80.0183162 L229.905,80.004 C229.567,79.932 229.725,80.028 228.419,78.941 C228.36866,78.8649537 228.002552,78.5835586 227.673325,78.3046247 L227.721,78.153 C227.138474,79.9046899 226.801928,81.7287643 226.721,83.573 L226.509,84.156 C226.498,84.163 226.049,84.442 226.037,84.448 L225.508,84.279 L225.166,83.769 C225.029326,83.2494159 224.921824,82.7225928 224.844,82.191 C224.5415,80.0183169 224.956522,77.8062739 226.026,75.891 C228.066402,71.958083 232.149652,69.5113827 236.58,69.567 Z M124.723,63.1569652 C127.367,62.8259652 129.855,64.3349652 131.678,66.0009652 L131.678,66.0009652 L131.887263,66.186981 C132.704032,66.9504027 133.275275,67.9426048 133.524,69.0369652 L133.524,69.0369652 L133.361,69.9659652 C132.183,69.7019652 132.642,69.8859652 132.061,69.4789652 L132.061,69.4789652 L130.817,68.5789652 C130.090539,67.8501143 129.296283,67.1921409 128.445,66.6139652 L128.445,66.6139652 L128.158109,66.4309591 C127.575444,66.0803927 126.940749,65.8230567 126.277,65.6689652 C125.462922,65.4913346 124.612979,65.5872959 123.859,65.9419652 C123.501648,66.0580609 123.157965,66.2126344 122.834,66.4029652 C122.750725,66.4497176 122.669948,66.5007871 122.592,66.5559652 C121.865,66.7999652 122.115,66.7909652 121.492,66.6369652 L121.492,66.6369652 L121.484,66.6289652 C121.233,66.0289652 121.26,66.2759652 121.407,65.5289652 L121.407,65.5289652 C121.411078,65.5153558 121.402,65.5303402 121.507,65.3439652 C122.136231,64.1145246 123.348339,63.2902459 124.723,63.1569652 Z M122.261,46.472 C122.725,46.917 122.6,46.701 122.779015,47.447 C122.781234,48.7884784 122.539292,50.1191626 122.065,51.374 C120.598837,56.3000817 120.760102,56.8658735 120.243182,58.0477944 C121.195558,57.9543452 122.876853,57.8515728 123.599,57.733 C123.623,57.728 123.874,57.692 123.89,57.692 C124.626417,57.8200747 125.328226,58.0996403 125.951,58.513 C124.627,60.477 124.693,60.113 120.678,60.494 C120.13714,60.6070006 119.574255,60.5424704 119.073,60.31 C118.797,60.21 119.052,60.376 117.973,59.577 C118.071107,59.4444 118.154882,59.3258608 118.231508,59.2185025 C118.210165,59.1637362 118.21456,59.12704 118.2,59.024 C117.946812,57.7517105 118.036897,56.4349532 118.461,55.209 C118.925262,53.2291819 119.482115,51.2724182 120.129672,49.3451477 L120.461,48.384 C121.067316,47.2727368 120.744712,47.8721219 121.195428,47.127136 L121.278,46.99 C121.845,46.475 121.62,46.583 122.253,46.472 L122.261,46.472 Z M115.765,47.467 C116.824834,47.467 117.684,48.6700109 117.684,50.154 C117.684,51.6379891 116.824834,52.841 115.765,52.841 C114.705166,52.841 113.846,51.6379891 113.846,50.154 C113.846,48.6700109 114.705166,47.467 115.765,47.467 Z M136.875,46.315 C137.934834,46.315 138.794,47.5180109 138.794,49.002 C138.794,50.4859891 137.934834,51.689 136.875,51.689 C135.815166,51.689 134.956,50.4859891 134.956,49.002 C134.956,47.5180109 135.815166,46.315 136.875,46.315 Z M138.666,40.824 C138.974604,40.9584971 139.236329,41.1815896 139.418,41.465 C139.81525,42.0128272 139.970657,42.6995098 139.848,43.365 C139.143112,43.3398681 138.441451,43.2572607 137.75,43.118 C137.546826,43.0111571 137.331641,42.9289103 137.109,42.873 C136.546676,42.7375864 135.959203,42.7617768 135.41213,42.9406721 L135.209,43.015 L135.006339,43.094811 L135.006339,43.094811 L134.809,43.187 L134.590005,43.3054933 L134.590005,43.3054933 L134.364,43.41 C133.944,43.51 134.009,43.51 133.65,43.583 C133.116,43.697 133.771,43.669 132.26,43.633 C132.291,42.369 132.237,42.597 132.379,42.333 C132.600572,41.7824446 133.010836,41.3314159 133.532932,41.0583304 L133.711,40.974 C133.848942,40.9046431 133.989447,40.8405687 134.132207,40.7819099 L134.348,40.698 C135.745226,40.154794 137.302826,40.200245 138.666,40.824 Z M96.85,24.018 C97.1431393,26.3904501 98.1208142,28.6231089 99.6593971,30.4451712 L99.921,30.745 L100.361,31.001 C100.367,31.0001429 100.697,30.9449184 100.795571,30.9291574 L100.823,30.925 L101.062,30.531 C100.947,29.658 101.094,30.396 100.529,28.987 C99.4961084,26.2769848 99.0790342,23.3711281 99.308,20.48 C99.5539559,18.3364907 100.231946,16.2650998 101.301,14.391 C102.381653,12.4602943 103.881854,10.7967458 105.691,9.523 C106.582673,8.91946251 107.535588,8.41262321 108.533578,8.01077062 L108.964,7.845 C110.301769,7.31727478 111.701417,6.98447361 113.125465,6.85617784 L113.601,6.821 L113.668,6.821 L113.668,6.816 L114.234,6.581 L114.49,6.081 L114.49,6.073 L114.29,5.544 C113.714,5.227 113.854,5.253 113.379,5.2 C104.971,3.807 95.808,12.716 96.85,24.018 Z M145.058,22.542 C145.41328,23.5108578 145.870161,24.4393685 146.421,25.312 C146.6,25.618 146.418,25.457 147.37,26.066 C147.975,24.884 147.788,25.497 147.788,24.106 C147.778351,23.9830296 147.769712,23.8675572 147.760962,23.7564663 C146.937067,23.3416243 146.118336,22.9037218 145.322,22.423 L144.940363,22.1751763 C144.97936,22.2958835 145.018572,22.4181472 145.058,22.542 Z"/>
  </g>
</svg>
