<svg xmlns="http://www.w3.org/2000/svg" width="241" height="244" viewBox="0 0 241 244">
  <g fill="none">
    <path  d="M33.108,121.36 C30.248,127.215 27.308,133.528 28.288,139.96 C29.456,147.648 35.913,153.436 42.519,157.642 C47.819,161.014 53.591,163.921 58.225,168.052 C60.1858309,169.75303 60.779823,172.548671 59.68,174.9 C53.4220096,187.93646 48.7648139,201.682407 45.81,215.838 C45.5939988,216.88528 45.866051,217.973953 46.5493131,218.796514 C47.2325752,219.619074 48.2528677,220.086219 49.322,220.06663 L71.822,219.747 C73.0054641,219.83769 74.1909974,219.599961 75.248,219.06 C76.3324364,218.17936 77.0962081,216.96569 77.421,215.607 C82.4876667,201.325 87.5543333,187.043333 92.621,172.762 C93.448,170.432 94.287,167.962 93.813,165.541 C93.306,162.941 91.386,160.867 89.486,159.005 C85.683944,155.277994 81.6419671,151.803898 77.386,148.605 C75.246,146.998 72.986,145.386 71.673,143.066 C69.233,138.752 70.732,133.392 72.283,128.692 C63.256,120.149 45.206,118.3 33.108,121.36 Z"/>
    <path  d="M135.553,163.27 C134.253,160.454 131.032,159.128 128.097,158.053 C118.091,154.388 112.077,150.723 102.071,147.059 C99.223,146.016 96.245,144.884 94.277,142.595 C92.309,140.306 91.818,136.474 94.058,134.444 L94.066,134.306 C89.1244057,128.455907 81.9910703,124.89991 74.345,124.475 C73.0552197,124.401669 71.7612894,124.468729 70.486,124.675 C71.4867391,125.363981 72.4359212,126.124998 73.326,126.952 C73.468383,127.092155 73.5228462,127.298885 73.468,127.491 C72.7116078,129.627475 72.1382099,131.824385 71.754,134.058 C71.3349678,136.299956 71.5404578,138.613967 72.348,140.747 C73.3666385,142.800526 74.8937249,144.559291 76.784,145.856 C80.669,148.88 84.538,151.864 88.159,155.21 C91.342,158.153 95.511,161.539 95.476,166.286 C95.377715,168.208938 94.9579021,170.101815 94.234,171.886 C96.756,172.493 99.307,173.037 101.86,173.575 C103.016872,173.810493 104.021855,174.520591 104.630218,175.532374 C105.23858,176.544157 105.394497,177.76478 105.06,178.897 C102.133,188.658 96.651,199.379 95.96,209.305 C95.749,212.33 94.468,216.022 97.783,217.348 C98.6214249,217.65795 99.5202373,217.769532 100.409,217.674 L111.287,217.701 C114.511,217.429 117.982,217.056 120.387,214.916 C122.115,213.379 123.021,211.156 123.849,209.007 C128.477,196.999 132.072,183.493 135.36,171.059 C136.037,168.5 136.668,165.682 135.553,163.27 Z"/>
    <path fill="#1988E0" d="M197.695,212.657 L191.281,243.598 L167.256,223.388 L197.695,212.657 Z M220.93,214.684 C226.017095,214.684 230.141,218.807905 230.141,223.895 C230.141,228.982095 226.017095,233.106 220.93,233.106 C215.842905,233.106 211.719,228.982095 211.719,223.895 C211.719,218.807905 215.842905,214.684 220.93,214.684 Z M207.090909,189.645376 L222.517529,194.909348 L217.253558,210.335968 L201.826937,205.071996 L207.090909,189.645376 Z M174.191121,167.04946 L178.117456,180.64277 L164.524145,184.569105 L160.59781,170.975794 L174.191121,167.04946 Z M234.229,143.327 L230.274,162.404 L215.461,149.943 L234.229,143.327 Z M189.96,146.146 C194.191053,146.146 197.621,149.575947 197.621,153.807 C197.621,158.038053 194.191053,161.468 189.96,161.468 C185.728947,161.468 182.299,158.038053 182.299,153.807 C182.299,149.575947 185.728947,146.146 189.96,146.146 Z M68.163,28.932 C72.6448465,29.3250597 77.0870071,30.0842605 81.445,31.202 C86.025,32.336 90.535,33.745 94.993,35.29 C99.408,36.82 103.768,38.489 108.108,40.214 C109.477517,40.7585867 110.844583,41.3094206 112.210658,41.8627719 C112.674114,42.2235704 112.917969,42.4238281 112.917969,42.4238281 C112.811446,42.2849967 112.703735,42.149966 112.595135,42.0184248 C115.003494,42.9950284 117.409581,43.9783712 119.821,44.948 C122.444361,46.0020359 125.023091,47.1628895 127.550754,48.4275546 C132.29248,50.5947657 136.936831,52.9712661 141.469,55.551 C144.147,57.067 146.773,58.665 149.396,60.276 C151.620857,61.6419286 153.981949,62.8000561 155.989274,64.4837835 L156.309215,64.7623285 L156.222586,64.7036382 C155.732287,64.3993578 155.104941,64.4094823 154.624715,64.7294257 L154.554165,64.7815952 L154.958,64.858 C155.612857,64.9810464 156.244825,65.1801556 156.842687,65.4477865 C156.793095,65.3148301 156.718221,65.1832911 156.61409,65.0571991 L156.534215,64.9683285 L156.610328,65.0520234 C156.732528,65.1930405 156.844721,65.3406928 156.946665,65.4939222 C158.377826,66.159202 159.607472,67.2190938 160.478,68.569 C161.855575,70.9415946 162.683238,73.5930533 162.9,76.328 L162.936782,76.6803983 C163.733771,77.7264252 164.207,79.0324484 164.207,80.449 C164.207,81.7196868 163.826212,82.9014358 163.172522,83.8863609 C163.13436,84.8862775 163.065155,85.8857289 162.966,86.883 C162.721951,89.6215369 162.36675,92.3483854 161.901432,95.056818 C161.799624,95.0682542 161.69967,95.0850312 161.6,95.106 C161.230031,95.1968088 160.866066,95.3049261 160.509154,95.4296347 C161.140704,91.9140417 161.571182,88.5285049 161.772287,85.3866168 C160.722519,86.1936102 159.408743,86.673 157.983,86.673 C154.54558,86.673 151.759,83.8864203 151.759,80.449 C151.759,77.0115797 154.54558,74.225 157.983,74.225 C159.266132,74.225 160.458575,74.6132834 161.449243,75.2787629 C160.741269,70.9832388 159.181485,67.9188398 156.605,66.746 C146.882,62.32 125.389,74.994 115.005,97.804 C104.621,120.614 100.724,139.887 119.005,149.348 C125.679952,152.804471 133.760411,150.802521 141.584078,141.352768 L133.983459,132.894033 L152.179174,116.541563 L154.011479,118.581243 C154.890632,116.281855 155.710944,113.935665 156.464752,111.573407 L156.59,111.558 C157.021929,111.539207 157.452593,111.504965 157.881179,111.455435 C157.621566,112.276242 157.353863,113.096158 157.078009,113.913338 C156.967949,114.036875 156.86173,114.164296 156.758,114.294 C156.234975,114.841923 155.9186,115.554564 155.863,116.31 C155.869314,116.548138 155.914014,116.779961 155.992602,116.997866 C155.666429,117.889904 155.330368,118.778451 154.984493,119.663339 L168.531644,134.737278 L150.335929,151.089748 L142.497343,142.368288 C139.904429,145.489182 136.894868,148.229219 133.355,150.098 C130.939547,151.421646 128.243369,152.150454 125.49,152.224 C123.434542,152.219323 121.406105,151.806836 119.520446,151.016465 L119.429,150.995 C116.437667,149.891 113.43,148.833667 110.406,147.823 C98.264,143.76 85.901,140.412 73.529,137.13 C61.177,133.854 48.805,130.626 36.613,126.782 C33.497,125.802 30.397,124.778667 27.313,123.712 C24.7947703,122.941019 22.3428219,121.968199 19.981,120.803 C16.6766013,119.057646 13.9693773,116.364351 12.207,113.069 C8.37,105.684 9.541,96.667 11.47,88.911 C11.618944,88.3337648 11.7724634,87.7577941 11.9305403,87.1831416 C12.7133627,88.6602367 13.5190894,90.1332527 14.343,91.6 C22.1066485,80.3204778 32.2837663,70.9105807 44.136,64.053 C43.985,63.609 43.826,63.168 43.683,62.721 C41.436883,55.7221388 38.9214869,44.3426832 42.5853041,37.8708155 C43.2337281,37.4100355 43.894508,36.958822 44.5673136,36.5205457 C45.121381,35.8212355 45.7340857,35.1653714 46.4,34.56 C47.0303547,34.0079452 47.6899285,33.4940083 48.3751012,33.0199979 C50.2229452,32.0330348 52.4712716,30.9781854 54.8863578,29.9495024 C55.3690627,29.8129187 55.8566997,29.6926226 56.349,29.589 C60.2318059,28.7790628 64.21433,28.5575867 68.163,28.932 Z M209.52,119.713 C212.555909,119.713 215.017,122.174091 215.017,125.21 C215.017,128.245909 212.555909,130.707 209.52,130.707 C206.484091,130.707 204.023,128.245909 204.023,125.21 C204.023,122.174091 206.484091,119.713 209.52,119.713 Z M44.137,64.1 C32.3608069,70.9480151 22.278029,80.3602028 14.637,91.638 C15.597,93.322 16.574,94.997 17.568,96.663 C20.731,101.948 23.136,107.289 26.932,112.139 C27.5082107,112.971543 28.2424652,113.682693 29.093,114.232 C29.9675158,114.779016 31.0709681,114.804713 31.97,114.299 C33.17,113.499 33.221,111.73 32.77,110.36 C32.319,108.99 31.511,107.71 31.418,106.272 C32.4156552,108.159065 33.8111311,109.807023 35.508,111.102 C37.29,112.264 39.856,112.515 41.443,111.102 C42.6506927,109.860442 43.1280213,108.081343 42.704,106.402 C42.5863949,105.870774 42.4189881,105.351813 42.204,104.852 C42.5234144,105.357074 42.8889797,105.831439 43.296,106.269 C44.4714222,107.610155 46.2271936,108.293577 48,108.1 C49.726,107.8 51.8,105.235 48.508,99.021 C46.88,95.273 44.767,90.274 43.139,86.527 C43.7478223,87.8791095 44.6229121,89.0946441 45.712,90.101 C46.843999,91.1102903 48.4717215,91.3402302 49.839,90.684 C51.693,89.584 51.625,86.908 51.179,84.8 C49.669,77.659 46.57,70.981 44.137,64.1 Z M125.626,88.878 L144.528,105.429 L121.136,114.144 L125.626,88.878 Z M160.368974,102.445674 C160.35526,102.508989 160.340062,102.572649 160.324816,102.636297 L160.244292,102.671702 C159.71961,102.92273 159.220484,103.217689 158.751592,103.55201 C158.828532,103.253388 158.902643,102.954428 158.975528,102.655831 C159.442874,102.609047 159.907875,102.538761 160.368974,102.445674 Z M60.025,31.722 C58.5524495,32.1338631 57.687667,33.6562731 58.088,35.132 C58.5299744,36.5806612 60.0275331,37.4308881 61.498,37.068 C61.790992,37.0030022 62.0874823,36.9549226 62.386,36.924 L62.42,36.924 C62.62,36.901 62.82,36.878 63.014,36.857 C63.65,36.7903333 64.287,36.7433333 64.925,36.716 C66.2811445,36.6553111 67.6397463,36.6786892 68.993,36.786 C69.311,36.811 69.629,36.84 69.947,36.875 C70.102,36.891 70.258,36.912 70.414,36.929 C71.079,37.036 71.742,37.142 72.402,37.279 C73.7306231,37.5581225 75.0410418,37.9177864 76.326,38.356 C77.8009093,38.7523323 79.3204675,37.8896154 79.736,36.42 C80.1077535,34.9475911 79.2545431,33.4434551 77.8,33.007 C72.0744259,31.1052927 65.9645681,30.6635955 60.025,31.722 Z"/>
    <path  d="M181.386 126.313C181.371368 125.915162 181.044607 125.600198 180.6465 125.600198 180.248393 125.600198 179.921632 125.915162 179.907 126.313L179.939 128.778C177.885511 125.220268 174.484556 122.640532 170.505 121.622 169.581 121.395 169.187 122.822 170.112 123.048 173.677644 123.950982 176.735263 126.240056 178.606 129.407 178.232688 129.196818 177.842302 129.018519 177.439 128.874 176.539 128.554 176.155 129.982 177.046 130.3 178.347708 130.769824 179.43115 131.701998 180.09 132.919 180.26356 133.199018 180.600427 133.331795 180.918369 133.245503 181.23631 133.159211 181.459825 132.874342 181.468 132.545L181.386 126.313zM218.737 172.636L218.362 174.336C217.481121 170.698698 216.052828 167.216309 214.126 164.008 213.9142 163.66779 213.470066 163.558004 213.12415 163.760352 212.778235 163.9627 212.656257 164.403642 212.849 164.755 214.610441 167.695686 215.938451 170.875096 216.792 174.195 215.965613 173.652782 215.064887 173.233409 214.118 172.95 213.729987 172.856978 213.33809 173.088331 213.232077 173.472998 213.126065 173.857665 213.344114 174.257117 213.725 174.376 215.084319 174.785681 216.319733 175.52851 217.319 176.537 217.344 176.669 217.384 176.798 217.408 176.931 217.431993 177.114151 217.536527 177.277018 217.693046 177.375108 217.849565 177.473199 218.041713 177.496263 218.217 177.438 218.412812 177.54526 218.646442 177.558915 218.853416 177.475195 219.06039 177.391475 219.218826 177.219233 219.285 177.006 219.578333 175.681333 219.871 174.356333 220.163 173.031 220.367 172.1 218.942 171.706 218.737 172.636zM203.4 105.867C203.576 104.937 202.152 104.539 201.974 105.474 201.862676 106.080907 201.788537 106.69405 201.752 107.31 200.285851 104.04075 198.02022 101.193237 195.164 99.03 194.406 98.455 193.664 99.739 194.417 100.307 197.087356 102.350575 199.183887 105.049953 200.503 108.143 199.806253 107.877804 199.062866 107.757025 198.318 107.788 197.37 107.828 197.365 109.306 198.318 109.267 199.414654 109.214307 200.487432 109.598753 201.301 110.336 201.33 110.436 201.367 110.527 201.394 110.624 201.461453 110.892643 201.687915 111.091643 201.963 111.124 201.982 111.153 202.01 111.173 202.028 111.203 202.221932 111.51084 202.610258 111.632961 202.945477 111.491529 203.280697 111.350096 203.464187 110.986721 203.379 110.633 203.09306 109.056541 203.100178 107.440878 203.4 105.867L203.4 105.867zM151.4 101.056C151.182 99.778 150.963667 98.5003333 150.745 97.223 150.589 96.312 149.245 96.667 149.321 97.545 147.885468 95.5265515 146.270937 93.6415931 144.497 91.913 143.814 91.25 142.768 92.294 143.452 92.958 145.477323 94.9300425 147.287475 97.1116109 148.852 99.466 147.983745 99.0967017 147.08236 98.8107496 146.16 98.612 145.232 98.412 144.836 99.838 145.767 100.037 147.381818 100.378596 148.922449 101.006499 150.316 101.891 150.905 102.266 151.5 101.648 151.4 101.056zM153.707 157.177C153.663667 158.177 153.621 159.174667 153.579 160.17 152.137713 157.408685 150.16452 154.959695 147.773 152.964 147.046 152.364 145.995 153.401 146.728 154.01 148.996744 155.891854 150.874787 158.199999 152.256 160.804 151.692538 160.470317 151.103726 160.181427 150.495 159.94 149.607 159.595 149.223 161.024 150.102 161.366 151.442173 161.892886 152.656232 162.696352 153.665 163.724 153.879201 163.926827 154.192607 163.984818 154.465201 163.872065 154.737796 163.759312 154.918663 163.496876 154.927 163.202L155.185 157.177C155.226 156.225 153.748 156.227 153.707 157.177zM187.653 203.5L187.109 204.944C186.827158 201.41214 186.040839 197.938865 184.774 194.63 184.435 193.752 183.005 194.13 183.348 195.023 184.60532 198.293452 185.380102 201.729443 185.648 205.223L184.431 203.509C183.884 202.739 182.601 203.477 183.154 204.255L186.1 208.4C186.25646 208.647027 186.542076 208.780779 186.832006 208.742794 187.121935 208.70481 187.363456 208.501995 187.451 208.223 187.995 206.779 188.538667 205.334667 189.082 203.89 189.414 203 187.985 202.617 187.653 203.5zM239.246 215.067L239.023 215.577C238.931092 212.463203 238.573459 209.362941 237.954 206.31 237.765 205.378 236.339 205.773 236.529 206.703 237.147377 209.775579 237.489078 212.897405 237.55 216.031L236.374 213.945C236.160471 213.60941 235.71985 213.502651 235.376397 213.70329 235.032945 213.903928 234.909541 214.34018 235.097 214.691L237.712 219.329C237.846452 219.553121 238.088643 219.690257 238.35 219.690257 238.611357 219.690257 238.853548 219.553121 238.988 219.329 239.5 218.157 240.011333 216.985 240.522 215.813 240.9 214.95 239.626 214.2 239.246 215.067z"/>
    <circle cx="224.845" cy="184.997" r="1.375" />
    <circle cx="181.297" cy="169.181" r="1.375" />
    <circle cx="173.009" cy="146.146" r="1.375" />
    <circle cx="179.922" cy="212.376" r="1.375" />
    <circle cx="194.787" cy="183.622" r="1.375" />
    <circle cx="226.96" cy="207.376" r="1.375" />
    <circle cx="206.501" cy="143.327" r="1.375" />
    <circle cx="125.886" cy="129.429" r="1.375" />
    <circle cx="185.29" cy="97.93" r="1.375" />
    <circle cx="141.459" cy="80.449" r="1.375" />
    <circle cx="130.311" cy="32.117" r="1.375" />
    <circle cx="142.42" cy="34.44" r="1.375" />
    <path  d="M137.807,38.157 C137.157372,38.9831292 136.148839,39.4447722 135.098991,39.3965557 C134.049143,39.3483393 133.087169,38.7961968 132.516,37.914 C131.998,37.12 130.716,37.86 131.239,38.66 C132.084908,39.9819373 133.528511,40.8014566 135.097172,40.8502461 C136.665833,40.8990356 138.157575,40.1708131 139.084,38.904 C139.661,38.147 138.377,37.41 137.807,38.157 Z"/>
    <path  d="M150.265 17.414C148.629121 13.2451795 146.023913 9.52590295 142.665 6.564 139.394672 3.75644527 135.460724 1.83181241 131.237.973 127.053012-.0510589311 122.642746.418298949 118.768 2.3 117.819555 2.81453658 116.931978 3.43409602 116.122 4.147 112.822 7.111 111.06 11.502 109.93 15.696 109.63 16.796 109.379 17.916 109.161 19.039 108.926499 19.9714648 108.871858 20.9400778 109 21.893 109.071235 22.6906043 109.598663 23.3744663 110.352 23.646 110.562076 23.6991159 110.781278 23.7052618 110.994 23.664 110.307 25.305 109.625 26.949 108.977 28.606 108.585 29.606 108.2 30.612 107.822 31.624 107.786837 31.7162802 107.78056 31.8170698 107.804 31.913 106.313673 36.7265917 107.210149 41.962414 110.217 46.006 110.642 46.568 111.605 46.016 111.175 45.446 108.310574 41.641652 107.459553 36.6882265 108.89 32.146 108.917695 32.0614803 108.923204 31.9712616 108.906 31.884 110.115 28.664 111.412 25.478 112.768 22.317 113.458 21.492 114.138 20.658 114.823 19.829 115.551735 18.6768545 116.807188 17.9641685 118.17 17.929 117.10434 18.1776122 116.22192 18.9210165 115.796 19.929 115.128782 21.2967645 115.314407 22.9272177 116.272 24.11 117.215125 25.2490275 118.799816 25.6234571 120.153 25.027 120.803 24.736 120.24 23.78 119.593 24.069 118.676433 24.4110654 117.644062 24.1086003 117.057 23.326 116.412154 22.4556552 116.322391 21.2930123 116.826 20.334 117.172862 19.4264779 118.102494 18.8806618 119.064 19.02 120.07989 19.2901619 120.838016 20.1382881 120.993 21.178 121.117 21.824 122.025 21.616 122.061 21.032 122.227 21.258 122.397 21.48 122.575 21.686 123.963891 23.3108878 125.691671 24.6120132 127.637 25.498 129.550845 26.3559654 131.69161 26.5689892 133.737 26.105 134.735316 25.8732187 135.677584 25.445255 136.509 24.846 136.846997 24.5104119 137.222464 24.2148036 137.628 23.965 138.256 23.713 138.57 24.242 138.864 24.693 139.39 25.493 140.044 26.533 141.082 26.662 141.954551 26.7495931 142.781268 26.2545385 143.116 25.444 143.242193 25.108016 143.570474 24.8915847 143.929 24.908 144.451 24.944 144.629 25.42 144.876 25.799 145.146105 26.2096618 145.469983 26.5823064 145.839 26.907 145.822781 28.4338922 145.650553 29.9551293 145.325 31.447 143.94 37.799 139.362 44.058 132.372 44.429 128.874411 44.6176386 125.508244 43.0718198 123.372 40.296 121.140214 37.4571044 120.178555 33.8232035 120.714 30.252 120.829 29.552 119.761 29.252 119.645 29.957 118.96739 34.3851497 120.397027 38.8756545 123.51 42.097 121.912006 43.2243536 120.813346 44.9273664 120.445 46.848 120.345 47.548 121.412 47.848 121.514 47.148 121.841789 45.3984194 122.859027 43.8540046 124.337 42.862 125.718609 44.0418202 127.365646 44.8691132 129.137 45.273 132.532437 45.9701878 136.065734 45.2864863 138.956 43.373 141.908925 41.3376102 144.155693 38.4341807 145.385 35.065 146.314667 32.6798686 146.830732 30.1536498 146.911 27.595 147.033595 27.6573575 147.159442 27.713104 147.288 27.762 149.429 28.462 151.139 26.644 151.567 24.688 152.1 22.263 151.154 19.64 150.265 17.414zM134.8 222.412C132.859159 221.821153 130.846332 221.499814 128.818 221.457 126.582 221.328 124.344 221.226 122.108 221.112L108.453 220.412C104.446 220.207 100.003 219.676 96.395 221.842 94.7686399 222.753571 93.5671375 224.269461 93.051 226.061 92.5545028 227.848848 92.9929352 229.76652 94.217 231.161 94.3243058 231.288334 94.4906625 231.349863 94.655 231.323 94.6914459 231.33612 94.7294211 231.344521 94.768 231.348 106.546 231.548 118.322667 231.409333 130.098 230.932 133.418 230.798667 136.736333 230.636 140.053 230.444 140.355376 230.434609 140.598155 230.191393 140.607 229.889 140.946 226.3 137.937 223.5 134.8 222.412zM64.854 222.189C60.654 221.618 56.267 221.199 52.094 222.189 48.3982584 223.104573 45.2491772 225.514739 43.4 228.843 42.8973044 229.806663 42.9347231 230.962956 43.4986716 231.892101 44.0626202 232.821246 45.071102 233.388148 46.158 233.387 47.167 233.422 48.18 233.415 49.189 233.429L61.097 233.596 65.22 233.654C66.8326999 233.762762 68.4524727 233.61732 70.02 233.223 71.3287154 232.872504 72.4328164 231.993714 73.068 230.797 73.7141803 229.406794 73.6603441 227.792078 72.923 226.448 71.386 223.5 67.877 222.6 64.854 222.189zM169.868 104.886C169.577817 101.415233 168.134513 98.1413959 165.768 95.586 162.42 92.267 157.277 95.386 154.768 98.26 153.937269 99.0262879 153.378466 100.042101 153.176 101.154 153.120262 102.193406 153.806463 103.127461 154.815 103.385 155.585982 103.592311 156.382907 103.686959 157.181 103.666 155.841098 104.960046 154.814931 106.543422 154.181 108.295 153.57 109.976 153.766 112.214 155.929 112.462 156.344925 112.502527 156.763705 112.504535 157.18 112.468 156.093921 113.324984 155.320677 114.516132 154.98 115.857 154.774806 117.51466 155.898772 119.044429 157.542 119.344 158.916322 119.552814 160.321515 119.3877 161.61 118.866 167.151 116.8 170.381 110.624 169.868 104.886zM167.195 110.729C166.366133 112.873064 164.922828 114.724766 163.046 116.052 162.212018 116.632393 161.285506 117.066907 160.306 117.337 159.362 117.588 157.756 117.937 157.055 117.042 156.138 115.876 157.812 114.407 158.589 113.674 159.632763 112.681021 160.861797 111.903234 162.206 111.385 163.306 110.971 162.847 109.203 161.715 109.603 160.141083 110.17477 158.493318 110.517928 156.822 110.622 156.19 110.656 155.656 110.722 155.682 109.939 155.747804 109.280729 155.943585 108.64206 156.258 108.06 157.314936 105.608312 159.407861 103.753961 161.969 103 162.448827 102.854295 162.725171 102.35279 162.592035 101.869324 162.458899 101.385858 161.964775 101.096524 161.478 101.217 159.714106 101.749926 157.861505 101.92502 156.029 101.732 155.385 101.661 154.784 101.611 155.155 100.832 155.547346 100.128169 156.051601 99.4928682 156.648 98.951 158.437 97.151 162.16 94.616 164.458 96.895 167.920998 100.613471 168.982852 105.970763 167.2 110.729L167.195 110.729zM51.258 81.252C50.488 78.481 49.525 75.769 48.512 73.08 47.352 70.003 46.128 66.95 45.028 63.85 44.9977806 63.7785705 44.9584547 63.7113468 44.911 63.65L44.896 63.625C44.8560786 63.5625147 44.8087336 63.5050963 44.755 63.454 44.4847558 63.1366671 44.0214004 63.0682751 43.671 63.294 34.4296458 68.7040828 26.1831062 75.6569215 19.289 83.851 17.3410981 86.1886911 15.5204634 88.6295567 13.835 91.163 13.6660329 91.4510499 13.6660329 91.8079501 13.835 92.096 15.314 94.688 16.873 97.233 18.335 99.835 19.707 102.28 21.017 104.759 22.456 107.166 23.790868 109.602798 25.4032607 111.876926 27.261 113.943 28.1273863 114.915695 29.3445912 115.504514 30.645 115.58 31.8165406 115.606592 32.9068947 114.983697 33.479 113.961 33.9452715 113.013665 34.0740443 111.935501 33.844 110.905 35.2313711 112.358249 37.1976858 113.112181 39.201 112.959 40.9789991 112.830988 42.5396197 111.728196 43.254 110.095 43.5629841 109.367249 43.72509 108.585606 43.731 107.795 44.9434497 108.767374 46.4975928 109.208118 48.04 109.017 49.2134035 108.827924 50.212226 108.059628 50.696 106.974 51.331903 105.295189 51.3279877 103.44111 50.685 101.765 50.2132463 100.484907 49.6745024 99.2305087 49.071 98.007 48.5616667 96.8316667 48.0556667 95.6553333 47.553 94.478 47.128 93.485 46.699 92.493 46.274 91.499 46.6872513 91.7022846 47.1273301 91.8457227 47.581 91.925 48.6655219 92.1115269 49.7790798 91.8449653 50.6615862 91.1875746 51.5440926 90.5301839 52.118266 89.539532 52.25 88.447 52.652 86.045 51.9 83.548 51.258 81.252zM48.984 90.052C47.9177132 90.2877942 46.8054965 89.9526523 46.047 89.167 45.1764354 88.2532571 44.4631274 87.2017107 43.936 86.055 43.364 84.982 41.879 85.925 42.336 86.988 43.254 89.102 44.1636667 91.219 45.065 93.339 45.987 95.496 46.818 97.733 47.882 99.823 48.8558296 101.444251 49.3476882 103.309359 49.3 105.2 49.2581799 105.657955 49.1058175 106.098914 48.856 106.485 48.7674773 106.615489 48.6626264 106.734118 48.544 106.838 48.37 107.006 48.544 106.857 48.43 106.931 48.337 106.991 48.243 107.044 48.145 107.095 48.217 107.058 48.166 107.103 48.011 107.143 47.8986584 107.173567 47.7844055 107.196619 47.669 107.212 47.066111 107.271326 46.4578872 107.181346 45.898 106.95 44.6901481 106.413052 43.6793914 105.513437 43.006 104.376 42.465 103.559 40.906 104.061 41.317 105.088 41.965634 106.407849 42.0627713 107.931465 41.587 109.323 41.0825061 110.485572 39.9062187 111.209872 38.641 111.137 35.526 111.104 33.679 108.144 32.215 105.798 31.764 105.076 30.407 105.298 30.493 106.265 30.6521662 107.423649 30.9916028 108.550268 31.499 109.604 31.9391258 110.458716 32.1402077 111.416446 32.081 112.376 32.0578173 112.807728 31.8421423 113.206274 31.4934006 113.461824 31.1446589 113.717374 30.6996541 113.80296 30.281 113.695 29.2439964 113.35378 28.3593869 112.659892 27.781 111.734 24.64 107.807 22.381 103.269 19.927 98.903 18.563 96.473 17.116 94.089 15.727 91.673 21.5231751 83.1721406 28.7716146 75.7588484 37.14 69.773 39.253 68.248 41.44 66.828 43.665 65.473 45.279 69.895 47.098 74.243 48.565 78.721 49.3703665 81.000488 49.989726 83.3414796 50.417 85.721 50.633 87.163 50.705 89.5 48.984 90.055L48.984 90.052z"/>
    <path  d="M38.567,4.924 C46.4906009,3.35219701 54.6534498,3.4339038 62.544,5.164 C65.2247116,5.69707598 67.8473445,6.48912382 70.375,7.529 C72.6358511,8.50517994 74.8435902,9.6000369 76.989,10.809 C81.923,13.544 86.653,16.635 91.289,19.835 C95.3196667,22.6263333 99.2863333,25.502 103.189,28.462 C104.902,29.761 106.61,31.067 108.289,32.409 C108.314,32.429 108.322,32.461 108.343,32.483 C108.397999,32.5396546 108.444483,32.6039919 108.481,32.674 C108.490972,32.6970575 108.499325,32.7207816 108.506,32.745 C108.5419,32.8408054 108.558551,32.9427509 108.555,33.045 C108.549,33.065 108.549,33.083 108.549,33.103 C108.550237,33.1726435 108.542847,33.2421722 108.527,33.31 C107.870139,35.3272186 107.83183,37.4948304 108.417,39.534 C108.571772,40.0226631 108.747614,40.503546 108.943833,40.9753621 L106.415093,38.8170486 C106.113158,37.0357135 106.16491,35.1948679 106.588,33.402 C106.296,33.172 106.005,32.943 105.712,32.714 L105.712,32.714 L105.037,32.189 L104.621,31.866 L104.56,31.819 L104.554,31.814 L104.322,31.636 C102.844,30.4973333 101.357,29.371 99.861,28.257 C95.745,25.19 91.567,22.204 87.3,19.35 C82.8132546,16.2784352 78.150251,13.4726192 73.335,10.947 C71.3951331,9.92632837 69.3842628,9.04671883 67.318,8.315 C64.0826594,7.26425896 60.7515142,6.535393 57.373,6.139 C49.5851703,5.05032357 41.6532635,5.68562715 34.138,8 C27.2524302,10.207615 21.004211,14.0505615 15.928,19.2 C11.8229676,23.4209143 8.49734863,28.3350301 6.105,33.715 C4.25056277,37.7810339 2.94253449,42.0746619 2.215,46.484 C1.074,53.622 2.378,60.945 4.526,67.768 C7.08533415,75.4497692 10.4086308,82.8554946 14.446,89.874 C15.908,87.795 17.44,85.764 19.078,83.82 C25.8912241,75.8153991 33.9863163,68.997679 43.033,63.645 C42.771,62.8703333 42.514,62.0933333 42.262,61.314 C40.8968983,57.4987637 39.9222449,53.5549186 39.353,49.543 C39.2596058,48.7038286 39.2080734,47.851493 39.2121292,47.0000581 L41.0269531,46.9998811 C41.0253759,48.8063808 41.3037995,50.6327609 41.652,52.328 C42.5341322,56.2219193 43.6613771,60.0562219 45.027,63.808 C45.1337512,64.2115397 44.9603876,64.6369943 44.602,64.851 C42.0213333,66.363 39.517,67.989 37.089,69.729 C28.5157886,75.8220119 21.0882979,83.3839076 15.15,92.065 C14.9806277,92.3449728 14.6772182,92.516032 14.35,92.516032 C14.0227818,92.516032 13.7193723,92.3449728 13.55,92.065 C12.4653333,90.1403333 11.4153333,88.1976667 10.4,86.237 C6.505,78.713 3.034,70.813 1.2,62.513 C-0.288988289,56.2559736 -0.384916825,49.7481954 0.919,43.45 C2.02321322,38.5347959 3.80030215,33.7954434 6.2,29.366 C9.17251855,23.7772904 13.1929888,18.8129841 18.042,14.744 C23.9827189,9.84935682 31.0282202,6.47850063 38.567,4.924 Z"/>
    <path fill="#FFF" d="M58.261 71.493C56.7408233 71.5186624 55.5146624 72.7448233 55.489 74.265L55.489 74.591C55.489 76.1219333 56.7300667 77.363 58.261 77.363 59.7919333 77.363 61.033 76.1219333 61.033 74.591L61.033 74.265C61.0178287 72.7403951 59.7856049 71.5081713 58.261 71.493L58.261 71.493zM102.368 91.285C101.718 90.543 101.083 89.789 100.463 89.023 100.272 88.786 100.085 88.548 99.896 88.31L99.829 88.227 99.773 88.152C99.498 87.789 99.224 87.426 98.955 87.059 97.767 85.4383333 96.6503333 83.768 95.605 82.048 94.581 80.362 93.63 78.6353333 92.752 76.868 92.314 75.9846667 91.8943333 75.0923333 91.493 74.191 91.386 73.949 91.281 73.705 91.174 73.462L91.132 73.362 91.099 73.282C90.899 72.79 90.699 72.299 90.506 71.804 90.0666461 70.355472 88.5687287 69.5058019 87.1 69.872 85.792 70.295 84.6 71.835 85.164 73.282 86.6016357 76.9573797 88.3280306 80.513158 90.327 83.916 85.711 82.222 81.0203333 80.7553333 76.255 79.516 74.7874638 79.1328336 73.2843695 79.9998138 72.881219 81.4619863 72.4780686 82.9241589 73.3244632 84.4389405 74.781 84.862 80.1909546 86.2694843 85.5179424 87.9784872 90.737 89.981 84.816 90.428 78.952 92.005 73.237 93.637 72.2668631 93.8868577 71.5069179 94.6405491 71.2490524 95.6085883 70.9911869 96.5766276 71.2754984 97.6084872 71.9927855 98.3078396 72.7100726 99.007192 73.7487992 99.2652898 74.71 98.983 78.951008 97.6875342 83.2652864 96.6453621 87.63 95.862 87.876 95.8233333 88.1226667 95.7853333 88.37 95.748L88.67 95.706 88.741 95.697C89.276 95.64 89.809 95.572 90.341 95.524 91.406 95.424 92.476 95.37 93.541 95.359 94.606 95.348 95.674 95.385 96.741 95.476 97.068 95.504 97.395 95.541 97.722 95.576L97.833 95.587 97.964 95.608C98.536 95.701 99.105 95.801 99.672 95.92 100.882168 96.2285845 102.15209 95.7118547 102.803 94.646 103.397748 93.5490446 103.222422 92.1943954 102.368 91.285zM67.009 74.861C65.4884905 74.88718 64.26218 76.1134905 64.236 77.634L64.236 77.96C64.2646919 79.4706883 65.4975392 80.6803431 67.0085 80.6803431 68.5194608 80.6803431 69.7523081 79.4706883 69.781 77.96L69.781 77.634C69.7663696 76.1090046 68.5339901 74.8761805 67.009 74.861z"/>
  </g>
</svg>
