<svg xmlns="http://www.w3.org/2000/svg" width="363" height="252" viewBox="0 0 363 252">
  <g fill="none" transform="translate(0 -.003)">
    <path d="M294.460183,64.0449179 C297.68921,64.0449179 300.310139,66.819863 300.31545,70.2427379 L300.31545,70.2427379 L300.31545,97.9842229 L300.213981,97.9839179 L300.213981,112.211076 L322.167016,112.268927 C325.709235,112.278201 328.587997,115.094868 328.702612,118.607211 L328.706135,118.842375 L328.586742,164.446915 C328.577469,167.989134 325.760802,170.867896 322.248458,170.982511 L322.013295,170.986034 L300.213981,170.928918 L300.214543,206.732862 C300.214543,210.146299 297.305591,212.896435 293.719319,212.951097 L293.610439,212.951926 L264.912981,212.951918 L264.912992,224.492511 C264.912992,227.790652 262.298736,230.4782 259.029361,230.596018 L258.805457,230.600046 L196.306789,230.600046 C193.008648,230.600046 190.3211,227.98579 190.203282,224.716415 L190.199254,224.492511 L190.198981,212.951076 L159.300713,212.948705 C160.213178,219.430006 161.164374,226.112278 162.1234,232.793291 L162.507385,235.465357 L163.362471,241.39507 L164.651981,250.282076 L362.136979,250.282241 C362.576948,250.282241 362.933614,250.638906 362.933614,251.078875 C362.933614,251.503132 362.601969,251.849928 362.183787,251.874158 L362.136979,251.87551 L1.27461595,251.87551 C0.834646604,251.87551 0.47798098,251.518845 0.47798098,251.078875 C0.47798098,250.654619 0.809625419,250.307823 1.22780759,250.283593 L1.27461595,250.282241 L110.409981,250.282076 L110.702981,212.951076 L71.5829627,212.951926 C67.9832352,212.951926 65.0382859,210.235924 64.9797469,206.836095 L64.9788588,206.732862 L64.977981,204.162076 L7.92651792,204.162387 C5.3609021,204.162387 3.26793052,202.138756 3.15667101,199.600563 L3.15201902,199.387888 L3.15201902,181.24851 C3.15201902,178.682894 5.17564962,176.589922 7.71384303,176.478663 L7.92651792,176.474011 L64.977981,176.473076 L64.977981,152.739076 L35.0864594,152.7396 C32.1304377,152.7396 29.7204577,150.401718 29.6046561,147.474091 L29.6002999,147.25344 L29.6002999,131.708437 C29.6002999,128.752415 31.9381819,126.342435 34.8658089,126.226633 L35.0864594,126.222277 L64.977981,126.222076 L64.9788588,96.0537109 C64.9788588,95.9186481 65.0124703,95.7914356 65.0717851,95.6799818 L64.9629261,84.4945375 L104.752187,84.3113115 C105.023553,84.3102806 105.275729,84.1711834 105.421361,83.9422039 L105.421361,83.9422039 L112.750402,72.3352325 C113.905523,70.8110042 115.62891,69.9001849 117.370885,69.9001849 L117.370885,69.9001849 L165.203504,69.9001849 C166.942824,69.9001849 168.668866,70.8110042 169.821331,72.3352325 L169.821331,72.3352325 L177.155684,83.9422039 C177.302329,84.1727744 177.556916,84.3120956 177.830168,84.3113115 L177.830168,84.3113115 L300.294206,84.3113115 L300.294206,82.7180415 L189.030856,82.7180415 C189.187805,82.5684264 189.276985,82.3612985 189.277813,82.1444644 L189.277813,82.1444644 L189.277813,71.695269 C189.277813,69.8098996 187.665955,68.2750496 185.687644,68.2750496 L185.687644,68.2750496 L165.134462,68.2750496 C165.0634,68.2759406 164.992803,68.2866641 164.924682,68.306915 L164.924682,68.306915 L117.378851,68.306915 C115.129685,68.306915 112.917696,69.4646911 111.465165,71.405825 C111.452154,71.4215631 111.4406,71.4384503 111.430644,71.4562785 L111.430644,71.4562785 L104.311383,82.720697 L64.9523043,82.9012676 L64.8301536,70.5268711 C64.8301536,67.1039962 67.4404609,64.329051 70.6721434,64.329051 L70.6721434,64.329051 Z M116.941817,102.848681 C110.32074,104.519894 104.200002,107.737055 99.4997933,112.378018 C94.0672227,117.742111 90.6989512,124.801547 89.8620146,133.578286 L89.8099741,134.165947 L89.811564,134.147733 L89.802776,134.447863 C89.5455257,144.707072 93.537575,154.36481 100.411325,163.143528 L100.796156,163.630329 L101.014711,163.902737 C103.479276,166.958449 106.121086,169.681116 108.76199,172.03444 C109.553347,172.739622 110.295658,173.367337 110.974877,173.91479 L111.309164,174.181815 L111.408029,174.259838 C111.578515,174.393987 111.735673,174.515573 111.878716,174.624442 L112.017024,174.729065 L112.060333,174.761551 C112.13291,174.815875 112.188564,174.856933 112.226509,174.884569 L112.258522,174.907726 L112.299464,174.939121 C112.454108,175.065857 112.554822,175.24568 112.582999,175.442005 L112.591051,175.561487 L112.307705,211.749815 C112.378076,211.868593 112.418471,212.007224 112.418471,212.155291 C112.418471,212.307785 112.375624,212.450271 112.301312,212.571367 L112.005018,250.085737 L162.989124,249.918709 L162.565773,247.007294 L160.930343,235.692178 L160.170708,230.400277 C159.286699,224.228177 158.412818,218.077513 157.573439,212.107802 L157.215889,209.560897 L156.816728,206.707567 C153.451559,182.604653 151.421957,166.873647 151.307931,163.26173 C151.274015,162.187361 151.265727,161.073763 151.28241,159.892545 C151.284429,159.749266 151.286796,159.60517 151.289526,159.460106 L151.288981,159.442918 L151.289981,159.420918 L151.289981,159.417918 L151.290981,159.379918 L151.291158,159.378449 L151.289526,159.460106 C151.292034,159.326816 151.294849,159.192709 151.297969,159.057761 C151.302136,158.883223 151.306741,158.705998 151.311864,158.527132 C151.325522,158.04383 151.343,157.550228 151.364188,157.044986 L151.391981,156.417918 L151.392822,156.407033 C151.393721,156.387874 151.394625,156.368695 151.395534,156.349497 L151.394981,156.344918 L151.395981,156.328918 L151.397981,156.285918 L151.398973,156.273637 C151.399055,156.272109 151.399142,156.270581 151.399233,156.269055 C151.437551,155.471823 151.484521,154.639533 151.540022,153.767106 L151.583247,153.10518 L151.618168,152.592209 C151.712991,151.221923 151.827181,149.746938 151.977879,147.918436 L152.019897,147.410802 L152.570503,140.859147 C152.832256,137.678205 153.033482,134.999076 153.202357,132.347679 L153.243918,131.685133 L153.314927,130.51195 C153.361801,129.759122 153.419529,128.979925 153.488495,128.160619 L153.542334,127.538403 L153.600422,126.899858 C153.690105,125.936199 153.784938,124.999736 153.911746,123.817678 L153.96085,123.362361 L154.256422,120.664074 C155.000308,113.819859 155.173766,111.271977 154.948591,108.701998 L154.932991,108.530586 L154.904176,108.243169 C154.53788,104.835042 153.372116,103.472778 150.939827,103.787751 C147.901577,104.181193 145.922192,106.79189 144.830499,111.018071 C144.434733,112.550165 144.184647,114.197436 144.053717,115.86534 C143.985394,116.735704 143.956541,117.504804 143.952917,118.126558 L144.02052,118.247981 C146.864185,123.467031 148.241609,127.759354 148.377795,131.226281 C148.489366,134.066563 147.766615,136.217142 146.477262,137.741474 C146.067231,138.226231 145.626624,138.613446 145.181205,138.913461 C145.838187,140.907475 146.102173,142.682442 146.005824,144.250756 C145.858502,146.648793 144.881905,148.445487 143.353334,149.688205 C142.770312,150.162198 142.147629,150.520987 141.52371,150.781994 L141.406388,150.830904 C141.647111,152.395423 141.590639,153.899391 141.228754,155.26139 L141.195805,155.381999 C140.217206,158.867868 137.415134,160.500619 134.15161,159.421718 C134.17949,159.713584 134.168115,159.988183 134.115706,160.242631 C133.143401,164.963153 128.181173,166.737201 121.275456,165.263753 C118.936332,164.764662 115.311348,162.821074 110.677566,159.763829 C109.762261,159.159935 108.817506,158.518595 107.848358,157.844596 C105.703472,156.352921 103.527967,154.764517 101.416303,153.168131 L100.842049,152.732622 C100.174149,152.224492 99.5533942,151.746546 98.9886969,151.30714 L98.4679661,150.900446 L97.8422739,150.406672 C97.4984278,150.132186 97.4422008,149.630928 97.7166874,149.287082 C97.9806168,148.956461 98.4542088,148.89176 98.7959264,149.131289 L98.8691269,149.187665 L99.5429473,149.718631 L100.310072,150.315927 C100.775846,150.676698 101.276265,151.061021 101.806743,151.464602 C104.080042,153.1941 106.438621,154.923494 108.758046,156.536552 C109.597049,157.120042 110.417074,157.678452 111.214591,158.20851 L111.554996,158.433932 C116.021846,161.381039 119.53065,163.262336 121.607923,163.705557 C127.759955,165.018194 131.803074,163.572737 132.555194,159.921206 C132.632609,159.545359 132.537559,159.048822 132.285775,158.455387 C132.224333,158.370635 132.180868,158.274701 132.156875,158.174048 C131.202289,156.187767 128.675505,153.252062 125.08884,150.139914 L124.940241,150.011397 C119.606498,145.413562 112.94451,141.199335 106.954998,138.802543 C106.54652,138.639085 106.347892,138.175438 106.511351,137.76696 C106.674809,137.358482 107.138455,137.159855 107.546933,137.323313 C118.304107,141.627954 130.583083,151.441509 133.514237,157.403882 L133.335264,157.302502 C136.345641,159.070553 138.801681,158.01532 139.661836,154.951363 C140.023518,153.663014 140.055321,152.196406 139.761305,150.653668 C139.731651,150.597319 139.709775,150.536042 139.695435,150.471154 C139.679565,150.399349 139.673927,150.327667 139.67755,150.257628 C139.133781,147.831846 137.796405,145.241925 135.682331,142.875651 L135.565922,142.746446 L135.54785,142.725855 C133.023481,139.747823 129.674197,136.800683 125.702196,133.934385 C122.397176,131.549397 118.85215,129.354635 115.306815,127.401983 C114.148627,126.764092 113.068,126.195294 112.089213,125.700727 L111.618142,125.464513 C111.490583,125.401065 111.368903,125.340985 111.253301,125.284314 L110.719,125.025882 L110.592667,124.966232 C110.193771,124.780611 110.020878,124.306766 110.206499,123.90787 C110.385245,123.523748 110.83126,123.349198 111.220248,123.502546 L111.276489,123.527129 L111.6172,123.689559 L111.837583,123.796471 C111.964608,123.85842 112.09923,123.924615 112.24118,123.994999 L112.595793,124.171935 C113.646353,124.699263 114.816132,125.312789 116.075463,126.006387 C119.673691,127.98817 123.272228,130.216062 126.634534,132.642388 C130.612711,135.513143 133.992139,138.472813 136.587487,141.489832 L136.752217,141.682837 L136.865046,141.80806 C138.850268,144.028583 140.21875,146.455622 140.943855,148.825244 L141.064981,149.240918 L141.203007,149.179572 C141.594681,148.990074 141.982556,148.749261 142.348262,148.451944 C143.540954,147.482294 144.296407,146.092451 144.415553,144.153058 C144.503269,142.72525 144.239489,141.060132 143.579844,139.143861 C143.504772,139.06828 143.444762,138.977866 143.404099,138.87413 C143.358352,138.757428 143.342027,138.636455 143.351545,138.519405 C142.828565,137.129159 142.103078,135.61243 141.162336,133.964931 C138.411124,129.1468 134.105164,124.885733 128.663443,121.177119 C125.168904,118.795539 121.419944,116.785257 117.670774,115.13801 C116.358802,114.561578 115.141248,114.071988 114.049836,113.667972 L113.639931,113.518187 C113.509534,113.471189 113.385445,113.42712 113.267873,113.38597 L112.87448,113.250922 L112.694668,113.191637 C112.275423,113.058196 112.043732,112.610156 112.177173,112.19091 C112.305848,111.786638 112.727052,111.556763 113.132886,111.660507 L113.19081,111.677549 L113.557736,111.800249 L113.917596,111.925554 C114.086246,111.985178 114.266389,112.05005 114.457534,112.120194 L114.602947,112.173791 C115.72307,112.588435 116.969796,113.089755 118.311667,113.679323 C122.144901,115.363505 125.978346,117.41909 129.560718,119.86053 C135.187084,123.694982 139.66058,128.121839 142.54593,133.174882 C143.39225,134.657021 144.077065,136.049529 144.608058,137.355821 C144.829276,137.176536 145.049356,136.962506 145.260798,136.71253 C146.290244,135.495472 146.881848,133.735128 146.785753,131.288819 C146.66376,128.183206 145.429351,124.259772 142.851985,119.437434 C142.754472,119.397126 142.663338,119.335166 142.583747,119.249817 L142.51584,119.167247 L142.33193,118.919763 L142.252319,118.814341 L142.252319,118.814341 L142.167071,118.70229 L141.979854,118.458793 C141.537735,117.887533 141.025498,117.250162 140.449655,116.563294 C138.803752,114.600057 136.980706,112.636747 135.033676,110.806576 C130.342516,106.396973 125.706507,103.477553 121.451351,102.733528 C119.87032,102.45708 118.365973,102.489213 116.941817,102.848681 Z M258.805457,192.844859 L196.306789,192.844859 C193.884862,192.844859 191.908401,194.752123 191.797437,197.146617 L191.792524,197.359124 L191.792524,224.492511 C191.792524,226.914438 193.699787,228.890899 196.094281,229.001862 L196.306789,229.006776 L258.805457,229.006776 C261.227384,229.006776 263.203845,227.099513 263.314809,224.705018 L263.319722,224.492511 L263.318044,212.457684 C263.279758,212.364442 263.258647,212.262332 263.258647,212.155291 C263.258647,212.047638 263.28,211.944972 263.318703,211.851299 L263.319722,197.359124 C263.319722,194.865965 261.298617,192.844859 258.805457,192.844859 Z M298.620981,97.9839179 L66.570981,97.9839179 L66.571981,126.222076 L78.8004755,126.222277 C81.7564972,126.222277 84.1664772,128.560159 84.2822788,131.487786 L84.286635,131.708437 L84.286635,147.25344 C84.286635,150.209462 81.948753,152.619442 79.021126,152.735243 L78.8004755,152.7396 L66.571981,152.739076 L66.571981,176.473076 L74.7854353,176.474011 C77.3510511,176.474011 79.4440227,178.497641 79.5552822,181.035835 L79.5599342,181.24851 L79.5599342,199.387888 C79.5599342,201.953504 77.5363036,204.046475 74.9981102,204.157735 L74.7854353,204.162387 L66.571981,204.162076 L66.5721287,206.732862 C66.5721287,209.247222 68.7539983,211.312306 71.4905129,211.357887 L71.5829627,211.358656 L110.715981,211.358076 L110.994619,175.953543 L110.893052,175.876488 L110.759959,175.774508 L110.759959,175.774508 L110.620075,175.666275 L110.42319,175.512276 L110.160966,175.304428 C109.411581,174.706225 108.585904,174.0116 107.702008,173.223955 C104.99925,170.815513 102.297398,168.030967 99.7745447,164.902985 C92.3711358,155.723804 88.0009965,145.547348 88.20452,134.658225 L88.2198071,134.074199 L88.2220083,134.036047 C88.9934322,124.605706 92.5562985,116.994922 98.3803494,111.244283 C103.295279,106.391306 109.669053,103.041146 116.551892,101.303861 C118.202142,100.887325 119.931761,100.850381 121.725775,101.164069 C126.354262,101.973372 131.227476,105.042167 136.124911,109.645664 C138.121635,111.522548 139.986674,113.531081 141.670614,115.539689 C141.834392,115.735044 141.993199,115.926556 142.146901,116.113873 L142.373607,116.391656 L142.416823,116.444911 L142.430529,116.223853 L142.452862,115.904051 L142.465334,115.740653 C142.603025,113.986617 142.866638,112.250248 143.287866,110.619583 C144.524219,105.833393 146.89626,102.704805 150.735213,102.207674 C154.182568,101.761254 155.988701,103.825667 156.470637,107.916857 L156.501448,108.198937 L156.510466,108.289727 C156.767414,110.917409 156.643944,113.288729 155.988045,119.463455 L155.940288,119.91103 L155.459293,124.330681 C155.382748,125.050965 155.318109,125.682354 155.258462,126.29512 L155.223218,126.661106 L155.157616,127.365009 L155.153981,127.400918 L231.109115,127.401297 C232.249991,127.401297 233.347221,127.824452 234.190989,128.583819 L234.36784,128.751655 C235.231935,129.616248 235.716321,130.788791 235.716321,132.011158 L235.716321,132.011158 L235.716321,145.253886 C235.709003,147.793189 233.648428,149.847815 231.109115,149.847815 L231.109115,149.847815 L153.420389,149.8479 C153.356139,150.661719 153.299733,151.40691 153.248944,152.115784 L153.219646,152.529586 L153.154123,153.495965 C153.108261,154.195791 153.067814,154.869414 153.032843,155.519885 L231.669415,155.519856 C234.235465,155.519856 236.329724,157.542061 236.444292,160.081564 L236.449225,160.294355 L236.449225,165.730061 C236.449225,168.29853 234.423343,170.39383 231.882326,170.505213 L231.669415,170.50987 L153.611638,170.509133 C154.449877,177.637513 155.993893,189.239659 158.082994,204.251171 L158.195431,205.058615 L159.076981,211.358076 L190.198981,211.358076 L190.199254,197.359124 C190.199254,194.060984 192.81351,191.373435 196.082885,191.255617 L196.306789,191.251589 L258.805457,191.251589 C262.103598,191.251589 264.791146,193.865846 264.908964,197.13522 L264.912992,197.359124 L264.912981,211.357918 L293.610439,211.358656 C296.359212,211.358656 298.571623,209.321509 298.620449,206.817444 L298.621273,206.732862 L298.620981,170.924918 L266.992561,170.841989 C263.450342,170.832716 260.57158,168.016049 260.456965,164.503705 L260.453443,164.268542 L260.572835,118.664002 C260.582109,115.121782 263.398776,112.24302 266.911119,112.128406 L267.146283,112.124883 L298.620981,112.206076 L298.620981,97.9839179 Z M74.7854353,178.067281 L66.0969111,178.068822 C65.9986021,178.112222 65.8898625,178.136322 65.7754938,178.136322 C65.6610876,178.136322 65.5523142,178.112206 65.4539799,178.068779 L7.92651792,178.067281 C6.23015796,178.067281 4.84391104,179.395032 4.75032488,181.067988 L4.74528895,181.24851 L4.74528895,199.387888 C4.74528895,201.084248 6.07304071,202.470495 7.74599649,202.564081 L7.92651792,202.569117 L74.7854353,202.569117 C76.4817952,202.569117 77.8680421,201.241365 77.9616283,199.568409 L77.9666642,199.387888 L77.9666642,181.24851 C77.9666642,179.55215 76.6389125,178.165903 74.9659567,178.072317 L74.7854353,178.067281 Z M267.142112,113.718147 C264.473244,113.71116 262.290886,115.812071 262.171249,118.452899 L262.1661,118.668173 L262.046707,164.272713 C262.03972,166.941581 264.140631,169.123939 266.781459,169.243576 L266.996733,169.248725 L322.017466,169.392769 C324.686334,169.399756 326.868692,167.298846 326.988329,164.658017 L326.993478,164.442744 L327.112871,118.838203 C327.119858,116.169335 325.018947,113.986977 322.378118,113.86734 L322.162845,113.862191 L267.142112,113.718147 Z M152.956038,157.11286 L152.946719,157.347042 C152.931896,157.718144 152.919133,158.081734 152.908443,158.438505 C152.89578,158.855133 152.886155,159.263921 152.879394,159.664932 L152.878981,159.689918 L152.877981,159.713918 L152.877981,159.762918 L152.876981,159.790918 L152.876981,159.800918 L152.875981,159.870918 L152.875981,159.920918 L152.874981,159.935918 L152.872257,160.178579 C152.870411,160.348388 152.869099,160.516809 152.868324,160.683893 C152.866033,161.148024 152.867991,161.602578 152.874163,162.048538 C152.879814,162.437071 152.888456,162.818599 152.900354,163.193866 C152.92229,163.84569 153.013575,164.940397 153.180321,166.564831 L153.214678,166.896807 L153.432691,168.9166 L231.669415,168.9166 C233.340331,168.9166 234.710869,167.630526 234.845159,165.994247 L234.854946,165.811045 L234.855955,165.730061 L234.855955,160.295417 C234.853692,158.597828 233.524286,157.211735 231.85007,157.118161 L231.669415,157.113126 L152.956038,157.11286 Z M78.8004755,127.815547 L35.0864594,127.815547 C33.0036629,127.815547 31.302899,129.451223 31.1986353,131.508109 L31.1935699,131.708437 L31.1935699,147.25344 C31.1935699,149.336237 32.8292463,151.037001 34.8861318,151.141264 L35.0864594,151.14633 L78.8004755,151.14633 C80.883272,151.14633 82.5840359,149.510653 82.6882996,147.453768 L82.693365,147.25344 L82.693365,131.708437 C82.693365,129.558453 80.950459,127.815547 78.8004755,127.815547 Z M263.030278,88.8574417 L105.936518,88.8574417 C105.203236,88.8574417 104.608793,89.4518844 104.608793,90.1851666 L104.608793,90.1851666 L104.608793,92.6759786 C104.608793,93.4092609 105.203236,94.0037036 105.936518,94.0037036 L105.936518,94.0037036 L263.027623,94.0037036 C263.760905,94.0037036 264.355347,93.4092609 264.355347,92.6759786 L264.355347,92.6759786 L264.358003,90.1851666 C264.358003,89.4518844 263.76356,88.8574417 263.030278,88.8574417 L263.030278,88.8574417 Z M185.687644,69.8683195 C186.789656,69.8683195 187.684543,70.6888535 187.684543,71.6979245 L187.684543,71.6979245 L187.684543,82.1444644 C187.68537,82.3612985 187.77455,82.5684264 187.9315,82.7180415 L187.9315,82.7180415 L178.268317,82.7180415 L171.151712,71.4562785 C171.140839,71.4383923 171.128398,71.421508 171.114535,71.405825 C170.683689,70.8274083 170.176287,70.3101804 169.60624,69.8683195 L169.60624,69.8683195 Z M161.918713,75.1022112 C161.587269,74.8088983 161.080804,74.8398094 160.787491,75.1712529 C160.494178,75.5026965 160.525089,76.0091617 160.856533,76.3024746 L160.856533,76.3024746 L161.78594,77.1070759 L160.851222,77.8877782 C160.525288,78.1730232 160.486973,78.6664136 160.764963,78.998557 C161.042952,79.3307003 161.535378,79.379884 161.87357,79.1092851 L161.87357,79.1092851 L163.002136,78.1666004 L164.106803,79.1331842 C164.440447,79.4235639 164.946317,79.3884918 165.236697,79.0548484 C165.527077,78.721205 165.492005,78.2153342 165.158361,77.9249545 L165.158361,77.9249545 L164.239576,77.1283195 L165.174294,76.3476172 C165.500228,76.0623722 165.538542,75.5689818 165.260553,75.2368384 C164.982563,74.9046951 164.490138,74.8555114 164.151946,75.1261103 L164.151946,75.1261103 L163.026035,76.068795 Z M180.456408,73.312438 C180.016439,73.312438 179.659773,73.6691036 179.659773,74.109073 L179.659773,74.109073 L179.659773,75.2668491 L178.501997,75.2668491 C178.062028,75.2668491 177.705362,75.6235148 177.705362,76.0634841 C177.705362,76.5034534 178.062028,76.8601191 178.501997,76.8601191 L178.501997,76.8601191 L179.646496,76.8601191 L179.646496,78.004618 C179.646496,78.4445873 180.003162,78.8012529 180.443131,78.8012529 C180.8831,78.8012529 181.239766,78.4445873 181.239766,78.004618 L181.239766,78.004618 L181.239766,76.8468418 L182.397542,76.8468418 C182.837511,76.8468418 183.194177,76.4901762 183.194177,76.0502069 C183.194177,75.6102375 182.837511,75.2535719 182.397542,75.2535719 L182.397542,75.2535719 L181.253043,75.2535719 L181.253043,74.109073 C181.253043,73.6691036 180.896378,73.312438 180.456408,73.312438 Z M75.9230458,70.6607629 C74.5901816,70.1080912 73.0556219,70.4130373 72.0353344,71.4333247 C71.0150469,72.4536122 70.7101009,73.9881719 71.2627726,75.3210361 C71.8154443,76.6539004 73.116818,77.5224001 74.559722,77.5213281 C75.5048511,77.5213281 76.4112703,77.145875 77.0795775,76.4775678 C77.7478847,75.8092606 78.1233378,74.9028415 78.1233378,73.9577123 C78.1244098,72.5148084 77.25591,71.2134346 75.9230458,70.6607629 Z M87.6501264,70.6610165 C86.3175883,70.108189 84.783237,70.4126481 83.7627405,71.4323847 C82.742244,72.4521214 82.4366421,73.9862455 82.9884769,75.319195 C83.5403116,76.6521445 84.8408705,77.5213281 86.2835333,77.5213281 C87.2291224,77.5220307 88.1362239,77.1468907 88.8051055,76.4785071 C89.4739872,75.8101235 89.8498045,74.9033017 89.8498045,73.9577123 C89.8508767,72.5150499 88.9826645,71.213844 87.6501264,70.6610165 Z M99.3733238,70.6607629 C98.0404596,70.1080912 96.5058999,70.4130373 95.4856124,71.4333247 C94.4653249,72.4536122 94.1603789,73.9881719 94.7130506,75.3210361 C95.2657222,76.6539004 96.567096,77.5224001 98.01,77.5213281 C99.9781295,77.5213281 101.573616,75.9258419 101.573616,73.9577123 C101.574688,72.5148084 100.706188,71.2134346 99.3733238,70.6607629 Z"/>
    <path fill="#1988E0" d="M192.602436,188.197822 C195.757016,188.197822 198.314309,190.755115 198.314309,193.909695 C198.314309,197.064275 195.757016,199.621567 192.602436,199.621567 C189.447856,199.621567 186.890563,197.064275 186.890563,193.909695 C186.890563,190.755115 189.447856,188.197822 192.602436,188.197822 Z M100.795567,151.486227 L112.832721,160.583799 L99.2899268,182.924099 C98.1746379,184.729805 94.7384857,184.626242 91.6130212,182.69573 L91.6130212,182.69573 L89.982575,181.686659 C86.8571105,179.756147 85.2293197,176.726279 86.3446086,174.920573 L86.3446086,174.920573 L100.795567,151.486227 Z M5.71187271,172.533323 C8.86645291,172.533323 11.4237454,175.090616 11.4237454,178.245196 C11.4237454,181.399776 8.86645291,183.957069 5.71187271,183.957069 C2.55729252,183.957069 0,181.399776 0,178.245196 C0,175.090616 2.55729252,172.533323 5.71187271,172.533323 Z M157.627505,160.570521 C158.52211,160.570521 159.24733,161.295742 159.24733,162.190346 L159.24733,163.709263 C159.24733,164.603868 158.52211,165.329088 157.627505,165.329088 L151.912977,165.329088 L151.912977,160.570521 L157.627505,160.570521 Z M229.457425,160.570521 C230.771467,160.570521 231.836708,161.635763 231.836708,162.949805 C231.836708,164.263846 230.771467,165.329088 229.457425,165.329088 L217.486657,165.329088 C216.172615,165.329088 215.107374,164.263846 215.107374,162.949805 C215.107374,161.635763 216.172615,160.570521 217.486657,160.570521 L229.457425,160.570521 Z M208.330666,160.570521 C209.644707,160.570521 210.709949,161.635763 210.709949,162.949805 C210.709949,164.263846 209.644707,165.329088 208.330666,165.329088 L165.612443,165.329088 C164.298402,165.329088 163.23316,164.263846 163.23316,162.949805 C163.23316,161.635763 164.298402,160.570521 165.612443,160.570521 L208.330666,160.570521 Z M31.9716167,124.506856 C35.1261969,124.506856 37.6834894,127.064149 37.6834894,130.218729 C37.6834894,133.373309 35.1261969,135.930602 31.9716167,135.930602 C28.8170365,135.930602 26.259744,133.373309 26.259744,130.218729 C26.259744,127.064149 28.8170365,124.506856 31.9716167,124.506856 Z M264.018105,108.919366 C267.172686,108.919366 269.729978,111.476658 269.729978,114.631238 C269.729978,117.785819 267.172686,120.343111 264.018105,120.343111 C260.863525,120.343111 258.306233,117.785819 258.306233,114.631238 C258.306233,111.476658 260.863525,108.919366 264.018105,108.919366 Z M160.768903,0.191969837 C190.191287,-2.28822036 216.055369,19.552855 218.543526,48.9752398 C221.01575,78.3976246 199.17733,104.259051 169.754945,106.739241 C164.918625,107.150446 160.04882,106.9003 155.280088,105.995715 C154.621536,103.842145 153.283189,102.676403 150.83752,102.995057 C143.585486,103.935086 143.155304,115.722628 143.155304,118.229373 L143.155304,118.229373 L141.609832,116.713111 C139.764294,114.453323 136.415772,110.658685 132.392765,107.456213 L132.392765,107.456213 L137.480607,99.1446545 C122.884397,90.2839665 113.40859,74.9746159 111.988288,57.9586268 C109.51872,28.536242 131.346518,2.67216003 160.768903,0.191969837 Z M177.844167,13.99802 C161.880666,8.9090494 144.423516,13.9374592 133.6131,26.738469 C122.802683,39.5394788 120.767972,57.5920947 128.457765,72.4782641 C136.147559,87.3644335 152.047451,96.152517 168.743219,94.7445741 C191.539971,92.8221392 208.462287,72.783806 206.540892,49.9869662 C205.133712,33.2911342 193.807667,19.0869905 177.844167,13.99802 Z"/>
  </g>
</svg>
