<svg xmlns="http://www.w3.org/2000/svg" width="290" height="203" viewBox="0 0 290 203">
  <g fill="none" fill-rule="evenodd">
    <path  fill-rule="nonzero" d="M123.016,145.816 L123.027,145.817 L123.384,146.187 C123.413,147.915 123.084,145.675 121.507,154.352 C120.148,161.76 116.507,172.576 119.114,183.684 C119.85177,186.979253 121.302059,190.07302 123.363,192.748 C125.491468,195.429291 128.300994,197.489725 131.498,198.714 C134.301091,199.795585 137.312877,200.227745 140.307,199.978 C142.655844,199.706377 144.953773,199.100241 147.131,198.178 C153.512,195.587 157.499,189.817 160.802,183.878 C164.202,177.639 163.239,178.744 164.037,178.038 L164.566,178.057 L164.927,178.457 C164.896,179.157 164.975,178.822 164.546,179.794 C162.384,184.622 159.296,190.975 155.529,194.808 C150.79853,199.878285 144.073904,202.606037 137.148,202.264 C128.324577,201.672151 120.72522,195.826431 117.89,187.45 C116.190692,182.393273 115.577336,177.034926 116.09,171.725 C117.015,162.28 118.135,160.372 119.234,155.718 C119.497676,154.71 120.611467,149.349182 121.998771,146.420299 L122.115,146.182 L122.5,145.816 L123.016,145.816 Z M256.343,188.237 L257.198,188.716 C257.531614,189.203301 257.82492,189.717004 258.075,190.252 C258.134,190.407 259.735,195.835 259.888,196.546 C259.968,196.897 260.133,198.098 260.145,198.271 C260.257,199.571 260.278,199.149 260.123,199.915 L259.759,200.245 C259.745,200.244 259.284,200.144 259.271,200.141 C258.827,199.629 258.944,199.898 258.157,198.106 C257.666259,196.97337 257.809374,197.401296 256.199985,191.859134 L256.107,191.539 C255.84373,190.751487 255.760686,189.914902 255.864,189.091 L256.343,188.237 Z M248.5,110.068 C255.164,111.88 262.312,114.725 267.707,119.189 C272.213,122.823 275.337,126.647 278.549,133.848 C284.894,147.364 287.209,161.162 288.307,176.048 C288.492,179.299 289.158,182.848 289.724,187.72 C290.004487,190.030629 290.069433,192.36234 289.918,194.685 L289.676,195.168 L289.176,195.349 L289.166,195.349 L288.693,195.112 L288.508,194.612 C288.714,189.871 287.399,184.362 286.818,180.536 C285.778,174.211 285.682,166.208 283.118,154.671 C281.965637,149.110232 280.291562,143.670495 278.118,138.424 C276.248,134.067 273.66,128.388 270.439,124.871 C269.52756,123.855103 268.555093,122.89566 267.527,121.998 C262.611562,117.573719 255.421258,114.017528 248.731718,111.625811 L248.086,111.398 L247.686,111.049 C247.686,111.034 247.634,110.54 247.634986,110.526 L247.97,110.135 L248.5,110.068 Z M206.678,179.821 L207.642,179.908 C208.16837,180.204507 208.665575,180.55004 209.127,180.94 C211.227,183.33 212.756,184.249 214.571,186.071 C215.345,186.851 215.002,186.361 215.46,187.128 L215.416,187.609 L215.004,187.868 L214.425,187.82 C213.461599,187.470264 212.544221,187.004859 211.693,186.434 C210.476393,185.473878 209.328889,184.429296 208.259,183.308 C207.486847,182.643475 206.913688,181.778199 206.603,180.808 L206.594,180.794 L206.678,179.821 Z M52.814,61.921 L53.324,61.948 C53.76,62.418 53.624,62.035 54.4,64.418 C60.594,85.396 50.146,100.328 52.11,131.668 C52.84,141.326 54.587,149.514 59.625,157.668 C63.4901385,163.687978 68.8488722,168.603997 75.179,171.937 C75.69875,171.95977 89.4175067,181.237624 109.941,174.544729 L110.565,174.337 L111.103,174.365 L111.468,174.754 C111.468,174.768 111.441,175.278 111.44,175.292 L111.051,175.662 C106.903416,177.220506 102.564075,178.210818 98.151,178.606 C80.3178424,180.23773 63.3183931,170.730008 55.374,154.681 C48.49,140.82 48.845,120.662 50.895,105.335 C52.16,94.542 56.008,78.978 53.578,67.451 C53.3278649,66.1397586 53.0092406,64.8427023 52.6234927,63.5651491 L52.384,62.801 L52.426,62.273 L52.814,61.921 Z M10.64,82.018 L11.158,82.036 L11.167,82.036 L11.509,82.424 C11.479,83.302 11.618,82.514 10.654,84.912 C6.92,93.927 4.714,104.812 3.461,114.647 C2.754,120.9 2.416,126.378 2.3,130.359 C2.03397801,135.123517 2.49595306,139.900743 3.67,144.526 C4.15936547,146.315107 4.74726244,148.075794 5.431,149.8 C8.39346706,156.817766 13.7666478,162.545612 20.581,165.95 C24.8263348,167.977009 29.4766893,169.013081 34.181,168.98 C39.5154557,168.899012 44.7856804,167.802816 49.71,165.75 C50.648,165.374 53.523,164.073 53.64,163.963 L54.176,163.922 C54.184,163.928 54.583,164.26 54.589,164.267 L54.631,164.799 C54.167,165.361 54.647,165.076 51.313,166.718 C47.7564426,168.395121 44.0014556,169.61419 40.138,170.346 C37.5802374,170.806303 34.9834086,171.013969 32.385,170.966 C31.774,170.966 31.17,170.908 30.771,170.891 C28.9299363,170.757009 27.1038459,170.464594 25.313,170.017 C23.5137388,169.561124 21.757993,168.948102 20.066,168.185 C16.2544654,166.410658 12.8241812,163.912324 9.966,160.829 C7.42736237,158.202223 5.35652726,155.160737 3.843,151.836 C-0.68,141.718 -0.3,133.075 0.486,122.028 C1.69678431,107.894667 3.54770704,95.8749435 9.85611594,83.1305556 L10.24,82.365 L10.64,82.018 Z M173.813,108.269 L174.332,108.443 L174.579,108.906 L174.411,109.406 C173.882,109.695 174,109.66 173.688,109.706 C169.559367,110.2947 165.035463,113.222314 161.649184,115.80244 L161.303,116.068 C155.781508,120.322356 152.287512,125.021622 148.325264,130.446929 C147.406975,135.412106 146.799305,141.322748 147.071,148.05 C147.135,151.091 147.543,155.527 147.684,157.259 C148.944,169.34 149.407,168.572 149.142,169.795 C149.133,169.795 148.712,170.095 148.705,170.095 C148.698,170.095 148.196,169.987 148.189,169.985 L147.876,169.539 C146.595269,164.253092 145.671848,158.88696 145.112,153.477 C144.602672,147.252832 144.691747,140.994152 145.378,134.787 C145.668,132.017 146.478,128.066 146.496,127.957 C147.351957,123.551546 148.770929,119.274464 150.718,115.231 C151.86,112.843 151.711,113.184 152.165,112.788 L152.672,112.8 L152.681,112.8 L153.024044,113.174 C153.034537,114.454323 151.16784,118.574502 149.510962,125.062824 C150.500123,123.626391 151.60173,122.266636 152.806,120.996 C155.537022,117.892591 158.622408,115.120006 161.999,112.735 C163.911665,111.343963 166.00491,110.219963 168.221,109.394 C168.328,109.358 169.996,108.787 170.155,108.787 C171.35252,108.485133 172.57875,108.31149 173.813,108.269 Z M124.688,130.324 L125.159,130.613 C127.604,133.281 125.497,130.939 129.288,135.87 C135.043362,142.507391 134.821809,141.911102 134.548091,142.80363 L134.536,142.844 L134.072,143.044 L133.521,142.882 C133.958,142.882 131.021,142.082 126.288,135.688 C125.616367,134.846326 125.030774,133.939461 124.54,132.981 C124.303506,132.431527 124.107973,131.865316 123.955,131.287 C123.986,130.579 123.855,130.887 124.222,130.345 L124.231,130.345 L124.688,130.324 Z M211.632,134.341 C211.643,134.35 212.327,135.015 212.34,135.03 C212.968,136.23 212.708,135.498 212.965,138.554 C213.098448,139.407438 213.049629,140.278215 212.823219,141.10931 L212.73,141.419 L212.452,141.974 L212.068,142.215 L212.059,142.215 C211.5845,141.972643 211.698051,142.094153 211.402036,141.609936 L211.326,141.487 C211.024285,140.807374 210.834824,140.083302 210.765,139.343 C210.753,139.212 210.513,136.372 210.57,135.999 C210.619503,135.77558 210.69677,135.559232 210.8,135.355 C211,134.938 210.813,135.187 211.632,134.341 Z M129.663,121.97 L130.125,122.274 C130.705455,122.930832 131.24005,123.626808 131.725,124.357 C134.656,129.634 135.217,130.177 136.361,132.064 C138.4,135.737 138.05,134.872 138.22,135.707 L137.989,136.153 L137.496,136.253 L136.991,135.992 C136.554,135.541 135.477,134.444 134.876,133.666 C132.974384,131.021838 131.252509,128.25294 129.722,125.378 C129.383356,124.579081 129.111102,123.753623 128.908,122.91 C128.935857,122.270214 128.849898,122.434903 129.130516,122.071775 L129.202,121.978 L129.663,121.97 Z M75.918,62.414 L76.413,62.535 C76.772,63.052 76.776,62.772 77.302,66.135 C77.7583141,70.4145176 77.8479738,74.7252097 77.57,79.02 C77.3766224,82.480891 77.5182813,85.9523716 77.993,89.386 C80.0928554,101.50055 88.1182282,114.632357 93.9217133,128.563578 C94.1401773,128.386094 94.3776861,128.230767 94.63,128.1 C94.635,127.984 98.518,126.081 99.107,125.8 C99.7007612,125.57108 100.305892,125.372818 100.92,125.206 C101.398265,125.003022 101.920268,124.924911 102.437,124.979 L102.83,125.272 C102.83,125.279 102.818,125.757 102.817,125.765 C101.552,127.394167 99.0095017,128.225241 96.1286103,129.84863 L95.751,130.065 C95.4297901,130.266262 95.0870837,130.428859 94.730052,130.550149 C95.2423422,131.834425 95.73179,133.125976 96.193,134.424 C96.3670052,134.750495 96.4224864,135.127202 96.35,135.49 L95.965,135.856 L95.437,135.829 C94.943,135.316 95.22,135.79 94.366,133.755 C93.9077591,132.730263 93.4287708,131.690868 92.9336565,130.639204 C92.8783475,130.627433 92.8193111,130.615119 92.756,130.602 C92.7740302,130.514447 92.7902378,130.435016 92.8048645,130.362882 C86.7921813,117.639926 78.4857228,103.154466 76.026,91.121 C74.154,81.503 76.299,73.696 75.498,64.321 C75.336,62.993 75.328,63.359 75.486,62.703 L75.918,62.414 Z M32.963,87.137 L32.977,87.138 L33.418,87.379 L33.603,87.879 C33.603,88.0218571 33.5803243,89.5932857 33.640361,90.8509253 L33.65,91.037 C33.65,91.746 33.75,93.313 33.767,93.631 C33.9046555,97.5142057 34.2995208,101.384019 34.949,105.215 C35.9036043,111.572665 38.650623,120.007422 41.1724851,126.573014 L41.025,126.707 C41.3191118,126.417004 41.6774825,126.200474 42.071,126.075 C42.277,126.084 45.811,124.441 47.071,124.316 C47.5030416,124.193772 47.9564161,124.166481 48.4,124.236 L48.774,124.529 C48.774,124.536 48.74,124.995 48.74,125.002 L48.364,125.483 C47.6650419,126.065669 46.8915708,126.552619 46.064,126.931 C45.9531071,126.926179 45.2824464,127.296085 43.1114445,128.100795 L42.864,128.192 C42.6414605,128.299492 42.4012096,128.36557 42.155,128.387 C42.1051572,128.392483 41.9946975,128.396972 41.8873904,128.399724 C42.0275704,128.751906 42.16564,129.094419 42.302,129.429 C44.793,135.543 44.467,134.166 44.514,135.119 C44.507,135.127 44.181,135.519 44.174,135.528 C44.167,135.537 43.649,135.555 43.643,135.555 C43.093,135.088 43.343,135.415 42.508,133.884 C41.927,132.767 40.231,129.613 38.852,126.344 C35.7232873,118.964016 33.539334,111.218373 32.352,103.291 C30.888,93.568 32.182,88.691 32.222,87.768 L32.486,87.3 L32.963,87.137 Z M136.398,112.494 L136.84,112.601 C137.279,113.079 137.208,112.982 137.316,113.201 C137.386,113.335 138.183,114.773 138.255,115.02 C139.816,119.158 140.823,119.928 143.117,123.876 C143.788,124.999 143.617,124.562 143.805,125.32 L143.596,125.776 L143.596,125.781 L143.107,125.908 L142.587,125.673 C141.73657,124.927947 140.943026,124.120364 140.213,123.257 C138.795158,121.36809 137.605571,119.318201 136.669,117.15 C136.094585,116.036115 135.818941,114.792273 135.869,113.54 C135.869,113.251 135.835,113.424 136.035,112.782 L136.389,112.494 L136.398,112.494 Z M121.009,109.464 L121.458,109.719 C121.61,110.585 121.814,110.249 118.601,113.003 C117.138,114.275 109.933,119.752 105.841,122.362 C105.825167,122.373667 105.655861,122.494361 105.592921,122.537741 L105.57,122.553 L105.047,122.719 L104.593,122.566 L104.424,122.121 L104.58,121.593 L104.58,121.588 C104.68,121.47 104.562,121.569 105.407,120.496 C106.355753,119.400883 107.465824,118.456716 108.699,117.696 C113.847973,114.031784 114.510646,112.961461 119.979903,109.82984 L120.447,109.564 L121.009,109.464 Z M177.282315,37.1077738 L177.776,37.14 C194.745625,37.5998989 208.255383,51.5031662 208.228042,68.479 C208.228921,71.2480443 207.885963,74.0064858 207.207,76.691 L207.207,76.705 C203.215747,92.1745854 188.494508,102.385849 172.607,100.705 C169.927778,100.443632 167.294736,99.8300062 164.776,98.88 C163.819598,98.5247676 162.887411,98.1272778 161.981262,97.6900956 C152.247895,111.134665 151.775634,112.228858 149.983,114.135 C149.120186,115.217664 147.896695,115.953817 146.536,116.209 C145.566158,116.25437 144.647773,115.77107 144.136,114.946 C143.491934,113.896405 143.387177,112.602538 143.854,111.463 C144.607,109.009 146.527,106.752 150.764,100.775 C153.405247,96.9751057 154.822696,94.8519363 155.660491,93.6728562 C148.43661,87.7989751 143.955242,78.9505729 143.759,69.3 C143.6723,64.435047 144.716741,59.6164427 146.81,55.224 C148.227174,52.2499399 150.094819,49.5123907 152.347,47.108 C158.764697,40.2278522 167.906155,36.5692121 177.282315,37.1077738 Z M210.463,0.991 C213.523,2.541 213.295,6.525 213.145,9.954 C213.455027,9.50166143 213.79092,9.06760542 214.151,8.654 C217.786,4.732 222.609,4.133 224.181,8.768 C224.697516,10.4091834 224.863767,12.1405155 224.669,13.85 C225.532676,13.0613796 226.548479,12.4576825 227.654,12.076 C229.641,11.457 230.986,12.018 231.668,13.029 C233.05,15.099 232.128,17.961 230.948,20.145 C230.979,20.133 231.084,20.088 231.121,20.072 C238.978,17.005 242.744,25.042 237.269,28.821 C236.797,29.179 235.53,29.976 235.003,30.275 C235.679321,30.4957668 236.333236,30.7800337 236.956,31.124 C239.956,32.762 240.975,36.137 237.704,38.292 C236.121,39.308 234.921,39.21 233.089,39.092 C232.389,39.047 232.389,39.075 232.046,38.915 C231.352,38.457 231.913,38.576 230.027,35.667 C228.0461,32.6900567 225.523303,30.1119665 222.59,28.067 C217.243,24.614 208.236,23.881 203.459,25.242 C201.049486,25.9014192 198.763293,26.9484273 196.69,28.342 C196.122127,28.6780565 195.636339,29.1365152 195.268,29.684 C195.041064,30.0383369 194.876568,30.4282571 194.78101,30.8367856 L194.732,31.084 C194.839277,31.1221869 194.953975,31.134855 195.067,31.121 C196.44624,30.6515203 197.775163,30.0455151 199.034,29.312 C208.268,24.689 223.793,26.999 229.879,38.54 C230.918915,40.6355608 231.645658,42.8723941 232.036,45.179 C232.576034,48.1878187 232.698187,51.2567781 232.399,54.299 L232.388832,54.3964954 C233.328746,54.5230278 234.247539,54.7852776 235.11595,55.1767766 L235.45,55.335 C235.875,55.5586997 236.287297,55.805744 236.685,56.075 C241.766,59.787 241.447,65.982 236.319,69.559 C234.807483,70.6109541 233.111193,71.3685171 231.319,71.792 C231.360937,75.848595 230.741138,79.8848864 229.484,83.742 C228.493123,86.8586003 226.962536,89.776938 224.962,92.364 C224.972,92.49 225.037,97.658 225.327,102.17 C229.051811,103.208311 232.705182,104.487676 236.264,106 C237.433,106.551 237.136,106.349 237.604,106.865 L237.59,107.394 L237.197,107.755 C237.089,107.755 236.546,107.745 236.654,107.745 C232.678823,106.232492 228.602074,105.001781 224.454,104.062 C224.305021,104.056604 224.158307,104.026639 224.019695,103.973632 L223.884,103.913 C223.34,103.564 223.345,103.191 223.284,102.532 C223.05,100.337 222.816,97.218 222.716,92.961 C222.733,91.196 222.705,91.68 223.594,90.461 L223.972,89.934 C224.947335,88.5185606 225.777213,87.0082291 226.449,85.426 C228.361436,80.8309618 229.24872,75.8741178 229.049,70.901 C229.031357,70.3918617 229.357167,69.9340888 229.844,69.784 C230.666364,69.6606522 231.474593,69.456669 232.257,69.175 C235.5,67.836 238.241,65.689 238.057,62.199 C238.057,62.167 238.043,62.044 238.041,62.037 C237.946609,61.1271643 237.646553,60.252102 237.165151,59.4774197 L236.998,59.223 C236.365321,58.292123 235.535744,57.5117063 234.568,56.937 C233.666399,56.3704727 232.664443,55.9911343 231.621655,55.8168433 C231.382364,55.9103691 231.112569,55.9184873 230.858,55.83 C230.056136,55.6218443 229.274386,55.3427435 228.522,54.996 C222.693,52.188 220.845,46.646 219.766,40.248 C219.677,39.648 219.46,38.132 219.4,37.417 C214.952356,40.8485264 209.526842,42.7733245 203.911,42.912 C196.895,42.956 192.83,39.496 189.968,38.185 C189.403,37.495 190.248,37.958 186.184,37.485 C181.668,36.973 178.423,35.578 175.972,31.702 C175.668326,31.204633 175.404502,30.6840067 175.183,30.145 C174.726229,29.0520869 174.51361,27.8726161 174.56,26.689 C174.66,24.413 175.969,21.789 178.319,21.73 C179.961549,21.7520611 181.562147,22.236597 182.938554,23.1245672 L183.23,23.321 C181.99,20.956 181.023,18.489 181.588,15.862 C182.41,12.83 184.216,11.673 185.94,11.679 C188.059,11.701 189.715,13.405 191.026,15.065 C190.979,14.901 190.935,13.836 190.926,13.728 C190.855,8.005 195.12,3.609 199.146,6.95 C200.392632,8.0675043 201.388185,9.4366028 202.067,10.967 C202.31764,8.09983978 203.287194,5.34216662 204.886,2.949 C206.253,1.007 208.315,0.021 210.463,0.991 Z M198.332,93.835 L198.854,94.018 C199.353482,94.3815792 199.887758,94.6947757 200.449,94.953 L201.08,95.276 C202.129139,95.8951627 203.280627,96.321552 204.48,96.535 C205.623707,96.747468 206.790501,96.8076571 207.95,96.714 C209.321433,96.6015619 210.678956,96.3581185 212.004,95.987 C212.477409,95.8487505 212.935194,95.661749 213.37,95.429 L213.913,95.329 L214.353,95.574 L214.358,95.574 L214.458,96.074 L214.197,96.561 C213.741907,96.958919 213.249647,97.3122077 212.727,97.616 C211.440416,98.3357222 210.018399,98.7804432 208.551,98.922 C206.436478,99.149408 204.297769,98.9324375 202.272,98.285 L202.133793,98.2353151 L202.16356,98.4660418 C202.363084,100.174915 202.397486,101.899546 202.266,103.616 C202.28971,103.885101 202.232979,104.155182 202.103,104.392 C201.603,105.11 201.149,104.922 199.903,104.978 C196.314795,105.163812 192.741397,105.569911 189.203,106.194 C187.511,106.501 188.203,106.509 187.333,106.394 L186.985,106.019 C186.985,106.005 187.038,105.519 187.04,105.501 L187.44,105.127 C190.323232,103.847189 193.413754,103.098187 196.563,102.916 C200.136333,102.630286 200.033476,102.784481 200.020761,102.671102 L200.02,102.652 C200.02,102.468667 200.030924,101.736632 200.034285,101.19457 L200.035,101.052 C200.003805,99.9743042 200.075463,98.8960894 200.249,97.832 C200.251465,97.8147423 200.278243,97.6444152 200.31199,97.4291896 C200.305568,97.4244824 200.299285,97.4210145 200.293005,97.4175408 L199.918,97.201 L199.556,96.941 C198.962174,96.4451979 198.444422,95.8656919 198.018748,95.2211564 L197.842,94.941 L197.708,94.406 L197.884,93.967 L198.332,93.835 Z M105.558,73.458 C106.365,73.658 106.608,74.863 106.693,75.54 C107.022199,77.7227131 106.979937,79.9453791 106.568,82.114 C106.195225,84.1041251 105.382793,85.9859061 104.19,87.622 C102.79,89.367 99.359,92.857 95.671,94.382 C95.1963594,94.5774747 94.025715,95.0942346 93.002811,95.5231369 C93.0461844,95.5850178 93.0876452,95.6565155 93.128,95.736 C94.0048704,97.7078173 94.7400669,99.7396331 95.328,101.816 C95.687,102.916 95.628,102.507 95.62,103.243 L95.286,103.63 L95.276,103.63 L94.765,103.635 C94.265,103.201 94.458,103.555 93.328,101.389 C93.275,101.301 92.036,98.773 91.449,97.46 C90.6003009,97.661688 89.732217,97.7706595 88.86,97.785 C86.3768702,97.8345014 83.9367884,97.1321065 81.86,95.77 C80.9867875,95.2089512 80.2432539,94.4681449 79.679,93.597 L79.679,93.588 C79.4679258,93.2684292 79.2736315,92.9381882 79.0968781,92.5986232 L78.926,92.256 L78.862,91.709 L79.11,91.301 L79.12,91.301 L79.3200046,91.2691174 C79.1132091,90.42396 78.9341033,89.5721331 78.783,88.715 C78.4991756,86.9704425 78.438689,85.1968406 78.603,83.437 C78.63,83.244 78.55,82.753 78.716,82.861 C80.3031746,83.9289365 79.6366641,86.4852036 83.0923106,93.7009457 L83.1616245,93.8466939 C84.011871,94.16383 84.9200142,94.3039066 85.83,94.256 C85.254,92.85 83.652,88.886 85.156,89.108 C85.637,89.185 85.998,89.679 86.249,90.05 C86.907,91.023 87.149,92.49 88.076,93.267 C88.902,93.967 91.009,92.999 91.834,92.667 C92.378,92.447 93.734,92.167 93.922,91.473 C94.122,90.712 93.474,89.711 93.194,89.045 C92.585,87.599 91.939,86.145 91.254,84.726 C90.9168304,83.8404235 90.406945,83.0307255 89.754,82.344 C88.319,81.071 87.303,81.825 86.366,81.201 C85.78,80.801 85.501,80.117 86.336,79.78 C87.0896902,79.5705214 87.887435,79.5798862 88.636,79.807 C89.3763865,79.9210154 90.090943,80.1643911 90.747,80.526 C92.673,81.708 93.647,84.026 95.511,86.962 C96.902,89.205 96.852,91.099 100.182,87.415 C105.058,82.06 103.161,79.907 104.705,74.651 C104.805,74.324 105.043,73.339 105.558,73.458 Z M129.683,76.72 C129.062,83.549 127.109,91.356 129.731,98.031 L118.213,72.442 C122.804,71.383 130.734,65.059 129.683,76.72 Z M172.8,39.669 L172.796,39.669 C162.829603,40.9577415 154.228596,47.2863567 150.033,56.418 C147.956771,60.9613067 147.097329,65.96633 147.539,70.942 C148.768569,85.9827323 161.502528,97.4620324 176.589792,97.1304587 C191.677056,96.7988851 203.894401,84.7712288 204.462,69.691 C204.519178,68.0031891 204.434211,66.3135601 204.208,64.64 C203.75742,61.4054311 202.746276,58.2742026 201.22,55.387 C198.403661,49.8869401 193.931754,45.4097865 188.435,42.587 C183.657456,40.0011601 178.188643,38.9805016 172.8,39.669 Z M112.048,67.253 C113.296465,68.0699025 114.251775,69.263778 114.775,70.661 C114.956958,71.1159268 115.104375,71.5839185 115.216,72.061 C115.624796,73.8050325 115.590417,75.6236634 115.116,77.351 C114.609502,79.8841915 112.540847,81.8103201 109.978,82.135 C110.783,87.161 111.54,90.494 111.703,91.291 C112.487,94.66 112.427,93.821 112.321,94.64 L111.906,94.977 L111.379,94.912 L111.038,94.492 C111.038,94.387675 110.027486,91.4828088 109.06215,87.3039386 L108.988,86.98 C107.588,80.818 107.739,81.212 107.902,80.805 C107.982789,80.6483332 108.10154,80.5153024 108.246525,80.4175334 L108.36,80.351 C108.79,80.19 109.32,80.22 110.305,79.91 C110.999322,79.7272099 111.608668,79.3090798 112.029,78.727 C113.37389,76.5927203 113.625868,73.9467653 112.708,71.597 C112.327567,70.4468615 111.508062,69.4936476 110.428,68.945 C109.208,68.267 110.255,67.625 109.393,62.98 C106.34776,47.33206 89.1165526,46.7531575 81.8607932,55.9279946 L81.644,56.209 L81.189,56.489 L80.689,56.394 L80.68,56.394 L80.409,55.962 C80.517,55.343 80.481,55.462 80.561,55.338 L80.561,55.333 C89.218,42.022 111.885,45.967 112.048,67.253 Z M85.128,84.182 C86.2541038,84.318384 87.3293149,84.7235139 88.2637207,85.3613132 L88.515,85.541 C89.0798073,86.0148068 89.5738254,86.5670833 89.982,87.181 L90.156,87.723 L90.012,88.178 L89.465,88.448 L88.91,88.304 C88.8008333,88.2323333 88.4951389,88.0821944 88.3123611,87.9953657 L88.22,87.952 C88.1426,87.9151 87.47552,87.59875 87.275081,87.50596 L87.227,87.484 C87.0673797,87.4094646 86.910337,87.3295864 86.7561363,87.2445056 L86.527,87.113 C86.1750843,86.9132294 85.8007055,86.7567689 85.4120452,86.6467538 L85.118,86.573 C85.0043835,86.5534366 84.8892882,86.5437338 84.774,86.544 L84.574,86.544 L84.574,86.549 L84.559,86.562 L84.554,86.571 L84.554,86.58 L84.549,86.58 L84.5305706,86.6135217 L84.514,86.648 L84.504,86.656 L84.484,86.683 L84.475,86.692 L84.465,86.71 L84.455,86.719 L84.426,86.746 L84.416,86.764 L84.372,86.817 L84.2699996,86.9463672 L84.181,87.085 C84.0864489,87.2202758 84.003169,87.3630892 83.932,87.512 L83.932,87.525 L83.225,88.204 C82.5125,87.4624375 82.5426758,87.6015391 82.4025635,86.9799473 L82.372,86.845 C82.3576924,86.7161912 82.349211,86.586835 82.3465728,86.4573268 L82.347,86.263 C82.3604267,86.0593466 82.4063399,85.8591514 82.483,85.67 C82.6929232,85.2173174 83.027706,84.8339651 83.448,84.565 C83.9538186,84.263913 84.5416628,84.1298985 85.128,84.182 Z M50.7,49.942 C50.753,49.954 69.312,54.7 69.882,54.864 C75.056,56.274 76.246,56.607 77.52,57.22 C78.5235467,57.6796519 79.4031588,58.3717551 80.086,59.239 C81.475,61.034 81.886,63.763 81.997,66.026 L82.0112523,66.4689107 C82.1490942,66.4563064 82.2874325,66.4486583 82.426,66.446 C83.1714783,66.4004644 83.9081296,66.627181 84.499,67.084 C86.118,68.267 86.399,70.784 86.128,72.726 C85.665,75.937 83.579,77.503 81.234,77.401 C80.8245395,77.3682609 80.4230451,77.2696601 80.045,77.109 L79.645,76.728 C79.645,76.721875 79.5975312,76.3436563 79.586326,76.2491973 L79.583988,76.228 L79.918,75.86 C80.8709333,75.7106667 80.96408,75.8348622 81.4218738,75.6821606 L81.526,75.645 C81.7803706,75.560078 82.0199788,75.4371072 82.2367908,75.280599 L82.395,75.157 C82.9370927,74.7104056 83.3583157,74.1347917 83.62,73.483 C84.067,72.403 84.139,69.773 83.306,69.051 L83.306,69.042 L83.293,69.032 L83.277,69 C83.271,69 83.139,68.881 83.135,68.879 C83.0762169,68.8442553 83.0194585,68.8061937 82.965,68.765 L82.956,68.765 L82.7562732,68.6316089 L82.548,68.512 C82.4304677,68.44124 82.3077811,68.3796268 82.1810326,68.3276579 L81.988,68.257 L81.943421,68.2401521 C81.8922489,68.7650069 81.8137206,69.2873376 81.708,69.805 C81.3170934,71.362563 80.8332266,72.8953086 80.259,74.395 L79.91,74.795 L79.396,74.851 C79.389,74.843 79.004,74.517 78.996,74.511 C78.885,73.547 78.832,74.711 79.866,70.511 C80.0287007,69.7848871 80.1290657,69.0462007 80.166,68.303 C80.266,65.995 79.738,61.881 78.193,60.403 C77.101,58.603 66.761,56.439 55.793,53.603 C51.778,52.564 45.78,50.739 41.644,51.074 C40.8129441,51.1602258 40.0392433,51.5378655 39.46,52.14 C38.9584376,52.6360997 38.4907208,53.1652878 38.06,53.724 C37.0301204,55.0805771 36.1703784,56.5582586 35.5,58.124 C34.1983473,61.2465341 33.4098501,64.5588975 33.165,67.933 C32.8835789,71.1438455 33.1284692,74.3791 33.89,77.511 C34.191421,78.8453269 34.7834897,80.0967293 35.624,81.176 C38.43,84.567 45.712,83.66 50.075,83.229 L50.08,83.229 L50.598,83.385 L50.864,83.844 L50.864,83.853 L50.718,84.362 L50.245,84.632 C49.785,84.612 43.955,85.823 39.366,85.089 C33.6559474,84.1759123 32.0993069,80.1607341 31.2031248,74.7638154 L30.9975004,74.8125436 C30.7854804,74.871892 30.5808084,74.956531 30.388,75.065 L30.373,75.078 L30.359,75.087 L30.354,75.087 L30.331,75.1 L30.317,75.113 L30.288,75.13 L30.274,75.144 L30.26,75.152 L30.235,75.174 L30.197,75.209 L30.182,75.218 L30.149,75.249 L30.121,75.249 L30.102,75.257 L30.079,75.257 C30.079,75.257 29.709,75.266 29.691,75.267 C29.441,75.256 29.786,75.45 28.403,74.492 L28.403,74.483 C28.439,73.657 28.55,73.612 28.994,73.274 C29.3384064,73.025744 29.7202011,72.8340027 30.125,72.706 C30.3780772,72.5900746 30.6463604,72.522092 30.9170573,72.5016554 C30.7375948,70.1702681 30.8140131,67.8358582 31.1374195,65.5395837 L31.177,65.536 C31.0498601,65.5559563 30.9200258,65.5505182 30.795,65.52 C29.9638453,65.4249828 29.1979715,65.0235052 28.647,64.394 L28.647,64.389 C28.472528,64.0375539 28.4941374,63.6205305 28.704,63.289 L30.086,63.189 L30.162,63.246 L30.162,63.228 L30.189,63.243 L30.221,63.253 L30.221,63.235 L30.28,63.256 L30.28,63.233 C30.2976568,63.2404313 30.3161122,63.2458001 30.335,63.249 L30.335,63.226 L30.376,63.237 L30.368,63.213 L30.413,63.225 L30.405,63.201 L30.446,63.201 L30.438,63.178 L30.475,63.178 L30.467,63.155 L30.48,63.16 L30.499,63.16 L30.486,63.136 L30.513,63.136 L30.496,63.112 L30.513,63.112 L30.5048547,63.0997488 L30.496,63.088 L30.496,63.083 L30.504,63.093 L30.513,63.093 L30.522,63.103 L30.531,63.103 L30.531,63.108 L30.567,63.128 L30.576,63.128 C30.8412435,63.217648 31.1121802,63.2894746 31.387,63.343 C31.4374977,63.3648605 31.4784855,63.3850961 31.5135572,63.404292 C32.1519394,60.3571528 33.2330508,57.4019431 34.736,54.635 C35.7956072,52.7092462 37.2325643,51.0168679 38.961,49.659 C39.5028448,49.3365828 40.0915511,49.1004256 40.706,48.959 C43.512,48.377 46.94,49.129 50.7,49.942 Z M215.861,76.744 L216.225,77.073 L216.325,77.631 C216.222418,78.4229345 216.004089,79.1955109 215.677,79.924 L215.669793,79.9353151 C215.666014,79.9436389 215.622841,80.0310463 215.468316,80.3389201 L215.405,80.465 C214.351911,82.0968708 212.905621,83.4379385 211.199,84.365 C210.631477,84.6997191 210.0222,84.9579554 209.387,85.133 C208.870418,85.2236915 208.343035,85.2351563 207.823,85.167 C207.446,85.114 207.684,85.242 206.774,84.517 C207.614385,83.4516154 207.043896,83.9866376 208.509174,83.1465958 L208.695,83.039 C209.482461,82.7472031 210.230188,82.3590725 210.921262,81.883835 L211.262,81.639 C212.031847,81.0367563 212.726921,80.3453752 213.332827,79.5796677 L213.587,79.247 C213.7202,79.0922 214.09964,78.61745 214.367381,78.23099 L214.452,78.106 C214.581925,77.9206226 214.703339,77.7294943 214.815883,77.5332127 L214.978,77.235 L215.369,76.829 L215.852,76.753 L215.861,76.744 Z M20.88,51.558 C23.6771353,51.6448828 26.439568,52.2030491 29.051,53.209 C32.604,54.491 31.979,54.209 32.503,54.673 L32.564,55.173 L32.559,55.182 L32.228,55.568 L31.7,55.642 C28.3875308,54.7154615 24.9929477,54.1126349 21.564,53.842 C20.6196129,53.7194132 19.6596191,53.8509334 18.783,54.223 L18.759,54.231 C18.1169367,54.6224085 17.5806174,55.1652516 17.197,55.812 L17.192,55.812 C16.3680336,57.3233808 15.7754404,58.9498098 15.434,60.637 C14.4549447,64.9641214 14.1306685,69.4136504 14.472,73.837 C14.658,76.477 15.095,79.769 17.131,81.437 C19.631,83.492 24.643,82.937 27.873,82.426 C30.632,82.033 29.862,81.974 30.746,82.174 L31.046,82.611 L30.931,83.127 L30.485,83.435 C28.132364,84.0230081 25.7449477,84.4618812 23.337,84.749 C20.176,85.078 16.41,84.458 14.517,81.923 C11.191,77.932 11.886,66.123 13.038,60.997 C13.732,57.887 14.695,54.197 17.355,52.44 C17.8237789,52.1320668 18.3395078,51.9024036 18.882,51.76 C19.5359334,51.6034045 20.207956,51.5354623 20.88,51.558 Z M197.375,58.379 C197.39,58.379 197.765,58.651 197.778,58.66 L197.921,59.187 C197.869703,61.2622058 197.695062,63.3325257 197.398,65.387 C196.99,68.622 197.005,70.279 196.052,78.28 C195.823874,79.1596798 195.70564,80.0642393 195.7,80.973 L195.707,81.02 L195.707,81.043 C195.72031,81.137033 195.744126,81.2292764 195.778,81.318 L195.787,81.327 L195.787,81.341 L195.796,81.351 L195.796,81.365 L195.804,81.379 L195.813,81.389 C195.937,81.597 196.301,81.76 196.906,81.889 C197.256,81.955 197.045,81.865 197.648,82.198 L197.825,82.68 L197.825,82.685 L197.584,83.144 C197.019,83.359 197.128,83.35 196.756,83.334 C195.808969,83.3976677 194.89483,82.9965463 194.300384,82.2672509 L194.178,82.106 C193.935543,81.6592528 193.798706,81.1628776 193.778,80.655 C193.654,77.936 194.525,72.091 194.722,69.579 C194.858,68.329 194.736,68.328 195.339,63.658 C195.583206,62.0390938 195.993711,60.449687 196.564,58.915 L196.9,58.492 L197.375,58.379 Z M42.599,52.735 L43.082,52.968 L43.112,53.007 L43.121,53.007 C44.1473394,54.1182399 44.9282699,55.4330787 45.413,56.866 C45.687,57.82 45.635,57.488 45.63,57.594 L45.6788148,57.7964815 C45.7175556,57.9632222 45.7626667,58.1656667 45.778,58.237 C46.3333017,61.0278768 46.5172283,63.8799154 46.325,66.719 C46.1609976,69.8406434 45.4947827,72.9154292 44.352,75.825 C43.452,77.99 42.316,80.996 39.979,81.225 C39.379,81.199 39.621,81.305 38.969,80.925 L38.812,80.425 L38.812,80.416 L39.071,79.971 L39.585,79.796 L39.779,79.796 L39.821,79.784 L39.835,79.784 C39.835,79.784 39.942,79.747 39.97,79.739 L39.98,79.73 C39.987922,79.7281337 39.9956297,79.7254527 40.003,79.722 L40.017,79.713 L40.031,79.713 C40.039,79.713 40.067,79.695 40.079,79.688 L40.088,79.679 C40.2599991,79.6297194 40.615939,79.2872538 41.0042449,78.608296 L40.928,78.607 L40.928,78.607 C39.203,78.531 38.189,76.232 37.652,74.589 C37.071,72.567 36.924,72.023 37.224,67.609 C37.2648889,66.6738889 37.4946173,65.1722593 37.5767682,64.6295761 L37.6,64.474 C38.3046105,60.8827905 39.6441501,57.450083 42.8349779,55.8027023 C42.6570307,55.2723389 42.4437548,54.7525023 42.1996416,54.2465598 L41.979,53.809 L41.879,53.275 L42.115,52.843 L42.599,52.735 Z M20.958,54.972 L21.44,55.213 C22.1404086,55.9247591 22.7056113,56.756553 23.1092572,57.6676857 L23.253,58.013 C24.106,60.231 24.211,63.637 24.218,66.013 C24.1760039,69.0536792 23.7905587,72.0798763 23.069,75.034 L23.069,75.043 C22.76405,76.21625 22.8390525,75.89135 22.7538613,76.208308 L22.739,76.264 C22.1828947,77.9057895 21.6429446,79.5709141 20.2578264,80.6837414 L20.019,80.864 L19.493,80.998 L19.033,80.752 L18.907,80.258 L19.15,79.766 C19.5704633,79.3889846 19.8986033,78.751805 20.1500207,78.058088 C19.8928467,78.0763708 19.6332824,78.0133072 19.38,77.842 C18.516,77.1916471 18.258782,75.8051834 18.1564771,74.6205288 L18.139,74.401 C18.015341,73.1988041 17.9619169,71.9904182 17.979,70.782 C18.1928522,65.876706 18.5268517,62.4520242 21.2537266,58.6233161 C21.1200697,57.8378011 20.8721941,57.0748291 20.5195324,56.3595566 L20.362,56.056 L20.257,55.522 L20.478,55.089 L20.958,54.972 Z M158.742,67.7 C159.276,68.024 159.186,67.939 159.242,68.1 C159.483,68.079 159.331,68.064 159.6,68.139 C159.921401,68.2425955 160.229255,68.3842688 160.517,68.561 C161.733322,69.3559716 162.534076,70.6497803 162.703,72.093 C162.867627,73.1808225 162.766209,74.2906613 162.409621,75.328051 L162.295,75.637 C161.800858,77.1230326 160.625136,78.282671 159.132438,78.7562983 C157.63974,79.2299257 156.010514,78.9602869 154.75,78.031 C152.739,76.666 152.232,73.777 153.044,71.497 C153.502637,69.7853139 154.77404,68.4088331 156.444,67.816 C157.187467,67.5814014 157.978688,67.5414616 158.742,67.7 Z M158.618,69.073 C158.599696,69.0779362 158.580929,69.0809525 158.562,69.082 L158.562,69.079 C158.187108,69.1056208 157.821143,69.2018856 157.482651,69.3621827 L157.283,69.466 C156.765235,69.7906715 156.318428,70.2151751 155.96814,70.7138271 L155.824,70.932 C155.604064,71.2408599 155.42523,71.5770125 155.292,71.932 C155.201536,72.1885897 155.124103,72.4495896 155.06,72.714 C154.717,74.105 155.117,75.837 156.424,76.395 C157.056206,76.7129577 157.784117,76.7842516 158.466,76.595 C159.225216,76.285255 159.828536,75.6892166 160.148882,74.940329 L160.223,74.75 C160.350974,74.4659372 160.454677,74.1715534 160.533,73.87 C160.653809,73.3968932 160.713627,72.9102806 160.711,72.422 C160.713616,71.8709898 160.599442,71.3256793 160.376,70.822 C160.127867,70.2503405 159.692444,69.7828544 159.144655,69.4944131 L158.958,69.405 L158.618,69.073 Z M59.858,60.352 L60.307,60.391 L60.734,60.75 C62.013,62.496 62.211,63.825 62.774,66.58 C63.114323,68.3266209 63.294736,70.1006263 63.313,71.88 C63.2716793,72.948348 63.149665,74.0120447 62.948,75.062 L62.683,75.552 L62.218,75.744 L61.772,75.513 L61.546,75 L61.541,75 C61.4867143,74.3171429 61.1784603,72.1231746 61.0239694,70.4861224 L61.002,70.245 C60.625,65.938 59.802,64.326 59.573,62.438 C59.568,62.398 59.449,61.276 59.441,61.238 C59.441,61.23 59.533,60.691 59.534,60.684 L59.848,60.352 L59.858,60.352 Z M67.925,59.549 L68.377,59.6 C68.7176554,59.8363495 68.988452,60.1599929 69.161,60.537 C69.4648525,61.0171613 69.7127967,61.5304964 69.9,62.067 C70.3688404,63.8708145 70.6651729,65.7151077 70.785,67.575 C70.9613516,69.2780654 70.8504767,70.9986543 70.457,72.665 C70.369,73.14 70.083,73.956 70.078,74.065 L69.754,74.521 L69.273,74.661 L68.856,74.38 L68.691,73.843 C68.691,72.6 68.571,68.474 68.547,67.935 C68.4353072,66.1130201 68.1551106,64.3053001 67.71,62.535 C67.6375294,62.1171176 67.5136817,60.6867509 67.5026969,60.4573904 L67.502,60.429 L67.602,59.876 L67.916,59.549 L67.925,59.549 Z M89.5494628,68.5549895 C90.670089,68.6038387 91.5336714,69.6726542 91.4783282,70.9422557 C91.422985,72.2118573 90.4696735,73.2014726 89.3490474,73.1526234 C88.2284213,73.1037742 87.3648388,72.0349587 87.420182,70.7653571 C87.4707127,69.6061557 88.2698333,68.6803644 89.2614014,68.5653043 L89.4043031,68.5544447 L89.5494628,68.5549895 Z M183.843,58.772 C186.157,59.658 187.81,62.032 187.669,65.278 C187.645519,66.1730612 187.493636,67.0601133 187.218,67.912 C186.596627,70.053011 184.951028,71.7447169 182.828,72.425 C181.083759,72.8675005 179.234889,72.371767 177.946,71.116 C177.245833,70.446169 176.691322,69.6406714 176.315581,68.7499824 L176.197,68.45 C174.433,63.884 177.293,58.3 181.8,58.494 C182.49207,58.4653619 183.183745,58.5594811 183.843,58.772 Z M89.4,62.451 C90.2479805,62.4297981 91.0701146,62.7438476 91.688,63.325 C92.0457744,63.6141263 92.3030238,64.0089254 92.423,64.453 C92.423,64.46 92.329,64.907 92.329,64.914 C90.796,65.066 91.677,65.021 90.792,64.87 C90.6361742,64.8383113 90.4785412,64.8162695 90.32,64.804 L90.297,64.798 C89.7623602,64.6795017 89.207828,64.6836043 88.675,64.81 L88.647,64.823 C88.3395024,64.9310559 88.0617015,65.1098624 87.836,65.345 C87.711,65.516 87.591,65.545 87.015,65.908 C86.907,65.994 87.054,65.908 86.07,66.337 C85.636,65.337 85.686,65.473 85.675,65.366 C85.6366169,64.9019737 85.7454369,64.4376516 85.986,64.039 C86.4303367,63.4819105 87.0087998,63.0489066 87.6652747,62.7793467 L87.915,62.686 C88.3934902,62.5256422 88.8953768,62.4462191 89.4,62.451 Z M216.229348,57.5024314 C217.624285,57.4043007 218.841882,58.5582911 218.948927,60.079941 C219.055972,61.601591 218.011928,62.9146826 216.616991,63.0128134 C215.222053,63.1109441 214.004456,61.9569537 213.897411,60.4353038 C213.790366,58.9136538 214.83441,57.6005622 216.229348,57.5024314 Z M172.366,44.454 C173.377326,44.4458934 174.374343,44.6803342 175.27408,45.1357632 L175.541,45.279 C176.410523,45.7819853 177.011175,46.6457667 177.18,47.636 C177.817,51.736 170.995,55.905 168.005,58.459 C166.294,59.973 164.778,61.395 162.505,61.707 C159.351,61.885 158.34,58.785 158.841,55.696 C158.980237,54.8516123 159.265142,54.0378412 159.683,53.291 C161.568024,49.6781809 164.674541,46.851981 168.449,45.316 C169.894,44.733 169.677,44.816 170.192,44.839 L170.43,44.669 C171.063922,44.5173365 171.714248,44.4451154 172.366,44.454 Z M170.707,46.054 L170.401,45.986 C167.91447,47.3427597 165.687231,49.1282066 163.822,51.26 C162.814734,52.3733105 161.987136,53.6368063 161.369,55.005 C160.838288,56.2951016 160.846571,57.7440508 161.392,59.028 L161.392,59.042 L161.405,59.056 L161.422,59.085 L161.431,59.094 L161.448,59.123 L161.457,59.132 L161.466,59.146 L161.483,59.166 L161.492,59.18 L161.501,59.189 L161.514,59.199 L161.514,59.209 L161.528,59.218 L161.563,59.257 L161.572,59.257 L161.589,59.276 L161.598,59.276 L161.607,59.286 L161.616,59.286 L161.625,59.295 L161.634,59.295 L161.643,59.305 L161.67,59.32 L161.678,59.329 L161.768,59.379 L161.782,59.379 C161.794809,59.3872976 161.808576,59.3940132 161.823,59.399 L161.832,59.399 C161.840056,59.4013549 161.847783,59.4047147 161.855,59.409 L161.891,59.409 C161.898217,59.4132853 161.905944,59.4166451 161.914,59.419 L161.941,59.419 L161.955,59.425 L161.996,59.425 L162.185,59.433 L162.286,59.433 C162.755555,59.360579 163.20856,59.2055145 163.624,58.975 C164.324661,58.576157 164.978985,58.1009256 165.575,57.558 C170.39,53.438 172.836,52.193 174.675,49.532 C174.828881,49.2994535 174.962697,49.0542357 175.075,48.799 C175.160225,48.6079953 175.218451,48.4060579 175.248,48.199 L175.254,48.177 L175.254,48.112 L175.26,47.984 L175.26,47.868 L175.252,47.831 L175.252,47.813 L175.244,47.775 L175.244,47.757 C175.23,47.691 175.22,47.648 175.214,47.613 L175.205,47.599 L175.197,47.562 L175.189,47.547 L175.189,47.529 L175.18,47.515 L175.18,47.496 C175.173709,47.4853329 175.168033,47.4743149 175.163,47.463 L175.163,47.444 C175.051293,47.2069583 174.887099,46.999293 174.683664,46.8363074 L174.557,46.744 C174.448851,46.6658713 174.336698,46.5934394 174.221,46.527 L174.193,46.516 L174.171,46.502 C173.08772,46.0075002 171.880441,45.8513625 170.707,46.054 Z M217.082912,49.8950688 L217.346,49.99 C217.627879,50.1021561 217.900688,50.235886 218.162,50.39 C218.269,50.46 218.173,50.373 218.617,50.857 L218.67,51.334 L218.328,51.66 L217.758,51.75 C217.548531,51.7266497 217.337613,51.7189617 217.127,51.727 C216.6424,51.7457671 216.160464,51.8080171 215.687,51.913 L215.681,51.913 C215.174924,51.9723207 214.681079,52.1096125 214.217,52.32 C213.681328,52.5633385 213.186571,52.8869575 212.749595,53.2792089 L212.536,53.481 C212.413456,53.624552 212.276653,53.7550624 212.127795,53.8705683 L211.975,53.981 C211.485904,54.4169903 210.873238,54.6899469 210.222,54.762 L209.978,53.812 C210.030544,53.5169045 210.110376,53.2275487 210.216352,52.9476326 L210.331,52.671 C210.451039,52.4234213 210.611272,52.1980116 210.804758,52.0037324 L210.956,51.864 C211.595245,51.2348237 212.334234,50.7158078 213.143,50.328 C213.867497,49.9879225 214.640344,49.7622415 215.434,49.659 C215.993926,49.6406986 216.55198,49.7208454 217.082912,49.8950688 Z M116.313,29.561 C116.426,29.635 116.322,29.638 116.86,29.481 C120.727,29.81 124.935,34.732 123.98,38.424 L123.968,38.484 C122.612643,43.7211 115.514937,42.1820339 112.567504,37.6068239 L112.442,37.406 C111.857807,36.5006336 111.485238,35.4752135 111.352,34.406 C111.252455,33.6432397 111.349527,32.8676942 111.634,32.153 C112.296748,30.2157406 114.319153,29.0954003 116.313,29.561 Z M116.537,30.797 L116.142,30.934 C115.734838,30.9227843 115.33101,31.0102747 114.965,31.189 C114.177864,31.6401743 113.66995,32.4565181 113.613,33.362 C113.611957,33.4053683 113.606936,33.4485494 113.598,33.491 C113.34,35.17 114.932,38.1 118.27,39.291 C118.917124,39.5348511 119.617854,39.600469 120.299,39.481 C120.988553,39.2857451 121.527929,38.7552182 121.73836,38.0778393 L121.781,37.919 C121.923388,37.3179788 121.883349,36.6881524 121.666,36.11 C121.44076,35.4378657 121.138765,34.7939462 120.766,34.191 C119.869571,32.5374432 118.345403,31.3142164 116.537,30.797 Z M153.07,28.508 C153.612573,28.533191 154.150932,28.6159896 154.676,28.755 C156.287156,29.0721939 157.639865,30.160267 158.295,31.666 C159.379,34.073 157.687,36.384 154.379,35.788 C153.030138,35.5763781 151.757058,35.0258569 150.679,34.188 C148.252,32 149.462,28.489 153.07,28.508 Z M153.86535,30.321465 L153.62,30.366 C153.299587,30.4255727 152.986833,30.519732 152.687189,30.6466745 L152.465,30.748 C152.394003,30.7796639 152.324889,30.8153896 152.258,30.855 C151.898,31.0575 151.87415,31.10529 151.802267,31.190826 L151.776,31.221 L151.760941,31.2400841 L151.747,31.26 L151.742,31.265 L151.742,31.272 L151.732,31.283 L151.732,31.301 L151.722,31.313 L151.722,31.337 L151.717,31.343 L151.717,31.654 L151.725,31.68 L151.725,31.694 L151.733,31.722 L151.733,31.736 C151.744,31.774 151.756,31.823 151.765,31.861 L151.773,31.876 L151.786,31.918 L151.794,31.933 L151.802,31.961 L151.811,31.975 L151.811,31.989 L151.819,32.003 L151.819,32.016 L151.845,32.058 L151.845,32.072 L151.897,32.156 L151.91,32.17 L151.927,32.198 L151.94,32.212 L151.949,32.226 L151.962,32.24 L151.971,32.254 L151.997,32.283 L152.006,32.297 C152.886,33.2315217 155.193297,33.8604556 156.078389,33.5081825 L156.19,33.454 L156.228,33.432 L156.228,33.426 L156.247,33.416 L156.256,33.406 L156.266,33.401 C156.29525,33.3725 156.294688,33.3738125 156.302281,33.3669688 L156.314,33.356 L156.323,33.348 L156.332,33.339 L156.332,33.269 L156.337,33.262 L156.337,33.241 L156.347,33.226 L156.347,33.061 C156.362956,32.8246149 156.331845,32.588014 156.25612,32.3647426 L156.191,32.2 C155.893043,31.4096736 155.340271,30.7411399 154.62,30.3 L154.611,30.3 C154.362171,30.2789788 154.112031,30.2862396 153.86535,30.321465 Z M126.828,23.817 C128.803,23.859 130.871,26.198 130.764,28.645 C130.635,31.612 126.67,33.345 124.121,29.577 C123.349335,28.4872059 123.248333,27.0585197 123.859,25.871 C123.975238,25.6570385 124.116934,25.4579252 124.281,25.278 C125.126,24.491 124.868,24.909 125.07,24.504 C125.541404,24.0504535 126.173984,23.8032509 126.828,23.817 Z M126.132,25.524 L126.128,25.524 L126.061,25.671 C125.88044,25.8753178 125.7512,26.1197431 125.684,26.384 L125.684,26.407 L125.674,26.429 C125.65494,26.5061648 125.642231,26.5847608 125.636,26.664 L125.631,26.685 L125.631,27.083 L125.643,27.144 L125.643,27.165 C125.645501,27.1835473 125.649175,27.2019174 125.654,27.22 L125.654,27.227 L125.661,27.269 L125.661,27.29 C125.674,27.362 125.679,27.39 125.699,27.474 L125.699,27.48 C125.699,27.507 125.717,27.58 125.721,27.611 L125.729,27.633 L125.736,27.677 L125.745,27.699 L125.745,27.722 L125.754,27.744 L125.754,27.766 L125.763,27.789 L125.763,27.811 C126.198,28.996 127.031,29.496 127.589,29.464 C127.815169,29.4430087 128.030296,29.3564713 128.208,29.215 L128.256,29.173 L128.256,29.164 C128.278633,29.1418342 128.299685,29.1181094 128.319,29.093 L128.319,29.083 L128.329,29.074 L128.339,29.055 L128.349,29.045 L128.379,28.982 L128.389,28.971 L128.389,28.959 L128.399,28.947 L128.399,28.923 C128.408,28.9 128.411,28.894 128.424,28.859 L128.424,28.845 L128.434,28.817 L128.434,28.785 L128.44,28.77 L128.44,28.754 L128.446,28.738 L128.446,28.722 L128.452,28.706 L128.452,28.672 L128.458,28.656 L128.458,28.3 L128.451,28.256 L128.451,28.234 C128.322,27.1 127.234,25.171 126.132,25.524 Z"/>
    <path fill="#1988E0" d="M115.444,174.065 C115.971615,174.158705 116.362557,174.607518 116.383,175.143 C116.368,175.354 116.292,175.961 116.283,176.069 C115.982403,178.90659 116.195815,181.77513 116.913,184.537 C117.756738,188.045343 119.327241,191.337609 121.523,194.201 L121.532,194.201 C123.020618,196.06511 124.733559,197.738419 126.632,199.183 L127.003,199.337 C127.673,200.918 127.735,200.478 113.28,200.766 C98.322,201.202 108.661,200.803 92.674,201.246 C92.1297167,201.266713 91.6489072,200.894202 91.533,200.362 C86.762,178.908 86.94,180.474 87.059,179.849 C87.2108443,179.345119 87.6886337,179.011287 88.214,179.042 C91.8266508,179.899826 95.5626728,180.111088 99.249,179.666 C103.318483,179.125845 107.274054,177.93215 110.963,176.131 C114.848,174.31 114.582,174.007 115.444,174.065 Z M244.544,100.999 L244.554,101 L245.005,101.222 L245.218,101.711 C245.7,106.424 245.531,125.498 245.5,126.543 C245.472162,131.179927 245.099467,135.808362 244.385,140.39 C244.139533,142.082133 244.161498,141.922284 243.91185,142.329239 C247.012814,142.451373 249.635202,142.59679 251.6,142.763 C252.878,142.845 252.883,142.852 253.206,143.031 C253.674,143.393 253.656,143.637 253.943,144.514 C259.55,162.861 255.585,180.914 251.798,199.746 C251.58,200.805 251.698,200.51 251.316,201.079 L250.795,201.19 L250.786,201.19 L250.343,200.89 C250.298588,200.677049 250.265198,200.57068 250.249177,200.478685 L170.149672,199.29458 C170.139435,199.472889 170.119593,199.614434 170.089,199.717 L169.635,199.978 L169.63,199.978 L169.13,199.832 L168.864,199.373 C166.274,180.767 162.38,161.561 171.174,144.673 C171.712,143.573 171.759,143.686 174.414,143.289 C188.041101,141.73755 223.719351,141.589724 242.902023,142.291014 C242.605764,141.943608 242.868784,141.043697 243.038,135.249 C243.638,113.549 242.829,111.484 243.728,102.609 C243.865,101.454 243.769,101.809 244.08,101.191 L244.544,100.999 Z M133.115,93.753 C138.167,94.871 144.181,97.037 148.156,100.347 L148.166,100.338 C148.878,101 148.517,100.939 144.67,107.275 C142.722,110.484 142.906,110.69 142.118,110.656 C141.697,110.556 141.671,110.414 141.468,110.236 C140.729249,109.533939 139.836953,109.013832 138.862,108.717 C138.190081,108.49894 137.474078,108.453545 136.78,108.585 L136.757,108.593 L136.729,108.593 C136.330733,108.684723 135.959699,108.869041 135.646,109.131 L135.631,109.148 C134.499158,110.471079 133.875251,112.153855 133.871,113.895 C133.736,117.001 134.189,117.088 133.825,117.81 C133.610798,118.145066 133.217197,118.319824 132.825,118.254 C131.695078,118.109971 130.547725,118.300501 129.525,118.802 C128.236659,119.586597 127.31533,120.853559 126.966,122.321 C126.80079,122.873642 126.679085,123.438366 126.602,124.01 C126.161583,127.470139 126.923481,127.829969 126.053622,128.508022 L125.975,128.567 C125.003185,129.015 120.945554,128.210448 121.823214,135.266458 L121.868,135.603 C122.1197,137.152062 122.50959,138.675477 123.033,140.155 C123.285,141.161 122.87,140.814 119.813,146.068 C119.374,146.81 119.248,147.236 118.477,147.337 C117.967338,147.363916 117.503102,147.045266 117.345,146.56 C115.883424,142.01644 113.879291,137.665702 111.376,133.602 C108.986741,129.607013 105.830027,126.124703 102.088,123.356 C101.228,123.626 103.118,123.064 98.655,124.519 C96.755,125.119 95.785,125.547 95.455,125.647 C94.9379903,125.759899 94.4121912,125.497208 94.192,125.016 C89.285,114.243 86.94,109.71 86.936,108.924 C86.9574745,108.664292 87.0713676,108.420894 87.257,108.238 C88.4270074,106.964875 89.8126087,105.908324 91.35,105.117 C91.9959194,104.763631 92.6702714,104.464922 93.366,104.224 C93.8698966,104.173541 94.3461721,104.463306 94.533,104.934 C94.689,105.465 94.577,105.493 94.458,106.114 C94.4082715,106.312333 94.3963973,106.518266 94.423,106.721 L94.423,106.758 C94.4265475,106.779976 94.4315586,106.801691 94.438,106.823 L94.438,106.842 C94.4492266,106.883 94.462578,106.923387 94.478,106.963 L94.478,106.972 L94.487,106.982 L94.495,107.001 L94.495,107.01 C94.5044348,107.022124 94.5131178,107.034814 94.521,107.048 L94.521,107.077 L94.548,107.106 L94.557,107.106 L94.557,107.115 L94.566,107.115 L94.566,107.124 L94.575,107.129 L94.584,107.129 L94.597,107.143 L94.606,107.143 L94.615,107.153 L94.642,107.168 L94.651,107.177 C94.672,107.189 94.661,107.177 94.682,107.193 L94.691,107.202 L94.741,107.223 L94.754,107.233 L94.808,107.253 L94.822,107.263 C94.864,107.28 94.983,107.315 95.022,107.328 L95.045,107.328 C95.087,107.34 95.062,107.328 95.104,107.344 L95.127,107.344 L95.168,107.355 L95.191,107.355 L95.214,107.361 C97.89,107.477 99.44,106.296 101.614,104.769 C107.501,100.429 113.072,94.269 114.128,93.538 C115.148,93.097 127.16,92.492 133.115,93.753 Z M179.327,103.644 L179.779,103.852 C180.089,104.498 179.979,104.063 180.127,105.503 C180.453452,108.591948 180.604028,111.696958 180.578,114.803 C180.821,126.975 180.916,126.036 181.005,134.619 C180.905,142.864 181.005,141.994 180.205,142.398 L180.2,142.398 L179.716,142.188 C179.421,141.521 179.502,141.9 179.384,140.488 C178.657,131.765 178.74,130.588 178.57,125.35 C178.215,110.35 178.195,110.629 178.361,107.838 C178.439583,106.505917 178.604497,104.611771 178.630425,104.361183 L178.633,104.338 L178.862,103.85 L179.318,103.644 L179.327,103.644 Z"/>
  </g>
</svg>
