<?xml version="1.0" encoding="UTF-8" standalone="no"?>
<svg width="16px" height="16px" viewBox="0 0 16 16" version="1.1" xmlns="http://www.w3.org/2000/svg" xmlns:xlink="http://www.w3.org/1999/xlink">
    <!-- Generator: Sketch 3.7.2 (28276) - http://www.bohemiancoding.com/sketch -->
    <title>16_trash</title>
    <desc>Created with Sketch.</desc>
    <defs></defs>
    <g id="Page-3" stroke="none" stroke-width="1" fill="none" fill-rule="evenodd">
        <g id="Icons" transform="translate(-103.000000, -116.000000)" fill="#000000">
            <path d="M105.5,120 C105.2,120 105,119.8 105,119.5 C105,119.2 105.2,119 105.5,119 L116.5,119 C116.8,119 117,119.2 117,119.5 C117,119.8 116.8,120 116.5,120 L105.5,120 L105.5,120 Z M107,131 C106.4,131 106,130.6 106,130 L106,121 L116,121 L116,130 C116,130.6 115.6,131 115,131 L107,131 Z M109.5,117 L112.5,117 C112.8,117 113,117.2 113,117.5 L113,118 L109,118 L109,117.5 C109,117.2 109.2,117 109.5,117 L109.5,117 Z M114,117 C114,116.4 113.6,116 113,116 L109,116 C108.4,116 108,116.4 108,117 L108,118 L105,118 C104.4,118 104,118.4 104,119 L104,120 C104,120.6 104.4,121 105,121 L105,130 C105,131 106,132 107,132 L115,132 C116,132 117,131 117,130 L117,121 C117.6,121 118,120.6 118,120 L118,119 C118,118.4 117.6,118 117,118 L114,118 L114,117 Z" id="trash"></path>
        </g>
    </g>
</svg>