<?xml version="1.0" encoding="UTF-8" standalone="no"?>
<svg width="24px" height="24px" viewBox="0 0 24 24" version="1.1" xmlns="http://www.w3.org/2000/svg" xmlns:xlink="http://www.w3.org/1999/xlink">
    <!-- Generator: Sketch 3.8.3 (29802) - http://www.bohemiancoding.com/sketch -->
    <title>24_home</title>
    <desc>Created with Sketch.</desc>
    <defs></defs>
    <g id="Page-3" stroke="none" stroke-width="1" fill="none" fill-rule="evenodd">
        <g id="Artboard-10" transform="translate(-74.000000, -70.000000)" fill="#000000">
            <g id="Group-4" transform="translate(75.000000, 71.000000)">
                <g id="Group-5" transform="translate(11.000000, 12.000000) scale(1, -1) translate(-11.000000, -12.000000) translate(1.000000, 5.000000)">
                    <rect id="Rectangle-1788" opacity="0.12" x="0" y="0" width="20" height="2"></rect>
                    <rect id="Rectangle-1788-Copy" opacity="0.109999999" x="0" y="2" width="20" height="2"></rect>
                    <rect id="Rectangle-1788-Copy-2" opacity="0.100000001" x="0" y="4" width="20" height="2"></rect>
                    <rect id="Rectangle-1788-Copy-3" opacity="0.0900000036" x="0" y="6" width="20" height="2"></rect>
                    <rect id="Rectangle-1788-Copy-4" opacity="0.0800000057" x="0" y="8" width="20" height="2"></rect>
                    <rect id="Rectangle-1788-Copy-5" opacity="0.0700000003" x="0" y="10" width="20" height="2"></rect>
                    <rect id="Rectangle-1788-Copy-6" opacity="0.0599999987" x="0" y="12" width="20" height="2"></rect>
                </g>
                <path d="M0.0671655983,5.00748397 C0.0300710626,4.45106594 0.43945834,4 1.00246167,4 L20.9975383,4 C21.5511826,4 21.970072,4.44892021 21.9328344,5.00748397 L21.0671656,17.992516 C21.0300711,18.5489341 20.5446944,19 20.0081969,19 L1.99180311,19 C1.44404538,19 0.970071986,18.5510798 0.932834402,17.992516 L0.0671655983,5.00748397 Z M1,5 L21,5 L20,18 L2,18 L1,5 Z" id="Combined-Shape"></path>
                <rect id="Combined-Shape-Copy-7" opacity="0.7" x="3" y="2" width="16" height="1" rx="0.5"></rect>
                <rect id="Combined-Shape-Copy-8" opacity="0.4" x="5" y="0" width="12" height="1" rx="0.5"></rect>
            </g>
        </g>
    </g>
</svg>