<?xml version="1.0" encoding="UTF-8" standalone="no"?>
<svg width="80px" height="80px" viewBox="0 0 80 80" version="1.1" xmlns="http://www.w3.org/2000/svg" xmlns:xlink="http://www.w3.org/1999/xlink">
    <!-- Generator: Sketch 3.8.3 (29802) - http://www.bohemiancoding.com/sketch -->
    <title>80_list_active</title>
    <desc>Created with Sketch.</desc>
    <defs></defs>
    <g id="Page-3" stroke="none" stroke-width="1" fill="none" fill-rule="evenodd">
        <g id="Artboard-7" transform="translate(-82.000000, -183.000000)" fill="#000000">
            <path d="M82,184.997498 C82,183.89431 82.8984375,183 83.9974983,183 L160.002502,183 C161.10569,183 162,183.898438 162,184.997498 L162,261.002502 C162,262.10569 161.101562,263 160.002502,263 L83.9974983,263 C82.8943104,263 82,262.101562 82,261.002502 L82,184.997498 Z M84,185 L160,185 L160,261 L84,261 L84,185 Z" id="Combined-Shape-Copy-10"></path>
            <rect id="Combined-Shape-Copy-14" opacity="0.1" x="82" y="183" width="80" height="80" rx="2"></rect>
            <g id="list-copy" transform="translate(88.000000, 189.000000)">
                <g id="Group">
                    <rect id="Combined-Shape" x="23" y="7" width="45" height="1"></rect>
                    <rect id="Combined-Shape-Copy" x="23" y="10" width="25" height="1"></rect>
                    <rect id="Combined-Shape-Copy-2" x="0" y="0" width="18" height="18" rx="1"></rect>
                </g>
                <g id="Group-Copy" transform="translate(0.000000, 25.000000)">
                    <rect id="Combined-Shape" x="23" y="7" width="45" height="1"></rect>
                    <rect id="Combined-Shape-Copy" x="23" y="10" width="25" height="1"></rect>
                    <rect id="Combined-Shape-Copy-2" x="0" y="0" width="18" height="18" rx="1"></rect>
                </g>
                <g id="Group-Copy-7" transform="translate(0.000000, 50.000000)">
                    <rect id="Combined-Shape" x="23" y="8" width="45" height="1"></rect>
                    <rect id="Combined-Shape-Copy" x="23" y="11" width="25" height="1"></rect>
                    <rect id="Combined-Shape-Copy-2" x="0" y="0" width="18" height="18" rx="1"></rect>
                </g>
            </g>
        </g>
    </g>
</svg>