<?xml version="1.0" encoding="UTF-8" standalone="no"?>
<svg width="80px" height="80px" viewBox="0 0 80 80" version="1.1" xmlns="http://www.w3.org/2000/svg" xmlns:xlink="http://www.w3.org/1999/xlink">
    <!-- Generator: Sketch 3.8.3 (29802) - http://www.bohemiancoding.com/sketch -->
    <title>80_screenshot</title>
    <desc>Created with Sketch.</desc>
    <defs></defs>
    <g id="Page-3" stroke="none" stroke-width="1" fill="none" fill-rule="evenodd">
        <g id="Artboard-7" transform="translate(-212.000000, -313.000000)" fill="#000000">
            <g id="Group-3" transform="translate(222.000000, 328.000000)">
                <path d="M0,1.99091407 C0,0.891362589 0.894730389,0 1.99630737,0 L58.0036926,0 C59.1062227,0 60,0.889064278 60,1.99091407 L60,48.0090859 C60,49.1086374 59.1052696,50 58.0036926,50 L1.99630737,50 C0.893777255,50 0,49.1109357 0,48.0090859 L0,1.99091407 Z M1,2.00254822 C1,1.44885613 1.45003989,1 2.00669861,1 L57.9933014,1 C58.5492857,1 59,1.44453073 59,2.00254822 L59,47.9974518 C59,48.5511439 58.5499601,49 57.9933014,49 L2.00669861,49 C1.45071432,49 1,48.5554693 1,47.9974518 L1,2.00254822 Z M1,7 L59,7 L59,8 L1,8 L1,7 Z M4,5 C4.55228475,5 5,4.55228475 5,4 C5,3.44771525 4.55228475,3 4,3 C3.44771525,3 3,3.44771525 3,4 C3,4.55228475 3.44771525,5 4,5 Z M8,5 C8.55228475,5 9,4.55228475 9,4 C9,3.44771525 8.55228475,3 8,3 C7.44771525,3 7,3.44771525 7,4 C7,4.55228475 7.44771525,5 8,5 Z M12,5 C12.5522847,5 13,4.55228475 13,4 C13,3.44771525 12.5522847,3 12,3 C11.4477153,3 11,3.44771525 11,4 C11,4.55228475 11.4477153,5 12,5 Z" id="Combined-Shape"></path>
                <rect id="Rectangle-1700-Copy" opacity="0.1" x="5" y="12" width="50" height="33"></rect>
                <path d="M5.5,13 L6.5,13 L6.5,12 L5.5,12 L5.5,13 L5.5,13 Z M9.5,13 L10.5,13 L10.5,12 L9.5,12 L9.5,13 L9.5,13 Z M13.5,13 L14.5,13 L14.5,12 L13.5,12 L13.5,13 L13.5,13 Z M17.5,13 L18.5,13 L18.5,12 L17.5,12 L17.5,13 L17.5,13 Z M21.5,13 L22.5,13 L22.5,12 L21.5,12 L21.5,13 L21.5,13 Z M25.5,13 L26.5,13 L26.5,12 L25.5,12 L25.5,13 L25.5,13 Z M29.5,13 L30.5,13 L30.5,12 L29.5,12 L29.5,13 L29.5,13 Z M33.5,13 L34.5,13 L34.5,12 L33.5,12 L33.5,13 L33.5,13 Z M37.5,13 L38.5,13 L38.5,12 L37.5,12 L37.5,13 L37.5,13 Z M41.5,13 L42.5,13 L42.5,12 L41.5,12 L41.5,13 L41.5,13 Z M45.5,13 L46.5,13 L46.5,12 L45.5,12 L45.5,13 L45.5,13 Z M49.5,13 L50.5,13 L50.5,12 L49.5,12 L49.5,13 L49.5,13 Z M53.5,13 L54.5,13 L54,12.5 L54,13.5 L55,13.5 L55,12.5 L55,12 L54.5,12 L53.5,12 L53.5,13 L53.5,13 Z M54,15.5 L54,16.5 L55,16.5 L55,15.5 L54,15.5 L54,15.5 Z M54,19.5 L54,20.5 L55,20.5 L55,19.5 L54,19.5 L54,19.5 Z M54,23.5 L54,24.5 L55,24.5 L55,23.5 L54,23.5 L54,23.5 Z M54,27.5 L54,28.5 L55,28.5 L55,27.5 L54,27.5 L54,27.5 Z M54,31.5 L54,32.5 L55,32.5 L55,31.5 L54,31.5 L54,31.5 Z M54,35.5 L54,36.5 L55,36.5 L55,35.5 L54,35.5 L54,35.5 Z M54,39.5 L54,40.5 L55,40.5 L55,39.5 L54,39.5 L54,39.5 Z M54,43.5 L54,44.5 L54.5,44 L53.5,44 L53.5,45 L54.5,45 L55,45 L55,44.5 L55,43.5 L54,43.5 L54,43.5 Z M51.5,44 L50.5,44 L50.5,45 L51.5,45 L51.5,44 L51.5,44 Z M47.5,44 L46.5,44 L46.5,45 L47.5,45 L47.5,44 L47.5,44 Z M43.5,44 L42.5,44 L42.5,45 L43.5,45 L43.5,44 L43.5,44 Z M39.5,44 L38.5,44 L38.5,45 L39.5,45 L39.5,44 L39.5,44 Z M35.5,44 L34.5,44 L34.5,45 L35.5,45 L35.5,44 L35.5,44 Z M31.5,44 L30.5,44 L30.5,45 L31.5,45 L31.5,44 L31.5,44 Z M27.5,44 L26.5,44 L26.5,45 L27.5,45 L27.5,44 L27.5,44 Z M23.5,44 L22.5,44 L22.5,45 L23.5,45 L23.5,44 L23.5,44 Z M19.5,44 L18.5,44 L18.5,45 L19.5,45 L19.5,44 L19.5,44 Z M15.5,44 L14.5,44 L14.5,45 L15.5,45 L15.5,44 L15.5,44 Z M11.5,44 L10.5,44 L10.5,45 L11.5,45 L11.5,44 L11.5,44 Z M7.5,44 L6.5,44 L6.5,45 L7.5,45 L7.5,44 L7.5,44 Z M6,42.5 L6,41.5 L5,41.5 L5,42.5 L6,42.5 L6,42.5 Z M6,38.5 L6,37.5 L5,37.5 L5,38.5 L6,38.5 L6,38.5 Z M6,34.5 L6,33.5 L5,33.5 L5,34.5 L6,34.5 L6,34.5 Z M6,30.5 L6,29.5 L5,29.5 L5,30.5 L6,30.5 L6,30.5 Z M6,26.5 L6,25.5 L5,25.5 L5,26.5 L6,26.5 L6,26.5 Z M6,22.5 L6,21.5 L5,21.5 L5,22.5 L6,22.5 L6,22.5 Z M6,18.5 L6,17.5 L5,17.5 L5,18.5 L6,18.5 L6,18.5 Z M6,14.5 L6,13.5 L5,13.5 L5,14.5 L6,14.5 L6,14.5 Z" id="Rectangle-1700"></path>
                <path d="M33.8461537,45.0256 L29.9445333,41.1264 L27.9008,43.1701333 C28.2205111,43.7321099 28.358151,44.3855842 28.3124294,45.0256 L26.7115263,45.0256 C26.7473302,44.8923859 26.7658667,44.7537812 26.7658667,44.6128 C26.7658667,44.1904 26.5994667,43.7893333 26.3008,43.4906667 C26.0021333,43.192 25.6010667,43.0256 25.1786667,43.0256 C24.7562667,43.0256 24.3552,43.192 24.0565333,43.4906667 C23.6547028,43.8924972 23.5212695,44.4922944 23.6562334,45.0256 L22.0099903,45.0256 C22.0033491,44.9410659 22,44.8558606 22,44.7701333 C22,43.9210667 22.3285333,43.1232 22.9301333,42.5216 C23.5317333,41.92 24.3296,41.5914667 25.1786667,41.5914667 C25.7546667,41.5914667 26.3008,41.7536 26.7829333,42.0394667 L28.8224,40 L26.7872,37.9648 C26.3008,38.2506667 25.7546667,38.4128 25.1786667,38.4128 C24.3296,38.4128 23.5317333,38.0842667 22.9301333,37.4826667 C22.3285333,36.8810667 22,36.0832 22,35.2341333 C22,34.3850667 22.3285333,33.5872 22.9301333,32.9856 C23.5317333,32.384 24.3296,32.0554667 25.1786667,32.0554667 C26.0277333,32.0554667 26.8256,32.384 27.4272,32.9856 C28.4341333,33.9925333 28.5834667,35.6224 27.9008,36.8341333 L29.9445333,38.8778667 L36.8224,32 L37.9488,33.1221333 L31.0709333,40 L36.0934157,45.0256 L33.8461537,45.0256 Z M24.0565333,36.3562667 C23.4549333,35.7546667 23.4549333,34.7093333 24.0565333,34.1077333 C24.3552,33.8090667 24.7562667,33.6426667 25.1786667,33.6426667 C25.6010667,33.6426667 26.0021333,33.8090667 26.3008,34.1077333 C26.5994667,34.4064 26.7658667,34.8074667 26.7658667,35.2298667 C26.7658667,35.6522667 26.5994667,36.0533333 26.3008,36.352 C26.0021333,36.6506667 25.6010667,36.8170667 25.1786667,36.8170667 C24.7562667,36.8213333 24.3552,36.6549333 24.0565333,36.3562667 Z" id="Combined-Shape"></path>
            </g>
        </g>
    </g>
</svg>