<?xml version="1.0" encoding="UTF-8" standalone="no"?>
<svg width="80px" height="80px" viewBox="0 0 80 80" version="1.1" xmlns="http://www.w3.org/2000/svg" xmlns:xlink="http://www.w3.org/1999/xlink">
    <!-- Generator: Sketch 3.8.3 (29802) - http://www.bohemiancoding.com/sketch -->
    <title>80_simple_active</title>
    <desc>Created with Sketch.</desc>
    <defs></defs>
    <g id="Page-3" stroke="none" stroke-width="1" fill="none" fill-rule="evenodd">
        <g id="Artboard-7" transform="translate(-212.000000, -183.000000)" fill="#000000">
            <path d="M212,184.997498 C212,183.89431 212.898438,183 213.997498,183 L290.002502,183 C291.10569,183 292,183.898438 292,184.997498 L292,261.002502 C292,262.10569 291.101562,263 290.002502,263 L213.997498,263 C212.89431,263 212,262.101562 212,261.002502 L212,184.997498 Z M214,185 L290,185 L290,261 L214,261 L214,185 Z" id="Combined-Shape-Copy-9"></path>
            <rect id="Combined-Shape-Copy-13" opacity="0.1" x="212" y="183" width="80" height="80" rx="2"></rect>
            <g id="view_simple-copy" transform="translate(219.000000, 191.000000)">
                <g id="Group">
                    <rect id="Rectangle-1212" x="17" y="5" width="50" height="1"></rect>
                    <rect id="Rectangle-1210" x="0" y="0" width="10" height="10" rx="5"></rect>
                </g>
                <g id="Group-Copy" transform="translate(0.000000, 18.000000)">
                    <rect id="Rectangle-1212" x="17" y="4" width="25" height="1"></rect>
                    <rect id="Rectangle-1210" x="0" y="0" width="10" height="10" rx="5"></rect>
                </g>
                <g id="Group-Copy-7" transform="translate(0.000000, 36.000000)">
                    <rect id="Rectangle-1212" x="17" y="5" width="50" height="1"></rect>
                    <rect id="Rectangle-1210" x="0" y="0" width="10" height="10" rx="5"></rect>
                </g>
                <g id="Group-Copy-8" transform="translate(0.000000, 54.000000)">
                    <rect id="Rectangle-1212" x="17" y="5" width="25" height="1"></rect>
                    <rect id="Rectangle-1210" x="0" y="0" width="10" height="10" rx="5"></rect>
                </g>
            </g>
        </g>
    </g>
</svg>