<svg xmlns="http://www.w3.org/2000/svg" width="20" height="20" viewBox="0 0 20 20">
  <g fill="none" fill-rule="evenodd">
    <path fill="#000" fill-rule="nonzero" d="M6,14 L19,14 L19,18.0001925 C19,18.5523709 18.552511,19 18.001498,19 L6.998502,19 C6.447045,19 6,18.5562834 6,18.0001925 L6,14 Z M13,6 L18.009222,6 C18.556414,6 19,6.4530363 19,6.9970301 L19,14 L13,14 L13,6 Z" opacity=".12"/>
    <path fill="#000" fill-rule="nonzero" d="M6,18 L7,18 L7,19 L6.5,19 C6.223858,19 6,18.7680664 6,18.5 L6,18 Z M6,16 L7,16 L7,17 L6,17 L6,16 Z M6,14 L7,14 L7,15 L6,15 L6,14 Z M8,18 L9,18 L9,19 L8,19 L8,18 Z M10,18 L11,18 L11,19 L10,19 L10,18 Z M12,18 L13,18 L13,19 L12,19 L12,18 Z M14,18 L15,18 L15,19 L14,19 L14,18 Z M16,18 L17,18 L17,19 L16,19 L16,18 Z M18,18 L19,18 L19,18.5 C19,18.7761424 18.768066,19 18.5,19 L18,19 L18,18 Z M18,16 L19,16 L19,17 L18,17 L18,16 Z M18,14 L19,14 L19,15 L18,15 L18,14 Z M18,12 L19,12 L19,13 L18,13 L18,12 Z M18,10 L19,10 L19,11 L18,11 L18,10 Z M18,8 L19,8 L19,9 L18,9 L18,8 Z M18,6 L18.5,6 C18.776142,6 19,6.2319336 19,6.5 L19,7 L18,7 L18,6 Z M16,6 L17,6 L17,7 L16,7 L16,6 Z M14,6 L15,6 L15,7 L14,7 L14,6 Z" opacity=".5"/>
    <path fill="#000" fill-rule="nonzero" d="M13.001498,1 C13.552955,1 14,1.4474894 14,1.9985023 L14,13.0014977 C14,13.5529553 13.552511,14 13.001498,14 L1.998502,14 C1.447045,14 1,13.5525106 1,13.0014977 L1,1.9985023 C1,1.4470447 1.447489,1 1.998502,1 L13.001498,1 Z M13,2 L2,2 L2,13 L13,13 L13,2 Z M8,4 L8,7 L11,7 L11,8 L8,8 L8,11 L7,11 L7,8 L4,8 L4,7 L7,7 L7,4 L8,4 Z"/>
  </g>
</svg>
