<?xml version="1.0" encoding="UTF-8"?>
<svg width="20px" height="20px" viewBox="0 0 20 20" version="1.1" xmlns="http://www.w3.org/2000/svg" xmlns:xlink="http://www.w3.org/1999/xlink">
    <title>Artboard</title>
    <g id="Artboard" stroke="none" stroke-width="1" fill="none" fill-rule="evenodd">
        <path d="M8.39212913,4.21815316 C8.79351213,4.21815316 9.15242725,4.46813391 9.2915917,4.84461971 L10.8188293,8.99709837 C10.850642,9.08359497 10.9188165,9.15176947 11.0053131,9.18358212 L15.1577917,10.7108197 C15.5342775,10.8499842 15.7842583,11.2088993 15.7842583,11.6102823 C15.7842583,12.0116653 15.5342775,12.3705804 15.1577917,12.5097449 L11.0053131,14.0369825 C10.9188165,14.0687951 10.850642,14.1369696 10.8188293,14.2234662 L9.2915917,18.3759449 C9.15242725,18.7524307 8.79351213,19.0024114 8.39212913,19.0024114 C7.99074614,19.0024114 7.63183101,18.7524307 7.49266657,18.3759449 L5.96542896,14.2234662 C5.93361631,14.1369696 5.86544181,14.0687951 5.77894521,14.0369825 L1.62646655,12.5097449 C1.24998075,12.3705804 1,12.0116653 1,11.6102823 C1,11.2088993 1.24998075,10.8499842 1.62646655,10.7108197 L5.77894521,9.18358212 C5.86544181,9.15176947 5.93361631,9.08359497 5.96542896,8.99709837 L7.49266657,4.84461971 C7.63183101,4.46813391 7.99074614,4.21815316 8.39212913,4.21815316 Z M8.392,5.29615316 L6.90396382,9.34228285 C6.7709303,9.70399262 6.48583946,9.98908346 6.12412854,10.1221174 L2.077,11.6101532 L6.12412969,13.0984476 C6.44062574,13.2148519 6.69846042,13.4476752 6.84709619,13.7463802 L6.90396425,13.8782829 L8.392,17.9251532 L9.88029445,13.8782817 C9.99669878,13.5617857 10.229522,13.303951 10.528227,13.1553152 L10.6601297,13.0984472 L14.706,11.6101532 L10.6601286,10.122117 C10.3436325,10.0057127 10.0857978,9.77288943 9.93716208,9.47418439 L9.88029402,9.3422817 L8.392,5.29615316 Z M17.5,6 C17.7761424,6 18,6.22385763 18,6.5 L18,7 L18.5,7 C18.7761424,7 19,7.22385763 19,7.5 C19,7.77614237 18.7761424,8 18.5,8 L18,8 L18,8.5 C18,8.77614237 17.7761424,9 17.5,9 C17.2238576,9 17,8.77614237 17,8.5 L17,8 L16.5,8 C16.2238576,8 16,7.77614237 16,7.5 C16,7.22385763 16.2238576,7 16.5,7 L17,7 L17,6.5 C17,6.22385763 17.2238576,6 17.5,6 Z M13.5,1 C13.7761424,1 14,1.22385763 14,1.5 L14,3 L15.5,3 C15.7761424,3 16,3.22385763 16,3.5 C16,3.77614237 15.7761424,4 15.5,4 L14,4 L14,5.5 C14,5.77614237 13.7761424,6 13.5,6 C13.2238576,6 13,5.77614237 13,5.5 L13,4 L11.5,4 C11.2238576,4 11,3.77614237 11,3.5 C11,3.22385763 11.2238576,3 11.5,3 L13,3 L13,1.5 C13,1.22385763 13.2238576,1 13.5,1 Z" id="Combined-Shape" fill="#000000" fill-rule="nonzero"></path>
        <path d="M8.392,5.29615316 L6.90396382,9.34228285 C6.7709303,9.70399262 6.48583946,9.98908346 6.12412854,10.1221174 L2.077,11.6101532 L6.12412969,13.0984476 C6.44062574,13.2148519 6.69846042,13.4476752 6.84709619,13.7463802 L6.90396425,13.8782829 L8.392,17.9251532 L9.88029445,13.8782817 C9.99669878,13.5617857 10.229522,13.303951 10.528227,13.1553152 L10.6601297,13.0984472 L14.706,11.6101532 L10.6601286,10.122117 C10.3436325,10.0057127 10.0857978,9.77288943 9.93716208,9.47418439 L9.88029402,9.3422817 L8.392,5.29615316 Z" id="Combined-Shape-path" fill="#000000" opacity="0.100000001"></path>
    </g>
</svg>