<?xml version="1.0" encoding="UTF-8" standalone="no"?>
<svg width="20px" height="20px" viewBox="0 0 20 20" version="1.1" xmlns="http://www.w3.org/2000/svg" xmlns:xlink="http://www.w3.org/1999/xlink">
    <!-- Generator: Sketch 3.8.1 (29687) - http://www.bohemiancoding.com/sketch -->
    <title>android_active</title>
    <desc>Created with Sketch.</desc>
    <defs></defs>
    <g id="Page-3" stroke="none" stroke-width="1" fill="none" fill-rule="evenodd">
        <g id="Artboard-10" transform="translate(-134.000000, -40.000000)" fill="#000000">
            <path d="M148.154899,43.0492285 C148.143455,43.0407705 148.131986,43.0323461 148.12049,43.0239555 L147.127145,42.4237277 L147.09481,42.405857 C146.128796,41.9176566 145.075796,41.6556782 144,41.6556782 C142.918194,41.6556782 141.874581,41.9159498 140.90519,42.405857 L140.280736,42.7807359 L138.853553,41.3535534 L138.5,41 L137.792893,41.7071068 L138.146447,42.0606602 L139.452667,43.3668809 C137.944887,44.6652453 137,46.5730362 137,49 L151,49 C151,46.7654299 150.198984,44.9709821 148.916822,43.7015192 L150.557681,42.0606602 L150.911234,41.7071068 L150.204127,41 L149.850574,41.3535534 L148.154899,43.0492285 Z M151,52.0642496 L151,50 L137,50 L137,52.0642496 C137,55.9277756 140.133381,59.0642496 144,59.0642496 C147.865993,59.0642496 151,55.9302429 151,52.0642496 Z M141.428571,47.8571429 C142.21755,47.8571429 142.857143,47.2175496 142.857143,46.4285714 C142.857143,45.6395932 142.21755,45 141.428571,45 C140.639593,45 140,45.6395932 140,46.4285714 C140,47.2175496 140.639593,47.8571429 141.428571,47.8571429 Z M146.428571,47.8571429 C147.21755,47.8571429 147.857143,47.2175496 147.857143,46.4285714 C147.857143,45.6395932 147.21755,45 146.428571,45 C145.639593,45 145,45.6395932 145,46.4285714 C145,47.2175496 145.639593,47.8571429 146.428571,47.8571429 Z" id="Combined-Shape"></path>
        </g>
    </g>
</svg>