<?xml version="1.0" encoding="UTF-8" standalone="no"?>
<svg width="20px" height="20px" viewBox="0 0 20 20" version="1.1" xmlns="http://www.w3.org/2000/svg" xmlns:xlink="http://www.w3.org/1999/xlink">
    <!-- Generator: Sketch 3.8.1 (29687) - http://www.bohemiancoding.com/sketch -->
    <title>apple_active</title>
    <desc>Created with Sketch.</desc>
    <defs></defs>
    <g id="Page-3" stroke="none" stroke-width="1" fill="none" fill-rule="evenodd">
        <g id="Artboard-10" transform="translate(-74.000000, -40.000000)" fill="#000000">
            <path d="M86.3619011,43.710213 C87.1211558,42.7884822 87.5341981,41.5960625 87.4099746,40.4638991 L87.3590746,40 L86.8927719,40.0188405 C85.8452074,40.0611664 84.6200432,40.6914489 83.8810006,41.5565073 C83.1233891,42.4349857 82.6661716,43.6402214 82.8101732,44.7320082 L82.8631694,45.1338127 L83.2672419,45.1651316 C84.3908115,45.2522174 85.5828171,44.650911 86.3610544,43.711238 L86.3619011,43.710213 Z M88.7424914,50.5598726 C88.7336033,49.6664732 89.0510555,48.9178437 89.5925925,48.2963011 C89.7738874,48.088222 89.9682906,47.9091992 90.1645503,47.7582879 C90.2834227,47.6668825 90.3746419,47.6063049 90.4604063,47.5539182 L90.8863608,47.2742698 L90.598705,46.8536814 C89.650682,45.4675544 88.2682584,44.9092403 86.9145013,44.8535023 C86.2106604,44.7811091 85.5409741,44.9338863 84.6106215,45.2920085 C83.561151,45.6959829 83.6114488,45.6784738 83.4474704,45.6784738 C83.2610614,45.6784738 83.1608151,45.6445989 82.3338171,45.3206914 C81.5673447,45.0204896 81.0512729,44.8842315 80.4689176,44.8944997 C78.7700915,44.9197077 77.1971854,45.8769046 76.3200995,47.402626 C74.7973846,50.0441268 75.5278934,54.181336 77.483212,57.0065588 C78.7201562,58.7934554 79.5228298,59.5452901 80.7546712,59.498439 C81.2440616,59.4791276 81.5964242,59.3783783 82.1350362,59.150482 C82.2054642,59.1205689 82.2054642,59.1205689 82.2742453,59.0912496 C82.849141,58.8466806 83.1672805,58.7612134 83.6849177,58.7612134 C84.1733579,58.7612134 84.4745197,58.8432175 85.0179478,59.0778017 C85.0869755,59.1076654 85.0869755,59.1076654 85.1578482,59.1382029 C85.7332687,59.3850897 86.1171306,59.486155 86.6664033,59.4756594 C87.9206939,59.4528339 88.6364235,58.7837469 89.8234624,57.0477749 C90.2245364,56.4614598 90.5512622,55.8440502 90.8122146,55.2277025 C90.9046508,55.009376 90.9826157,54.8055651 91.0481162,54.617426 C91.0871682,54.5052557 91.1162991,54.4145541 91.130817,54.3666682 L91.2758423,53.9415942 L90.8687034,53.7519679 C90.7791393,53.7160332 90.6688166,53.6647361 90.521031,53.5801876 C90.2731196,53.4383569 90.0252389,53.2589823 89.7945844,53.0396991 C89.142508,52.41977 88.751944,51.60965 88.7424959,50.5603448 L88.7424914,50.5598726 Z" id="Combined-Shape-Copy-4"></path>
        </g>
    </g>
</svg>