<?xml version="1.0" encoding="UTF-8" standalone="no"?>
<svg width="20px" height="20px" viewBox="0 0 20 20" version="1.1" xmlns="http://www.w3.org/2000/svg" xmlns:xlink="http://www.w3.org/1999/xlink">
    <!-- Generator: Sketch 3.6.1 (26313) - http://www.bohemiancoding.com/sketch -->
    <title>article</title>
    <desc>Created with Sketch.</desc>
    <defs></defs>
    <g id="Page-3" stroke="none" stroke-width="1" fill="none" fill-rule="evenodd">
        <g id="Icons" transform="translate(-277.000000, -76.000000)" fill="#000000">
            <path d="M287,94 C282.581722,94 279,90.418278 279,86 C279,81.581722 282.581722,78 287,78 C291.418278,78 295,81.581722 295,86 C295,90.418278 291.418278,94 287,94 Z M287,93 C290.865993,93 294,89.8659932 294,86 C294,82.1340068 290.865993,79 287,79 C283.134007,79 280,82.1340068 280,86 C280,89.8659932 283.134007,93 287,93 Z M283.5,88 L290.5,88 L291,88 L291,87 L290.5,87 L283.5,87 L283,87 L283,88 L283.5,88 Z M283.5,90 L290.5,90 L291,90 L291,89 L290.5,89 L283.5,89 L283,89 L283,90 L283.5,90 Z M289.333333,84 L290.666667,84 L291,84 L291,83 L290.666667,83 L289.333333,83 L289,83 L289,84 L289.333333,84 Z M289.333333,86 L290.666667,86 L291,86 L291,85 L290.666667,85 L289.333333,85 L289,85 L289,86 L289.333333,86 Z" id="Combined-Shape"></path>
            <path d="M284.185114,85 L283.641772,86 L282.5,86 L285.5,80.5 L288.5,86 L287.355179,86 L286.812729,85 L284.185114,85 Z M284.728456,84 L285.5,82.5800018 L286.270278,84 L284.728456,84 Z" id="Rectangle-1338"></path>
        </g>
    </g>
</svg>