<?xml version="1.0" encoding="UTF-8" standalone="no"?>
<svg width="20px" height="20px" viewBox="0 0 20 20" version="1.1" xmlns="http://www.w3.org/2000/svg" xmlns:xlink="http://www.w3.org/1999/xlink">
    <!-- Generator: Sketch 3.6.1 (26313) - http://www.bohemiancoding.com/sketch -->
    <title>article_active</title>
    <desc>Created with Sketch.</desc>
    <defs></defs>
    <g id="Page-3" stroke="none" stroke-width="1" fill="none" fill-rule="evenodd">
        <g id="Icons" transform="translate(-277.000000, -136.000000)" fill="#000000">
            <path d="M284.185114,145 L283.641772,146 L282.5,146 L285.5,140.5 L288.5,146 L287.355179,146 L286.812729,145 L284.185114,145 Z M284.728456,144 L285.5,142.580002 L286.270278,144 L284.728456,144 Z M287,154 C291.418278,154 295,150.418278 295,146 C295,141.581722 291.418278,138 287,138 C282.581722,138 279,141.581722 279,146 C279,150.418278 282.581722,154 287,154 Z M289.333333,146 L290.666667,146 L291,146 L291,145 L290.666667,145 L289.333333,145 L289,145 L289,146 L289.333333,146 L289.333333,146 Z M289.333333,144 L290.666667,144 L291,144 L291,143 L290.666667,143 L289.333333,143 L289,143 L289,144 L289.333333,144 L289.333333,144 Z M283.5,150 L290.5,150 L291,150 L291,149 L290.5,149 L283.5,149 L283,149 L283,150 L283.5,150 L283.5,150 Z M283.5,148 L290.5,148 L291,148 L291,147 L290.5,147 L283.5,147 L283,147 L283,148 L283.5,148 L283.5,148 Z" id="Oval-445"></path>
        </g>
    </g>
</svg>