<svg xmlns="http://www.w3.org/2000/svg" width="20" height="20" viewBox="0 0 20 20">
  <path d="M10,17 L10,17 C13.865993,17 17,13.8659932 17,10 C17,6.1340068 13.865993,3 10,3 C6.134007,3 3,6.1340068 3,10 C3,13.8659932 6.134007,17 10,17 L10,17 Z M10,18 L10,18 C5.581722,18 2,14.418278 2,10 C2,5.581722 5.581722,2 10,2 C14.418278,2 18,5.581722 18,10 C18,14.418278 14.418278,18 10,18 L10,18 Z M9,10.05 L9,6 L14,6 L14,8 L11,8 L11,12.5 C10.9997842,13.5570965 10.3347187,14.4998049 9.3389163,14.8545311 C8.3431139,15.2092572 7.23183005,14.8993226 6.56334705,14.080431 C5.89486406,13.2615393 5.81368305,12.1107044 6.36058741,11.2060782 C6.90749177,10.3014519 7.96426115,9.83858072 9,10.05 L9,10.05 Z"/>
</svg>
