<svg xmlns="http://www.w3.org/2000/svg" width="20" height="20" viewBox="0 0 20 20"><path d="M10,17 L10,17 C13.865993,17 17,13.8659932 17,10 C17,6.1340068 13.865993,3 10,3 C6.134007,3 3,6.1340068 3,10 C3,13.8659932 6.134007,17 10,17 L10,17 Z M10,18 L10,18 C5.581722,18 2,14.418278 2,10 C2,5.581722 5.581722,2 10,2 C14.418278,2 18,5.581722 18,10 C18,14.418278 14.418278,18 10,18 L10,18 Z M8.5,6 C9.09757013,6 9.63392965,6.26207377 10.000412,6.67755469 C10.3660703,6.26207377 10.9024299,6 11.5,6 L12,6 C13.1045695,6 14,6.8954305 14,8 L14,13.5 C14,13.7761424 13.7761424,14 13.5,14 C13.2545401,14 13.0503916,13.8231248 13.0080557,13.5898756 L13,13.5 C13,13.2545401 12.8231248,13.0503916 12.5898756,13.0080557 L12.5,13 L11,13 C10.7545401,13 10.5503916,13.1768752 10.5080557,13.4101244 L10.5,13.5 C10.5,13.7454599 10.3231248,13.9496084 10.0898756,13.9919443 L10,14 C9.75454011,14 9.55039163,13.8231248 9.50805567,13.5898756 L9.5,13.5 C9.5,13.2545401 9.32312484,13.0503916 9.08987563,13.0080557 L9,13 L7.5,13 C7.25454011,13 7.05039163,13.1768752 7.00805567,13.4101244 L7,13.5 C7,13.7761424 6.77614237,14 6.5,14 C6.22385763,14 6,13.7761424 6,13.5 L6,8 C6,6.8954305 6.8954305,6 8,6 L8.5,6 Z M8.5,7 L8,7 C7.44771525,7 7,7.44771525 7,8 L6.99953472,12.0855277 C7.15605565,12.0301368 7.32450841,12 7.5,12 L9,12 C9.17550246,12 9.34396522,12.0301405 9.50049436,12.0855277 L9.5,8 C9.5,7.48716416 9.11395981,7.06449284 8.61662113,7.00672773 L8.5,7 Z M12,7 L11.5,7 C10.9871642,7 10.5644928,7.38604019 10.5067277,7.88337887 L10.5,8 L10.5,12.085 L10.6598517,12.0387326 C10.7691396,12.0133941 10.8830056,12 11,12 L12.5,12 C12.6758666,12 12.8446642,12.0302657 13.0014685,12.0858727 L13,8 C13,7.48716416 12.6139598,7.06449284 12.1166211,7.00672773 L12,7 Z"/></svg>