<?xml version="1.0" encoding="UTF-8"?>
<svg width="20px" height="20px" viewBox="0 0 20 20" version="1.1" xmlns="http://www.w3.org/2000/svg" xmlns:xlink="http://www.w3.org/1999/xlink">
    <!-- Generator: Sketch 44.1 (41455) - http://www.bohemiancoding.com/sketch -->
    <title>broken_active</title>
    <desc>Created with Sketch.</desc>
    <defs></defs>
    <g id="Page-1" stroke="none" stroke-width="1" fill="none" fill-rule="evenodd">
        <path d="M17,9.93933983 L13.5,7.08578644 L9.5,10.0857864 L5.5,7.08578644 L2,9.93933983 L2,2 L2,2 C2,1.44771525 2.44771525,1 3,1 L3,1 L16,1 C16.5522847,1 17,1.44771525 17,2 L17,9.93933983 Z M17,11.5428715 L17,17 C17,17.5522847 16.5522847,18 16,18 L3,18 C2.44771525,18 2,17.5522847 2,17 L2,11.5495817 L5.5,8.91421356 L9.5,11.9142136 L13.5,8.91421356 L17,11.5428715 Z" id="Rectangle-Copy" fill="#000000"></path>
    </g>
</svg>