<svg xmlns="http://www.w3.org/2000/svg" width="20" height="20" viewBox="0 0 20 20">
  <path d="M10,2 C14.418278,2 18,5.581722 18,10 C18,14.3349143 14.5521622,17.8645429 10.2491793,17.9961932 L10,18 C5.581722,18 2,14.418278 2,10 C2,5.581722 5.581722,2 10,2 Z M10,3 C6.134007,3 3,6.1340068 3,10 C3,13.7854517 6.00478362,16.8690987 9.75935026,16.995941 L10,17 C13.865993,17 17,13.8659932 17,10 C17,6.1340068 13.865993,3 10,3 Z M10,5 C12.209139,5 14,6.790861 14,9 L14,14 L13.999,13.999 L12,12 L10.001,13.999 L9.999,13.999 L8,12 L6,14 L6,9 C6,6.790861 7.790861,5 10,5 Z M8.5,8 C7.94771525,8 7.5,8.44771525 7.5,9 C7.5,9.55228475 7.94771525,10 8.5,10 C9.05228475,10 9.5,9.55228475 9.5,9 C9.5,8.44771525 9.05228475,8 8.5,8 Z M11.5,8 C10.9477153,8 10.5,8.44771525 10.5,9 C10.5,9.55228475 10.9477153,10 11.5,10 C12.0522847,10 12.5,9.55228475 12.5,9 C12.5,8.44771525 12.0522847,8 11.5,8 Z"/>
</svg>
