<?xml version="1.0" encoding="UTF-8"?>
<svg width="20px" height="20px" viewBox="0 0 20 20" version="1.1" xmlns="http://www.w3.org/2000/svg" xmlns:xlink="http://www.w3.org/1999/xlink">
    <title>broken_active</title>
    <g id="broken_active" stroke="none" stroke-width="1" fill="none" fill-rule="evenodd">
        <path d="M10,1 C14.418278,1 18,4.581722 18,9 L17.9995561,17.1466264 C17.999526,17.6989111 17.5517863,18.146602 16.9995016,18.1465719 C16.6482359,18.1465527 16.3227369,17.9622332 16.142031,17.661014 L15,15.7573593 L13.2066075,17.5500346 C12.8159432,17.9403395 12.1828566,17.9402584 11.7922923,17.5498534 L10,15.7573593 L8.20660749,17.5500346 C7.8159432,17.9403395 7.18285659,17.9402584 6.79229233,17.5498534 L5,15.7573593 L3.85702958,17.6621473 C3.57286358,18.1357169 2.95859753,18.2892588 2.48502798,18.0050928 C2.18382424,17.8243551 1.9995369,17.4988336 1.99955604,17.1475648 L2,9 C2,4.581722 5.581722,1 10,1 Z M13,7 C11.8954305,7 11,7.8954305 11,9 C11,10.1045695 11.8954305,11 13,11 C14.1045695,11 15,10.1045695 15,9 C15,7.8954305 14.1045695,7 13,7 Z M7,7 C5.8954305,7 5,7.8954305 5,9 C5,10.1045695 5.8954305,11 7,11 C8.1045695,11 9,10.1045695 9,9 C9,7.8954305 8.1045695,7 7,7 Z M13,8 C13.5522847,8 14,8.44771525 14,9 C14,9.55228475 13.5522847,10 13,10 C12.4477153,10 12,9.55228475 12,9 C12,8.44771525 12.4477153,8 13,8 Z M7,8 C7.55228475,8 8,8.44771525 8,9 C8,9.55228475 7.55228475,10 7,10 C6.44771525,10 6,9.55228475 6,9 C6,8.44771525 6.44771525,8 7,8 Z" id="Combined-Shape" fill="#000000" fill-rule="nonzero"></path>
    </g>
</svg>