<?xml version="1.0" encoding="UTF-8"?>
<svg width="20px" height="20px" viewBox="0 0 20 20" version="1.1" xmlns="http://www.w3.org/2000/svg" xmlns:xlink="http://www.w3.org/1999/xlink">
    <title>broken</title>
    <g id="broken" stroke="none" stroke-width="1" fill="none" fill-rule="evenodd">
        <rect id="Rectangle" fill="#000000" opacity="0.100000001" x="6" y="8" width="2" height="2"></rect>
        <rect id="Rectangle-Copy-2" fill="#000000" opacity="0.100000001" x="12" y="8" width="2" height="2"></rect>
        <path d="M10,1 C14.418278,1 18,4.581722 18,9 L17.9995561,17.1466264 C17.999526,17.6989111 17.5517863,18.146602 16.9995016,18.1465719 C16.6482359,18.1465527 16.3227369,17.9622332 16.142031,17.661014 L15,15.7573593 L13.2066075,17.5500346 C12.8159432,17.9403395 12.1828566,17.9402584 11.7922923,17.5498534 L10,15.7573593 L8.20660749,17.5500346 C7.8159432,17.9403395 7.18285659,17.9402584 6.79229233,17.5498534 L5,15.7573593 L3.85702958,17.6621473 C3.57286358,18.1357169 2.95859753,18.2892588 2.48502798,18.0050928 C2.18382424,17.8243551 1.9995369,17.4988336 1.99955604,17.1475648 L2,9 C2,4.581722 5.581722,1 10,1 Z M10,2 C6.21454828,2 3.13090132,5.00478338 3.00405902,8.75941189 L3,9.00006566 L2.999,17.343 L4.29289322,15.0502525 C4.65339153,14.6897542 5.22064984,14.6620388 5.61294009,14.9670954 L5.70714658,15.0502923 L7.499,16.842 L9.29303465,15.0501111 C9.65355406,14.6897359 10.2207211,14.6620838 10.6129537,14.9671061 L10.7071466,15.0502923 L12.499,16.842 L14.2930346,15.0501111 C14.6535517,14.6897383 15.2207141,14.6620839 15.6129469,14.9671008 L15.7071399,15.0502857 L16.999,17.342 L17,9 C17,5.21454828 13.9952166,2.13090132 10.2406498,2.00405902 L10,2 Z M7,7 C8.1045695,7 9,7.8954305 9,9 C9,10.1045695 8.1045695,11 7,11 C5.8954305,11 5,10.1045695 5,9 C5,7.8954305 5.8954305,7 7,7 Z M13,7 C14.1045695,7 15,7.8954305 15,9 C15,10.1045695 14.1045695,11 13,11 C11.8954305,11 11,10.1045695 11,9 C11,7.8954305 11.8954305,7 13,7 Z M7,8 C6.44771525,8 6,8.44771525 6,9 C6,9.55228475 6.44771525,10 7,10 C7.55228475,10 8,9.55228475 8,9 C8,8.44771525 7.55228475,8 7,8 Z M13,8 C12.4477153,8 12,8.44771525 12,9 C12,9.55228475 12.4477153,10 13,10 C13.5522847,10 14,9.55228475 14,9 C14,8.44771525 13.5522847,8 13,8 Z" id="Combined-Shape" fill="#000000" fill-rule="nonzero"></path>
        <path d="M16.999,17.342 L15.7071399,15.0502857 L15.6129469,14.9671008 C15.2207141,14.6620839 14.6535517,14.6897383 14.2930346,15.0501111 L14.2930346,15.0501111 L12.499,16.842 L10.7071466,15.0502923 L10.6129537,14.9671061 C10.2207211,14.6620838 9.65355406,14.6897359 9.29303465,15.0501111 L9.29303465,15.0501111 L7.499,16.842 L5.70714658,15.0502923 L5.61294009,14.9670954 C5.22064984,14.6620388 4.65339153,14.6897542 4.29289322,15.0502525 L4.29289322,15.0502525 L2.999,17.343 L2.999,14.343 L4.29289322,12.0502525 C4.65339153,11.6897542 5.22064984,11.6620388 5.61294009,11.9670954 L5.70714658,12.0502923 L7.499,13.842 L9.29303465,12.0501111 C9.65355406,11.6897359 10.2207211,11.6620838 10.6129537,11.9671061 L10.7071466,12.0502923 L12.499,13.842 L14.2930346,12.0501111 C14.6535517,11.6897383 15.2207141,11.6620839 15.6129469,11.9671008 L15.7071399,12.0502857 L16.999,14.342 L16.999,17.342 Z" id="Combined-Shape" fill="#000000" fill-rule="nonzero" opacity="0.100000001"></path>
    </g>
</svg>