<svg xmlns="http://www.w3.org/2000/svg" width="20" height="20" viewBox="0 0 20 20">
  <g fill="none" fill-rule="evenodd">
    <path fill="#000000" d="M10,18 C14.4182777,18 18,14.4182779 18,10 C18,5.58172206 14.4182777,2 10,2 C5.58172229,2 2,5.58172206 2,10 C2,14.4182779 5.58172229,18 10,18 Z" opacity=".1"/>
    <path fill="#000000" d="M10,9.29289322 L13.1464466,6.14644661 C13.3417088,5.95118446 13.6582912,5.95118446 13.8535534,6.14644661 C14.0488155,6.34170876 14.0488155,6.65829124 13.8535534,6.85355339 L10.7071068,10 L13.8535534,13.1464466 C14.0488155,13.3417088 14.0488155,13.6582912 13.8535534,13.8535534 C13.6582912,14.0488155 13.3417088,14.0488155 13.1464466,13.8535534 L10,10.7071068 L6.85355339,13.8535534 C6.65829124,14.0488155 6.34170876,14.0488155 6.14644661,13.8535534 C5.95118446,13.6582912 5.95118446,13.3417088 6.14644661,13.1464466 L9.29289322,10 L6.14644661,6.85355339 C5.95118446,6.65829124 5.95118446,6.34170876 6.14644661,6.14644661 C6.34170876,5.95118446 6.65829124,5.95118446 6.85355339,6.14644661 L10,9.29289322 Z M10,18 C5.58172229,18 2,14.4182779 2,10 C2,5.58172206 5.58172229,2 10,2 C14.4182777,2 18,5.58172206 18,10 C18,14.4182779 14.4182777,18 10,18 Z M10,17 C13.8659932,17 17,13.8659932 17,10 C17,6.13400675 13.8659932,3 10,3 C6.13400675,3 3,6.13400675 3,10 C3,13.8659932 6.13400675,17 10,17 Z"/>
  </g>
</svg>
