<svg xmlns="http://www.w3.org/2000/svg" width="20" height="20" viewBox="0 0 20 20">
  <path fill-rule="evenodd" d="M9.5,2 C9.77614237,2 10,2.22385763 10,2.5 L10,8.292 L14.0961941,4.19669914 C14.2914562,4.001437 14.6080387,4.001437 14.8033009,4.19669914 C14.998563,4.39196129 14.998563,4.70854378 14.8033009,4.90380592 L10.707,8.999 L16.5,9 C16.7761424,9 17,9.22385763 17,9.5 C17,9.77614237 16.7761424,10 16.5,10 L10.706,9.999 L14.8033009,14.0961941 C14.998563,14.2914562 14.998563,14.6080387 14.8033009,14.8033009 C14.6080387,14.998563 14.2914562,14.998563 14.0961941,14.8033009 L10,10.707 L10,16.5 C10,16.7761424 9.77614237,17 9.5,17 C9.22385763,17 9,16.7761424 9,16.5 L9,10.706 L4.90380592,14.8033009 C4.70854378,14.998563 4.39196129,14.998563 4.19669914,14.8033009 C4.001437,14.6080387 4.001437,14.2914562 4.19669914,14.0961941 L8.292,10 L2.5,10 C2.22385763,10 2,9.77614237 2,9.5 C2,9.22385763 2.22385763,9 2.5,9 L8.293,9 L4.19669914,4.90380592 C4.001437,4.70854378 4.001437,4.39196129 4.19669914,4.19669914 C4.39196129,4.001437 4.70854378,4.001437 4.90380592,4.19669914 L9,8.293 L9,2.5 C9,2.22385763 9.22385763,2 9.5,2 Z"/>
</svg>
