<svg xmlns="http://www.w3.org/2000/svg" width="20" height="20" viewBox="0 0 20 20">
  <g fill="none" fill-rule="evenodd">
    <path fill="#000" fill-rule="nonzero" d="M10,16 C10.5522847,16 11,16.4477153 11,17 L11,18 C11,18.5522847 10.5522847,19 10,19 C9.44771525,19 9,18.5522847 9,18 L9,17 C9,16.4477153 9.44771525,16 10,16 Z M3.88710056,14.7097046 C4.27939176,14.4046797 4.84662282,14.4324093 5.20710678,14.7928932 C5.59763107,15.1834175 5.59763107,15.8165825 5.20710678,16.2071068 L5.20710678,16.2071068 L4.70710678,16.7071068 L4.61289944,16.7902954 C4.22060824,17.0953203 3.65337718,17.0675907 3.29289322,16.7071068 C2.90236893,16.3165825 2.90236893,15.6834175 3.29289322,15.2928932 L3.29289322,15.2928932 L3.79289322,14.7928932 Z M16.1128994,14.7097046 L16.2071068,14.7928932 L16.7071068,15.2928932 C17.0976311,15.6834175 17.0976311,16.3165825 16.7071068,16.7071068 C16.3466228,17.0675907 15.7793918,17.0953203 15.3871006,16.7902954 L15.2928932,16.7071068 L14.7928932,16.2071068 C14.4023689,15.8165825 14.4023689,15.1834175 14.7928932,14.7928932 C15.1533772,14.4324093 15.7206082,14.4046797 16.1128994,14.7097046 Z M3,9 C3.55228475,9 4,9.44771525 4,10 C4,10.5522847 3.55228475,11 3,11 L2,11 C1.44771525,11 1,10.5522847 1,10 C1,9.44771525 1.44771525,9 2,9 L3,9 Z M18,9 C18.5522847,9 19,9.44771525 19,10 C19,10.5522847 18.5522847,11 18,11 L17,11 C16.4477153,11 16,10.5522847 16,10 C16,9.44771525 16.4477153,9 17,9 L18,9 Z M4.61289944,3.20970461 L4.70710678,3.29289322 L5.20710678,3.79289322 C5.59763107,4.18341751 5.59763107,4.81658249 5.20710678,5.20710678 C4.84662282,5.56759074 4.27939176,5.59532028 3.88710056,5.29029539 L3.79289322,5.20710678 L3.29289322,4.70710678 C2.90236893,4.31658249 2.90236893,3.68341751 3.29289322,3.29289322 C3.65337718,2.93240926 4.22060824,2.90467972 4.61289944,3.20970461 Z M15.3871006,3.20970461 C15.7793918,2.90467972 16.3466228,2.93240926 16.7071068,3.29289322 C17.0976311,3.68341751 17.0976311,4.31658249 16.7071068,4.70710678 L16.7071068,4.70710678 L16.2071068,5.20710678 L16.1128994,5.29029539 C15.7206082,5.59532028 15.1533772,5.56759074 14.7928932,5.20710678 C14.4023689,4.81658249 14.4023689,4.18341751 14.7928932,3.79289322 L14.7928932,3.79289322 L15.2928932,3.29289322 Z M10,1 C10.5522847,1 11,1.44771525 11,2 L11,3 C11,3.55228475 10.5522847,4 10,4 C9.44771525,4 9,3.55228475 9,3 L9,2 C9,1.44771525 9.44771525,1 10,1 Z"/>
    <circle cx="10" cy="10" r="4" fill="#000"/>
  </g>
</svg>
