<?xml version="1.0" encoding="UTF-8" standalone="no"?>
<svg width="20px" height="20px" viewBox="0 0 20 20" version="1.1" xmlns="http://www.w3.org/2000/svg" xmlns:xlink="http://www.w3.org/1999/xlink">
    <!-- Generator: Sketch 3.6.1 (26313) - http://www.bohemiancoding.com/sketch -->
    <title>diamond</title>
    <desc>Created with Sketch.</desc>
    <defs></defs>
    <g id="Page-3" stroke="none" stroke-width="1" fill="none" fill-rule="evenodd">
        <g id="Icons" transform="translate(-307.000000, -106.000000)" fill="#000000">
            <path d="M326,114 L321,114 L318,122 L326,114 Z M308,114 L313,114 L316,122 L308,114 Z M317,108 L321,114 L313,114 L317,108 Z" id="Combined-Shape" opacity="0.15"></path>
            <path d="M309.118653,114.70444 L309.118653,114.70444 L316.29556,121.881347 C316.683942,122.269728 317.315879,122.269908 317.70444,121.881347 L324.881347,114.70444 C325.294886,114.2909 325.329231,113.557127 324.95713,113.110607 L321.875205,109.412296 C321.706382,109.209708 321.259835,109 321.004602,109 L312.995398,109 C312.749223,109 312.288087,109.216346 312.124795,109.412296 L309.04287,113.110607 C308.672025,113.55562 308.705753,114.291539 309.118653,114.70444 L309.118653,114.70444 Z M308.411546,115.411546 C307.631971,114.631971 307.573564,113.311724 308.274648,112.470422 L311.356573,108.772112 C311.711928,108.345686 312.455664,108 312.995398,108 L321.004602,108 C321.554345,108 322.283148,108.339777 322.643427,108.772112 L325.725352,112.470422 C326.429321,113.315185 326.366869,114.633131 325.588454,115.411546 L318.411546,122.588454 C317.631971,123.368029 316.366869,123.366869 315.588454,122.588454 L308.411546,115.411546 L308.411546,115.411546 Z" id="Rectangle-1339"></path>
            <path d="M317,122.511523 C316.995371,122.709609 316.872448,122.894332 316.675562,122.968165 C316.417002,123.065125 316.128795,122.934122 316.031835,122.675562 L312.031835,113.675562 C311.934875,113.417002 312.065878,113.128795 312.324438,113.031835 C312.582998,112.934875 312.871205,113.065878 312.968165,113.324438 L316.968165,122.324438 C316.988417,122.378445 316.998724,122.433746 317,122.488327 C317.001276,122.433746 317.011583,122.378445 317.031835,122.324438 L321.031835,113.324438 C321.128795,113.065878 321.417002,112.934875 321.675562,113.031835 C321.934122,113.128795 322.065125,113.417002 321.968165,113.675562 L317.968165,122.675562 C317.871205,122.934122 317.582998,123.065125 317.324438,122.968165 C317.127552,122.894332 317.004629,122.709609 317,122.511523 Z" id="Combined-Shape"></path>
            <path d="M308.5625,114 L325.4375,114 L326,114 L326,113 L325.4375,113 L308.5625,113 L308,113 L308,114 L308.5625,114 L308.5625,114 Z" id="Line"></path>
            <path d="M317,108.505819 C316.998889,108.608428 316.966288,108.711616 316.9,108.8 L312.9,113.8 C312.734315,114.020914 312.420914,114.065685 312.2,113.9 C311.979086,113.734315 311.934315,113.420914 312.1,113.2 L316.1,108.2 C316.265685,107.979086 316.579086,107.934315 316.8,108.1 C316.929408,108.197056 316.998374,108.3448 317,108.494949 C317.001626,108.3448 317.070592,108.197056 317.2,108.1 C317.420914,107.934315 317.734315,107.979086 317.9,108.2 L321.9,113.2 C322.065685,113.420914 322.020914,113.734315 321.8,113.9 C321.579086,114.065685 321.265685,114.020914 321.1,113.8 L317.1,108.8 C317.033712,108.711616 317.001111,108.608428 317,108.505819 Z" id="Combined-Shape"></path>
        </g>
    </g>
</svg>