<svg xmlns="http://www.w3.org/2000/svg" width="20" height="20" viewBox="0 0 20 20">
  <path d="M10,17 L10,17 C13.865993,17 17,13.8659932 17,10 C17,6.1340068 13.865993,3 10,3 C6.134007,3 3,6.1340068 3,10 C3,13.8659932 6.134007,17 10,17 L10,17 Z M10,18 L10,18 C5.581722,18 2,14.418278 2,10 C2,5.581722 5.581722,2 10,2 C14.418278,2 18,5.581722 18,10 C18,14.418278 14.418278,18 10,18 L10,18 Z M6.3125,13 L10.6875,13 L11,13 L11,12 L10.6875,12 L6.3125,12 L6,12 L6,13 L6.3125,13 Z M7.333332,9 L12.666668,9 L14,9 L14,8 L12.666668,8 L7.333332,8 L6,8 L6,9 L7.333332,9 Z M7.333332,11 L12.666668,11 L14,11 L14,10 L12.666668,10 L7.333332,10 L6,10 L6,11 L7.333332,11 Z"/>
</svg>
