<?xml version="1.0" encoding="UTF-8"?>
<svg width="20px" height="20px" viewBox="0 0 20 20" version="1.1" xmlns="http://www.w3.org/2000/svg" xmlns:xlink="http://www.w3.org/1999/xlink">
    <!-- Generator: Sketch 39.1 (31720) - http://www.bohemiancoding.com/sketch -->
    <title>dropbox</title>
    <desc>Created with Sketch.</desc>
    <defs></defs>
    <g id="Page-1" stroke="none" stroke-width="1" fill="none" fill-rule="evenodd">
        <path d="M19,4.4846875 L13.7051875,1 L10,4.11723438 L15.3386875,7.43964063 L19,4.4846875 L19,4.4846875 Z M10.0108281,11.4331094 L6.29495312,14.5412031 L4.70476563,13.4945313 L4.70476563,14.667625 L10.0108281,17.875 L15.3168906,14.667625 L15.3168906,13.4945313 L13.7267031,14.5412031 L10.0108281,11.4331094 L10.0108281,11.4331094 Z M6.29495313,1 L1.00014063,4.48454687 L4.66145312,7.43964063 L10.0001406,4.11723437 L6.29495313,1 L6.29495313,1 Z M10,10.7624688 L6.2948125,13.8797031 L1,10.3950156 L4.6613125,7.43992188 L10,10.7624688 L15.3385469,7.4395 L18.9998594,10.3951562 L13.7050469,13.8797031 L10,10.7624688 L10,10.7624688 L10,10.7624688 Z" id="Dropbox_1_" fill="#000000"></path>
    </g>
</svg>