<?xml version="1.0" encoding="UTF-8" standalone="no"?>
<svg width="20px" height="20px" viewBox="0 0 20 20" version="1.1" xmlns="http://www.w3.org/2000/svg" xmlns:xlink="http://www.w3.org/1999/xlink">
    <!-- Generator: Sketch 3.8.3 (29802) - http://www.bohemiancoding.com/sketch -->
    <title>export_active</title>
    <desc>Created with Sketch.</desc>
    <defs></defs>
    <g id="Page-3" stroke="none" stroke-width="1" fill="none" fill-rule="evenodd">
        <g id="Artboard-10" transform="translate(-344.000000, -10.000000)" fill="#000000">
            <path d="M353,22.9251067 L353,16 L354,16 L354,22.9247191 L355.672852,21 L357,21 L353.5,25 L350,21 L351.325684,21 L353,22.9251067 Z M360.25,18.25 L360.25,19.5 C362.3175,19.5 364,21.1825 364,23.25 C364,25.3175 362.3175,27 360.25,27 L349,27 C346.2425,27 344,24.7575 344,22 C344,19.63625 345.65375,17.66125 347.8625,17.1425 C348.3875,14.225 350.9325,12 354,12 C357.44625,12 360.25,14.80375 360.25,18.25 Z" id="Combined-Shape"></path>
        </g>
    </g>
</svg>