<svg xmlns="http://www.w3.org/2000/svg" width="20" height="20" viewBox="0 0 20 20">
  <g fill="none" fill-rule="evenodd">
    <path fill="#000" fill-rule="nonzero" d="M8,1 C7.48716416,1 7.06449284,1.38604019 7.00672773,1.88337887 L7,2 L7,5 L2,5 C1.48716416,5 1.06449284,5.38604019 1.00672773,5.88337887 L1,6 L1,9 L2.03672752,9.00067468 L2.22283965,9.00819622 C3.78446558,9.12340873 5,10.4263275 5,12 C5,13.5976809 3.75108004,14.9036609 2.17627279,14.9949073 L2,15 L1,15 L1,18 C1,18.5128358 1.38604019,18.9355072 1.88337887,18.9932723 L2,19 L5,19 L5.00067468,17.9632725 L5.00819622,17.7771604 C5.12340873,16.2155344 6.42632753,15 8,15 C9.59768088,15 10.9036609,16.24892 10.9949073,17.8237272 L11,18 L11,19 L14,19 C14.5128358,19 14.9355072,18.6139598 14.9932723,18.1166211 L15,18 L15,13 L18,13 C18.5522847,13 19,12.5522847 19,12 C19,11.4871642 18.6139598,11.0644928 18.1166211,11.0067277 L18,11 L15,11 L15,6 C15,5.48716416 14.6139598,5.06449284 14.1166211,5.00672773 L14,5 L9,5 L9,2 C9,1.44771525 8.55228475,1 8,1 Z" opacity=".1"/>
    <path fill="#000" fill-rule="nonzero" d="M8,0 C9.1045695,0 10,0.8954305 10,2 L10,4 L14,4 C15.1045695,4 16,4.8954305 16,6 L16,10 L18,10 C19.1045695,10 20,10.8954305 20,12 C20,13.1045695 19.1045695,14 18,14 L16,14 L16,18 C16,19.1045695 15.1045695,20 14,20 L10,20 L10,18 C10,16.8954305 9.1045695,16 8,16 C6.9456382,16 6.08183488,16.8158778 6.00548574,17.8507377 L6,18 L6,20 L2,20 C0.8954305,20 0,19.1045695 0,18 L0,14 L2,14 C3.1045695,14 4,13.1045695 4,12 C4,10.9456382 3.18412221,10.0818349 2.14926234,10.0054857 L2,10 L0,10 L0,6 C0,4.8954305 0.8954305,4 2,4 L6,4 L6,2 C6,0.8954305 6.8954305,0 8,0 Z M8,1 C7.48716416,1 7.06449284,1.38604019 7.00672773,1.88337887 L7,2 L7,5 L2,5 C1.48716416,5 1.06449284,5.38604019 1.00672773,5.88337887 L1,6 L1,9 L2.03672752,9.00067468 L2.22283965,9.00819622 C3.78446558,9.12340873 5,10.4263275 5,12 C5,13.5976809 3.75108004,14.9036609 2.17627279,14.9949073 L2,15 L1,15 L1,18 C1,18.5128358 1.38604019,18.9355072 1.88337887,18.9932723 L2,19 L5,19 L5.00067468,17.9632725 L5.00819622,17.7771604 C5.12340873,16.2155344 6.42632753,15 8,15 C9.59768088,15 10.9036609,16.24892 10.9949073,17.8237272 L11,18 L11,19 L14,19 C14.5128358,19 14.9355072,18.6139598 14.9932723,18.1166211 L15,18 L15,13 L18,13 C18.5522847,13 19,12.5522847 19,12 C19,11.4871642 18.6139598,11.0644928 18.1166211,11.0067277 L18,11 L15,11 L15,6 C15,5.48716416 14.6139598,5.06449284 14.1166211,5.00672773 L14,5 L9,5 L9,2 C9,1.44771525 8.55228475,1 8,1 Z"/>
  </g>
</svg>
