<?xml version="1.0" encoding="UTF-8" standalone="no"?>
<svg width="20px" height="20px" viewBox="0 0 20 20" version="1.1" xmlns="http://www.w3.org/2000/svg" xmlns:xlink="http://www.w3.org/1999/xlink">
    <!-- Generator: Sketch 3.8.3 (29802) - http://www.bohemiancoding.com/sketch -->
    <title>extension</title>
    <desc>Created with Sketch.</desc>
    <defs></defs>
    <g id="Page-3" stroke="none" stroke-width="1" fill="none" fill-rule="evenodd">
        <g id="Artboard-10" transform="translate(-164.000000, -10.000000)" fill="#000000">
            <rect id="Rectangle-1361" opacity="0.119999997" x="178" y="17" width="4" height="10"></rect>
            <path d="M165,13.0008717 C165,12.4481055 165.444946,12 165.993398,12 L182.006602,12 C182.555241,12 183,12.4446309 183,13.0008717 L183,26.9991283 C183,27.5518945 182.555054,28 182.006602,28 L165.993398,28 C165.444759,28 165,27.5553691 165,26.9991283 L165,13.0008717 Z M166,13 L182,13 L182,27 L166,27 L166,13 Z M166,16 L182,16 L182,17 L166,17 L166,16 Z M177,17 L178,17 L178,27 L177,27 L177,17 Z M167,14 L168,14 L168,15 L167,15 L167,14 Z M169,14 L170,14 L170,15 L169,15 L169,14 Z M171,14 L172,14 L172,15 L171,15 L171,14 Z" id="Combined-Shape"></path>
        </g>
    </g>
</svg>