<?xml version="1.0" encoding="UTF-8" standalone="no"?>
<svg width="20px" height="20px" viewBox="0 0 20 20" version="1.1" xmlns="http://www.w3.org/2000/svg" xmlns:xlink="http://www.w3.org/1999/xlink">
    <!-- Generator: Sketch 3.8.1 (29687) - http://www.bohemiancoding.com/sketch -->
    <title>extension_active</title>
    <desc>Created with Sketch.</desc>
    <defs></defs>
    <g id="Page-3" stroke="none" stroke-width="1" fill="none" fill-rule="evenodd">
        <g id="Artboard-10" transform="translate(-164.000000, -40.000000)" fill="#000000">
            <path d="M165,43.0008717 C165,42.4481055 165.444946,42 165.993398,42 L182.006602,42 C182.555241,42 183,42.4446309 183,43.0008717 L183,56.9991283 C183,57.5518945 182.555054,58 182.006602,58 L165.993398,58 C165.444759,58 165,57.5553691 165,56.9991283 L165,43.0008717 Z M165,47 L183,47 L183,48 L165,48 L165,47 Z M177,48 L178,48 L178,58 L177,58 L177,48 Z M167,44 L168,44 L168,45 L167,45 L167,44 Z M169,44 L170,44 L170,45 L169,45 L169,44 Z M171,44 L172,44 L172,45 L171,45 L171,44 Z" id="Combined-Shape-Copy"></path>
        </g>
    </g>
</svg>