<svg xmlns="http://www.w3.org/2000/svg" width="20" height="20" viewBox="0 0 20 20">
  <path fill="#000000" fill-rule="evenodd" d="M137,86.5 L137,80.5 C137,80.2238576 137.223858,80 137.5,80 C137.776142,80 138,80.2238576 138,80.5 L138,85.2928932 C137.74834,86.9389806 137.804738,86.9023689 137.853553,86.8535534 L138.707107,86 L138,86 L138,85.2928932 L142.146447,81.1464466 C142.341709,80.9511845 142.658291,80.9511845 142.853553,81.1464466 C143.048816,81.3417088 143.048816,81.6582912 142.853553,81.8535534 L138.707107,86 Z M137.085392,86.7795548 C137.139304,86.8593553 137.215649,86.9227555 137.305377,86.9607075 C137.341944,86.9755923 137.372987,86.9847452 137.404503,86.9908471 C137.434184,86.9967471 137.466712,87 137.5,87 L143.5,87 C143.776142,87 144,86.7761424 144,86.5 C144,86.2238576 143.776142,86 143.5,86 L138.707107,86 Z M149,75.7071068 L149,80.5 C149,80.7761424 149.223858,81 149.5,81 C149.776142,81 150,80.7761424 150,80.5 L150,74.5 C150,74.3619288 149.944036,74.2369288 149.853553,74.1464466 C149.763071,74.0559644 149.638071,74 149.5,74 L143.5,74 C143.223858,74 143,74.2238576 143,74.5 C143,74.7761424 143.223858,75 143.5,75 L148.292893,75 L144.146447,79.1464466 C143.951184,79.3417088 143.951184,79.6582912 144.146447,79.8535534 C144.341709,80.0488155 144.658291,80.0488155 144.853553,79.8535534 L149,75.7071068 Z M134,71.9947712 C134,71.4453742 134.450925,71 134.994771,71 L152.005229,71 C152.554626,71 153,71.4509254 153,71.9947712 L153,89.0052288 C153,89.5546258 152.549075,90 152.005229,90 L134.994771,90 C134.445374,90 134,89.5490746 134,89.0052288 L134,71.9947712 Z" transform="translate(-134 -70)"/>
</svg>
