<svg xmlns="http://www.w3.org/2000/svg" width="20" height="20" viewBox="0 0 20 20">
  <path d="M9.99999853,1 C5.02749978,1 0.999998528,5.02749993 0.999998528,10 C0.9979063,13.8748675 3.47761116,17.3155577 7.15419974,18.5391997 C7.60419973,18.6174997 7.77249973,18.3474997 7.77249973,18.1107997 C7.77249973,17.8974997 7.76079973,17.1891997 7.76079973,16.4349997 C5.49999853,16.8516997 4.91499978,15.8841997 4.73499979,15.3774997 C4.63329979,15.1182997 4.1949998,14.3199998 3.8124998,14.1057998 C3.49749981,13.9374998 3.04749982,13.5207998 3.8007998,13.5099998 C4.50999979,13.4982998 5.01579978,14.1624998 5.18499978,14.4324998 C5.99499976,15.7932997 7.28919974,15.4107997 7.80579973,15.1749997 C7.88499973,14.5899998 8.12079972,14.1966998 8.37999972,13.9716998 C6.37749976,13.7466998 4.28499979,12.9699998 4.28499979,9.52749985 C4.28499979,8.54829986 4.63329979,7.73919988 5.20749978,7.10829989 C5.11749978,6.88329989 4.80249978,5.96079991 5.29749978,4.72329993 C5.29749978,4.72329993 6.05079976,4.48749994 7.77249973,5.64669992 C8.5051563,5.44335456 9.26214927,5.34100911 10.0224997,5.34249992 C10.7874997,5.34249992 11.5524997,5.44329992 12.2724996,5.64579992 C13.9932996,4.47579994 14.7474996,4.72419993 14.7474996,4.72419993 C15.2424996,5.96169991 14.9274996,6.88419989 14.8374996,7.10919989 C15.4107996,7.73919988 15.7599996,8.53749986 15.7599996,9.52749985 C15.7599996,12.9816998 13.6566996,13.7466998 11.6541997,13.9716998 C11.9799997,14.2524998 12.2616996,14.7924998 12.2616996,15.6366997 C12.2616996,16.8399997 12.2499996,17.8074997 12.2499996,18.1116997 C12.2499996,18.3474997 12.4191996,18.6282997 12.8691996,18.5382997 C16.5324103,17.3014945 18.9989525,13.8663674 18.9999985,10 C18.9999985,5.02749993 14.9724996,1 9.99999853,1 Z"/>
</svg>
