<svg xmlns="http://www.w3.org/2000/svg" width="20" height="20" viewBox="0 0 20 20">
  <g fill="none" fill-rule="evenodd">
    <path fill="#000" fill-rule="nonzero" d="M14.9497475,3.97317537 C16.230924,5.20618734 16.9116574,6.79824171 16.9919478,8.412797 C18.7615204,9.1813466 20,10.9460421 20,13 C20,15.6887547 17.8776933,17.8818181 15.2168896,17.9953805 L15,18 L5,18 C2.23857625,18 0,15.7614237 0,13 C0,10.9460421 1.2384796,9.1813466 3.0094073,8.41194502 C3.0883426,6.79824171 3.76907603,5.20618734 5.05025253,3.97317537 C7.78392257,1.34227488 12.2160774,1.34227488 14.9497475,3.97317537 Z M10.4229125,3.0146736 L10.2968777,3.00698433 L10.2968777,3.00698433 L9.90978324,3.00066448 L9.90978324,3.00066448 L9.54560794,3.01688703 L9.54560794,3.01688703 L9.51411618,3.01938899 C8.13855544,3.12488422 6.7936383,3.68321563 5.74368597,4.69369606 C4.75200614,5.64809469 4.18332201,6.85243504 4.03763357,8.09349452 L4.0689803,8.08726234 C4.03869811,8.28567346 4.01813426,8.48728138 4.00778972,8.69158513 L4,9 L4.0022534,9.1254382 C3.65690273,9.21410958 3.32957956,9.34773664 3.02689144,9.51971184 L2.98112341,9.54611726 C2.91345895,9.58575418 2.84706325,9.62732264 2.78201196,9.67074697 C2.670195,9.74536982 2.56219024,9.82562056 2.45850333,9.91103299 L2.25560059,10.0899558 L2.25560059,10.0899558 L2.09244453,10.252965 L2.09244453,10.252965 L1.97989283,10.3771318 L1.97989283,10.3771318 L1.85674931,10.5258701 L1.85674931,10.5258701 L1.70642653,10.729469 L1.70642653,10.729469 L1.5948237,10.9001841 L1.5948237,10.9001841 L1.4624867,11.1312 L1.4624867,11.1312 L1.41542521,11.2229476 L1.41542521,11.2229476 L1.33951588,11.3847932 L1.33951588,11.3847932 L1.28482079,11.5147535 L1.28482079,11.5147535 C1.24126517,11.6236128 1.20238461,11.734736 1.16838652,11.8479715 L1.12674771,11.9971704 L1.12674771,11.9971704 L1.08192975,12.1906243 L1.08192975,12.1906243 L1.03967737,12.4344086 L1.03967737,12.4344086 L1.0106478,12.7058798 L1.0106478,12.7058798 L1.00520861,12.7940848 L1,13 L1.00489531,13.1996403 L1.00489531,13.1996403 L1.03056296,13.4969114 L1.03056296,13.4969114 C1.06356961,13.7633675 1.12281254,14.0217726 1.20562225,14.2694047 L1.31493367,14.5583838 L1.39998569,14.7456229 L1.39998569,14.7456229 L1.49356312,14.9263588 L1.49356312,14.9263588 L1.60253464,15.112243 L1.60253464,15.112243 L1.74196679,15.3211477 L1.74196679,15.3211477 L1.85694003,15.4743693 L1.85694003,15.4743693 L1.94484939,15.5820028 L1.94484939,15.5820028 L2.13492198,15.7912981 L2.13492198,15.7912981 L2.30053593,15.9517947 L2.30053593,15.9517947 L2.45256489,16.0840642 L2.45256489,16.0840642 L2.63225825,16.2242714 L2.63225825,16.2242714 L2.77748408,16.326226 L2.77748408,16.326226 L3.02366355,16.4784522 L3.02366355,16.4784522 L3.18285277,16.5643763 L3.18285277,16.5643763 L3.33957888,16.6401654 L3.33957888,16.6401654 L3.46799947,16.6961256 L3.46799947,16.6961256 L3.62232144,16.756419 L3.62232144,16.756419 L3.82619886,16.8250083 L3.82619886,16.8250083 L4.01827283,16.8786394 L4.01827283,16.8786394 C4.20827657,16.9265781 4.40360968,16.9609138 4.60325304,16.9805715 L4.80035966,16.9951047 L5,17 L14.9787059,17.0002267 L15.1742487,16.99629 L15.3790729,16.9823331 L15.3790729,16.9823331 L15.5729594,16.9593829 L15.5729594,16.9593829 L15.8118172,16.917589 L15.8118172,16.917589 L15.8528796,16.908877 C16.0156132,16.8737574 16.1744528,16.8286083 16.328909,16.7742483 L16.5335575,16.6957631 L16.5335575,16.6957631 L16.7222947,16.6112523 L16.7222947,16.6112523 L16.7580932,16.5939284 C16.9008064,16.524335 17.038921,16.4460183 17.1715965,16.3600598 C17.2522725,16.3075201 17.3313413,16.2521578 17.4082464,16.1940822 C17.7286442,15.9522677 18.011373,15.6631076 18.2462392,15.337326 C18.2977974,15.2658683 18.3434665,15.1980669 18.3870717,15.1288349 C18.4419996,15.0412424 18.4940292,14.9510478 18.5425555,14.8587385 L18.6282299,14.6862991 L18.7304203,14.4459379 L18.7304203,14.4459379 C18.8548533,14.1257068 18.9389773,13.7856788 18.9769605,13.4318392 C18.9921839,13.289765 19,13.1457687 19,13 L18.996978,12.8430671 L18.9856297,12.658534 L18.9856297,12.658534 L18.9577743,12.416678 L18.9577743,12.416678 L18.901107,12.1121035 L18.901107,12.1121035 L18.8419239,11.8828926 L18.8419239,11.8828926 L18.7751355,11.6744533 L18.7751355,11.6744533 L18.6961438,11.4680432 L18.6961438,11.4680432 L18.5931247,11.2402126 L18.5931247,11.2402126 L18.4966163,11.055844 L18.4966163,11.055844 L18.4267499,10.9355019 L18.4267499,10.9355019 C18.3699656,10.8413808 18.3096425,10.7501781 18.2457914,10.6616922 L18.1273638,10.5058471 L18.1273638,10.5058471 L18.0373751,10.3970234 L18.0373751,10.3970234 L17.8860544,10.2303913 L17.8860544,10.2303913 L17.7441415,10.0897125 L17.7441415,10.0897125 L17.5911186,9.95258449 L17.5911186,9.95258449 L17.459091,9.84495452 L17.459091,9.84495452 L17.2333809,9.68096172 L17.2333809,9.68096172 L17.0591099,9.56990213 L17.0591099,9.56990213 L16.9534477,9.5086147 C16.7311396,9.38384818 16.495253,9.27965717 16.2487036,9.19877879 L15.9987079,9.12577266 L16,9 C16,8.68968849 15.976443,8.38487902 15.9310197,8.08726234 L15.9621947,8.09249645 L15.9621947,8.09249645 C15.816678,6.85243504 15.2479939,5.64809469 14.256314,4.69369606 C13.2763585,3.75058099 12.0394559,3.20133796 10.7602232,3.04596698 L10.4229125,3.0146736 L10.4229125,3.0146736 Z"/>
    <path fill="#000" fill-rule="nonzero" d="M14.75,8 C17.5770076,8 19.8821316,10.2344489 19.995621,13.0335954 L20,13.25 L19,13.25 C19,10.9027898 17.0972102,9 14.75,9 C12.4718254,9 10.6123133,10.792507 10.5049009,13.0440837 L10.5,13.25 L10.5,13.25 C10.5,13.5261424 10.2761424,13.75 10,13.75 C9.72385763,13.75 9.5,13.5261424 9.5,13.25 C9.5,10.9027898 7.59721019,9 5.25,9 C2.90278981,9 1,10.9027898 1,13.25 C1,13.5261424 0.776142375,13.75 0.5,13.75 C0.223857625,13.75 0,13.5261424 0,13.25 C0,10.3505051 2.35050506,8 5.25,8 C7.34854929,8 9.15951905,9.23127434 9.99989719,11.0108109 C10.840481,9.23127434 12.6514507,8 14.75,8 Z" opacity=".2"/>
  </g>
</svg>
