<svg xmlns="http://www.w3.org/2000/svg" width="20" height="20" viewBox="0 0 20 20">
  <g fill="none" fill-rule="evenodd">
    <path fill="#000" d="M10,18 C5.58293838,18 2,14.4170616 2,10 C2,5.58293838 5.58293838,2 10,2 C14.4170616,2 18,5.58293838 18,10 C18,14.4170616 14.4170616,18 10,18 L10,18 Z" opacity=".1"/>
    <path fill="#000" fill-rule="nonzero" d="M19,10 C19,5.02631579 14.9736842,1 10,1 C5.02631579,1 1,5.02631579 1,10 C1,14.9736842 5.02631579,19 10,19 C14.9736842,19 19,14.9736842 19,10 Z M9.99999948,17.939999 C5.61606612,17.939999 2.06,14.3839328 2.06,9.99999948 C2.06,5.61606612 5.61606612,2.06 9.99999948,2.06 C14.3839328,2.06 17.939999,5.61606612 17.939999,9.99999948 C17.939999,14.3839328 14.3839328,17.939999 9.99999948,17.939999 L9.99999948,17.939999 Z"/>
    <path fill="#000" fill-rule="nonzero" d="M10,14 C10.5522847,14 11,14.4477153 11,15 C11,15.5522847 10.5522847,16 10,16 C9.44771525,16 9,15.5522847 9,15 C9,14.4477153 9.44771525,14 10,14 Z M10.1285385,4 C11.8537692,4 13.2570769,5.40376923 13.2570769,7.12923077 C13.2570769,8.69753846 12.0972308,9.99976923 10.5900769,10.2236154 L10.5900769,12.0473846 C10.5900769,12.3021538 10.3833077,12.5089231 10.1285385,12.5089231 C9.87376923,12.5089231 9.667,12.3021538 9.667,12.0473846 L9.667,9.796 C9.667,9.54123077 9.87376923,9.33446154 10.1285385,9.33446154 C11.3446923,9.33446154 12.334,8.34538462 12.334,7.12923077 C12.334,5.91284615 11.3446923,4.92307692 10.1285385,4.92307692 C8.91238462,4.92307692 7.92307692,5.91284615 7.92307692,7.12923077 C7.92307692,7.384 7.71630769,7.59076923 7.46153846,7.59076923 C7.20676923,7.59076923 7,7.384 7,7.12923077 C7,5.40376923 8.40330769,4 10.1285385,4 Z"/>
  </g>
</svg>
