<?xml version="1.0" encoding="UTF-8" standalone="no"?>
<svg width="20px" height="20px" viewBox="0 0 20 20" version="1.1" xmlns="http://www.w3.org/2000/svg" xmlns:xlink="http://www.w3.org/1999/xlink">
    <!-- Generator: Sketch 3.8.3 (29802) - http://www.bohemiancoding.com/sketch -->
    <title>help</title>
    <desc>Created with Sketch.</desc>
    <defs></defs>
    <g id="Page-3" stroke="none" stroke-width="1" fill="none" fill-rule="evenodd">
        <g id="Icons" transform="translate(-137.000000, -116.000000)" fill="#000000">
            <g id="Group-Copy-2" transform="translate(137.000000, 116.000000)">
                <path d="M20,10 C20,4.47368421 15.5263158,0 10,0 C4.47368421,0 0,4.47368421 0,10 C0,15.5263158 4.47368421,20 10,20 C15.5263158,20 20,15.5263158 20,10 Z M9.99999958,18.9399992 C5.06393346,18.9399992 1.06,14.9360657 1.06,9.99999958 C1.06,5.06393346 5.06393346,1.06 9.99999958,1.06 C14.9360657,1.06 18.9399992,5.06393346 18.9399992,9.99999958 C18.9399992,14.9360657 14.9360657,18.9399992 9.99999958,18.9399992 L9.99999958,18.9399992 Z" id="Shape"></path>
                <path d="M10.1285385,12.5089231 C9.87376923,12.5089231 9.667,12.3021538 9.667,12.0473846 L9.667,9.796 C9.667,9.54123077 9.87376923,9.33446154 10.1285385,9.33446154 C11.3446923,9.33446154 12.334,8.34538462 12.334,7.12923077 C12.334,5.91284615 11.3446923,4.92307692 10.1285385,4.92307692 C8.91238462,4.92307692 7.92307692,5.91284615 7.92307692,7.12923077 C7.92307692,7.384 7.71630769,7.59076923 7.46153846,7.59076923 C7.20676923,7.59076923 7,7.384 7,7.12923077 C7,5.40376923 8.40330769,4 10.1285385,4 C11.8537692,4 13.2570769,5.40376923 13.2570769,7.12923077 C13.2570769,8.69753846 12.0972308,9.99976923 10.5900769,10.2236154 L10.5900769,12.0473846 C10.5900769,12.3021538 10.3833077,12.5089231 10.1285385,12.5089231 L10.1285385,12.5089231 Z" id="Shape"></path>
                <ellipse id="Oval" cx="10" cy="15" rx="1" ry="1"></ellipse>
            </g>
        </g>
    </g>
</svg>