<svg xmlns="http://www.w3.org/2000/svg" width="20" height="20" viewBox="0 0 20 20">
  <g fill="none" fill-rule="evenodd">
    <path fill="#000" fill-rule="nonzero" d="M2.71844184,4.05014445 L2.79568183,4.0967975 L17.7956818,15.0967975 C18.0183644,15.2600981 18.0665031,15.5729992 17.9032025,15.7956818 C17.7580464,15.9936219 17.4946874,16.0536507 17.2815582,15.9498555 L17.2043182,15.9032025 L15.428,14.6009663 L15.230066,14.7345279 C13.7226021,15.7077817 11.927605,16.2727273 10,16.2727273 C5.90909091,16.2727273 2.41545455,13.7281818 1,10.1363636 C1.61738527,8.5697039 2.630141,7.20228598 3.9153792,6.15835571 L2.20431817,4.9032025 C1.98163558,4.73990193 1.93349694,4.42700076 2.0967975,4.20431817 C2.24195356,4.00637809 2.50531257,3.94634928 2.71844184,4.05014445 Z M4.753,6.77196634 L4.82803857,6.71424465 C3.69965039,7.55461679 2.7749247,8.66907283 2.15710989,9.97856447 L2.085,10.136 L2.15710989,10.2941628 C3.53283241,13.2100805 6.43035409,15.1589259 9.70968539,15.2679081 L10,15.2727273 C11.6585497,15.2727273 13.2291674,14.8017278 14.5672338,13.9704515 L12.537,12.4799663 L12.4595664,12.5640893 C11.8335332,13.1983044 10.9633463,13.5909091 10,13.5909091 C8.08953343,13.5909091 6.54545455,12.0468302 6.54545455,10.1363636 C6.54545455,9.51135007 6.71071521,8.92555048 7.00000007,8.42020133 L4.753,6.77196634 Z M10,4 C14.0909091,4 17.5845455,6.54454545 19,10.1363636 C18.5486081,11.2818032 17.8858677,12.3207365 17.0598075,13.2046038 L16.2484376,12.6091407 C16.8938008,11.9375665 17.4351762,11.1583342 17.8428901,10.2941628 L17.914,10.136 L17.8428901,9.97856447 C16.4671676,7.06264678 13.5696459,5.1138014 10.2903146,5.00481914 L10,5 C8.85559886,5 7.75306225,5.22424356 6.7398992,5.63635715 L5.81024556,4.95425396 C7.07756605,4.34275913 8.49855567,4 10,4 Z M7.815,9.01796634 L7.85776103,8.93518904 C7.65880427,9.29001684 7.54545455,9.69965594 7.54545455,10.1363636 C7.54545455,11.4945455 8.64181818,12.5909091 10,12.5909091 C10.6728882,12.5909091 11.2815121,12.3218023 11.7243859,11.8850745 L7.815,9.01796634 Z M10,6.68181818 C11.9104666,6.68181818 13.4545455,8.22589707 13.4545455,10.1363636 C13.4545455,10.2737649 13.4465587,10.4092711 13.4310232,10.542444 L12.4332591,9.81078119 C12.2745678,8.60717921 11.2477748,7.68181818 10,7.68181818 C9.85652028,7.68181818 9.71596246,7.69405363 9.57931043,7.71754063 L8.57904677,6.98575816 C9.01226647,6.79045788 9.49324392,6.68181818 10,6.68181818 Z"/>
    <path fill="#000" fill-rule="nonzero" d="M4.38600894,5.79931627 L4.45605469,6.12329102 L7.99410882,8.71924629 C7.7113849,9.11923572 7.54545455,9.6079871 7.54545455,10.1363636 C7.54545455,11.4945455 8.64181818,12.5909091 10,12.5909091 C10.7980174,12.5909091 11.5056473,12.2124111 11.9536065,11.6246982 L15.7244341,14.3931814 C14.122111,15.5744673 12.1430056,16.2727273 10,16.2727273 C5.90909091,16.2727273 2.41545455,13.7281818 1,10.1363636 C1.69091989,8.3831045 2.8770015,6.87937569 4.38600894,5.79931627 Z M19,10.1363636 C18.8098343,10.6189229 18.5821577,11.0825792 18.3205616,11.5237015 L18.5362356,9.1322632 C18.7091005,9.45642998 18.8641252,9.79157161 19,10.1363636 Z" opacity=".1"/>
  </g>
</svg>
