<svg xmlns="http://www.w3.org/2000/svg" width="20" height="20" viewBox="0 0 20 20"><g fill="none" fill-rule="evenodd"><polygon fill="#000" points="11.619 4.313 14.077 2 18 6.041 15.636 8.502" opacity=".3"/><rect width="14" height="1" x="4" y="17" fill="#000" opacity=".5" rx=".5"/><path fill="#000" fill-rule="nonzero" d="M14.7071068,1.70710678 L18.2928932,5.29289322 C18.6834175,5.68341751 18.6834175,6.31658249 18.2928932,6.70710678 L7.29289322,17.7071068 C7.10535684,17.8946432 6.85100293,18 6.58578644,18 L3,18 C2.44771525,18 2,17.5522847 2,17 L2,13.4142136 C2,13.1489971 2.10535684,12.8946432 2.29289322,12.7071068 L13.2928932,1.70710678 C13.6834175,1.31658249 14.3165825,1.31658249 14.7071068,1.70710678 Z M11.353,5.06121356 L3,13.4142136 L3,17 L6.58578644,17 L14.937,8.64721356 L11.353,5.06121356 Z M14,2.41421356 L12.06,4.35421356 L15.644,7.94021356 L17.5857864,6 L14,2.41421356 Z"/></g></svg>