<svg xmlns="http://www.w3.org/2000/svg" width="20" height="20" viewBox="0 0 20 20">
  <path d="M15,12 C16.6568542,12 18,13.3431458 18,15 C18,16.6568542 16.6568542,18 15,18 C13.3431458,18 12,16.6568542 12,15 L12,13 L8,13 L8,15 C8,16.6568542 6.65685425,18 5,18 C3.34314575,18 2,16.6568542 2,15 C2,13.3431458 3.34314575,12 5,12 L7,12 L7,8 L5,8 C3.34314575,8 2,6.65685425 2,5 C2,3.34314575 3.34314575,2 5,2 C6.65685425,2 8,3.34314575 8,5 L8,7 L12,7 L12,5 C12,3.34314575 13.3431458,2 15,2 C16.6568542,2 18,3.34314575 18,5 C18,6.65685425 16.6568542,8 15,8 L13,8 L13,12 L15,12 Z M7,13 L5,13 C3.8954305,13 3,13.8954305 3,15 C3,16.1045695 3.8954305,17 5,17 C6.0543618,17 6.91816512,16.1841222 6.99451426,15.1492623 L7,15 L7,13 Z M15,13 L13,13 L13,15 C13,16.1045695 13.8954305,17 15,17 C16.1045695,17 17,16.1045695 17,15 C17,13.9456382 16.1841222,13.0818349 15.1492623,13.0054857 L15,13 Z M5,3 C3.8954305,3 3,3.8954305 3,5 C3,6.0543618 3.81587779,6.91816512 4.85073766,6.99451426 L5,7 L7,7 L7,5 C7,3.99835629 6.26367029,3.16869161 5.30277435,3.0227694 L5.14926234,3.00548574 L5,3 Z M15,3 C13.9456382,3 13.0818349,3.81587779 13.0054857,4.85073766 L13,5 L13,7 L15,7 C16.0543618,7 16.9181651,6.18412221 16.9945143,5.14926234 L17,5 C17,3.8954305 16.1045695,3 15,3 Z M12,8 L8,8 L8,12 L12,12 L12,8 Z"/>
</svg>
