<?xml version="1.0" encoding="UTF-8"?>
<svg width="512px" height="512px" viewBox="0 0 512 512" version="1.1" xmlns="http://www.w3.org/2000/svg" xmlns:xlink="http://www.w3.org/1999/xlink">
    <!-- Generator: Sketch 39.1 (31720) - http://www.bohemiancoding.com/sketch -->
    <title>Combined Shape</title>
    <desc>Created with Sketch.</desc>
    <defs></defs>
    <g id="Page-1" stroke="none" stroke-width="1" fill="none" fill-rule="evenodd">
        <path d="M0,40.0024704 C0,17.9097161 17.9034513,0 40.0024704,0 L471.99753,0 C494.090284,0 512,17.9034513 512,40.0024704 L512,471.99753 C512,494.090284 494.096549,512 471.99753,512 L40.0024704,512 C17.9097161,512 0,494.096549 0,471.99753 L0,40.0024704 Z M340.44444,435.33889 C317.22222,433.66689 302.16578,430.192 295.29622,424.88045 C288.42666,419.59423 284.98978,405.86356 284.98978,383.74754 L284.98978,128.26089 C284.98978,107.13289 288.42666,93.53733 295.29622,87.45733 C302.16578,81.37733 317.22222,77.77578 340.44444,76.65267 L340.44444,66 L171.55556,66 L171.55556,76.65267 C194.77778,77.77578 209.82578,81.38156 216.71222,87.45733 C223.586,93.53311 227.01867,107.13289 227.01867,128.26089 L227.01867,383.74754 C227.01867,405.86356 223.586,419.59423 216.71222,424.88045 C209.82578,430.192 194.77778,433.66267 171.55556,435.33889 L171.55556,446 L340.44444,446 L340.44444,435.33889 Z" id="Combined-Shape" fill="#000000"></path>
    </g>
</svg>