<?xml version="1.0" encoding="UTF-8"?>
<svg width="38px" height="38px" viewBox="0 0 38 38" version="1.1" xmlns="http://www.w3.org/2000/svg" xmlns:xlink="http://www.w3.org/1999/xlink">
    <!-- Generator: Sketch 39.1 (31720) - http://www.bohemiancoding.com/sketch -->
    <title>Readability</title>
    <desc>Created with Sketch.</desc>
    <defs></defs>
    <g id="Page-1" stroke="none" stroke-width="1" fill="none" fill-rule="evenodd">
        <path d="M8.89274752,18.589245 C8.65432376,16.2256717 6.76068895,14.3846154 4.45955584,14.3846154 C1.99679894,14.3846154 0,16.4927619 0,19.093684 C0,21.6502854 1.93031539,23.7298567 4.33518576,23.7992535 C4.8160452,25.2315102 7.20830662,30.2065026 7.20830662,30.5114987 L7.20830662,33.355018 C7.20830662,33.7113326 7.48169155,34 7.81869436,34 L9.77365456,34 C10.1112305,34 10.3846154,33.7113326 10.3846154,33.355018 L8.91853855,18.6423132 C8.91853855,18.6166539 8.90822214,18.6009084 8.89274752,18.589245 L8.89274752,18.589245 L8.89274752,18.589245 Z M10.3846154,23.848358 L11.1763625,29.3846154 L25.7792881,29.3840625 L26.5384616,23.9163588 C21.7575073,20.4720924 15.1340469,20.4273114 10.3846154,23.848358 L10.3846154,23.848358 L10.3846154,23.848358 Z M32.4640943,14.3846154 C30.162388,14.3846154 28.2687532,16.2259811 28.0303294,18.5897863 C28.0148548,18.6008648 28.0045384,18.6166079 28.0045384,18.6422634 L26.5384616,33.3551138 C26.5384616,33.7113755 26.8124196,34 27.1494224,34 L29.1043826,34 C29.4419585,34 29.7153435,33.7113755 29.7153435,33.3551138 L29.7153435,30.5120172 C29.7153435,30.2070665 32.1070318,25.2316473 32.5878912,23.7996035 C34.9933347,23.730217 36.923077,21.6503717 36.923077,19.0935671 C36.923077,16.4936147 34.9268512,14.3846154 32.4640943,14.3846154 L32.4640943,14.3846154 L32.4640943,14.3846154 Z M28.8461539,14.9214489 C28.8461539,14.9214489 28.4522064,4.1657927 18.4549286,4 L18.4549286,4.00811573 C8.56499497,4.25622508 8.07692308,14.8878267 8.07692308,14.8878267 C9.45230229,15.5805619 9.75424056,18.1468705 9.75424056,18.1468705 L10.1243927,22.4615385 C10.8467179,21.8534387 13.6048794,19.7363935 18.5030484,19.6227733 C23.3721341,19.7514655 26.079003,21.8180773 26.7986843,22.4238583 L27.1688364,18.2175933 C27.1688364,18.2170136 27.4707747,15.6141842 28.8461539,14.9214489 L28.8461539,14.9214489 L28.8461539,14.9214489 Z" id="Readability" fill="#000000"></path>
    </g>
</svg>