<svg xmlns="http://www.w3.org/2000/svg" width="20" height="20" viewBox="0 0 20 20">
  <g fill-rule="evenodd" transform="translate(1 2)">
    <polygon points="1 8 6 8 9 11 12 8 17 8 17 15 1 15" opacity=".1"/>
    <path fill-rule="nonzero" d="M16,0 C17.1045695,0 18,0.8954305 18,2 L18,14 C18,15.1045695 17.1045695,16 16,16 L2,16 C0.8954305,16 0,15.1045695 0,14 L0,2 C0,0.8954305 0.8954305,0 2,0 L16,0 Z M1,14 C1,14.5128358 1.38604019,14.9355072 1.88337887,14.9932723 L2,15 L16,15 C16.5128358,15 16.9355072,14.6139598 16.9932723,14.1166211 L17,14 L17,8 L11.981,8 L11.9668887,8.16789842 C11.7832599,9.93117009 10.838544,10.9219718 9.19995675,10.9955789 L9,11 C7.23825099,11 6.22408522,10.001701 6.03311126,8.16789842 L6.018,8 L1,8 L1,14 Z M16,1 L2,1 C1.48716416,1 1.06449284,1.38604019 1.00672773,1.88337887 L1,2 L1,7 L6.5,7 C6.77614237,7 7,7.22385763 7,7.5 C7,9.24196671 7.63169441,10 9,10 C10.3683056,10 11,9.24196671 11,7.5 C11,7.25454011 11.1768752,7.05039163 11.4101244,7.00805567 L11.5,7 L17,7 L17,2 C17,1.48716416 16.6139598,1.06449284 16.1166211,1.00672773 L16,1 Z"/>
  </g>
</svg>
