<svg xmlns="http://www.w3.org/2000/svg" width="20" height="20" viewBox="0 0 20 20">
  <path d="M16,0 C17.1045695,0 18,0.8954305 18,2 L18,14 C18,15.1045695 17.1045695,16 16,16 L2,16 C0.8954305,16 0,15.1045695 0,14 L0,2 C0,0.8954305 0.8954305,0 2,0 L16,0 Z M16,1 L2,1 C1.48716416,1 1.06449284,1.38604019 1.00672773,1.88337887 L1,2 L1,7 L5.5,7 C5.77614237,7 6,7.22385763 6,7.5 C6,9.24196671 7.63169441,10 9,10 C10.3683056,10 12,9.24196671 12,7.5 C12,7.25454011 12.1768752,7.05039163 12.4101244,7.00805567 L12.5,7 L17,7 L17,2 C17,1.48716416 16.6139598,1.06449284 16.1166211,1.00672773 L16,1 Z" transform="translate(1 2)"/>
</svg>
