<svg xmlns="http://www.w3.org/2000/svg" width="20" height="20" viewBox="0 0 20 20"><path d="M10,1 C14.9705627,1 19,5.02943725 19,10 C19,14.9705627 14.9705627,19 10,19 C5.02943725,19 1,14.9705627 1,10 C1,5.02943725 5.02943725,1 10,1 Z M10,2 C5.581722,2 2,5.581722 2,10 C2,14.418278 5.581722,18 10,18 C14.418278,18 18,14.418278 18,10 C18,5.581722 14.418278,2 10,2 Z M11,13 L11,9.990778 C11,9.4509752 10.552285,9 10,9 L9,9 L9,14.009222 C9,14.5490248 9.447715,15 10,15 L11,15 L11,14 L12,14 L12,13 L11,13 Z M8,9 L9,9 L9,10 L8,10 L8,9 Z M9,5 L11,5 L11,7 L9,7 L9,5 Z"/></svg>