<?xml version="1.0" encoding="UTF-8"?>
<svg width="20px" height="20px" viewBox="0 0 20 20" version="1.1" xmlns="http://www.w3.org/2000/svg" xmlns:xlink="http://www.w3.org/1999/xlink">
    <!-- Generator: Sketch 39.1 (31720) - http://www.bohemiancoding.com/sketch -->
    <title>install</title>
    <desc>Created with Sketch.</desc>
    <defs></defs>
    <g id="Page-1" stroke="none" stroke-width="1" fill="none" fill-rule="evenodd">
        <g id="Group" transform="translate(1.000000, 1.000000)" fill="#000000">
            <circle id="Oval" opacity="0.100000001" cx="8.5" cy="8.5" r="3.5"></circle>
            <path d="M7,2.17393184 L7,2.00748397 C7,1.45106594 7.44266033,1 7.99895656,1 L9.0010434,1 C9.5527519,1 10,1.44892021 10,2.00748397 L10,2.17393184 C10.685729,2.3359128 11.3294935,2.60650458 11.912133,2.96654663 L12.0302419,2.84843772 C12.4236889,2.45499075 13.0556488,2.44904709 13.4490096,2.84240793 L14.1575921,3.55099035 C14.5477089,3.94110716 14.5465265,4.57479383 14.1515623,4.96975806 L14.0334534,5.08786697 C14.3934954,5.67050652 14.6640872,6.31427104 14.8260682,7 L14.992516,7 C15.5489341,7 16,7.44266033 16,7.99895656 L16,9.0010434 C16,9.5527519 15.5510798,10 14.992516,10 L14.8260682,10 C14.6640872,10.685729 14.3934954,11.3294935 14.0334534,11.912133 L14.1515623,12.0302419 C14.5450092,12.4236889 14.5509529,13.0556488 14.1575921,13.4490096 L13.4490096,14.1575921 C13.0588928,14.5477089 12.4252062,14.5465265 12.0302419,14.1515623 L11.912133,14.0334534 C11.3294935,14.3934954 10.685729,14.6640872 10,14.8260682 L10,14.992516 C10,15.5489341 9.5573397,16 9.0010434,16 L7.99895656,16 C7.44724809,16 7,15.5510798 7,14.992516 L7,14.8260682 C6.31427104,14.6640872 5.67050652,14.3934954 5.08786697,14.0334534 L4.96975806,14.1515623 C4.5763111,14.5450092 3.94435119,14.5509529 3.55099035,14.1575921 L2.84240793,13.4490096 C2.45229112,13.0588928 2.45347349,12.4252062 2.84843772,12.0302419 L2.96654663,11.912133 C2.60650458,11.3294935 2.3359128,10.685729 2.17393184,10 L2.00748397,10 C1.45106594,10 1,9.5573397 1,9.0010434 L1,7.99895656 C1,7.44724809 1.44892021,7 2.00748397,7 L2.17393184,7 C2.3359128,6.31427104 2.60650458,5.67050652 2.96654663,5.08786697 L2.84843772,4.96975806 C2.45499075,4.5763111 2.44904709,3.94435119 2.84240793,3.55099035 L3.55099035,2.84240793 C3.94110716,2.45229112 4.57479383,2.45347349 4.96975806,2.84843772 L5.08786697,2.96654663 C5.67050652,2.60650458 6.31427104,2.3359128 7,2.17393184 L7,2.17393184 Z M11.8217448,15.2261468 C11.5271836,15.3718958 11.2216754,15.4988648 10.9067848,15.6054893 C10.6504139,16.4140792 9.8937857,17 8.9951185,17 L8.0048815,17 C7.10842726,17 6.34939191,16.4165935 6.09286253,15.6053699 C5.77797774,15.4987298 5.47247602,15.3717456 5.17792208,15.225982 C4.42481602,15.6167149 3.47526242,15.4960777 2.83969401,14.8605093 L2.13949071,14.160306 C1.50548786,13.5263031 1.38136883,12.576826 1.77385318,11.8217448 C1.62810421,11.5271836 1.50113516,11.2216754 1.39451072,10.9067848 C0.5859208,10.6504139 0,9.8937857 0,8.9951185 L0,8.0048815 C0,7.10842726 0.58340648,6.34939191 1.39463014,6.09286253 C1.50127017,5.77797774 1.62825437,5.47247602 1.77401804,5.17792208 C1.3832851,4.42481602 1.5039223,3.47526242 2.13949071,2.83969401 L2.83969401,2.13949071 C3.47369686,1.50548786 4.42317395,1.38136883 5.17825525,1.77385318 C5.47281636,1.62810421 5.77832457,1.50113516 6.09321519,1.39451072 C6.34958608,0.5859208 7.10621429,0 8.0048815,0 L8.9951185,0 C9.8915727,0 10.6506081,0.58340648 10.9071375,1.39463014 C11.2220223,1.50127017 11.527524,1.62825437 11.8220779,1.77401804 C12.575184,1.3832851 13.5247376,1.5039223 14.160306,2.13949071 L14.8605093,2.83969401 C15.4945121,3.47369686 15.6186312,4.42317395 15.2261468,5.17825525 C15.3718958,5.47281636 15.4988648,5.77832457 15.6054893,6.09321519 C16.4140792,6.34958608 17,7.10621429 17,8.0048815 L17,8.9951185 C17,9.8915727 16.4165935,10.6506081 15.6053699,10.9071375 C15.4987298,11.2220223 15.3717456,11.527524 15.225982,11.8220779 C15.6167149,12.575184 15.4960777,13.5247376 14.8605093,14.160306 L14.160306,14.8605093 C13.5263031,15.4945121 12.576826,15.6186312 11.8217448,15.2261468 L11.8217448,15.2261468 Z" id="Combined-Shape"></path>
            <path d="M11,8.5 C11,7.11928813 9.8807119,6 8.5,6 C7.11928813,6 6,7.11928813 6,8.5 C6,9.8807119 7.11928813,11 8.5,11 C9.8807119,11 11,9.8807119 11,8.5 L11,8.5 Z M5,8.5 C5,6.56700338 6.56700338,5 8.5,5 C10.4329966,5 12,6.56700338 12,8.5 C12,10.4329966 10.4329966,12 8.5,12 C6.56700338,12 5,10.4329966 5,8.5 L5,8.5 Z" id="Oval-3"></path>
        </g>
    </g>
</svg>