<svg xmlns="http://www.w3.org/2000/svg" width="20" height="20" viewBox="0 0 20 20">
  <g fill="none" fill-rule="evenodd">
    <path fill="#000" fill-rule="nonzero" d="M9.5,18 C14.1944204,18 18,14.1944203 18,9.5 C18,4.80557974 14.1944204,1 9.5,1 C4.80557965,1 1,4.80557974 1,9.5 C1,14.1944203 4.80557965,18 9.5,18 L9.5,18 Z" opacity=".1"/>
    <polygon fill="#000" fill-rule="nonzero" points="10 12.962 13.679 9 15 9 9.5 15 4 9 5.321 9 9 12.962 9 4 10 4"/>
    <path fill="#000" fill-rule="nonzero" d="M9.5,1 C14.1944204,1 18,4.80557974 18,9.5 C18,14.1944203 14.1944204,18 9.5,18 C4.80557965,18 1,14.1944203 1,9.5 C1,4.80557974 4.80557965,1 9.5,1 Z M9.5,2 C5.35786439,2 2,5.35786447 2,9.5 C2,13.6421355 5.35786439,17 9.5,17 C13.6421356,17 17,13.6421355 17,9.5 C17,5.35786447 13.6421356,2 9.5,2 Z"/>
  </g>
</svg>
