<?xml version="1.0" encoding="UTF-8" standalone="no"?>
<svg width="20px" height="20px" viewBox="0 0 20 20" version="1.1" xmlns="http://www.w3.org/2000/svg" xmlns:xlink="http://www.w3.org/1999/xlink">
    <!-- Generator: Sketch 3.8.3 (29802) - http://www.bohemiancoding.com/sketch -->
    <title>like</title>
    <desc>Created with Sketch.</desc>
    <defs></defs>
    <g id="Page-3" stroke="none" stroke-width="1" fill="none" fill-rule="evenodd">
        <g id="Icons" transform="translate(-250.000000, -16.000000)" fill="#000000">
            <path d="M252,23.9350326 L252,23.9350326 C252,25.9676008 253.305332,28.153847 255.843524,30.2242534 C257.088294,31.2556342 258.606058,32.2266612 259.725359,32.7798793 L259.282272,33.6763579 L259.56962,32.7185316 C259.559216,32.7154104 259.565488,32.7168233 259.578289,32.7191756 C259.61962,32.7267706 259.668391,32.7333707 259.693097,32.7361158 L259.582665,33.7299995 L259.483162,32.7349624 C259.49538,32.7337405 259.529786,32.7291531 259.554179,32.7242743 C259.531072,32.7288958 259.506306,32.7359718 259.44831,32.7650779 C260.543965,32.2361408 262.069206,31.2603303 263.329576,30.2071533 C265.863799,28.1499609 267.165331,25.9749997 267.165331,23.9350326 C267.165331,21.7556344 265.407056,20 263.230298,20 C263.130222,20 262.998691,20.0301592 262.840243,20.0962158 C262.447725,20.259855 261.976527,20.6064067 261.484058,21.079942 C261.202814,21.3503729 260.933622,21.6432236 260.687978,21.9361117 C260.541856,22.1103367 260.438291,22.2429097 260.387256,22.3120588 L259.547382,23.4500156 L258.754556,22.2787946 C257.644262,20.638588 256.901833,20 255.935033,20 C253.755634,20 252,21.7582745 252,23.9350326 L252,23.9350326 Z" id="Shape-Copy-10" opacity="0.0899999961"></path>
            <path d="M259.314827,32.5678418 C258.252688,31.9973311 256.941839,31.1342859 255.843524,30.2242534 C253.305332,28.153847 252,25.9676008 252,23.9350326 C252,23.7735919 252.009657,23.6144531 252.028427,23.4581627 C252.231573,25.3395966 253.521761,27.3303885 255.843524,29.2242534 C257.088294,30.2556342 258.606058,31.2266612 259.725359,31.7798793 L259.331489,32.5767787 C259.41613,32.6221089 259.499167,32.6655641 259.580367,32.707019 L259.581644,32.7197871 C259.580521,32.719584 259.579402,32.7193802 259.578289,32.7191756 C259.565488,32.7168233 259.559216,32.7154104 259.56962,32.7185316 L259.282272,33.6763579 L259.725359,32.7798793 C259.67922,32.7570751 259.632404,32.7335609 259.584959,32.7093618 L259.583758,32.7201673 C259.623844,32.7273412 259.669473,32.7334909 259.693097,32.7361158 L259.582665,33.7299995 L259.483162,32.7349624 C259.49538,32.7337405 259.529786,32.7291531 259.554179,32.7242743 C259.531072,32.7288958 259.506306,32.7359718 259.44831,32.7650779 C259.49146,32.7442466 259.535277,32.7227221 259.579718,32.700527 L259.483162,31.7349624 C259.49538,31.7337405 259.529786,31.7291531 259.554179,31.7242743 C259.531072,31.7288958 259.506306,31.7359718 259.44831,31.7650779 C260.543965,31.2361408 262.069206,30.2603303 263.329576,29.2071533 C265.647922,27.3252017 266.934645,25.3446909 267.13704,23.4591355 C267.15572,23.6150928 267.165331,23.7739046 267.165331,23.9350326 C267.165331,25.9749997 265.863799,28.1499609 263.329576,30.2071533 C262.121294,31.2168045 260.669583,32.1553518 259.586306,32.6972343 L259.693097,31.7361158 C259.668391,31.7333707 259.61962,31.7267706 259.578289,31.7191756 C259.565488,31.7168233 259.559216,31.7154104 259.56962,31.7185316 L259.314827,32.5678418 Z" id="Combined-Shape" opacity="0.0899999961"></path>
            <path d="M252,23.9350326 L252,23.9350326 C252,25.9676008 253.305332,28.153847 255.843524,30.2242534 C257.088294,31.2556342 258.606058,32.2266612 259.725359,32.7798793 L259.282272,33.6763579 L259.56962,32.7185316 C259.559216,32.7154104 259.565488,32.7168233 259.578289,32.7191756 C259.61962,32.7267706 259.668391,32.7333707 259.693097,32.7361158 L259.582665,33.7299995 L259.483162,32.7349624 C259.49538,32.7337405 259.529786,32.7291531 259.554179,32.7242743 C259.531072,32.7288958 259.506306,32.7359718 259.44831,32.7650779 C260.543965,32.2361408 262.069206,31.2603303 263.329576,30.2071533 C265.863799,28.1499609 267.165331,25.9749997 267.165331,23.9350326 C267.165331,21.7556344 265.407056,20 263.230298,20 C263.130222,20 262.998691,20.0301592 262.840243,20.0962158 C262.447725,20.259855 261.976527,20.6064067 261.484058,21.079942 C261.202814,21.3503729 260.933622,21.6432236 260.687978,21.9361117 C260.541856,22.1103367 260.438291,22.2429097 260.387256,22.3120588 L259.547382,23.4500156 L258.754556,22.2787946 C257.644262,20.638588 256.901833,20 255.935033,20 C253.755634,20 252,21.7582745 252,23.9350326 L252,23.9350326 Z M258.975954,20.8694469 C258.890618,20.9755822 258.823988,21.0621904 258.778075,21.1243976 L259.172914,21.1324419 C259.312597,21.323887 259.448711,21.5203415 259.582665,21.7182282 C259.582665,21.7182282 259.756539,21.4826439 260.043792,21.150185 L260.410775,21.1576618 C260.356019,21.0767724 260.301671,20.9975036 260.247679,20.9198476 C260.975037,20.1178602 262.177671,19 263.230298,19 C265.955295,19 268.165331,21.199308 268.165331,23.9350326 C268.165331,26.3274506 266.695549,28.7627819 263.959825,30.9835466 C262.457858,32.2387614 260.816424,33.2150396 259.883059,33.6656296 C259.797232,33.7085429 259.582665,33.7299995 259.582665,33.7299995 C259.582665,33.7299995 259.389555,33.7085429 259.282272,33.6763579 C258.348907,33.2150396 256.707473,32.2387614 255.205506,30.9942749 C252.469781,28.7627819 251,26.3167223 251,23.9350326 C251,21.2100363 253.199308,19 255.935033,19 C257.243965,19 258.175804,19.830744 258.975954,20.8694469 L258.975954,20.8694469 Z" id="Shape"></path>
        </g>
    </g>
</svg>