<?xml version="1.0" encoding="UTF-8"?>
<svg width="20px" height="20px" viewBox="0 0 20 20" version="1.1" xmlns="http://www.w3.org/2000/svg" xmlns:xlink="http://www.w3.org/1999/xlink">
    <!-- Generator: Sketch 40.3 (33839) - http://www.bohemiancoding.com/sketch -->
    <title>like_active</title>
    <desc>Created with Sketch.</desc>
    <defs></defs>
    <g id="Page-3" stroke="none" stroke-width="1" fill="none" fill-rule="evenodd">
        <g id="Artboard-10" transform="translate(-194.000000, -40.000000)" fill="#000000">
            <path d="M203.582665,45.7182282 C203.582665,45.7182282 204.166687,45.0319214 204.247679,44.9198476 C204.975037,44.1178602 206.177671,43 207.230298,43 C209.955295,43 212.165331,45.199308 212.165331,47.9350326 C212.165331,50.3274506 210.695549,52.7627819 207.959825,54.9835466 C206.457858,56.2387614 204.816424,57.2150396 203.883059,57.6656296 C203.797232,57.7085429 203.582665,57.7299995 203.582665,57.7299995 C203.582665,57.7299995 203.389555,57.7085429 203.282272,57.6763579 C202.348907,57.2150396 200.707473,56.2387614 199.205506,54.9942749 C196.469781,52.7627819 195,50.3167223 195,47.9350326 C195,45.2100363 197.199308,43 199.935033,43 C201.243965,43 202.175804,43.830744 202.975954,44.8694469 C203.046021,44.9957886 203.582665,45.7182282 203.582665,45.7182282 Z" id="Shape-Copy-3"></path>
        </g>
    </g>
</svg>