<?xml version="1.0" encoding="UTF-8" standalone="no"?>
<svg width="20px" height="20px" viewBox="0 0 20 20" version="1.1" xmlns="http://www.w3.org/2000/svg" xmlns:xlink="http://www.w3.org/1999/xlink">
    <!-- Generator: Sketch 3.8.3 (29802) - http://www.bohemiancoding.com/sketch -->
    <title>lock</title>
    <desc>Created with Sketch.</desc>
    <defs></defs>
    <g id="Page-3" stroke="none" stroke-width="1" fill="none" fill-rule="evenodd">
        <g id="Icons" transform="translate(-107.000000, -186.000000)" fill="#000000">
            <g id="Group" transform="translate(110.000000, 187.000000)">
                <polygon id="Shape" opacity="0.119999997" points="1 7 13 7 13 17 1 17"></polygon>
                <path d="M0,8 C0,6.9 0.9,6 2,6 L12,6 C13.1,6 14,6.9 14,8 L14,16 C14,17.1 13.1,18 12,18 L2,18 C0.9,18 0,17.1 0,16 L0,8 L0,8 Z M1,8 C1,7.45 1.46,7 2,7 L12,7 C12.55,7 13,7.46 13,8 L13,16 C13,16.55 12.54,17 12,17 L2,17 C1.45,17 1,16.54 1,16 L1,8 L1,8 Z M3,3 C3,1.34 4.34,0 6,0 L8,0 C9.66,0 11,1.35 11,3 L11,6 L3,6 L3,3 L3,3 Z M4,3 C4,1.9 4.9,1 6,1 L8,1 C9.1,1 10,1.9 10,3 L10,6 L4,6 L4,3 L4,3 Z M6,12 C6,11.45 6.44,11 7,11 C7.55,11 8,11.44 8,12 C8,12.55 7.56,13 7,13 C6.45,13 6,12.56 6,12 L6,12 Z" id="Shape"></path>
            </g>
        </g>
    </g>
</svg>