<svg xmlns="http://www.w3.org/2000/svg" width="20" height="20" viewBox="0 0 20 20"><path fill-rule="evenodd" d="M16,5 C17.6568542,5 19,6.34314575 19,8 L19,12 C19,13.6568542 17.6568542,15 16,15 L4,15 C2.34314575,15 1,13.6568542 1,12 L1,8 C1,6.34314575 2.34314575,5 4,5 L16,5 Z M4.81818182,7 L3,7 L3,13 L4.81818182,13 L4.81818182,9.63636364 L6.63636364,11.9090909 L8.45454545,9.63636364 L8.45454545,13 L10.2727273,13 L10.2727273,7 L8.45454545,7 L6.63636364,9.27272727 L4.81818182,7 Z M15.1363636,7 L13.3181818,7 L13.3181818,10 L11.5,10 L14.2272727,13 L16.9545455,10 L15.1363636,10 L15.1363636,7 Z"/></svg>