<?xml version="1.0" encoding="UTF-8"?>
<svg width="10px" height="10px" viewBox="0 0 10 10" version="1.1" xmlns="http://www.w3.org/2000/svg" xmlns:xlink="http://www.w3.org/1999/xlink">
    <!-- Generator: Sketch 63.1 (92452) - https://sketch.com -->
    <title>micro_calendar</title>
    <desc>Created with Sketch.</desc>
    <g id="micro_calendar" stroke="none" stroke-width="1" fill="none" fill-rule="evenodd">
        <path d="M4,0 L4,1 L6,1 L6,0 L7,0 L7,1 L9,1 C9.55228475,1 10,1.44771525 10,2 L10,9 C10,9.55228475 9.55228475,10 9,10 L1,10 C0.44771525,10 0,9.55228475 0,9 L0,2 C0,1.44771525 0.44771525,1 1,1 L3,1 L3,0 L4,0 Z M3,2 L1,2 L1,9 L9,9 L9,2 L7,2 L7,3 L6,3 L6,2 L4,2 L4,3 L3,3 L3,2 Z M1,4 L9,4 L9,5 L1,5 L1,4 Z" id="Combined-Shape" fill="#000000" fill-rule="nonzero"></path>
    </g>
</svg>