<svg xmlns="http://www.w3.org/2000/svg" width="10" height="10" viewBox="0 0 10 10">
  <path d="M5,0 C7.76142375,-5.07265313e-16 10,2.23857625 10,5 L10,10 L10,10 L7.5,8 L5.00097656,10 L2.5,8 L0,10 L0,5 C-3.38176876e-16,2.23857625 2.23857625,5.07265313e-16 5,0 Z M3,3.5 C2.44771525,3.5 2,3.94771525 2,4.5 C2,5.05228475 2.44771525,5.5 3,5.5 C3.55228475,5.5 4,5.05228475 4,4.5 C4,3.94771525 3.55228475,3.5 3,3.5 Z M7,3.5 C6.4477153,3.5 6,3.94771525 6,4.5 C6,5.05228475 6.4477153,5.5 7,5.5 C7.5522847,5.5 8,5.05228475 8,4.5 C8,3.94771525 7.5522847,3.5 7,3.5 Z"/>
</svg>
