<?xml version="1.0" encoding="UTF-8" standalone="no"?>
<svg width="10px" height="10px" viewBox="0 0 10 10" version="1.1" xmlns="http://www.w3.org/2000/svg" xmlns:xlink="http://www.w3.org/1999/xlink">
    <!-- Generator: Sketch 3.8.3 (29802) - http://www.bohemiancoding.com/sketch -->
    <title>micro_important</title>
    <desc>Created with Sketch.</desc>
    <defs></defs>
    <g id="Page-3" stroke="none" stroke-width="1" fill="none" fill-rule="evenodd">
        <g id="Icons" transform="translate(-377.000000, -166.000000)" fill="#000000">
            <path d="M381.646549,168.089083 C381.596834,168.150914 381.558017,168.201369 381.53127,168.237609 L381.761291,168.242296 C381.842667,168.353826 381.921962,168.468274 382,168.583557 C382,168.583557 382.101294,168.446313 382.268639,168.252632 L382.482431,168.256988 C382.450532,168.209864 382.418871,168.163685 382.387417,168.118445 C382.811154,167.651231 383.511772,167 384.125,167 C385.7125,167 387,168.28125 387,169.875 C387,171.26875 386.14375,172.6875 384.55,173.98125 C383.675,174.7125 382.71875,175.28125 382.175,175.54375 C382.125,175.56875 382,175.58125 382,175.58125 C382,175.58125 381.8875,175.56875 381.825,175.55 C381.28125,175.28125 380.325,174.7125 379.45,173.9875 C377.85625,172.6875 377,171.2625 377,169.875 C377,168.2875 378.28125,167 379.875,167 C380.637544,167 381.180405,167.483966 381.646549,168.089083 L381.646549,168.089083 Z" id="Shape"></path>
        </g>
    </g>
</svg>