<?xml version="1.0" encoding="UTF-8"?>
<svg width="10px" height="10px" viewBox="0 0 10 10" version="1.1" xmlns="http://www.w3.org/2000/svg" xmlns:xlink="http://www.w3.org/1999/xlink">
    <title>micro_ai</title>
    <g id="Page-1" stroke="none" stroke-width="1" fill="none" fill-rule="evenodd">
        <path d="M4.5,1 C4.74434414,1 4.96283572,1.15217718 5.04755286,1.38136502 L5.9772673,3.90920965 C5.99663346,3.96186494 6.03813507,4.00336655 6.09079036,4.02273268 L8.61863495,4.9524471 C8.84782279,5.03716427 9,5.25565585 9,5.5 C9,5.74434414 8.84782279,5.96283572 8.61863495,6.04755289 L6.09079036,6.97726732 C6.03813507,6.99663342 5.99663346,7.03813503 5.9772673,7.09079032 L5.04755286,9.61863497 C4.96283572,9.84782281 4.74434414,10 4.5,10 C4.25565585,10 4.03716425,9.84782281 3.95244712,9.61863497 L3.02273268,7.09079032 C3.00336655,7.03813503 2.96186494,6.99663342 2.90920965,6.97726732 L0.381365019,6.04755289 C0.152177181,5.96283572 -3.55271368e-15,5.74434414 -3.55271368e-15,5.5 C-3.55271368e-15,5.25565585 0.152177181,5.03716427 0.381365019,4.9524471 L2.90920965,4.02273268 C2.96186494,4.00336655 3.00336655,3.96186494 3.02273268,3.90920965 L3.95244712,1.38136502 C4.03716425,1.15217718 4.25565585,1 4.5,1 Z M9,0 L9,1 L10,1 L10,2 L9,2 L9,3 L8,3 L8,2 L7,2 L7,1 L8,1 L8,0 L9,0 Z" id="micro_ai" fill="#000000" fill-rule="nonzero"></path>
    </g>
</svg>