<?xml version="1.0" encoding="UTF-8"?>
<svg width="10px" height="10px" viewBox="0 0 10 10" version="1.1" xmlns="http://www.w3.org/2000/svg" xmlns:xlink="http://www.w3.org/1999/xlink">
    <!-- Generator: Sketch 40.3 (33839) - http://www.bohemiancoding.com/sketch -->
    <title>micro_important_inactive</title>
    <desc>Created with Sketch.</desc>
    <defs></defs>
    <g id="Page-3" stroke="none" stroke-width="1" fill="none" fill-rule="evenodd">
        <g id="Icons" transform="translate(-377.000000, -206.000000)" fill="#000000">
            <path d="M382.549565,209.091721 C382.563606,209.076365 382.563606,209.076365 382.57774,209.060732 C382.634433,208.997824 382.68118,208.94256 382.718357,208.892721 C382.753236,208.84512 382.753236,208.84512 382.795172,208.771874 C382.88488,208.5964 382.917995,208.442238 382.765507,208.222916 L382.348018,208.513184 L382.724665,208.854783 C383.181174,208.351435 383.642,208.016962 383.908896,208.016962 C385.056239,208.016962 385.983038,208.942369 385.983038,210.091104 C385.983038,211.163746 385.299597,212.30583 383.970205,213.384983 C383.309834,213.936797 382.510608,214.448122 381.936142,214.725451 C381.965199,214.710867 381.977113,214.707464 381.988004,214.705285 C381.974667,214.707953 381.956239,214.71041 381.949404,214.711093 L382,215.217051 L382.056152,214.71168 C382.042903,214.710208 382.017073,214.706712 381.995027,214.702661 C381.481333,214.443126 380.686078,213.934342 380.033745,213.393838 C378.70238,212.307842 378.016962,211.159863 378.016962,210.091104 C378.016962,208.943761 378.942369,208.016962 380.091104,208.016962 C380.510057,208.016962 380.864025,208.257546 381.279674,208.797114 L381.682493,208.486808 L381.286216,208.16819 C381.067322,208.440437 381.127713,208.615674 381.286918,208.857594 C381.326526,208.91778 381.373464,208.976947 381.439024,209.053573 C381.450563,209.067027 381.450563,209.067027 381.461874,209.080118 C381.596816,209.236055 381.57592,209.211598 381.578922,209.216034 L381.924537,209.726601 L382.359979,209.290117 C382.408289,209.241692 382.478259,209.169495 382.549565,209.091721 Z M382,208.930996 L382.421078,208.645959 C382.380785,208.586435 382.478472,208.70077 382.230879,208.414654 C382.221154,208.403399 382.221154,208.403399 382.211752,208.392435 C382.172154,208.346153 382.146399,208.313689 382.136429,208.298538 C382.235132,208.448522 382.274315,208.56222 382.07877,208.805426 L382.329537,208.493539 L382.085312,208.176502 C381.496453,207.412085 380.890158,207 380.091104,207 C378.380374,207 377,208.38245 377,210.091104 C377,211.506966 377.843415,212.919567 379.387925,214.179403 C380.099843,214.769297 380.961703,215.320694 381.617496,215.644821 C381.761507,215.693362 381.761507,215.693362 381.811227,215.702875 C381.861835,215.712175 381.90866,215.718512 381.943848,215.722421 L382.050596,215.723008 C382.087623,215.719305 382.134989,215.71299 382.187446,215.702498 C382.258868,215.688214 382.318679,215.671125 382.384603,215.638163 C383.026909,215.328139 383.89678,214.771617 384.616744,214.169933 C386.157756,212.919061 387,211.511606 387,210.091104 C387,208.380374 385.61755,207 383.908896,207 C383.250691,207 382.616394,207.46038 381.97137,208.171586 L381.699573,208.471271 L381.930529,208.803452 C381.826715,208.544229 381.826715,208.544229 381.851818,208.416941 C381.874191,208.33948 381.874191,208.33948 381.889678,208.308959 C381.907372,208.278145 381.907372,208.278145 381.903199,208.284667 C381.888552,208.304303 381.859753,208.338349 381.822296,208.379912 C381.811257,208.392123 381.811257,208.392123 381.799969,208.404467 C381.7402,208.469658 381.679094,208.532708 381.640021,208.571876 L382,208.930996 Z" id="Combined-Shape"></path>
        </g>
    </g>
</svg>