<svg xmlns="http://www.w3.org/2000/svg" width="10" height="10" viewBox="0 0 10 10">
  <path d="M5,0 C7.76142375,0 10,2.23857625 10,5 C10,7.76142375 7.76142375,10 5,10 C2.23857625,10 0,7.76142375 0,5 C0,2.23857625 2.23857625,0 5,0 Z M1.00870206,4.73403034 C1.00293098,4.82194174 1,4.91062859 1,5 C1,7.19139894 2.76221417,8.97121071 4.94827702,8.99789365 C4.9589389,8.73254514 4.77613545,8.6 4.4,8.6 C3.66821289,8.6 3.24021289,8.014 3.116,6.842 L3.116,6.842 Z M6.71976622,1.38754072 L6.69835884,1.43977467 C6.53562641,1.77157385 6.19448907,2 5.8,2 L5.8,2 L4.4,2 L4.4,2.926 L4.39327227,3.04262113 C4.33550716,3.53995981 3.91283584,3.926 3.4,3.926 L3.4,3.926 L2.6,3.926 L2.6,5 L5.8,5 L5.91662112,5.00672773 C6.41395977,5.06449285 6.8,5.48716421 6.8,6 L6.8,6 L6.8,7.4 L7.00536628,7.40880277 C7.42019956,7.43518379 7.7540201,7.5118343 8.00544675,7.63964051 C8.62456604,6.93528006 9,6.01148368 9,5 C9,3.40650309 8.06820957,2.0306375 6.71976622,1.38754072 L6.71976622,1.38754072 Z"/>
</svg>
