<?xml version="1.0" encoding="UTF-8"?>
<svg width="10px" height="10px" viewBox="0 0 10 10" version="1.1" xmlns="http://www.w3.org/2000/svg" xmlns:xlink="http://www.w3.org/1999/xlink">
    <!-- Generator: Sketch 40.1 (33804) - http://www.bohemiancoding.com/sketch -->
    <title>micro_progress</title>
    <desc>Created with Sketch.</desc>
    <defs></defs>
    <g id="Page-3" stroke="none" stroke-width="1" fill="none" fill-rule="evenodd">
        <g id="Icons" transform="translate(-397.000000, -166.000000)" fill="#000000">
            <path d="M398.464466,174.535534 C399.369288,175.440356 400.619288,176 402,176 C404.418958,176 406.436712,174.28224 406.899982,172 L405.873983,172 C405.42994,173.725227 403.863839,175 402,175 C400.895431,175 399.895431,174.552285 399.171573,173.828427 L401,172 L397,172 L397,176 L398.464466,174.535534 Z M397.100018,170 C397.563288,167.71776 399.581042,166 402,166 C403.380712,166 404.630712,166.559644 405.535534,167.464466 L407,166 L406.993355,170 L406.946669,170 L404.436991,170 L403,170 L404.828427,168.171573 C404.104569,167.447715 403.104569,167 402,167 C400.136161,167 398.57006,168.274773 398.126017,170 L397.100018,170 Z" id="Combined-Shape"></path>
        </g>
    </g>
</svg>