<svg xmlns="http://www.w3.org/2000/svg" width="10" height="10" viewBox="0 0 10 10">
  <g fill="none" fill-rule="evenodd">
    <path fill="#000" fill-rule="nonzero" d="M6,0 C6.55228475,0 7,0.44771525 7,1 L7,3 L4,3 C3.48716416,3 3.06449284,3.38604019 3.00672773,3.88337887 L3,4 L3,7 L1,7 C0.44771525,7 0,6.55228475 0,6 L0,1 C0,0.44771525 0.44771525,0 1,0 L6,0 Z M7,4 L7,6 C7,6.55228475 6.55228475,7 6,7 L4,7 L4,4 L7,4 Z"/>
    <path fill="#000" fill-rule="nonzero" d="M9,3 C9.55228475,3 10,3.44771525 10,4 L10,9 C10,9.55228475 9.55228475,10 9,10 L4,10 C3.44771525,10 3,9.55228475 3,9 L3,7 L4,7 L4,9 L9,9 L9,4 L7,4 L7,3 L9,3 Z"/>
  </g>
</svg>
