<svg xmlns="http://www.w3.org/2000/svg" width="10" height="10" viewBox="0 0 10 10"><path fill-rule="evenodd" d="M3.49327227,9.38337887 C3.43550716,8.88604019 3.01283584,8.5 2.5,8.5 L2,8.5 C1.44771525,8.5 1,8.94771525 1,9.5 C1,9.77614237 0.776142375,10 0.5,10 C0.223857625,10 0,9.77614237 0,9.5 L0,1.5 C0,0.671572875 0.671572875,0 1.5,0 L3,0 C3.82842712,0 4.5,0.671572875 4.5,1.5 L4.5,9.5 C4.5,9.77614237 4.27614237,10 4,10 C3.72385763,10 3.5,9.77614237 3.5,9.5 L3.49327227,9.38337887 Z M8.99327227,9.38337887 C8.93550716,8.88604019 8.51283584,8.5 8,8.5 L7.5,8.5 C6.94771525,8.5 6.5,8.94771525 6.5,9.5 C6.5,9.77614237 6.27614237,10 6,10 C5.72385763,10 5.5,9.77614237 5.5,9.5 L5.5,1.5 C5.5,0.671572875 6.17157288,0 7,0 L8.5,0 C9.32842712,0 10,0.671572875 10,1.5 L10,9.5 C10,9.77614237 9.77614237,10 9.5,10 C9.22385763,10 9,9.77614237 9,9.5 L8.99327227,9.38337887 Z"/></svg>