<?xml version="1.0" encoding="UTF-8" standalone="no"?>
<svg width="10px" height="10px" viewBox="0 0 10 10" version="1.1" xmlns="http://www.w3.org/2000/svg" xmlns:xlink="http://www.w3.org/1999/xlink">
    <!-- Generator: Sketch 3.8.3 (29802) - http://www.bohemiancoding.com/sketch -->
    <title>micro_tag</title>
    <desc>Created with Sketch.</desc>
    <defs></defs>
    <g id="Page-3" stroke="none" stroke-width="1" fill="none" fill-rule="evenodd">
        <g id="Icons" transform="translate(-337.000000, -166.000000)" fill="#000000">
            <path d="M343.209209,173 L340.219362,173 L339.994975,174.570711 C339.955922,174.844078 339.702656,175.034027 339.429289,174.994975 C339.155922,174.955922 338.965973,174.702656 339.005025,174.429289 L339.209209,173 L337.509666,173 C337.228185,173 337,172.768066 337,172.5 C337,172.223858 337.222473,172 337.509666,172 L339.352067,172 L339.637781,170 L338.509666,170 C338.228185,170 338,169.768066 338,169.5 C338,169.223858 338.222473,169 338.509666,169 L339.780638,169 L340.005025,167.429289 C340.044078,167.155922 340.297344,166.965973 340.570711,167.005025 C340.844078,167.044078 341.034027,167.297344 340.994975,167.570711 L340.790791,169 L343.780638,169 L344.005025,167.429289 C344.044078,167.155922 344.297344,166.965973 344.570711,167.005025 C344.844078,167.044078 345.034027,167.297344 344.994975,167.570711 L344.790791,169 L346.490334,169 C346.771815,169 347,169.231934 347,169.5 C347,169.776142 346.777527,170 346.490334,170 L344.647933,170 L344.362219,172 L345.490334,172 C345.771815,172 346,172.231934 346,172.5 C346,172.776142 345.777527,173 345.490334,173 L344.219362,173 L343.994975,174.570711 C343.955922,174.844078 343.702656,175.034027 343.429289,174.994975 C343.155922,174.955922 342.965973,174.702656 343.005025,174.429289 L343.209209,173 Z M343.352067,172 L340.362219,172 L340.647933,170 L343.637781,170 L343.352067,172 Z" id="Combined-Shape"></path>
        </g>
    </g>
</svg>