<svg xmlns="http://www.w3.org/2000/svg" width="10" height="10" viewBox="0 0 10 10">
  <g fill="none" fill-rule="evenodd">
    <polygon fill="#000" fill-rule="nonzero" points="1 6 9 6 9 8 8 9 2 9 1 8" opacity=".1"/>
    <path fill="#000" fill-rule="nonzero" d="M5,0 C7.76142375,0 10,2.23857625 10,5 C10,7.76142375 7.76142375,10 5,10 C2.23857625,10 0,7.76142375 0,5 C0,2.23857625 2.23857625,0 5,0 Z M4.99999979,6 C3.77351796,6 2.68455489,6.58877707 1.99977979,7.50014573 C2.68395376,8.41089787 3.77317943,9 4.99999979,9 C6.22648161,9 7.31544467,8.41122293 8.00021979,7.49985427 C7.31604581,6.58910213 6.22682017,6 4.99999979,6 Z M5,1.5 C4.17157287,1.5 3.5,2.17157287 3.5,3 C3.5,3.82842713 4.17157287,4.5 5,4.5 C5.82842713,4.5 6.5,3.82842713 6.5,3 C6.5,2.17157287 5.82842713,1.5 5,1.5 Z"/>
  </g>
</svg>
