<svg xmlns="http://www.w3.org/2000/svg" width="10" height="10" viewBox="0 0 10 10">
  <path d="M4,0 C6.209139,0 8,1.790861 8,4 C8,4.92454548 7.68633046,5.77582951 7.15960442,6.45323904 L9.85355339,9.14644661 C10.0488155,9.34170876 10.0488155,9.65829124 9.85355339,9.85355339 C9.67998704,10.0271197 9.41056264,10.0464049 9.2156945,9.91140884 L9.14644661,9.85355339 L6.45323904,7.15960442 C5.77582951,7.68633046 4.92454548,8 4,8 C1.790861,8 0,6.209139 0,4 C0,1.790861 1.790861,0 4,0 Z M4,1 C2.34314575,1 1,2.34314575 1,4 C1,5.65685425 2.34314575,7 4,7 C5.65685425,7 7,5.65685425 7,4 C7,2.34314575 5.65685425,1 4,1 Z"/>
</svg>
