<?xml version="1.0" encoding="UTF-8" standalone="no"?>
<svg width="10px" height="10px" viewBox="0 0 10 10" version="1.1" xmlns="http://www.w3.org/2000/svg" xmlns:xlink="http://www.w3.org/1999/xlink">
    <!-- Generator: Sketch 3.8.3 (29802) - http://www.bohemiancoding.com/sketch -->
    <title>micro_close</title>
    <desc>Created with Sketch.</desc>
    <defs></defs>
    <g id="Page-3" stroke="none" stroke-width="1" fill="none" fill-rule="evenodd">
        <g id="Icons" transform="translate(-357.000000, -166.000000)" fill="#000000">
            <path d="M362,171.707107 L359.211252,174.495855 C358.811673,174.895434 358.184326,174.891432 357.794922,174.502028 L358.497972,175.205078 C358.113344,174.820451 358.111331,174.181562 358.504145,173.788748 L361.292893,171 L358.504145,168.211252 C358.104566,167.811673 358.108568,167.184326 358.497972,166.794922 L357.794922,167.497972 C358.179549,167.113344 358.818438,167.111331 359.211252,167.504145 L362,170.292893 L364.788748,167.504145 C365.188327,167.104566 365.816582,167.109476 366.207107,167.5 L365.5,166.792893 C365.886656,167.179549 365.888669,167.818438 365.495855,168.211252 L362.707107,171 L365.495855,173.788748 C365.895434,174.188327 365.890524,174.816582 365.5,175.207107 L366.207107,174.5 C365.820451,174.886656 365.181562,174.888669 364.788748,174.495855 L362,171.707107 Z" id="Oval-461"></path>
        </g>
    </g>
</svg>