<svg xmlns="http://www.w3.org/2000/svg" width="10" height="10" viewBox="0 0 10 10">
  <path fill-rule="evenodd" d="M2.5,5 C3.70968176,5 4.7186941,5.85916789 4.9501074,7.00057405 L10,7 L10,8 L4.94990271,8.00043449 C4.71809967,9.14133817 3.70932545,10 2.5,10 C1.11928813,10 0,8.88071187 0,7.5 C0,6.11928813 1.11928813,5 2.5,5 Z M2.5,6 C1.67157288,6 1,6.67157288 1,7.5 C1,8.32842712 1.67157288,9 2.5,9 C3.32842712,9 4,8.32842712 4,7.5 C4,6.67157288 3.32842712,6 2.5,6 Z M7.5,0 C8.88071187,0 10,1.11928813 10,2.5 C10,3.88071187 8.88071187,5 7.5,5 C6.29067455,5 5.28190033,4.14133817 5.05009729,3.00043449 L0,3 L0,2 L5.0498926,2.00057405 C5.2813059,0.859167894 6.29031824,0 7.5,0 Z M7.5,1 C6.67157288,1 6,1.67157288 6,2.5 C6,3.32842712 6.67157288,4 7.5,4 C8.32842712,4 9,3.32842712 9,2.5 C9,1.67157288 8.32842712,1 7.5,1 Z"/>
</svg>
