<svg xmlns="http://www.w3.org/2000/svg" width="10" height="10" viewBox="0 0 10 10"><g fill="none" fill-rule="evenodd"><path fill="#000" fill-rule="nonzero" d="M1,8 L1,4 C1,1.790861 2.790861,0 5,0 C7.209139,0 9,1.790861 9,4 L9,8 L7,8 C7,9.1045695 6.1045695,10 5,10 C3.8954305,10 3,9.1045695 3,8 L1,8 Z M6,8 L4,8 L4.00672773,8.11662113 C4.06449284,8.61395981 4.48716416,9 5,9 C5.55228475,9 6,8.55228475 6,8 Z M5,1 C3.34314575,1 2,2.34314575 2,4 L2,7 L8,7 L8,4 C8,2.40231912 6.75108004,1.09633912 5.17627279,1.00509269 L5,1 Z"/><rect width="10" height="1" y="7" fill="#000"/></g></svg>