<svg xmlns="http://www.w3.org/2000/svg" width="10" height="10" viewBox="0 0 10 10"><path d="M4.5,0 C4.77614237,0 5,0.223857625 5,0.5 L5,8.292 L8.14644661,5.14644661 L8.2156945,5.08859116 C8.41056264,4.95359511 8.67998704,4.97288026 8.85355339,5.14644661 C9.02711974,5.32001296 9.04640489,5.58943736 8.91140884,5.7843055 L8.85355339,5.85355339 L4.85355339,9.85355339 L4.81166225,9.89103898 L4.81166225,9.89103898 L4.74976515,9.93325257 L4.74976515,9.93325257 L4.65601091,9.97515072 L4.5887178,9.9921485 L4.5887178,9.9921485 L4.5,10 L4.5,10 L4.4465724,9.99717904 L4.4465724,9.99717904 L4.37316218,9.98372815 L4.37316218,9.98372815 L4.29193203,9.95480043 L4.29193203,9.95480043 L4.2156945,9.91140884 L4.2156945,9.91140884 L4.15871357,9.86541125 L4.15871357,9.86541125 L0.146446609,5.85355339 C-0.0488155365,5.65829124 -0.0488155365,5.34170876 0.146446609,5.14644661 C0.320012961,4.97288026 0.589437362,4.95359511 0.784305503,5.08859116 L0.853553391,5.14644661 L4,8.293 L4,0.5 C4,0.223857625 4.22385763,0 4.5,0 Z"/></svg>