<?xml version="1.0" encoding="UTF-8" standalone="no"?>
<svg width="20px" height="20px" viewBox="0 0 20 20" version="1.1" xmlns="http://www.w3.org/2000/svg" xmlns:xlink="http://www.w3.org/1999/xlink">
    <!-- Generator: Sketch 3.8.3 (29802) - http://www.bohemiancoding.com/sketch -->
    <title>more</title>
    <desc>Created with Sketch.</desc>
    <defs></defs>
    <g id="Page-3" stroke="none" stroke-width="1" fill="none" fill-rule="evenodd">
        <g id="Icons" transform="translate(-367.000000, -136.000000)" fill="#000000">
            <path d="M372,152 C372.552285,152 373,151.552285 373,151 C373,150.447715 372.552285,150 372,150 C371.447715,150 371,150.447715 371,151 C371,151.552285 371.447715,152 372,152 Z M372,147 C372.552285,147 373,146.552285 373,146 C373,145.447715 372.552285,145 372,145 C371.447715,145 371,145.447715 371,146 C371,146.552285 371.447715,147 372,147 Z M372,142 C372.552285,142 373,141.552285 373,141 C373,140.447715 372.552285,140 372,140 C371.447715,140 371,140.447715 371,141 C371,141.552285 371.447715,142 372,142 Z" id="Combined-Shape"></path>
        </g>
    </g>
</svg>