<?xml version="1.0" encoding="UTF-8"?>
<svg width="20px" height="20px" viewBox="0 0 20 20" version="1.1" xmlns="http://www.w3.org/2000/svg" xmlns:xlink="http://www.w3.org/1999/xlink">
    <!-- Generator: Sketch 40.3 (33839) - http://www.bohemiancoding.com/sketch -->
    <title>more_horizontal</title>
    <desc>Created with Sketch.</desc>
    <defs></defs>
    <g id="Page-3" stroke="none" stroke-width="1" fill="none" fill-rule="evenodd">
        <g id="Icons" transform="translate(-547.000000, -136.000000)" fill="#000000">
            <path d="M557,151 C557.552285,151 558,150.552285 558,150 C558,149.447715 557.552285,149 557,149 C556.447715,149 556,149.447715 556,150 C556,150.552285 556.447715,151 557,151 Z M557,147 C557.552285,147 558,146.552285 558,146 C558,145.447715 557.552285,145 557,145 C556.447715,145 556,145.447715 556,146 C556,146.552285 556.447715,147 557,147 Z M557,143 C557.552285,143 558,142.552285 558,142 C558,141.447715 557.552285,141 557,141 C556.447715,141 556,141.447715 556,142 C556,142.552285 556.447715,143 557,143 Z" id="Combined-Shape-Copy-11" transform="translate(557.000000, 146.000000) rotate(90.000000) translate(-557.000000, -146.000000) "></path>
        </g>
    </g>
</svg>