<svg xmlns="http://www.w3.org/2000/svg" width="20" height="20" viewBox="0 0 20 20">
  <path fill-rule="evenodd" d="M4,8.5 C4.82842712,8.5 5.5,9.17157288 5.5,10 C5.5,10.8284271 4.82842712,11.5 4,11.5 C3.17157288,11.5 2.5,10.8284271 2.5,10 C2.5,9.17157288 3.17157288,8.5 4,8.5 Z M10,8.5 C10.8284271,8.5 11.5,9.17157288 11.5,10 C11.5,10.8284271 10.8284271,11.5 10,11.5 C9.17157288,11.5 8.5,10.8284271 8.5,10 C8.5,9.17157288 9.17157288,8.5 10,8.5 Z M16,8.5 C16.8284271,8.5 17.5,9.17157288 17.5,10 C17.5,10.8284271 16.8284271,11.5 16,11.5 C15.1715729,11.5 14.5,10.8284271 14.5,10 C14.5,9.17157288 15.1715729,8.5 16,8.5 Z"/>
</svg>
