<?xml version="1.0" encoding="UTF-8" standalone="no"?>
<svg width="20px" height="20px" viewBox="0 0 20 20" version="1.1" xmlns="http://www.w3.org/2000/svg" xmlns:xlink="http://www.w3.org/1999/xlink">
    <!-- Generator: Sketch 3.8.3 (29802) - http://www.bohemiancoding.com/sketch -->
    <title>move_to_active</title>
    <desc>Created with Sketch.</desc>
    <defs></defs>
    <g id="Page-3" stroke="none" stroke-width="1" fill="none" fill-rule="evenodd">
        <g id="Icons" transform="translate(-187.000000, -106.000000)" fill="#000000">
            <g id="Group-Copy-4" transform="translate(187.000000, 109.000000)">
                <path d="M15.3333333,10 L12,6 L12,14 L16.0001925,14 C16.5562834,14 17,13.5522847 17,13 L17,12 L17,10 L15.3333333,10 Z M0,4 L12,4 L12,14 L1.00247329,14 C0.448822582,14 0,13.5443356 0,13.0046024 L0,4 Z" id="Combined-Shape" opacity="0.9"></path>
                <rect id="Rectangle-1695" x="0" y="4" width="12" height="1"></rect>
                <path d="M0,0 L6,0 L8,2 L8,4 L0,4 L0,0 Z M8,2 L15,2 L15,4 L8,4 L8,2 Z" id="Combined-Shape" opacity="0.6"></path>
                <path d="M14.0714286,5 L16,6.6875 L16,8 L12,4.5 L16,1 L16,2.3125 L14.0714286,4 L21,4 L21,5 L14.0714286,5 Z" id="Rectangle-1319-Copy-6" transform="translate(16.500000, 4.500000) scale(-1, -1) rotate(90.000000) translate(-16.500000, -4.500000) "></path>
            </g>
        </g>
    </g>
</svg>