<?xml version="1.0" encoding="UTF-8" standalone="no"?>
<svg width="20px" height="20px" viewBox="0 0 20 20" version="1.1" xmlns="http://www.w3.org/2000/svg" xmlns:xlink="http://www.w3.org/1999/xlink">
    <!-- Generator: Sketch 3.8.3 (29802) - http://www.bohemiancoding.com/sketch -->
    <title>new_collection_active</title>
    <desc>Created with Sketch.</desc>
    <defs></defs>
    <g id="Page-3" stroke="none" stroke-width="1" fill="none" fill-rule="evenodd">
        <g id="Icons" transform="translate(-187.000000, -76.000000)" fill="#000000">
            <g id="Group-Copy-3" transform="translate(187.000000, 79.000000)">
                <polygon id="Shape" opacity="0.15" points="1 5 12 5 12 7 15 7 15 10 16 10 16 13 1 13"></polygon>
                <polygon id="Shape-Copy-9" opacity="0.2" points="1 12 16 12 16 13 1 13"></polygon>
                <path d="M0,4 L12,4 L12,14 L1.00247329,14 C0.448822582,14 0,13.5443356 0,13.0046024 L0,4 Z M12,7 L15,7 L15,14 L12,14 L12,7 Z M15,10 L17,10 L17,12.9906311 C17,13.5480902 16.5561352,14 16,14 L15,14 L15,10 Z" id="Combined-Shape" opacity="0.9"></path>
                <rect id="Rectangle-1695" x="0" y="4" width="12" height="1"></rect>
                <path d="M0,0 L6,0 L8,2 L8,4 L0,4 L0,0 Z M8,2 L15,2 L15,4 L8,4 L8,2 Z" id="Combined-Shape" opacity="0.6"></path>
                <path d="M16,6 L13.5,6 L13,6 L13,5 L13.5,5 L16,5 L16,2.5 L16,2 L17,2 L17,2.5 L17,5 L19.5,5 L20,5 L20,6 L19.5,6 L17,6 L17,8.5 L17,9 L16,9 L16,8.5 L16,6 Z" id="Rectangle-1179"></path>
            </g>
        </g>
    </g>
</svg>