<svg xmlns="http://www.w3.org/2000/svg" width="20" height="20" viewBox="0 0 20 20">
  <path d="M12.2145313,6.29063805 L10.9568331,2.15006772 C10.7963181,1.62162341 10.2378063,1.32335774 9.70936195,1.4838727 C9.39004668,1.58086471 9.14015894,1.83075245 9.04316693,2.15006772 L7.78546869,6.29063805 C7.65748992,6.71196735 7.26897293,7 6.82863562,7 L3.1229329,7 C2.57064815,7 2.1229329,7.44771525 2.1229329,8 C2.1229329,8.32311321 2.27905428,8.62631543 2.54206855,8.81400038 L5.59192927,10.9903573 C5.94296428,11.2408532 6.09387344,11.6881705 5.96632542,12.1001234 L4.75239165,16.0208712 C4.58904473,16.548447 4.88431058,17.1085505 5.41188638,17.2718975 C5.72027516,17.3673802 6.05579017,17.3081109 6.31280085,17.1127494 L9.39534105,14.7696192 C9.75274699,14.4979443 10.2473995,14.4977514 10.6050173,14.7691474 L13.6990561,17.1172125 C14.1389974,17.4510838 14.7662965,17.3650971 15.1001679,16.9251557 C15.2951624,16.668212 15.3542454,16.3329883 15.2588441,16.0248624 L14.0435022,12.0995668 C13.9160376,11.6878832 14.0666615,11.2408465 14.4172751,10.9902458 L17.4626676,8.81355525 C17.9119818,8.4924085 18.015882,7.86782653 17.6947352,7.41851238 C17.5070061,7.15586182 17.2040229,7 16.88118,7 L13.1713644,7 C12.7310271,7 12.3425101,6.71196735 12.2145313,6.29063805 Z"/>
</svg>
