<svg xmlns="http://www.w3.org/2000/svg" width="20" height="20" viewBox="0 0 20 20"><g fill="none" fill-rule="evenodd"><path fill="#000" fill-rule="nonzero" d="M16,2 C17.1045695,2 18,2.8954305 18,4 L18,11.5857864 C18,11.8510029 17.8946432,12.1053568 17.7071068,12.2928932 L12.2928932,17.7071068 C12.1053568,17.8946432 11.8510029,18 11.5857864,18 L4,18 C2.8954305,18 2,17.1045695 2,16 L2,4 C2,2.8954305 2.8954305,2 4,2 L16,2 Z M16,3 L4,3 C3.48716416,3 3.06449284,3.38604019 3.00672773,3.88337887 L3,4 L3,16 C3,16.5128358 3.38604019,16.9355072 3.88337887,16.9932723 L4,17 L11.5857864,17 L17,11.5857864 L17,4 C17,3.48716416 16.6139598,3.06449284 16.1166211,3.00672773 L16,3 Z"/><path fill="#000" d="M12,11 L18,11 L18,11 L11,18 L11,12 C11,11.4477153 11.4477153,11 12,11 Z" opacity=".5"/><path fill="#000" fill-rule="nonzero" d="M18,11 L17,12 L12,12 L12,17 L11,18 L11,12 C11,11.4477153 11.4477153,11 12,11 L18,11 Z"/></g></svg>