<svg xmlns="http://www.w3.org/2000/svg" width="20" height="20"><defs><path id="a" d="M0 0h20v20H0V0Z"/></defs><g fill="#000" fill-rule="evenodd"><path d="m4.99 5.861-.042.072h-.015l-.222.429c-.241.464-.515 1.002-.832 1.633l-.08.16c-.067.132-2.272 4.357-2.458 4.713l.01-.019c-.173-.413-.288-.954-.34-1.309.136-2.68 1.734-5.118 3.98-5.679ZM10.38 4l.221.005c1.171.054 2.386.528 3.363 1.293.512.414.963.914 1.331 1.48l.078.124c.057.1.11.201.16.305l.02.003a8.595 8.595 0 0 0-.671-.033c-2.342 0-3.9 1.516-5.285 4.356-1.38 2.831-3.075 5.151-4.07 5.427-1.381-.152-2.597-.91-3.42-2.024-.207-.523-.326-1.057-.326-1.561.53.01.78-.439 1.593-1.313.114-.123.438-.69.773-1.3l.2-.368c.364-.672.692-1.298.718-1.345l.08-.142c.28-.496.525-.927.742-1.302l.079-.135C6.873 5.908 8.413 4 10.379 4Zm4.502 4.867c.178 0 .443.016.778.045-.4 1.64-1.839 3.834-3.585 5.698-1.205.822-2.52 1.482-3.703 1.895.754-1.04 1.865-2.773 2.54-4.158l.133-.267c1.105-2.175 2.234-3.213 3.837-3.213Z"/><path d="M14.882 8.32c.446 0 1.444.1 2.705.284.87.886 1.413 2.185 1.413 3.598C19 14.786 17.221 17 14.882 17h-.644l-.364-.001h-.2l-.434-.001-5.217-.01-.012-.007c.71-.963 2.107-3.212 2.901-4.95 1.149-2.514 2.303-3.711 3.97-3.711Z"/></g></svg>