<svg xmlns="http://www.w3.org/2000/svg" width="20" height="20" viewBox="0 0 20 20">
  <path d="M10,1 C14.9705627,1 19,5.02943725 19,10 C19,14.9705627 14.9705627,19 10,19 C5.02943725,19 1,14.9705627 1,10 C1,5.02943725 5.02943725,1 10,1 Z M13.152,2.645 C12.599,3.018 11.84,3.547 11.575,3.91 C11.44,4.095 11.248,5.042 10.625,5.12 C10.463,5.14 10.244,5.126 10.012,5.111 C9.39,5.071 8.54,5.016 8.268,5.755 C8.095,6.223 8.065,7.495 8.624,8.155 C8.714,8.26 8.731,8.455 8.67,8.674 C8.59,8.961 8.429,9.136 8.378,9.172 C8.282,9.116 8.09,8.893 7.959,8.742 C7.646,8.377 7.254,7.922 6.748,7.782 C6.564,7.731 6.362,7.689 6.165,7.647 C5.616,7.532 4.995,7.401 4.85,7.093 C4.744,6.867 4.745,6.556 4.745,6.228 C4.745,5.811 4.745,5.34 4.541,4.883 C4.47008043,4.71990831 4.36585133,4.57344258 4.235,4.453 C1.60709606,7.18052478 1.25200659,11.3771123 3.38425735,14.5074121 C5.51650811,17.637712 9.55170453,18.8437903 13.052,17.397 C13.167,16.647 12.915,15.927 12.812,15.675 C12.582,15.115 11.824,14.158 10.559,12.831 C10.221,12.476 10.243,12.203 10.364,11.394 L10.377,11.303 C10.459,10.749 10.597,10.421 12.462,10.125 C13.41,9.975 13.659,10.353 14.004,10.878 L14.12,11.05 C14.448,11.53 14.691,11.64 15.058,11.806 C15.223,11.881 15.428,11.976 15.703,12.131 C16.31425,12.4806875 16.3524531,12.8725625 16.3548408,13.6798855 L16.355,13.952 C16.355,14.343 16.317,14.687 16.257,14.986 C17.8124447,13.0338358 18.3678487,10.4676595 17.7588181,8.04703248 C17.1497875,5.62640548 15.4460891,3.62862009 13.152,2.645 Z"/>
</svg>
