<svg xmlns="http://www.w3.org/2000/svg" width="20" height="20" viewBox="0 0 20 20">
  <path d="M10,1 C14.9705627,1 19,5.02943725 19,10 C19,14.9705627 14.9705627,19 10,19 C5.02943725,19 1,14.9705627 1,10 C1,5.02943725 5.02943725,1 10,1 Z M14.004,10.878 C13.659,10.353 13.41,9.975 12.462,10.125 C10.597,10.421 10.459,10.749 10.377,11.303 L10.377,11.303 L10.364,11.394 C10.243,12.203 10.221,12.476 10.559,12.831 C11.824,14.158 12.582,15.115 12.812,15.675 C12.915,15.927 13.167,16.647 13.052,17.397 C12.897178,17.4609932 12.7413095,17.5197963 12.5846054,17.5734724 C14.0448573,17.0750884 15.3150927,16.1663438 16.2576238,14.9846768 C16.3171641,14.6855122 16.355,14.3421546 16.355,13.952 L16.355,13.952 L16.3548408,13.6798855 C16.3524531,12.8725625 16.31425,12.4806875 15.703,12.131 C15.428,11.976 15.223,11.881 15.058,11.806 C14.691,11.64 14.448,11.53 14.12,11.05 L14.12,11.05 Z M10,2 C7.74917913,2 5.71546376,2.9295391 4.26179175,4.42567943 L4.235,4.453 C4.36585133,4.57344258 4.47008043,4.71990831 4.541,4.883 C4.745,5.34 4.745,5.811 4.745,6.228 C4.745,6.556 4.744,6.867 4.85,7.093 C4.995,7.401 5.616,7.532 6.165,7.647 C6.362,7.689 6.564,7.731 6.748,7.782 C7.254,7.922 7.646,8.377 7.959,8.742 C8.09,8.893 8.282,9.116 8.378,9.172 C8.429,9.136 8.59,8.961 8.67,8.674 C8.731,8.455 8.714,8.26 8.624,8.155 C8.065,7.495 8.095,6.223 8.268,5.755 C8.54,5.016 9.39,5.071 10.012,5.111 C10.244,5.126 10.463,5.14 10.625,5.12 C11.248,5.042 11.44,4.095 11.575,3.91 C11.84,3.547 12.599,3.018 13.152,2.645 C13.2130594,2.67118 13.2737006,2.69807845 13.333914,2.72568419 C12.3189205,2.25973358 11.1897923,2 10,2 Z"/>
</svg>
