<?xml version="1.0" encoding="UTF-8" standalone="no"?>
<svg width="94px" height="11px" viewBox="0 0 94 11" version="1.1" xmlns="http://www.w3.org/2000/svg" xmlns:xlink="http://www.w3.org/1999/xlink">
    <!-- Generator: Sketch 3.6.1 (26313) - http://www.bohemiancoding.com/sketch -->
    <title>raindrop_logo</title>
    <desc>Created with Sketch.</desc>
    <defs></defs>
    <g id="Page-3" stroke="none" stroke-width="1" fill="none" fill-rule="evenodd">
        <g id="Icons" transform="translate(-443.000000, -20.000000)" fill="#000000">
            <path d="M451.226087,30.8086957 L448.627536,26.6318841 C449.902899,26.4246377 451.146377,25.4043478 451.146377,23.5072464 C451.146377,21.5463768 449.775362,20.1753623 447.671014,20.1753623 L443,20.1753623 L443,30.8086957 L444.865217,30.8086957 L444.865217,26.8391304 L446.714493,26.8391304 L449.073913,30.8086957 L451.226087,30.8086957 Z M447.415942,25.1971014 L444.865217,25.1971014 L444.865217,21.8173913 L447.415942,21.8173913 C448.468116,21.8173913 449.233333,22.4869565 449.233333,23.5072464 C449.233333,24.5275362 448.468116,25.1971014 447.415942,25.1971014 L447.415942,25.1971014 Z M462.576812,30.8086957 L458.4,20.1753623 L456.072464,20.1753623 L451.895652,30.8086957 L454.015942,30.8086957 L454.797101,28.7681159 L459.675362,28.7681159 L460.456522,30.8086957 L462.576812,30.8086957 Z M459.149275,27.126087 L455.323188,27.126087 L457.236232,22.0565217 L459.149275,27.126087 Z M465.605797,30.8086957 L465.605797,20.1753623 L463.74058,20.1753623 L463.74058,30.8086957 L465.605797,30.8086957 Z M477.084058,30.8086957 L477.084058,20.1753623 L475.218841,20.1753623 L475.218841,27.5565217 L469.782609,20.1753623 L467.869565,20.1753623 L467.869565,30.8086957 L469.734783,30.8086957 L469.734783,23.2202899 L475.282609,30.8086957 L477.084058,30.8086957 Z M483.301449,30.8086957 C486.617391,30.8086957 488.865217,28.6246377 488.865217,25.5 C488.865217,22.3753623 486.617391,20.1753623 483.301449,20.1753623 L479.347826,20.1753623 L479.347826,30.8086957 L483.301449,30.8086957 Z M483.301449,29.1666667 L481.213043,29.1666667 L481.213043,21.8173913 L483.301449,21.8173913 C485.676812,21.8173913 486.952174,23.4434783 486.952174,25.5 C486.952174,27.5086957 485.613043,29.1666667 483.301449,29.1666667 L483.301449,29.1666667 Z M498.892754,30.8086957 L496.294203,26.6318841 C497.569565,26.4246377 498.813043,25.4043478 498.813043,23.5072464 C498.813043,21.5463768 497.442029,20.1753623 495.337681,20.1753623 L490.666667,20.1753623 L490.666667,30.8086957 L492.531884,30.8086957 L492.531884,26.8391304 L494.381159,26.8391304 L496.74058,30.8086957 L498.892754,30.8086957 Z M495.082609,25.1971014 L492.531884,25.1971014 L492.531884,21.8173913 L495.082609,21.8173913 C496.134783,21.8173913 496.9,22.4869565 496.9,23.5072464 C496.9,24.5275362 496.134783,25.1971014 495.082609,25.1971014 L495.082609,25.1971014 Z M505.636232,31 C508.824638,31 511.072464,28.6724638 511.072464,25.5 C511.072464,22.3275362 508.824638,20 505.636232,20 C502.447826,20 500.2,22.3275362 500.2,25.5 C500.2,28.6724638 502.447826,31 505.636232,31 L505.636232,31 Z M505.636232,29.342029 C503.484058,29.342029 502.113043,27.684058 502.113043,25.5 C502.113043,23.3 503.484058,21.657971 505.636232,21.657971 C507.772464,21.657971 509.15942,23.3 509.15942,25.5 C509.15942,27.684058 507.772464,29.342029 505.636232,29.342029 L505.636232,29.342029 Z M514.73913,30.8086957 L514.73913,26.8391304 L517.544928,26.8391304 C519.76087,26.8391304 521.02029,25.3086957 521.02029,23.5072464 C521.02029,21.7057971 519.776812,20.1753623 517.544928,20.1753623 L512.873913,20.1753623 L512.873913,30.8086957 L514.73913,30.8086957 Z M517.289855,25.1971014 L514.73913,25.1971014 L514.73913,21.8173913 L517.289855,21.8173913 C518.342029,21.8173913 519.107246,22.4869565 519.107246,23.5072464 C519.107246,24.5275362 518.342029,25.1971014 517.289855,25.1971014 Z M527,20 L528,20 L528,27 L527,27 L527,20 Z M523,22 C523.552285,22 524,21.5522847 524,21 C524,20.4477153 523.552285,20 523,20 C522.447715,20 522,20.4477153 522,21 C522,21.5522847 522.447715,22 523,22 Z M533.5,27 C531.567003,27 530,25.4329966 530,23.5 C530,21.5670034 531.567003,20 533.5,20 C535.432997,20 537,21.5670034 537,23.5 C537,25.4329966 535.432997,27 533.5,27 Z M533.5,26 C534.880712,26 536,24.8807119 536,23.5 C536,22.1192881 534.880712,21 533.5,21 C532.119288,21 531,22.1192881 531,23.5 C531,24.8807119 532.119288,26 533.5,26 Z" id="RAINDROP"></path>
        </g>
    </g>
</svg>