<svg xmlns="http://www.w3.org/2000/svg" width="20" height="20" viewBox="0 0 20 20"><path d="M9.30703985,1 C14.3151753,1 16.9315349,2.05369109 16.9315349,5.75667154 C16.9315349,8.55863541 15.5695011,9.89672019 12.824416,10.3577373 L16.5094347,16.350773 C17.1590498,17.4314067 17.6888578,17.7906408 18.7725474,17.9193664 L18.7725474,19 L13.4261332,19 L8.41793537,10.642131 L7.16666551,10.642131 L7.16666551,16.1202644 C7.16666551,17.5870748 7.52889326,17.7906408 9.07054405,17.9193664 L9.07054405,19 L1,19 L1,17.9193664 C2.54165079,17.7906408 2.90387854,17.5840812 2.90387854,16.1202644 L2.90387854,3.87973556 C2.90387854,2.38897628 2.58954867,2.20935921 1,2.08063365 L1,1 L9.30703985,1 Z M12.5254284,2.92788985 L7.10111776,8.91793191 C8.34691633,7.88304732 11.9648971,7.80447653 12.3988643,7.79875403 L12.4416071,7.79831886 C12.6331987,7.75640821 12.7648555,7.585772 12.7558746,7.39124921 C12.7558746,7.39124921 12.1003347,3.70916172 12.5254284,2.92788985 Z"/></svg>