<?xml version="1.0" encoding="UTF-8"?>
<svg width="20px" height="20px" viewBox="0 0 20 20" version="1.1" xmlns="http://www.w3.org/2000/svg" xmlns:xlink="http://www.w3.org/1999/xlink">
    <title>Artboard</title>
    <g id="Artboard" stroke="none" stroke-width="1" fill="none" fill-rule="evenodd">
        <path d="M10.1314829,18 C8.82560069,18 7.71459776,17.1656225 7.30250714,16.0009007 L12.9604587,16.0009007 C12.548368,17.1656225 11.4373651,18 10.1314829,18 Z M4,15 C3.44771525,15 3,14.5522847 3,14 C3,13.802575 3.05843803,13.6095673 3.16794971,13.4452998 L4.13148291,12 L4.13148291,8 C4.13148291,4.6862915 6.81777441,2 10.1314829,2 C13.4451914,2 16.1314829,4.6862915 16.1314829,8 L16.1314829,12 L17.0950161,13.4452998 C17.4013686,13.9048285 17.2771947,14.5256978 16.817666,14.8320503 C16.6533985,14.941562 16.4603908,15 16.2629658,15 L4,15 Z" id="Shape" fill="#000000" fill-rule="nonzero"></path>
    </g>
</svg>