<svg xmlns="http://www.w3.org/2000/svg" width="20" height="20" viewBox="0 0 20 20"><path d="M10,2 C10.3408286,2 10.6750197,2.0284182 11.0003332,2.08301435 L11.000188,3.10005628 C10.6770198,3.03444361 10.3425323,3 10,3 C7.23857625,3 5,5.23857625 5,8 L5,12.3027756 L4.83205029,12.5547002 L3.86851709,14 L16.1314829,14 L15.1679497,12.5547002 L15,12.3027756 L14.9995171,9 L16,9 L16,12 L16.9635332,13.4452998 C17.2698857,13.9048285 17.1457118,14.5256978 16.6861831,14.8320503 C16.5219156,14.941562 16.3289079,15 16.1314829,15 L13,15 C13,16.6568542 11.6568542,18 10,18 C8.34314575,18 7,16.6568542 7,15 L3.86851709,15 C3.31623234,15 2.86851709,14.5522847 2.86851709,14 C2.86851709,13.802575 2.92695512,13.6095673 3.0364668,13.4452998 L4,12 L4,8 C4,4.6862915 6.6862915,2 10,2 Z M12,15 L8,15 L8.00548574,15.1492623 C8.08183488,16.1841222 8.9456382,17 10,17 C11.1045695,17 12,16.1045695 12,15 Z M16,2 L16,4 L18,4 L18,5 L16,5 L16,7 L15,7 L15,5 L13,5 L13,4 L15,4 L15,2 L16,2 Z"/></svg>