<?xml version="1.0" encoding="UTF-8" standalone="no"?>
<svg width="20px" height="20px" viewBox="0 0 20 20" version="1.1" xmlns="http://www.w3.org/2000/svg" xmlns:xlink="http://www.w3.org/1999/xlink">
    <!-- Generator: Sketch 3.6.1 (26313) - http://www.bohemiancoding.com/sketch -->
    <title>rss</title>
    <desc>Created with Sketch.</desc>
    <defs></defs>
    <g id="Page-3" stroke="none" stroke-width="1" fill="none" fill-rule="evenodd">
        <g id="Icons" transform="translate(-47.000000, -106.000000)" fill="#000000">
            <path d="M51.5,123 C52.3,123 53,122.3 53,121.5 C53,120.7 52.3,120 51.5,120 C50.7,120 50,120.7 50,121.5 C50,122.3 50.7,123 51.5,123 L51.5,123 Z M65.5,124 C65.5,115 58,107.5 49,107.5 L49,108.5 C57.6,108.5 64.5,115.5 64.5,124 L65.5,124 L65.5,124 Z M59.5,124 C59.5,118.2 54.8,113.5 49,113.5 L49,114.5 C54.2,114.5 58.5,118.8 58.5,124 L59.5,124 L59.5,124 Z" id="Shape"></path>
        </g>
    </g>
</svg>