<svg xmlns="http://www.w3.org/2000/svg" width="20" height="20" viewBox="0 0 20 20">
  <g fill="none" fill-rule="evenodd">
    <path fill="#000" fill-rule="nonzero" d="M9,3 C12.3137085,3 15,5.6862915 15,9 C15,12.3137085 12.3137085,15 9,15 C5.6862915,15 3,12.3137085 3,9 C3,5.6862915 5.6862915,3 9,3 Z M9,4 C6.23857625,4 4,6.23857625 4,9 C4,11.7614237 6.23857625,14 9,14 C11.7614237,14 14,11.7614237 14,9 C14,6.23857625 11.7614237,4 9,4 Z"/>
    <path fill="#000" fill-rule="nonzero" d="M12.6464466,12.6464466 C12.820013,12.4728803 13.0894374,12.4535951 13.2843055,12.5885912 L13.3535534,12.6464466 L16.8535534,16.1464466 C17.0488155,16.3417088 17.0488155,16.6582912 16.8535534,16.8535534 C16.679987,17.0271197 16.4105626,17.0464049 16.2156945,16.9114088 L16.1464466,16.8535534 L12.6464466,13.3535534 C12.4511845,13.1582912 12.4511845,12.8417088 12.6464466,12.6464466 Z"/>
  </g>
</svg>
