<?xml version="1.0" encoding="UTF-8" standalone="no"?>
<svg width="20px" height="20px" viewBox="0 0 20 20" version="1.1" xmlns="http://www.w3.org/2000/svg" xmlns:xlink="http://www.w3.org/1999/xlink">
    <!-- Generator: Sketch 3.8.3 (29802) - http://www.bohemiancoding.com/sketch -->
    <title>search</title>
    <desc>Created with Sketch.</desc>
    <defs></defs>
    <g id="Page-3" stroke="none" stroke-width="1" fill="none" fill-rule="evenodd">
        <g id="Icons" transform="translate(-400.000000, -46.000000)" fill="#000000">
            <path d="M412.871473,58.1643659 L415.853553,61.1464466 C416.048816,61.3417088 416.048816,61.6582912 415.853553,61.8535534 C415.658291,62.0488155 415.341709,62.0488155 415.146447,61.8535534 L412.164366,58.8714727 C411.302431,59.5768174 410.200635,60 409,60 C406.238576,60 404,57.7614237 404,55 C404,52.2385763 406.238576,50 409,50 C411.761424,50 414,52.2385763 414,55 C414,56.2006351 413.576817,57.3024306 412.871473,58.1643659 Z M409,59 C411.209139,59 413,57.209139 413,55 C413,52.790861 411.209139,51 409,51 C406.790861,51 405,52.790861 405,55 C405,57.209139 406.790861,59 409,59 Z" id="Oval"></path>
        </g>
    </g>
</svg>