<svg xmlns="http://www.w3.org/2000/svg" width="20" height="20" viewBox="0 0 20 20">
  <g fill="none" fill-rule="evenodd">
    <path fill="#000" fill-rule="nonzero" d="M9,4 C9.71131083,4 10.3879298,4.14853355 11.0005325,4.41627635 L11.0011092,5.53577067 C10.4125119,5.1950335 9.7290322,5 9,5 C6.790861,5 5,6.790861 5,9 C5,11.209139 6.790861,13 9,13 C9.92771173,13 10.7816594,12.6841784 11.4601926,12.1541854 L13.561,12.854 L15.853553,15.1464466 C16.048816,15.3417088 16.048816,15.6582912 15.853553,15.8535534 C15.658291,16.0488155 15.341709,16.0488155 15.146447,15.8535534 L12.164366,12.8714727 C11.302431,13.5768174 10.200635,14 9,14 C6.238576,14 4,11.7614237 4,9 C4,6.2385763 6.238576,4 9,4 Z"/>
    <polygon fill="#000" fill-rule="nonzero" points="14 4 13 4 13 7 10 7 10 8 13 8 13 11 14 11 14 8 17 8 17 7 14 7"/>
  </g>
</svg>
