<svg xmlns="http://www.w3.org/2000/svg" width="20" height="20" viewBox="0 0 20 20">
  <path d="M2,3.5 C2,3.223858 2.231934,3 2.5,3 L3,3 L3,4 L2,4 L2,3.5 Z M2,5 L3,5 L3,6 L2,6 L2,5 Z M2,7 L3,7 L3,8 L2,8 L2,7 Z M2,9 L3,9 L3,10 L2,10 L2,9 Z M2,11 L3,11 L3,12 L2,12 L2,11 Z M2,13 L3,13 L3,14 L2,14 L2,13 Z M2,15 L3,15 L3,16 L2,16 L2,15 Z M2,17 L3,17 L3,18 L2.5,18 C2.223858,18 2,17.768066 2,17.5 L2,17 Z M16,5 L17,5 L17,6 L16,6 L16,5 Z M16,7 L17,7 L17,8 L16,8 L16,7 Z M16,9 L17,9 L17,10 L16,10 L16,9 Z M16,11 L17,11 L17,12 L16,12 L16,11 Z M16,13 L17,13 L17,14 L16,14 L16,13 Z M16,15 L17,15 L17,16 L16,16 L16,15 Z M4,3 L5,3 L5,4 L4,4 L4,3 Z M6,3 L7,3 L7,4 L6,4 L6,3 Z M8,3 L9,3 L9,4 L8,4 L8,3 Z M10,3 L11,3 L11,4 L10,4 L10,3 Z M12,3 L13,3 L13,4 L12,4 L12,3 Z M14,3 L15,3 L15,4 L14,4 L14,3 Z M16,3 L16.5,3 C16.776142,3 17,3.231934 17,3.5 L17,4 L16,4 L16,3 Z M4,17 L5,17 L5,18 L4,18 L4,17 Z M6,17 L7,17 L7,18 L6,18 L6,17 Z M8,17 L9,17 L9,18 L8,18 L8,17 Z M10,17 L11,17 L11,18 L10,18 L10,17 Z M12,17 L13,17 L13,18 L12,18 L12,17 Z M14,17 L15,17 L15,18 L14,18 L14,17 Z M16,17 L17,17 L17,17.5 C17,17.776142 16.768066,18 16.5,18 L16,18 L16,17 Z"/>
</svg>
