<?xml version="1.0" encoding="UTF-8"?>
<svg width="20px" height="20px" viewBox="0 0 20 20" version="1.1" xmlns="http://www.w3.org/2000/svg" xmlns:xlink="http://www.w3.org/1999/xlink">
    <!-- Generator: Sketch 39.1 (31720) - http://www.bohemiancoding.com/sketch -->
    <title>settings_alt_active</title>
    <desc>Created with Sketch.</desc>
    <defs></defs>
    <g id="Page-3" stroke="none" stroke-width="1" fill="none" fill-rule="evenodd">
        <g id="Icons" transform="translate(-167.000000, -186.000000)" fill="#000000">
            <path d="M176.787013,196 L183,196 L183,195 L176.787013,195 L173.520503,189.162363 L172.599998,189.553094 L175.92765,195.5 L172.599998,201.446906 L173.520503,201.837637 L176.787013,196 Z M183.983598,196 C183.935593,196.729329 183.783334,197.430182 183.541583,198.087797 L185.38205,198.907225 L184.975314,199.820771 L183.134359,199.001125 C182.839933,199.557884 182.477476,200.073118 182.058056,200.535758 L183.458924,201.986399 L182.739585,202.681057 L181.33879,201.230492 C180.86228,201.633262 180.334852,201.977674 179.767534,202.252698 L180.522355,204.120943 L179.595171,204.49555 L178.840469,202.627598 C178.255421,202.819593 177.638627,202.941563 177,202.983598 L177,205 L176,205 L176,202.983598 C175.361373,202.941563 174.744579,202.819593 174.159531,202.627598 L173.404829,204.49555 L172.477645,204.120943 L173.232466,202.252698 C172.665148,201.977674 172.13772,201.633262 171.66121,201.230492 L170.260415,202.681057 L169.541076,201.986399 L170.941944,200.535758 C170.522524,200.073118 170.160067,199.557884 169.865641,199.001125 L168.024686,199.820771 L167.61795,198.907225 L169.458417,198.087797 C169.216666,197.430182 169.064407,196.729329 169.016402,196 L167,196 L167,195 L169.016402,195 C169.064407,194.270671 169.216666,193.569818 169.458417,192.912203 L167.61795,192.092775 L168.024686,191.179229 L169.865641,191.998875 C170.160067,191.442116 170.522524,190.926882 170.941944,190.464242 L169.541076,189.013601 L170.260415,188.318943 L171.66121,189.769508 C172.13772,189.366738 172.665148,189.022326 173.232466,188.747302 L172.477645,186.879057 L173.404829,186.50445 L174.159531,188.372402 C174.744579,188.180407 175.361373,188.058437 176,188.016402 L176,186 L177,186 L177,188.016402 C177.638627,188.058437 178.255421,188.180407 178.840469,188.372402 L179.595171,186.50445 L180.522355,186.879057 L179.767534,188.747302 C180.334852,189.022326 180.86228,189.366738 181.33879,189.769508 L182.739585,188.318943 L183.458924,189.013601 L182.058056,190.464242 C182.477476,190.926882 182.839933,191.442116 183.134359,191.998875 L184.975314,191.179229 L185.38205,192.092775 L183.541583,192.912203 C183.783334,193.569818 183.935593,194.270671 183.983598,195 L186,195 L186,196 L183.983598,196 Z" id="Combined-Shape"></path>
        </g>
    </g>
</svg>