<svg xmlns="http://www.w3.org/2000/svg" width="20" height="20" viewBox="0 0 20 20">
  <path d="M5.252943,15.1524387 L6.90124117,14.2367173 C7.23282883,14.0525018 7.6332755,14.0409927 7.9748965,14.205859 C8.13220283,14.2817752 8.293722,14.3487768 8.45878783,14.4065047 C8.816587,14.5316367 9.09129267,14.8227935 9.19542583,15.187259 L9.71335117,17 L10.2866488,17 L10.8045742,15.187259 C10.9087073,14.8227935 11.183413,14.5316367 11.5412122,14.4065047 C11.706278,14.3487768 11.8677972,14.2817752 12.0251035,14.205859 C12.3667245,14.0409927 12.7671712,14.0525018 13.0987588,14.2367173 L14.747057,15.1524387 L15.1524387,14.747057 L14.2367173,13.0987588 C14.0525018,12.7671712 14.0409927,12.3667245 14.205859,12.0251035 C14.2817752,11.8677972 14.3487768,11.706278 14.4065047,11.5412122 C14.5316367,11.183413 14.8227935,10.9087073 15.187259,10.8045742 L17,10.2866488 L17,9.71335117 L15.187259,9.19542583 C14.8227935,9.09129267 14.5316367,8.816587 14.4065047,8.45878783 C14.3487768,8.293722 14.2817752,8.13220283 14.205859,7.9748965 C14.0409927,7.6332755 14.0525018,7.23282883 14.2367173,6.90124117 L15.1524387,5.252943 L14.747057,4.84756133 L13.0987588,5.76328267 C12.7671712,5.94749817 12.3667245,5.95900733 12.0251035,5.794141 C11.8677972,5.71822483 11.706278,5.65122317 11.5412122,5.59349533 C11.183413,5.46836333 10.9087073,5.1772065 10.8045742,4.812741 L10.2866488,3 L9.71335117,3 L9.19542583,4.812741 C9.09129267,5.1772065 8.816587,5.46836333 8.45878783,5.59349533 C8.293722,5.65122317 8.13220283,5.71822483 7.9748965,5.794141 C7.6332755,5.95900733 7.23282883,5.94749817 6.90124117,5.76328267 L5.252943,4.84756133 L4.84756133,5.252943 L5.76328267,6.90124117 C5.94749817,7.23282883 5.95900733,7.6332755 5.794141,7.9748965 C5.71822483,8.13220283 5.65122317,8.293722 5.59349533,8.45878783 C5.46836333,8.816587 5.1772065,9.09129267 4.812741,9.19542583 L3,9.71335117 L3,10.2866488 L4.812741,10.8045742 C5.1772065,10.9087073 5.46836333,11.183413 5.59349533,11.5412122 C5.65122317,11.706278 5.71822483,11.8677972 5.794141,12.0251035 C5.95900733,12.3667245 5.94749817,12.7671712 5.76328267,13.0987588 L4.84756133,14.747057 L5.252943,15.1524387 Z M2.549872,11.2999634 C2.24618629,11.2131966 2,10.8982457 2,10.5660754 L2,9.43392457 C2,9.11537714 2.24819657,8.78622971 2.549872,8.70003657 L4.60463657,8.11296114 C4.67573943,7.90965257 4.758008,7.71158743 4.85070857,7.51950171 L3.81275086,5.65117714 C3.65936686,5.37508457 3.70798971,4.97830171 3.94287086,4.74342171 L4.74342171,3.94287086 C4.96866857,3.71762286 5.37691314,3.66038171 5.65117714,3.81275086 L7.51950171,4.85070857 C7.71158743,4.758008 7.90965257,4.67573943 8.11296114,4.60463657 L8.70003657,2.549872 C8.78680343,2.24618629 9.10175429,2 9.43392457,2 L10.5660754,2 C10.8846229,2 11.2137703,2.24819657 11.2999634,2.549872 L11.8870389,4.60463657 C12.0903474,4.67573943 12.2884126,4.758008 12.4804983,4.85070857 L14.3488229,3.81275086 C14.6249154,3.65936686 15.0216983,3.70798971 15.2565783,3.94287086 L16.0571291,4.74342171 C16.2823771,4.96866857 16.3396183,5.37691314 16.1872491,5.65117714 L15.1492914,7.51950171 C15.241992,7.71158743 15.3242606,7.90965257 15.3953634,8.11296114 L17.450128,8.70003657 C17.7538137,8.78680343 18,9.10175429 18,9.43392457 L18,10.5660754 C18,10.8846229 17.7518034,11.2137703 17.450128,11.2999634 L15.3953634,11.8870389 C15.3242606,12.0903474 15.241992,12.2884126 15.1492914,12.4804983 L16.1872491,14.3488229 C16.3406331,14.6249154 16.2920103,15.0216983 16.0571291,15.2565783 L15.2565783,16.0571291 C15.0313314,16.2823771 14.6230869,16.3396183 14.3488229,16.1872491 L12.4804983,15.1492914 C12.2884126,15.241992 12.0903474,15.3242606 11.8870389,15.3953634 L11.2999634,17.450128 C11.2131966,17.7538137 10.8982457,18 10.5660754,18 L9.43392457,18 C9.11537714,18 8.78622971,17.7518034 8.70003657,17.450128 L8.11296114,15.3953634 C7.90965257,15.3242606 7.71158743,15.241992 7.51950171,15.1492914 L5.65117714,16.1872491 C5.37508457,16.3406331 4.97830171,16.2920103 4.74342171,16.0571291 L3.94287086,15.2565783 C3.71762286,15.0313314 3.66038171,14.6230869 3.81275086,14.3488229 L4.85070857,12.4804983 C4.758008,12.2884126 4.67573943,12.0903474 4.60463657,11.8870389 L2.549872,11.2999634 Z M10,12 C11.104569,12 12,11.104569 12,10 C12,8.895431 11.104569,8 10,8 C8.895431,8 8,8.895431 8,10 C8,11.104569 8.895431,12 10,12 Z M10,13 C8.343146,13 7,11.656854 7,10 C7,8.343146 8.343146,7 10,7 C11.656854,7 13,8.343146 13,10 C13,11.656854 11.656854,13 10,13 Z"/>
</svg>
