<svg xmlns="http://www.w3.org/2000/svg" width="20" height="20" viewBox="0 0 20 20">
  <g fill="none" fill-rule="evenodd">
    <path fill="#000" fill-rule="nonzero" d="M7.39937168,4 L7.55453238,4.00265366 C7.417828,4.46730445 7.36927514,4.94498701 7.4029239,5.41321865 L7.4029239,5.41321865 L7.408,5.476 L7.405,6.634 L7.40383439,6.63751143 L7.403,6.707 L7.36286772,6.77981519 L7.27892342,6.95775737 C7.15147154,7.25805268 7.08646668,7.57626293 7.08646668,7.901736 L7.08646668,7.901736 L7.08646668,9.172943 L7.09536046,9.37210296 L7.1235685,9.57674803 L7.16599315,9.77420641 C7.24834107,10.097137 7.38837237,10.3887893 7.57832468,10.6424946 L7.57832468,10.6424946 L7.692,10.782 L7.76485998,11.0106829 L7.89376251,11.3574144 C7.98585075,11.5874657 8.09015358,11.81525 8.20611998,12.0404013 L8.20611998,12.0404013 L8.30834552,12.2329075 L8.44039729,12.4656473 L8.57278885,12.6831768 L8.674,12.839 L8.674,13.292 L4.64572562,15.1263479 L4.41669504,15.3753657 L4.28156549,15.5305545 C4.19134236,15.6419643 4.14873335,15.7213534 4.09112856,15.8644594 C3.96860692,16.1688363 3.97460126,16.3067931 4.03551782,16.704849 L4.03551782,16.704849 L4.05780402,16.850477 L4.06789883,16.8735694 C4.06972101,16.8925542 4.07150273,16.9129905 4.07328429,16.9353738 L4.07328429,16.9353738 L4.11088125,17.5591444 L4.13219236,17.7955232 L4.1451221,17.8816567 C4.16770117,18.0097207 4.18908235,18.1032519 4.23680347,18.1971259 L0.772656681,18.199689 C0.772656681,18.199689 0.423776681,17.985926 0.314011681,17.90422 C0.244552681,17.852517 0.190111681,17.806227 0.144721681,17.755981 C0.0933656813,17.69923 0.0933656813,16.69923 0.0240096813,16.553575 C-0.0235293187,16.242934 -0.0235293187,16.242934 0.244161681,15.952554 L4.33223168,14.089095 C4.5134094,13.9903033 4.63578074,13.813634 4.66704648,13.6135161 L4.673,13.52 L4.64239828,13.4797692 C4.48135818,13.2601016 4.28774568,12.9564815 4.09512768,12.582509 C3.89932208,12.2023482 3.73705824,11.8052223 3.61868829,11.3946681 L3.584,11.262 L3.52678681,11.211281 C3.25038796,10.9425782 3.08646668,10.5713526 3.08646668,10.172943 L3.08646668,8.901736 C3.08646668,8.62517067 3.19377435,8.13296333 3.40838968,7.425114 C3.40542468,7.401731 3.40542468,7.401731 3.40035168,7.34154 C3.36467368,6.845071 3.44983268,6.260296 3.76043268,5.690523 C4.34027568,4.626845 5.53090468,4 7.39937168,4 Z M9.54158868,4.374125 C9.45706401,4.583173 10.710554,8.90689233 13.3020587,17.345283 L13.3027967,17.342056 L14.4766847,17.342814 C14.4658177,17.542102 14.4535077,17.703576 14.4335967,17.729068 C14.3892117,17.785788 14.3359327,17.836002 14.2675647,17.891511 C14.2029009,17.9440135 14.0494141,18.0484746 13.9433924,18.1194372 L13.8476719,18.1830439 C13.8384232,18.1891421 13.8332537,18.192533 13.8332537,18.192533 L5.768,18.196 L5.43198207,17.9848568 L5.31401168,17.90422 C5.24455268,17.852517 5.19011168,17.806227 5.14472168,17.755981 C5.13188268,17.7417932 5.12225343,17.6686524 5.11394781,17.564646 L5.11394781,17.564646 L5.07471783,16.9174341 L5.05346687,16.6892757 C5.04520179,16.6258585 5.03556901,16.5778508 5.02400968,16.553575 L5.02400968,16.553575 L5.00177576,16.3859063 C4.99141653,16.2510674 5.02392915,16.194931 5.16454384,16.039417 L5.16454384,16.039417 L5.24416168,15.952554 L9.33223168,14.089095 L9.41777047,14.0334613 C9.55166913,13.9307622 9.6409917,13.780281 9.66704648,13.6135161 L9.66704648,13.6135161 L9.67493768,13.511755 L9.674,12.521 L9.55931926,12.3630023 C9.4453425,12.198153 9.31937554,11.9969989 9.19136415,11.7635696 L9.19136415,11.7635696 L9.09512768,11.582509 L8.95472431,11.2942627 C8.82093353,11.002946 8.70746575,10.7025837 8.61868829,10.3946681 L8.61868829,10.3946681 L8.584,10.262 L8.52678681,10.211281 L8.4285101,10.1058589 C8.24290337,9.8859916 8.1241824,9.61375253 8.09405002,9.3209252 L8.09405002,9.3209252 L8.08646668,9.172943 L8.08646668,7.901736 L8.09473804,7.74767732 C8.12213444,7.49369829 8.21671086,7.25499596 8.3653577,7.05181327 L8.3653577,7.05181327 L8.404,7.002 L8.40838968,5.425114 L8.40588104,5.40426561 L8.39307795,5.17292145 C8.38816548,4.83723659 8.43957022,4.46888743 8.57629128,4.09651379 C8.93273976,4.15944002 9.25394114,4.25278319 9.54158868,4.374125 Z"/>
    <path fill="#000" fill-rule="nonzero" d="M5.02400968,16.553575 C5.09336568,16.69923 5.09336568,17.69923 5.14472168,17.755981 C5.19011168,17.806227 5.24455268,17.852517 5.31401168,17.90422 C5.42377668,17.985926 5.77265668,18.199689 5.77265668,18.199689 L18.8332537,18.192533 C18.8332537,18.192533 19.1641027,17.975515 19.2675647,17.891511 C19.3359327,17.836002 19.3892117,17.785788 19.4335967,17.729068 C19.4857567,17.662286 19.4857567,16.662286 19.5444325,16.493956 C19.5454477,16.174837 19.5454477,16.174837 19.2713217,15.933402 L15.1970727,14.144595 C14.9465377,14.018217 14.8058247,13.790554 14.8058247,13.541509 L14.8058247,12.350245 L14.3058247,12.350245 L14.6809057,12.680872 C14.7792427,12.569313 14.8873427,12.430486 15.0007147,12.270753 C15.4372487,11.654158 15.7760897,10.968065 16.0125087,10.233019 L15.5365227,10.079925 L15.6840297,10.557671 C16.2886997,10.370976 16.7122777,9.81362 16.7122777,9.172943 L16.7122777,7.901736 C16.7122777,7.486888 16.5335847,7.100784 16.2298957,6.826339 L15.8946547,7.197302 L16.3946547,7.197302 L16.3946547,5.359679 C16.4340707,4.845071 16.3489117,4.260296 16.0383117,3.690523 C15.4584687,2.626845 14.2678397,2 12.3993717,2 C10.5309047,2 9.34027568,2.626845 8.76043268,3.690523 C8.44983268,4.260296 8.36467368,4.845071 8.40035168,5.34154 C8.40542468,5.401731 8.40542468,5.401731 8.40838968,5.425114 L8.40408868,7.197302 L8.90408868,7.197302 L8.56884868,6.826339 C8.26515968,7.100784 8.08646668,7.486888 8.08646668,7.901736 L8.08646668,9.172943 C8.08646668,9.670955 8.34259368,10.126492 8.75437168,10.392408 L9.02561768,9.972377 L8.53830268,10.08429 C8.65802268,10.605599 8.85037068,11.107308 9.09512768,11.582509 C9.35195168,12.081139 9.61054368,12.454698 9.79133768,12.670949 L9.67493768,12.350245 L9.67493768,13.511755 C9.67493768,13.752581 9.54360568,13.973838 9.33223168,14.089095 L5.24416168,15.952554 C4.97647068,16.242934 4.97647068,16.242934 5.02400968,16.553575 Z"/>
  </g>
</svg>
