<svg xmlns="http://www.w3.org/2000/svg" width="20" height="20" viewBox="0 0 20 20">
  <g fill="none" fill-rule="evenodd">
    <path fill="#000" fill-rule="nonzero" d="M10,4 C14.0909091,4 17.5845455,6.54454545 19,10.1363636 C17.5845455,13.7281818 14.0909091,16.2727273 10,16.2727273 C5.90909091,16.2727273 2.41545455,13.7281818 1,10.1363636 C2.41545455,6.54454545 5.90909091,4 10,4 Z M10,5 C6.60211298,5 3.57329484,6.9768845 2.15710989,9.97856447 L2.085,10.136 L2.15710989,10.2941628 C3.53283241,13.2100805 6.43035409,15.1589259 9.70968539,15.2679081 L10,15.2727273 C13.397887,15.2727273 16.4267052,13.2958428 17.8428901,10.2941628 L17.914,10.136 L17.8428901,9.97856447 C16.4671676,7.06264678 13.5696459,5.1138014 10.2903146,5.00481914 L10,5 Z M10,6.68181818 C11.9104666,6.68181818 13.4545455,8.22589707 13.4545455,10.1363636 C13.4545455,12.0468302 11.9104666,13.5909091 10,13.5909091 C8.08953343,13.5909091 6.54545455,12.0468302 6.54545455,10.1363636 C6.54545455,8.22589707 8.08953343,6.68181818 10,6.68181818 Z M10,7.68181818 C8.64181818,7.68181818 7.54545455,8.77818182 7.54545455,10.1363636 C7.54545455,11.4945455 8.64181818,12.5909091 10,12.5909091 C11.3581818,12.5909091 12.4545455,11.4945455 12.4545455,10.1363636 C12.4545455,8.77818182 11.3581818,7.68181818 10,7.68181818 Z"/>
    <path fill="#000" fill-rule="nonzero" d="M10,4 C14.0909091,4 17.5845455,6.54454545 19,10.1363636 C17.5845455,13.7281818 14.0909091,16.2727273 10,16.2727273 C5.90909091,16.2727273 2.41545455,13.7281818 1,10.1363636 C2.41545455,6.54454545 5.90909091,4 10,4 Z M10,7.68181818 C8.64181818,7.68181818 7.54545455,8.77818182 7.54545455,10.1363636 C7.54545455,11.4945455 8.64181818,12.5909091 10,12.5909091 C11.3581818,12.5909091 12.4545455,11.4945455 12.4545455,10.1363636 C12.4545455,8.77818182 11.3581818,7.68181818 10,7.68181818 Z" opacity=".1"/>
  </g>
</svg>
