<?xml version="1.0" encoding="UTF-8" standalone="no"?>
<svg width="20px" height="20px" viewBox="0 0 20 20" version="1.1" xmlns="http://www.w3.org/2000/svg" xmlns:xlink="http://www.w3.org/1999/xlink">
    <!-- Generator: Sketch 3.6.1 (26313) - http://www.bohemiancoding.com/sketch -->
    <title>size_small</title>
    <desc>Created with Sketch.</desc>
    <defs></defs>
    <g id="Page-3" stroke="none" stroke-width="1" fill="none" fill-rule="evenodd">
        <g id="Icons" transform="translate(-217.000000, -76.000000)" fill="#000000">
            <path d="M223,82.9970301 L223,82.9970301 L223,89.0029699 C223,88.998367 223.001623,89 222.995398,89 L231.004602,89 C230.996687,89 231,88.9967046 231,89.0029699 L231,82.9970301 C231,83.001633 230.998377,83 231.004602,83 L222.995398,83 C223.003313,83 223,83.0032954 223,82.9970301 L223,82.9970301 Z M222,82.9970301 C222,82.4463856 222.455664,82 222.995398,82 L231.004602,82 C231.554345,82 232,82.4530363 232,82.9970301 L232,89.0029699 C232,89.5536144 231.544336,90 231.004602,90 L222.995398,90 C222.445655,90 222,89.5469637 222,89.0029699 L222,82.9970301 Z M229,84 L230,84 L230,85 L229,85 L229,84 Z" id="Combined-Shape"></path>
        </g>
    </g>
</svg>