<svg xmlns="http://www.w3.org/2000/svg" width="20" height="20" viewBox="0 0 20 20">
  <path d="M12.5,1 C13.3284271,1 14,1.67157288 14,2.5 L14,7.5 C14,8.32842712 13.3284271,9 12.5,9 C11.6715729,9 11,8.32842712 11,7.5 L11,2.5 C11,1.67157288 11.6715729,1 12.5,1 Z M2.5,11 L4,11 L4,12.5 C4,13.3284271 3.32842712,14 2.5,14 C1.67157288,14 1,13.3284271 1,12.5 C1,11.6715729 1.67157288,11 2.5,11 Z M11,16 L12.5,16 C13.3284271,16 14,16.6715729 14,17.5 C14,18.3284271 13.3284271,19 12.5,19 C11.6715729,19 11,18.3284271 11,17.5 L11,16 Z M12.5,11 L17.5,11 C18.3284271,11 19,11.6715729 19,12.5 C19,13.3284271 18.3284271,14 17.5,14 L12.5,14 C11.6715729,14 11,13.3284271 11,12.5 C11,11.6715729 11.6715729,11 12.5,11 Z M17.5,6 C18.3284271,6 19,6.67157288 19,7.5 C19,8.32842712 18.3284271,9 17.5,9 L16,9 L16,7.5 C16,6.67157288 16.6715729,6 17.5,6 Z M2.5,6 L7.5,6 C8.32842712,6 9,6.67157288 9,7.5 C9,8.32842712 8.32842712,9 7.5,9 L2.5,9 C1.67157288,9 1,8.32842712 1,7.5 C1,6.67157288 1.67157288,6 2.5,6 Z M7.5,1 C8.32842712,1 9,1.67157288 9,2.5 L9,4 L7.5,4 C6.67157288,4 6,3.32842712 6,2.5 C6,1.67157288 6.67157288,1 7.5,1 Z M7.5,11 C8.32842712,11 9,11.6715729 9,12.5 L9,17.5 C9,18.3284271 8.32842712,19 7.5,19 C6.67157288,19 6,18.3284271 6,17.5 L6,12.5 C6,11.6715729 6.67157288,11 7.5,11 Z"/>
</svg>
