<svg xmlns="http://www.w3.org/2000/svg" width="20" height="20" viewBox="0 0 20 20">
  <g fill="none" fill-rule="evenodd">
    <path fill="#000" fill-rule="nonzero" d="M9,2 C12.8659932,2 16,5.13400675 16,9 C16,10.7530734 15.3555667,12.3556314 14.2906721,13.583702 L17.853553,17.1464466 C18.048816,17.3417088 18.048816,17.6582912 17.853553,17.8535534 C17.658291,18.0488155 17.341709,18.0488155 17.146447,17.8535534 L13.583702,14.2906721 C12.3556314,15.3555667 10.7530734,16 9,16 C5.13400675,16 2,12.8659932 2,9 C2,5.13400675 5.13400675,2 9,2 Z M9,3 C5.6862915,3 3,5.6862915 3,9 C3,12.3137085 5.6862915,15 9,15 C12.3137085,15 15,12.3137085 15,9 C15,5.6862915 12.3137085,3 9,3 Z"/>
    <g fill="#000" fill-rule="nonzero" transform="matrix(1 0 0 -1 8 13)">
      <polygon points="2 2 3 2 3 4 2 4"/>
      <polygon points="2.5 0 5 2 0 2"/>
    </g>
    <g fill="#000" fill-rule="nonzero" transform="translate(5 5)">
      <polygon points="2 2 3 2 3 4 2 4"/>
      <polygon points="2.5 0 5 2 0 2"/>
    </g>
  </g>
</svg>
