<svg xmlns="http://www.w3.org/2000/svg" width="20" height="20" viewBox="0 0 20 20">
  <path fill-rule="evenodd" d="M10.5000102,12.000004 C10.7761526,12.000004 11.0000102,12.2238616 11.0000102,12.500004 L11.0000102,17.500004 C10.9991891,17.5627585 10.9892471,17.618187 10.9699246,17.6712252 L10.9621822,17.6911217 L10.9537511,17.710335 C10.9477622,17.7232607 10.9410418,17.73624 10.9337053,17.7489845 C10.9254867,17.7633063 10.9162883,17.7775856 10.9064087,17.7913426 C10.899429,17.8010357 10.8919779,17.8106678 10.8841209,17.8200962 L10.8221539,17.8824102 C10.800401,17.900754 10.7770612,17.9172754 10.7523698,17.9317393 C10.676861,17.9762272 10.5900165,17.9994978 10.5026773,18.0000079 L10.5000102,18.000004 L10.4886147,17.9998933 C10.4345758,17.9986964 10.3805444,17.9887735 10.328789,17.9699183 C10.3152405,17.9649685 10.3023168,17.9596129 10.2896792,17.9537449 C10.2778165,17.9482488 10.2658702,17.9421162 10.2541195,17.935463 C10.2379413,17.9262731 10.2230223,17.9167084 10.2086716,17.9064024 L10.179918,17.8841146 L7.17991803,15.3841146 C6.96777959,15.2073326 6.93911755,14.8920502 7.11589959,14.6799118 C7.27303919,14.4913443 7.53961112,14.4477458 7.74590095,14.5645449 L7.82010243,14.6158933 L10.0000102,16.4320079 L10.0000102,12.500004 C10.0000102,12.2238616 10.2238679,12.000004 10.5000102,12.000004 Z M12.5,14 C12.7761424,14 13,14.2238576 13,14.5 L13,15.5 C13,15.7761424 12.7761424,16 12.5,16 C12.2238576,16 12,15.7761424 12,15.5 L12,14.5 C12,14.2238576 12.2238576,14 12.5,14 Z M17.500004,8.9999977 C17.5627585,9.00081888 17.618187,9.01076086 17.6712252,9.03008334 L17.6911217,9.03782575 L17.710335,9.04625678 C17.7232607,9.0522457 17.73624,9.05896611 17.7489845,9.06630263 C17.7633063,9.0745212 17.7775856,9.0837196 17.7913426,9.09359923 C17.8010357,9.10057891 17.8106678,9.10803008 17.8200962,9.11588706 L17.8824102,9.17785406 C17.900754,9.19960696 17.9172754,9.22294676 17.9317393,9.24763812 C17.9762272,9.32314689 17.9994978,9.40999138 18.0000079,9.49733063 L17.9998933,9.51139325 C17.9986964,9.56543215 17.9887735,9.61946354 17.9699183,9.67121892 C17.9649685,9.68476739 17.9596129,9.69769118 17.9537449,9.71032874 C17.9482488,9.72219144 17.9421162,9.73413772 17.935463,9.74588841 C17.9262731,9.7620666 17.9167084,9.77698561 17.9064024,9.79133638 L17.8841146,9.8200899 L15.3841146,12.8200899 C15.2073326,13.0322283 14.8920502,13.0608904 14.6799118,12.8841083 C14.4913443,12.7269687 14.4477458,12.4603968 14.5645449,12.254107 L14.6158933,12.1799055 L16.4320079,9.9999977 L12.500004,9.9999977 C12.2238616,9.9999977 12.000004,9.77614007 12.000004,9.4999977 C12.000004,9.22385532 12.2238616,8.9999977 12.500004,8.9999977 L17.500004,8.9999977 Z M5.5,12 C5.77614237,12 6,12.2238576 6,12.5 C6,12.7761424 5.77614237,13 5.5,13 L4.5,13 C4.22385763,13 4,12.7761424 4,12.5 C4,12.2238576 4.22385763,12 4.5,12 L5.5,12 Z M5.32009616,7.11589959 C5.50866367,7.27303919 5.55226216,7.53961112 5.43546305,7.74590095 L5.3841146,7.82010243 L3.568,10.0000102 L7.50000396,10.0000102 C7.77614634,10.0000102 8.00000396,10.2238679 8.00000396,10.5000102 C8.00000396,10.7761526 7.77614634,11.0000102 7.50000396,11.0000102 L2.50000396,11.0000102 C2.43724938,10.9991891 2.38182094,10.9892471 2.32878274,10.9699246 L2.30888624,10.9621822 L2.28967293,10.9537511 C2.27674719,10.9477622 2.26376797,10.9410418 2.25102345,10.9337053 C2.2367016,10.9254867 2.22242234,10.9162883 2.20866528,10.9064087 C2.19897226,10.899429 2.18934014,10.8919779 2.17991177,10.8841209 L2.1175977,10.8221539 C2.09925396,10.800401 2.08273249,10.7770612 2.06826862,10.7523698 C2.0237807,10.676861 2.00051008,10.5900165 2,10.5026773 L2.00011463,10.4886147 C2.00131156,10.4345758 2.01123448,10.3805444 2.03008961,10.328789 C2.03503946,10.3152405 2.04039504,10.3023168 2.04626305,10.2896792 C2.05175909,10.2778165 2.05789177,10.2658702 2.06454488,10.2541195 C2.0737348,10.2379413 2.0832995,10.2230223 2.0936055,10.2086716 L2.11589333,10.179918 L4.61589333,7.17991803 C4.79267537,6.96777959 5.10795772,6.93911755 5.32009616,7.11589959 Z M9.51139325,2.00011463 C9.56543215,2.00131156 9.61946354,2.01123448 9.67121892,2.03008961 C9.68476739,2.03503946 9.69769118,2.04039504 9.71032874,2.04626305 C9.72219144,2.05175909 9.73413772,2.05789177 9.74588841,2.06454488 C9.7620666,2.0737348 9.77698561,2.0832995 9.79133638,2.0936055 L9.8200899,2.11589333 L12.8200899,4.61589333 C13.0322283,4.79267537 13.0608904,5.10795772 12.8841083,5.32009616 C12.7269687,5.50866367 12.4603968,5.55226216 12.254107,5.43546305 L12.1799055,5.3841146 L9.9999977,3.568 L9.9999977,7.50000396 C9.9999977,7.77614634 9.77614007,8.00000396 9.4999977,8.00000396 C9.22385532,8.00000396 8.9999977,7.77614634 8.9999977,7.50000396 L8.9999977,2.50000396 C9.00081888,2.43724938 9.01076086,2.38182094 9.03008334,2.32878274 L9.03782575,2.30888624 L9.04625678,2.28967293 C9.0522457,2.27674719 9.05896611,2.26376797 9.06630263,2.25102345 C9.0745212,2.2367016 9.0837196,2.22242234 9.09359923,2.20866528 C9.10057891,2.19897226 9.10803008,2.18934014 9.11588706,2.17991177 L9.17785406,2.1175977 C9.19960696,2.09925396 9.22294676,2.08273249 9.24763812,2.06826862 C9.32314689,2.0237807 9.40999138,2.00051008 9.49733063,2 L9.51139325,2.00011463 Z M15.5,7 C15.7761424,7 16,7.22385763 16,7.5 C16,7.77614237 15.7761424,8 15.5,8 L14.5,8 C14.2238576,8 14,7.77614237 14,7.5 C14,7.22385763 14.2238576,7 14.5,7 L15.5,7 Z M7.5,4 C7.77614237,4 8,4.22385763 8,4.5 L8,5.5 C8,5.77614237 7.77614237,6 7.5,6 C7.22385763,6 7,5.77614237 7,5.5 L7,4.5 C7,4.22385763 7.22385763,4 7.5,4 Z"/>
</svg>
