<svg xmlns="http://www.w3.org/2000/svg" width="20" height="20" viewBox="0 0 20 20">
  <path d="M4.7843055,2.58859116 L4.85355339,2.64644661 L7.85355339,5.64644661 C8.04881554,5.84170876 8.04881554,6.15829124 7.85355339,6.35355339 C7.67998704,6.52711974 7.41056264,6.54640489 7.2156945,6.41140884 L7.14644661,6.35355339 L4.999,4.205 L4.999,15.794 L7.14644661,13.6464466 L7.2156945,13.5885912 C7.41056264,13.4535951 7.67998704,13.4728803 7.85355339,13.6464466 C8.04881554,13.8417088 8.04881554,14.1582912 7.85355339,14.3535534 L7.85355339,14.3535534 L4.85355339,17.3535534 L4.7843055,17.4114088 C4.58943736,17.5464049 4.32001296,17.5271197 4.14644661,17.3535534 L4.14644661,17.3535534 L1.14644661,14.3535534 L1.08859116,14.2843055 C0.953595107,14.0894374 0.972880258,13.820013 1.14644661,13.6464466 L1.14644661,13.6464466 L1.2156945,13.5885912 C1.41056264,13.4535951 1.67998704,13.4728803 1.85355339,13.6464466 L1.85355339,13.6464466 L3.999,15.792 L3.999,4.207 L1.85355339,6.35355339 C1.67998704,6.52711974 1.41056264,6.54640489 1.2156945,6.41140884 L1.14644661,6.35355339 C0.972880258,6.17998704 0.953595107,5.91056264 1.08859116,5.7156945 L1.14644661,5.64644661 L4.14644661,2.64644661 C4.32001296,2.47288026 4.58943736,2.45359511 4.7843055,2.58859116 Z M18.4285714,14 C18.7441627,14 19,14.2238576 19,14.5 C19,14.7761424 18.7441627,15 18.4285714,15 L11.5714286,15 C11.2558373,15 11,14.7761424 11,14.5 C11,14.2238576 11.2558373,14 11.5714286,14 L18.4285714,14 Z M18.4285714,9 C18.7441627,9 19,9.22385763 19,9.5 C19,9.77614237 18.7441627,10 18.4285714,10 L11.5714286,10 C11.2558373,10 11,9.77614237 11,9.5 C11,9.22385763 11.2558373,9 11.5714286,9 L18.4285714,9 Z M18.4285714,4 C18.7441627,4 19,4.22385763 19,4.5 C19,4.77614237 18.7441627,5 18.4285714,5 L11.5714286,5 C11.2558373,5 11,4.77614237 11,4.5 C11,4.22385763 11.2558373,4 11.5714286,4 L18.4285714,4 Z"/>
</svg>
