<svg xmlns="http://www.w3.org/2000/svg" width="20" height="20" viewBox="0 0 20 20">
  <path d="M10,4 C13.3137085,4 16,6.6862915 16,10 C16,13.3137085 13.3137085,16 10,16 C6.6862915,16 4,13.3137085 4,10 C4,6.6862915 6.6862915,4 10,4 Z M5.13590702,8.84372611 L5.11236106,8.941029 C5.03875651,9.28236161 5,9.63665477 5,10 C5,12.5903773 6.96984394,14.7206728 9.49328639,14.9746413 C10.130312,14.0576615 10.0989314,13.6 9.4,13.6 C8.66821289,13.6 8.24021289,13.014 8.116,11.842 L5.2,8.926 C5.17894826,8.89359003 5.15758394,8.8661654 5.13590702,8.84372611 Z M11.8007161,5.33407189 L11.8,6 C11.8,6.55228475 11.3522847,7 10.8,7 L9.4,7 L9.4,7.926 C9.4,8.47828475 8.95228475,8.926 8.4,8.926 L7.6,8.926 L7.6,10 L10.8,10 C11.3522847,10 11.8,10.4477153 11.8,11 L11.8,12.4 C12.9990072,12.428 13.5985107,12.828 13.5985107,13.6 L13.5937596,13.4763393 C14.4643037,12.5765772 15,11.3508479 15,10 C15,7.87339496 13.6723627,6.05687624 11.8007161,5.33407189 Z"/>
</svg>
