<svg xmlns="http://www.w3.org/2000/svg" width="20" height="20" viewBox="0 0 20 20">
  <g fill="none" fill-rule="evenodd">
    <polygon fill="#000" points="6 11 14 11 14 13 13 15 7 15 6 13" opacity=".1"/>
    <path fill="#000" d="M10,4 C13.3137085,4 16,6.6862915 16,10 C16,13.3137085 13.3137085,16 10,16 C6.6862915,16 4,13.3137085 4,10 C4,6.6862915 6.6862915,4 10,4 Z M10,11 C8.36472078,11 6.91279657,11.7850361 5.99977979,13.0001943 C6.91199508,14.2145305 8.36426942,15 10,15 C11.6352792,15 13.0872034,14.2149639 14.0002202,12.9998057 C13.0880049,11.7854695 11.6357306,11 10,11 Z M10,6 C8.8954305,6 8,6.8954305 8,8 C8,9.1045695 8.8954305,10 10,10 C11.1045695,10 12,9.1045695 12,8 C12,6.8954305 11.1045695,6 10,6 Z"/>
  </g>
</svg>
