<svg xmlns="http://www.w3.org/2000/svg" width="20" height="20" viewBox="0 0 20 20">
  <g fill="none" fill-rule="evenodd">
    <path fill="#000" fill-rule="nonzero" d="M13.3067451,3.00062047 L13.3969155,3.00405917 C13.6403827,3.03527291 13.8203816,3.23667254 13.8327129,3.47341177 L13.8292742,3.56358216 L13.3883333,6.99962047 L16.6666667,7 C16.942809,7 17.1666667,7.22385763 17.1666667,7.5 C17.1666667,7.74545989 16.9897915,7.94960837 16.7565423,7.99194433 L16.6666667,8 L13.2593333,7.99962047 L12.7473333,11.9996205 L16.6666667,12 C16.942809,12 17.1666667,12.2238576 17.1666667,12.5 C17.1666667,12.7454599 16.9897915,12.9496084 16.7565423,12.9919443 L16.6666667,13 L12.6193333,12.9996205 L12.1626075,16.5635822 C12.127492,16.8374827 11.8769851,17.0310563 11.6030845,16.9959408 C11.3596173,16.9647271 11.1796184,16.7633275 11.1672871,16.5265882 L11.1707258,16.4364178 L11.6113333,12.9996205 L7.61933333,12.9996205 L7.1626075,16.5635822 C7.12749204,16.8374827 6.87698507,17.0310563 6.60308451,16.9959408 C6.35961735,16.9647271 6.17961842,16.7633275 6.16728713,16.5265882 L6.17072583,16.4364178 L6.61133333,12.9996205 L3.33333333,13 C3.05719096,13 2.83333333,12.7761424 2.83333333,12.5 C2.83333333,12.2545401 3.01020849,12.0503916 3.2434577,12.0080557 L3.33333333,12 L6.73933333,11.9996205 L7.25233333,7.99962047 L3.33333333,8 C3.05719096,8 2.83333333,7.77614237 2.83333333,7.5 C2.83333333,7.25454011 3.01020849,7.05039163 3.2434577,7.00805567 L3.33333333,7 L7.38033333,6.99962047 L7.8373925,3.43641784 C7.86860624,3.19295068 8.07000587,3.01295175 8.30674511,3.00062047 L8.39691549,3.00405917 C8.64038265,3.03527291 8.82038158,3.23667254 8.83271287,3.47341177 L8.82927417,3.56358216 L8.38833333,6.99962047 L12.3803333,6.99962047 L12.8373925,3.43641784 C12.8686062,3.19295068 13.0700059,3.01295175 13.3067451,3.00062047 Z M11.7393333,11.9996205 L12.2523333,7.99962047 L8.25933333,7.99962047 L7.74733333,11.9996205 L11.7393333,11.9996205 Z"/>
    <polygon fill="#000" points="9 9 12 9 11 11 8 11" opacity=".1"/>
  </g>
</svg>
