<?xml version="1.0" encoding="UTF-8" standalone="no"?>
<svg width="20px" height="20px" viewBox="0 0 20 20" version="1.1" xmlns="http://www.w3.org/2000/svg" xmlns:xlink="http://www.w3.org/1999/xlink">
    <!-- Generator: Sketch 3.8.3 (29802) - http://www.bohemiancoding.com/sketch -->
    <title>tag_active</title>
    <desc>Created with Sketch.</desc>
    <defs></defs>
    <g id="Page-3" stroke="none" stroke-width="1" fill="none" fill-rule="evenodd">
        <g id="Icons" transform="translate(-620.000000, -76.000000)" fill="#000000">
            <path d="M622.002929,80 L632.997771,80 C633.551287,80 634.283148,80.3397772 634.643427,80.7721119 L638.356573,85.2278881 C638.711928,85.6543137 638.716852,86.3397772 638.356573,86.7721119 L634.643427,91.2278881 C634.288072,91.6543137 633.54435,92 632.997771,92 L622.002929,92 C621.449027,92 621,91.5469637 621,91.0029699 L621,80.9970301 C621,80.4463856 621.437881,80 622.002929,80 Z M624,84 L625,84 L625,88 L624,88 L624,84 Z M626,84 L627,84 L627,88 L626,88 L626,84 Z" id="Combined-Shape"></path>
        </g>
    </g>
</svg>