<?xml version="1.0" encoding="UTF-8" standalone="no"?>
<svg width="20px" height="20px" viewBox="0 0 20 20" version="1.1" xmlns="http://www.w3.org/2000/svg" xmlns:xlink="http://www.w3.org/1999/xlink">
    <!-- Generator: Sketch 3.8.3 (29802) - http://www.bohemiancoding.com/sketch -->
    <title>tools</title>
    <desc>Created with Sketch.</desc>
    <defs></defs>
    <g id="Page-3" stroke="none" stroke-width="1" fill="none" fill-rule="evenodd">
        <g id="Icons" transform="translate(-107.000000, -46.000000)" fill="#000000">
            <g id="Group" transform="translate(107.000000, 46.000000)">
                <path d="M9.5,17.94 C4.84,17.94 1.06,14.16 1.06,9.5 C1.06,4.84 4.84,1.06 9.5,1.06 C14.16,1.06 17.94,4.84 17.94,9.5 C17.94,14.16 14.16,17.94 9.5,17.94 L9.5,17.94 Z" id="Shape" opacity="0.119999997"></path>
                <path d="M19,9.5 C19,4.25 14.75,0 9.5,0 C4.25,0 0,4.25 0,9.5 C0,14.75 4.25,19 9.5,19 C14.75,19 19,14.75 19,9.5 Z M9.5,17.94 C4.84,17.94 1.06,14.16 1.06,9.5 C1.06,4.84 4.84,1.06 9.5,1.06 C14.16,1.06 17.94,4.84 17.94,9.5 C17.94,14.16 14.16,17.94 9.5,17.94 L9.5,17.94 Z" id="Shape"></path>
                <path d="M5.3,7 L14,7 L14,6 L5,6 L5,7 L5.3,7 L5.3,7 Z M5.3,10 L14,10 L14,9 L5,9 L5,10 L5.3,10 L5.3,10 Z M5.3,13 L14,13 L14,12 L5,12 L5,13 L5.3,13 L5.3,13 Z" id="Shape"></path>
            </g>
        </g>
    </g>
</svg>