<?xml version="1.0" encoding="UTF-8" standalone="no"?>
<svg width="20px" height="20px" viewBox="0 0 20 20" version="1.1" xmlns="http://www.w3.org/2000/svg" xmlns:xlink="http://www.w3.org/1999/xlink">
    <!-- Generator: Sketch 3.6.1 (26313) - http://www.bohemiancoding.com/sketch -->
    <title>tools_active</title>
    <desc>Created with Sketch.</desc>
    <defs></defs>
    <g id="Page-3" stroke="none" stroke-width="1" fill="none" fill-rule="evenodd">
        <g id="Icons" transform="translate(-107.000000, -86.000000)" fill="#000000">
            <path d="M116.5,105 C121.746705,105 126,100.746705 126,95.5 C126,90.2532949 121.746705,86 116.5,86 C111.253295,86 107,90.2532949 107,95.5 C107,100.746705 111.253295,105 116.5,105 Z M112.3,93 L121,93 L121,92 L112,92 L112,93 L112.3,93 Z M112.3,96 L121,96 L121,95 L112,95 L112,96 L112.3,96 Z M112.3,99 L121,99 L121,98 L112,98 L112,99 L112.3,99 Z" id="Oval-449"></path>
        </g>
    </g>
</svg>