<?xml version="1.0" encoding="UTF-8" standalone="no"?>
<svg width="20px" height="20px" viewBox="0 0 20 20" version="1.1" xmlns="http://www.w3.org/2000/svg" xmlns:xlink="http://www.w3.org/1999/xlink">
    <!-- Generator: Sketch 3.8.3 (29802) - http://www.bohemiancoding.com/sketch -->
    <title>twitter</title>
    <desc>Created with Sketch.</desc>
    <defs></defs>
    <g id="Page-3" stroke="none" stroke-width="1" fill="none" fill-rule="evenodd">
        <g id="Artboard-10" transform="translate(-284.000000, -40.000000)" fill="#000000">
            <path d="M303,44.7315632 C302.338286,45.0256988 301.626149,45.2241033 300.878936,45.312892 C301.641861,44.8561598 302.226844,44.1326959 302.50271,43.2696547 C301.789112,43.6931368 300.999147,44.0004263 300.157664,44.1663114 C299.484258,43.4486937 298.52439,43 297.462213,43 C295.422995,43 293.769624,44.6533707 293.769624,46.6929541 C293.769624,46.9819743 293.802144,47.2636867 293.865355,47.5344376 C290.796115,47.3802448 288.074721,45.9102978 286.253273,43.6759637 C285.935388,44.2211193 285.753425,44.855429 285.753425,45.5328543 C285.753425,46.8138968 286.405274,47.9444005 287.3962,48.6064795 C286.791121,48.5871141 286.221485,48.4208635 285.723464,48.1442665 C285.723098,48.1596127 285.723098,48.1753243 285.723098,48.1910359 C285.723098,49.9799647 286.996103,51.4722002 288.685646,51.812009 C288.375799,51.8960477 288.04951,51.9413556 287.712624,51.9413556 C287.474393,51.9413556 287.243103,51.9183363 287.01766,51.8748554 C287.487912,53.3418793 288.851532,54.409902 290.467268,54.4394982 C289.203398,55.4300591 287.611412,56.0205225 285.880945,56.0205225 C285.583156,56.0205225 285.28902,56.002984 285,55.9686377 C286.634736,57.0169295 288.575665,57.6278546 290.660922,57.6278546 C297.453809,57.6278546 301.167956,52.0009135 301.167956,47.1208209 C301.167956,46.9607819 301.164667,46.8011083 301.157725,46.6425309 C301.878996,46.1229523 302.505268,45.4722002 303,44.7315632 L303,44.7315632 Z" id="Shape"></path>
        </g>
    </g>
</svg>