<svg xmlns="http://www.w3.org/2000/svg" width="20" height="20" viewBox="0 0 20 20">
  <g fill="none" fill-rule="evenodd">
    <path fill="#000" fill-rule="nonzero" d="M16.6049654,4.30693506 L17.1627351,4.31900357 C17.6203992,4.31983644 18.1429753,4.24755142 19,3.7281425 L18.8863614,4.27493479 L18.7798186,4.74815213 C18.5853871,5.55759361 18.3804676,6.07298521 17.9106137,6.7172247 C17.9106137,13.5747949 13.6957475,16.9093579 9.41896406,17.7627404 C6.48641508,18.3478145 2.22219453,17.3867496 1,16.1107139 L1.4565864,16.0652023 L1.77828531,16.0234884 C1.83623,16.0153164 1.89619529,16.0065069 1.95796593,15.9970181 L2.34853199,15.9316026 C3.37049766,15.7460241 4.70180468,15.3889057 5.61598285,14.7198171 L5.11192585,14.3866381 L4.74477791,14.1253914 L4.44377587,13.8927625 L4.23460757,13.7193231 L4.02094733,13.5306533 L3.8047737,13.3262839 C3.76864523,13.2908879 3.73249448,13.2548182 3.69636265,13.218065 L3.48012868,12.9892658 C3.44423747,12.9497396 3.40844763,12.9095102 3.37280039,12.8685681 L3.16095778,12.6142831 C1.76447785,10.86098 0.728047714,7.93585701 2.68971534,3.21306198 C4.20893365,4.98712849 5.74968842,6.19496537 7.31108231,6.83567527 C7.8652874,7.06300465 8.1964066,7.16653922 8.45704359,7.22360182 L8.64169035,7.25889345 L9.08066205,7.31755373 C9.11268665,5.5490365 10.2013062,3.97187932 11.8435349,3.314792 C13.4857636,2.65770468 15.3618493,3.04862616 16.6049654,4.30693506 Z M15.8935769,5.00973413 C14.9331782,4.03759778 13.4837637,3.73558212 12.215021,4.2432305 C11.0097155,4.72549647 10.1904126,5.84927908 10.090283,7.13189162 L10.083,7.27 L10.0840104,7.34971583 C10.0631409,7.86219418 9.64480839,8.33849202 9.05742386,8.31875828 L8.94536395,8.30913307 L8.65501424,8.2716487 C8.14214693,8.20277544 7.71192621,8.08095626 6.93145594,7.76081517 C5.63997131,7.23086113 4.38113015,6.36467137 3.15094346,5.16889608 L3.072,5.09 L3.04681098,5.17382658 C2.08571958,8.39119539 2.67942747,10.6841821 4.29837464,12.4017016 L4.45313841,12.5610438 C4.74785995,12.8556578 5.06240153,13.1195734 5.40469391,13.3694793 L5.60659748,13.5131374 L6.16634418,13.8848905 C6.74837741,14.2685512 6.76912948,15.1150526 6.20659508,15.5267726 C5.66056166,15.9264154 4.99601029,16.2418803 4.23997196,16.4897611 L4.15,16.517 L4.37470318,16.5714603 C5.83887765,16.9104547 7.59551369,17.0497052 8.982494,16.8254534 L9.22328321,16.7820728 C13.8167315,15.8655035 16.9106137,12.364129 16.9106137,6.7172247 C16.9106137,6.50542604 16.9778609,6.29909675 17.1026635,6.12797397 C17.2690704,5.89980536 17.3919244,5.70698569 17.4958146,5.48147792 L17.573,5.297 L17.499766,5.3045199 C17.367067,5.31403825 17.2302338,5.31778714 17.0865614,5.31693211 L16.6119975,5.30691033 C16.3422433,5.30880734 16.0831647,5.20163893 15.8935769,5.00973413 Z"/>
    <path fill="#000" fill-rule="nonzero" d="M16.6049654,4.30693506 L17.1627351,4.31900357 C17.6203992,4.31983644 18.1429753,4.24755142 19,3.7281425 L18.8863614,4.27493479 L18.7798186,4.74815213 C18.5853871,5.55759361 18.3804676,6.07298521 17.9106137,6.7172247 C17.9106137,13.5747949 13.6957475,16.9093579 9.41896406,17.7627404 C6.48641508,18.3478145 2.22219453,17.3867496 1,16.1107139 L1.4565864,16.0652023 L1.77828531,16.0234884 C1.83623,16.0153164 1.89619529,16.0065069 1.95796593,15.9970181 L2.34853199,15.9316026 C3.37049766,15.7460241 4.70180468,15.3889057 5.61598285,14.7198171 L5.11192585,14.3866381 L4.74477791,14.1253914 L4.44377587,13.8927625 L4.23460757,13.7193231 L4.02094733,13.5306533 L3.8047737,13.3262839 C3.76864523,13.2908879 3.73249448,13.2548182 3.69636265,13.218065 L3.48012868,12.9892658 C3.44423747,12.9497396 3.40844763,12.9095102 3.37280039,12.8685681 L3.16095778,12.6142831 C1.76447785,10.86098 0.728047714,7.93585701 2.68971534,3.21306198 C4.20893365,4.98712849 5.74968842,6.19496537 7.31108231,6.83567527 C7.8652874,7.06300465 8.1964066,7.16653922 8.45704359,7.22360182 L8.64169035,7.25889345 L9.08066205,7.31755373 C9.11268665,5.5490365 10.2013062,3.97187932 11.8435349,3.314792 C13.4857636,2.65770468 15.3618493,3.04862616 16.6049654,4.30693506 Z" opacity=".1"/>
  </g>
</svg>
