<svg xmlns="http://www.w3.org/2000/svg" width="20" height="20" viewBox="0 0 20 20">
  <g fill="none" fill-rule="evenodd">
    <path fill="#000" fill-rule="nonzero" d="M12.1715729,1 C12.7020059,1 13.2107137,1.21071368 13.5857864,1.58578644 L17.4142136,5.41421356 C17.7892863,5.78928632 18,6.29799415 18,6.82842712 L18,17 C18,18.1045695 17.1045695,19 16,19 L4,19 C2.8954305,19 2,18.1045695 2,17 L2,3 C2,1.8954305 2.8954305,1 4,1 L12.1715729,1 Z M12.1715729,2 L4,2 C3.48716416,2 3.06449284,2.38604019 3.00672773,2.88337887 L3,3 L3,17 C3,17.5128358 3.38604019,17.9355072 3.88337887,17.9932723 L4,18 L16,18 C16.5128358,18 16.9355072,17.6139598 16.9932723,17.1166211 L17,17 L17,6.82842712 C17,6.60741338 16.9268355,6.3939431 16.7939194,6.22039761 L16.7071068,6.12132034 L12.8786797,2.29289322 C12.7223993,2.1366129 12.519718,2.03740171 12.3030169,2.00867243 L12.1715729,2 Z"/>
    <polygon fill="#000" fill-rule="nonzero" points="7.071 10 9 11.688 9 13 5 9.5 9 6 9 7.313 7.071 9 14 9 14 10" transform="matrix(0 1 1 0 0 0)"/>
  </g>
</svg>
