<svg xmlns="http://www.w3.org/2000/svg" width="20" height="20" viewBox="0 0 20 20">
  <g fill="none" fill-rule="evenodd">
    <path fill="#000" d="M10,1 C14.9705627,1 19,5.02943725 19,10 C19,11.543122 18.6116406,12.9955377 17.927329,14.2648402 C15.5737102,12.7953029 12.8457808,12 10,12 C7.15383764,12 4.4261005,12.7955054 2.07310802,14.2645662 C1.38856433,12.9963042 1,11.5435291 1,10 C1,5.02943725 5.02943725,1 10,1 Z M10,3.5 C8.06697361,3.5 6.5,5.06699164 6.5,7 C6.5,8.93304237 8.06695763,10.5 10,10.5 C11.9330424,10.5 13.5,8.93304237 13.5,7 C13.5,5.06699164 11.9330264,3.5 10,3.5 Z M10,4.5 C11.3807391,4.5 12.5,5.61927382 12.5,7 C12.5,8.38075763 11.3807576,9.5 10,9.5 C8.61924237,9.5 7.5,8.38075763 7.5,7 C7.5,5.61927382 8.61926093,4.5 10,4.5 Z"/>
    <path fill="#000" d="M10,13 C12.7186175,13 15.2562481,13.774897 17.4040691,15.1158682 C15.7795421,17.4636898 13.0691833,19 10,19 C6.93081673,19 4.22045795,17.4636898 2.5959881,15.1181338 C4.74429141,13.7747322 7.2816715,13 10,13 Z" opacity=".5"/>
  </g>
</svg>
