<?xml version="1.0" encoding="UTF-8" standalone="no"?>
<svg width="20px" height="20px" viewBox="0 0 20 20" version="1.1" xmlns="http://www.w3.org/2000/svg" xmlns:xlink="http://www.w3.org/1999/xlink">
    <!-- Generator: Sketch 3.8.3 (29802) - http://www.bohemiancoding.com/sketch -->
    <title>profile</title>
    <desc>Created with Sketch.</desc>
    <defs></defs>
    <g id="Page-3" stroke="none" stroke-width="1" fill="none" fill-rule="evenodd">
        <g id="Icons" transform="translate(-137.000000, -86.000000)" fill="#000000">
            <g id="Group-Copy" transform="translate(137.000000, 86.000000)">
                <path d="M3.72045898,16.3806152 C3.55411936,16.4713133 7.28637736,18.6320755 9.61728302,18.5 C11.9309811,18.6320755 15.4484556,16.4720303 15.2656254,16.3806152 L12.1636415,14.5768302 C11.7714528,14.3807358 11.5237358,13.9799434 11.5237358,13.5415094 L11.5237358,12.3502453 C11.6090566,12.2534528 11.706566,12.1283396 11.8108868,11.9813585 C12.2245849,11.3970189 12.5375472,10.7542453 12.754434,10.0799245 C13.1433962,9.95983019 13.4301887,9.60026415 13.4301887,9.1729434 L13.4301887,7.90173585 C13.4301887,7.62211321 13.3061509,7.37224528 13.112566,7.19730189 L13.112566,5.35967925 C13.112566,5.35967925 13.4900566,2.5 9.61728302,2.5 C5.74450943,2.5 6.122,5.35967925 6.122,5.35967925 L6.122,7.19730189 C5.92841509,7.37224528 5.80437736,7.62211321 5.80437736,7.90173585 L5.80437736,9.1729434 C5.80437736,9.50777358 5.98039623,9.80245283 6.2435283,9.97237736 C6.56115094,11.355434 7.39284906,12.3502453 7.39284906,12.3502453 L7.39284906,13.5117547 C7.39284906,13.9354906 7.16162264,14.3251698 6.78950943,14.5280755 L3.72045898,16.3806152 Z" id="Fill-129-Copy" opacity="0.2"></path>
                <path d="M19,9.5 C19,4.25 14.75,0 9.5,0 C4.25,0 0,4.25 0,9.5 C0,14.75 4.25,19 9.5,19 C14.75,19 19,14.75 19,9.5 Z M9.5,17.94 C4.84,17.94 1.06,14.16 1.06,9.5 C1.06,4.84 4.84,1.06 9.5,1.06 C14.16,1.06 17.94,4.84 17.94,9.5 C17.94,14.16 14.16,17.94 9.5,17.94 L9.5,17.94 Z" id="Shape"></path>
                <path d="M3.48109921,15.9416313 C3.19438119,16.2429344 3.19438119,16.2429344 3.24192033,16.5535752 C3.31127691,16.6992299 3.31127691,16.6992299 3.36263266,16.7559808 C3.40802243,16.8062275 3.46246394,16.8525168 3.53192236,16.90422 C3.64168734,16.9859265 3.79898819,17.087114 3.99056804,17.1996893 C4.41248112,17.447612 4.95852412,17.727027 5.5293128,17.9807437 C7.06709202,18.6642898 8.51890763,19.063039 9.64556901,18.9991993 C10.7111651,19.0632573 12.1211701,18.6625679 13.5891782,17.9771693 C14.1354026,17.7221425 14.6543612,17.4413142 15.0511647,17.1925328 C15.2333627,17.0783012 15.3820141,16.975515 15.485476,16.8915113 C15.5538431,16.8360021 15.6071223,16.7857882 15.6515077,16.7290679 C15.7036674,16.6622857 15.7036674,16.6622857 15.7622074,16.4939557 C15.7633589,16.1748367 15.7633589,16.1748367 15.4892322,15.9334016 L12.4149836,14.1445951 C12.1644482,14.0182165 12.0237358,13.7905535 12.0237358,13.5415094 L12.0237358,12.3502453 L11.5237358,12.3502453 L11.8988169,12.6808723 C11.9971541,12.5693133 12.105254,12.430486 12.2186252,12.2707533 C12.6551597,11.6541585 12.9940009,10.9680654 13.2304193,10.2330192 L12.754434,10.0799245 L12.9019409,10.557671 C13.5066107,10.3709757 13.9301887,9.81361972 13.9301887,9.1729434 L13.9301887,7.90173585 C13.9301887,7.48688787 13.7514958,7.10078367 13.4478068,6.82633876 L13.112566,7.19730189 L13.612566,7.19730189 L13.612566,5.35967925 C13.6112301,5.40173133 13.6112301,5.40173133 13.6163034,5.34153976 C13.6519818,4.84507129 13.5668223,4.26029591 13.2562223,3.69052346 C12.6763798,2.62684534 11.4857508,2 9.61728302,2 C7.74881524,2 6.55818628,2.62684534 5.9783437,3.69052346 C5.66774379,4.26029591 5.58258427,4.84507129 5.61826263,5.34153976 C5.62333592,5.40173133 5.62333592,5.40173133 5.62630018,5.42511386 L5.622,7.19730189 L6.122,7.19730189 L5.78675925,6.82633876 C5.48307021,7.10078367 5.30437736,7.48688787 5.30437736,7.90173585 L5.30437736,9.1729434 C5.30437736,9.67095469 5.56050498,10.1264917 5.97228241,10.3924079 L6.2435283,9.97237736 L5.75621376,10.0842904 C5.87593368,10.6055991 6.06828173,11.1073078 6.31303891,11.5825093 C6.5698629,12.0811387 6.82845502,12.4546978 7.00924878,12.6709489 L6.89284906,12.3502453 L6.89284906,13.5117547 C6.89284906,13.7525806 6.76151656,13.9738375 6.55014263,14.0890954 L3.46207266,15.9525539 L3.48109921,15.9416313 Z M3.9788453,16.8086766 L7.04789575,14.9561368 C7.56161439,14.6765644 7.89284906,14.1185308 7.89284906,13.5117547 L7.89284906,12.3502453 L7.89284906,12.1687698 L7.77644933,12.0295416 C7.63958995,11.8658413 7.42170237,11.5510835 7.20204666,11.1246171 C6.99343884,10.7196004 6.83060841,10.2948836 6.73084284,9.86046427 L6.68538519,9.66252339 L6.51477419,9.5523468 C6.38406192,9.46793588 6.30437736,9.32621253 6.30437736,9.1729434 L6.30437736,7.90173585 C6.30437736,7.77548073 6.35932718,7.65674987 6.45724075,7.56826501 L6.622,7.41937147 L6.622,7.19730189 L6.622,5.35967925 C6.61815232,5.29859935 6.61815232,5.29859935 6.61569035,5.26986032 C6.59255388,4.94791371 6.65113963,4.5456157 6.85635913,4.16915579 C7.25082669,3.44553437 8.09707391,3 9.61728302,3 C11.1374921,3 11.9837393,3.44553437 12.3782069,4.16915579 C12.5834264,4.5456157 12.6420122,4.94791371 12.6188757,5.26986032 C12.6164137,5.29859935 12.6164137,5.29859935 12.6168662,5.29424463 L12.612566,7.19730189 L12.612566,7.41937147 L12.7773253,7.56826501 C12.8752389,7.65674987 12.9301887,7.77548073 12.9301887,7.90173585 L12.9301887,9.1729434 C12.9301887,9.36910489 12.7978604,9.54322628 12.606927,9.60217806 L12.3581649,9.67898478 L12.2784487,9.92682984 C12.0727184,10.566464 11.7791805,11.1608257 11.4028057,11.6924471 C11.3087865,11.8249134 11.2217152,11.9367346 11.1486548,12.0196183 L11.0237358,12.1613331 L11.0237358,12.3502453 L11.0237358,13.5415094 C11.0237358,14.1693365 11.3784603,14.7432566 11.9400347,15.0240438 L15.0142833,16.8128503 C14.6459627,16.6298009 14.7107332,16.3086235 14.8639731,16.1127975 C14.8758371,16.0976364 14.8701079,16.103036 14.8551505,16.1151804 C14.7882768,16.169477 14.6706337,16.2508223 14.5199697,16.3452831 C14.1586743,16.5718023 13.6758243,16.8330909 13.1661264,17.0710638 C11.8352062,17.6924574 10.5653919,18.053308 9.6457787,18.0008127 C8.65896425,18.0534989 7.33988874,17.6912075 5.93549524,17.0669517 C5.39860216,16.8283016 4.88608989,16.5660446 4.49719116,16.3375217 C4.33420857,16.2417506 4.20524641,16.1587926 4.12903149,16.10206 C4.10771998,16.0861962 4.09680487,16.0769155 4.10469347,16.0856482 C4.13138151,16.1129906 4.13138151,16.1129906 4.19032882,16.2365242 C4.23474967,16.5288206 4.23474967,16.5288206 3.95981876,16.8195992 L3.9788453,16.8086766 Z" id="Fill-129"></path>
            </g>
        </g>
    </g>
</svg>