<?xml version="1.0" encoding="UTF-8" standalone="no"?>
<svg width="20px" height="20px" viewBox="0 0 20 20" version="1.1" xmlns="http://www.w3.org/2000/svg" xmlns:xlink="http://www.w3.org/1999/xlink">
    <!-- Generator: Sketch 3.6.1 (26313) - http://www.bohemiancoding.com/sketch -->
    <title>video</title>
    <desc>Created with Sketch.</desc>
    <defs></defs>
    <g id="Page-3" stroke="none" stroke-width="1" fill="none" fill-rule="evenodd">
        <g id="Icons" transform="translate(-307.000000, -46.000000)" fill="#000000">
            <path d="M317,63 L317,63 C320.865993,63 324,59.8659932 324,56 C324,52.1340068 320.865993,49 317,49 C313.134007,49 310,52.1340068 310,56 C310,59.8659932 313.134007,63 317,63 L317,63 Z M317,64 C312.581722,64 309,60.418278 309,56 C309,51.581722 312.581722,48 317,48 C321.418278,48 325,51.581722 325,56 C325,60.418278 321.418278,64 317,64 Z M315,53 L320,56 L315,59 L315,53 Z" id="Combined-Shape"></path>
        </g>
    </g>
</svg>