<svg xmlns="http://www.w3.org/2000/svg" width="20" height="20" viewBox="0 0 20 20">
  <path d="M18.5887,5.18575 C19,6.745 19,10 19,10 C19,10 19,13.255 18.5887,14.81425 C18.3601,15.676125 17.6914,16.35425 16.8445,16.5835 C15.3064,17 10,17 10,17 C10,17 4.6963,17 3.1555,16.5835 C2.305,16.35075 1.6372,15.6735 1.4113,14.81425 C1,13.255 1,10 1,10 C1,10 1,6.745 1.4113,5.18575 C1.6399,4.323875 2.3086,3.64575 3.1555,3.4165 C4.6963,3 10,3 10,3 C10,3 15.3064,3 16.8445,3.4165 C17.695,3.64925 18.3628,4.3265 18.5887,5.18575 Z M8,13.5 L14,10 L8,6.5 L8,13.5 Z"/>
</svg>
