<?xml version="1.0" encoding="UTF-8"?>
<svg width="20px" height="20px" viewBox="0 0 20 20" version="1.1" xmlns="http://www.w3.org/2000/svg" xmlns:xlink="http://www.w3.org/1999/xlink">
    <!-- Generator: Sketch 63.1 (92452) - https://sketch.com -->
    <title>zapier</title>
    <desc>Created with Sketch.</desc>
    <g id="zapier" stroke="none" stroke-width="1" fill="none" fill-rule="evenodd">
        <path d="M18.7056998,8.43004409 L13.4251199,8.43004409 L17.1357293,4.71943476 C16.8502545,4.29136326 16.5647798,4.0058885 16.279305,3.57753574 C15.8685822,3.28068504 15.4863932,2.94623433 15.1376872,2.57851471 L11.4276404,6.2894053 L11.4276404,1.15170344 C10.9616326,1.03374324 10.4806826,0.985686161 10.0005479,1.00910669 C9.52006489,0.978130346 9.03775676,1.02630415 8.57289285,1.15170344 L8.57289285,6.4322833 L4.71968677,2.57907723 C4.27663157,2.83303158 3.88847702,3.1725234 3.57778774,3.57781699 C3.29231298,4.0058885 2.86424148,4.29136326 2.57876672,4.71971602 L6.28909479,8.43004409 L1.15167419,8.43004409 L1.00907744,9.85713662 C0.978163061,10.3374328 1.02633636,10.8195458 1.15167419,11.2842291 L6.43253531,11.2842291 L2.57932923,15.1374352 C3.14314832,15.9864591 3.87094414,16.7142549 4.71996802,17.278074 L8.43057735,13.5674647 L8.43057735,18.8483258 C8.89658519,18.966286 9.37753512,19.0143431 9.85766988,18.9909226 C10.3379661,19.0218369 10.8200791,18.9736636 11.2847624,18.8483258 L11.2847624,13.5680272 L14.9950905,17.2789178 C15.4380704,17.0248505 15.8261291,16.6852633 16.1367083,16.2798968 C16.5044279,15.9311908 16.8388786,15.5490018 17.1357293,15.138279 L13.4251199,11.4271072 L18.7056998,11.4271072 C18.8237546,10.9611135 18.8719065,10.4801634 18.8485778,10.0000146 C18.8788051,9.47252127 18.8307516,8.94345936 18.7059811,8.43004409 L18.7056998,8.43004409 Z M12.1406242,9.85713662 C12.1264428,10.485391 12.0304771,11.1091211 11.8551494,11.7125819 C11.2654012,11.9438267 10.6316888,12.0413283 9.99970412,11.9980567 C9.37144973,11.9838753 8.7477196,11.8879096 8.14425883,11.7125819 C7.91301402,11.1228337 7.81551241,10.4891213 7.85878407,9.85713662 C7.87296542,9.22888223 7.96893117,8.6051521 8.14425883,8.00169133 C8.73400699,7.77044652 9.36771945,7.67294491 9.99970412,7.71621657 C10.6279585,7.73039792 11.2516886,7.82636367 11.8551494,8.00169133 C12.0197609,8.60747375 12.1155243,9.22988924 12.1406242,9.85713662 L12.1406242,9.85713662 Z" id="Shape" fill="#000000" fill-rule="nonzero"></path>
    </g>
</svg>