<?xml version="1.0" encoding="UTF-8" standalone="no"?>
<svg width="20px" height="20px" viewBox="0 0 20 20" version="1.1" xmlns="http://www.w3.org/2000/svg" xmlns:xlink="http://www.w3.org/1999/xlink">
    <!-- Generator: Sketch 3.6.1 (26313) - http://www.bohemiancoding.com/sketch -->
    <title>zoom</title>
    <desc>Created with Sketch.</desc>
    <defs></defs>
    <g id="Page-3" stroke="none" stroke-width="1" fill="none" fill-rule="evenodd">
        <g id="Icons" transform="translate(-400.000000, -16.000000)" fill="#000000">
            <path d="M408,24 L408,21.5 L408,21 L409,21 L409,21.5 L409,24 L411.5,24 L412,24 L412,25 L411.5,25 L409,25 L409,27.5 L409,28 L408,28 L408,27.5 L408,25 L405.5,25 L405,25 L405,24 L405.5,24 L408,24 Z M417.848086,33.1297471 L413.71752,29.0634688 C414.798804,27.8881125 415.46348,26.337636 415.46348,24.6270793 C415.46348,20.9659556 412.449702,18 408.731733,18 C405.013778,18 402,20.9659556 402,24.6270793 C402,28.2832565 405.013778,31.249152 408.731733,31.249152 C410.338152,31.249152 411.811538,30.6939854 412.968836,29.768707 L417.115902,33.8499438 C417.318454,34.0500187 417.646039,34.0500187 417.848086,33.8499438 C418.050638,33.6549363 418.050638,33.3298219 417.848086,33.1297471 Z M408.731733,30.2288124 C405.585932,30.2288124 403.035774,27.7230207 403.035774,24.6270793 C403.035774,21.5311379 405.585932,19.0203401 408.731733,19.0203401 C411.87755,19.0203401 414.428213,21.5311379 414.428213,24.6270793 C414.428213,27.7230207 411.87755,30.2288124 408.731733,30.2288124 Z" id="Shape"></path>
        </g>
    </g>
</svg>