<svg xmlns="http://www.w3.org/2000/svg" width="320" height="190" viewBox="0 0 320 190">
  <g fill="none">
    <path  d="M156.487608,23.6414127 C157.7421,24.6806031 157.624112,26.215216 156.580321,27.9318113 C156.380566,28.2603236 155.952321,28.3647023 155.623809,28.1649475 C155.295296,27.9651927 155.190918,27.5369476 155.390673,27.2084353 C156.119894,26.0091736 156.182373,25.1965381 155.596759,24.7114189 C155.079575,24.2786547 154.465727,24.3322252 153.341531,24.9467348 L153.264085,24.9895033 C152.651516,25.3311465 149.512697,27.449869 148.530807,28.0416596 C148.05625,28.327678 147.583348,28.5977597 147.109612,28.8519409 C148.534348,28.7922033 150.027272,28.8067286 151.55516,28.8885969 L151.94695,28.9111198 C155.333045,29.118953 158.449328,29.6509067 159.343859,30.1639045 C160.339531,30.7349046 160.887842,32.0360649 160.640005,33.2004735 C160.35042,34.561028 159.112279,35.3906145 157.247417,35.3272269 L156.988783,35.3171958 C156.369614,35.2903785 155.641306,35.2398137 154.818477,35.1682701 L154.534706,35.1429152 L154.833842,35.2476974 C157.477872,36.1786583 159.333441,37.0011485 159.845767,37.5603648 L159.872277,37.5904867 C160.727754,38.6009063 160.481404,40.0403857 159.418848,40.9966465 C158.56107,41.7686155 157.327331,42.1183299 155.949222,41.942455 L155.878289,41.9327629 L155.94549,41.9641356 C156.777549,42.3529824 157.337519,42.6523622 157.606336,42.859868 L157.631441,42.8796623 C158.65887,43.7080397 158.478425,45.4848016 157.24366,46.4379468 C156.140321,47.2896415 154.439775,47.4315424 152.243186,46.7656115 L152.082146,46.715591 L152.091715,46.7214885 C152.543407,47.004845 152.884884,47.2396602 153.107219,47.4226393 L153.139675,47.449697 C153.791238,48.0002684 153.78665,48.8763885 153.272386,49.6369639 C152.826043,50.2970848 152.026002,50.8519905 151.031893,51.1720196 C150.904428,51.2130539 150.77502,51.2501396 150.643745,51.2832377 C152.308645,53.1334228 156.150507,55.5543019 161.546982,58.2837877 C165.885177,60.4780049 170.709756,62.6234448 175.192775,64.4677249 C175.548339,64.6140012 175.718,65.0208229 175.571724,65.3763866 C175.425448,65.7319504 175.018626,65.9016115 174.663062,65.7553352 C170.149434,63.8984629 165.294541,61.7395429 160.918572,59.5262196 L160.537793,59.3328615 C154.543044,56.2765387 150.507814,53.6327643 149.027968,51.485133 C147.22822,51.5040514 145.1839,50.8809522 143.04031,49.5419249 L142.920261,49.4661059 L142.864501,49.5775272 C142.705995,49.8851515 142.515566,50.189266 142.28977,50.4815822 L142.203432,50.5906315 C140.617777,52.5448149 138.045384,53.2287713 134.438686,51.9488935 C134.076347,51.8203135 133.886848,51.422345 134.015428,51.0600061 C134.144009,50.6976671 134.541977,50.5081682 134.904316,50.6367482 C137.962651,51.7220332 139.913209,51.2034122 141.122265,49.7133552 C141.390013,49.3833786 141.598684,49.0277202 141.753683,48.6729653 C141.796593,48.5747524 141.832561,48.4829095 141.862017,48.399225 L141.898305,48.2900419 L141.913699,48.23746 C142.032227,47.762716 142.590631,47.5551727 142.990453,47.8372608 C145.957973,49.9309521 148.630389,50.4824429 150.605235,49.8466896 C151.31826,49.617149 151.858367,49.242532 152.118985,48.8570898 C152.200945,48.7358749 152.241599,48.6324055 152.249181,48.5613133 L152.250494,48.5388352 C152.250557,48.5269427 152.251166,48.5234858 152.249227,48.5205817 L152.241036,48.5131747 C151.809248,48.148314 150.560655,47.3955289 148.759309,46.3969561 L148.32539,46.1575305 C148.16973,46.0720231 148.01099,45.985211 147.849355,45.8971834 C147.049553,45.4616053 146.204845,45.0102315 145.350107,44.559812 L144.058671,43.8838317 L143.146623,43.4123707 C142.661013,43.1636681 142.637228,42.4783923 143.104426,42.1966192 C143.17853,42.1519264 143.258283,42.1223441 143.343122,42.1045649 C144.039161,41.9587004 146.082663,42.5959916 150.632767,44.6442732 L150.914486,44.7714466 C153.622229,45.997107 155.470161,46.0480776 156.392888,45.3358023 C156.959788,44.8981985 157.032217,44.1850212 156.757537,43.9635574 L156.72117,43.9359036 C156.282836,43.618825 154.493168,42.8039377 151.886671,41.7212411 L150.971666,41.3438432 C149.780872,40.8558616 148.512963,40.3474713 147.237273,39.843728 L146.019219,39.3650746 L144.921492,38.9381903 C144.109745,38.6253113 144.493221,37.4210051 145.317228,37.6075284 L145.358105,37.617833 L155.262093,40.3676517 L155.284567,40.3743009 C156.635332,40.7988013 157.790645,40.5888374 158.487461,39.9617292 C159.031429,39.4721774 159.133944,38.8731613 158.808783,38.4891052 C158.253325,37.8304206 152.845036,35.9161863 146.954346,34.2453722 C146.134779,34.0129133 146.374043,32.8078981 147.197702,32.881255 L147.325949,32.8980122 L148.063973,32.9978848 C148.195223,33.0153548 148.332439,33.033481 148.475155,33.0521812 C149.42673,33.176868 150.427067,33.3015585 151.4286,33.4178969 L152.050742,33.4890167 C152.460996,33.5351311 152.861909,33.5785911 153.251529,33.6190555 L153.58918,33.6536573 C155.090908,33.8054237 156.351755,33.9036656 157.294715,33.9357173 C158.523564,33.9774864 159.138871,33.5652153 159.278197,32.9106215 C159.402547,32.3263857 159.111472,31.6356533 158.651209,31.371701 C157.987325,30.990975 154.870887,30.4692271 151.60038,30.2854863 L151.480663,30.2789158 C148.269595,30.1068582 145.225164,30.242808 142.709843,30.7239312 C141.835271,31.00167 140.9338,31.229688 139.993557,31.4097442 C136.325093,32.1128851 130.580975,37.8290706 127.253505,44.4201893 C123.28463,52.2818171 123.284922,59.7168158 128.262379,64.8350304 C128.530428,65.1106602 128.524283,65.5513994 128.248653,65.8194489 C127.973024,66.0874985 127.532284,66.0813535 127.264235,65.8057237 C121.802034,60.189056 121.801717,52.129756 126.010599,43.7927186 C129.513142,36.8548123 135.55438,30.8429511 139.731575,30.0423008 L139.986,29.9886348 C140.002526,29.9817425 140.019441,29.9754307 140.03673,29.9697314 C140.753307,29.7335172 141.531164,29.5352524 142.359623,29.3733833 C144.176527,28.7965136 145.880633,27.9962083 147.61147,26.9691726 L147.812097,26.8491867 C148.728744,26.2967183 151.804962,24.2213563 152.550052,23.7938255 L152.585907,23.7735222 C154.20705,22.869376 155.41371,22.7427965 156.487608,23.6414127 Z"/>
    <path fill="#1988E0" d="M116.990491,91.380161 L133.256561,124.349981 L100.286741,140.616051 L84.0206709,107.646231 L116.990491,91.380161 Z M169.414358,87.2980421 C167.105439,90.8739666 168.446701,96.7124003 168.145033,99.7986947 C162.306599,99.8659898 153.82045,102.448731 148.805801,104.746048 C145.312457,101.115019 144.12645,95.843465 145.728069,91.0661598 C147.329687,86.2888547 151.453523,82.7974548 156.429583,82.0058416 C161.405643,81.2142283 166.409335,83.2535814 169.414358,87.2980421 Z M80.4055424,53.4916844 L110.072405,58.685389 L104.967537,87.8448136 L75.3006738,82.651109 L80.4055424,53.4916844 Z M191.675127,26.8507614 L191.675127,44.9926033 L157.486875,44.9926033 C157.709645,44.3799855 157.577375,43.7441624 157.189848,43.4285714 C156.739852,43.0632284 154.899771,42.2359493 152.788516,41.3491317 L152.523278,41.2379985 L152.523278,40.3306744 L155.075852,41.026831 C158.524148,42.1105149 160.545323,39.4511965 159.340972,38.0287165 C158.839666,37.4352429 156.095273,36.3713742 152.844075,35.3033541 L152.527919,35.2 L152.527919,34.2300218 C154.219579,34.413343 155.980856,34.5757796 157.271066,34.6198695 C160.684554,34.7358956 160.452502,31.5915881 158.997534,30.7562001 C158.352269,30.3887575 155.933143,29.9023363 152.859672,29.6603619 L152.527919,29.635388 L152.527919,26.8507614 L191.675127,26.8507614 Z M290.28632,14.833236 L294.982975,18.4059487 L288.693146,26.6744979 L283.996492,23.1017852 L290.28632,14.833236 Z"/>
    <path  d="M260.330094,9.51878173 C269.721247,9.44684554 278.478898,14.2990573 286.032197,20.3718637 C310.151704,40.3005076 307.842785,69.4230602 307.237128,82.5873822 C307.193086,83.5840407 306.676286,84.4999151 305.845925,85.052878 C305.074875,85.5663435 304.119341,85.7096981 303.236891,85.4524275 L303.034663,85.3859318 L271.17,80.503 L276.26744,92.2020015 L283.779118,95.4856725 C284.102416,95.5755018 284.379404,95.6575341 284.605076,95.7308194 C297.271148,99.8339426 316.717742,112.054565 296.386402,141.837205 C296.413352,141.999192 296.384272,142.171384 296.289583,142.32266 C294.031318,145.930459 291.232535,149.465153 287.989759,152.88226 L291.902,187.741 L319.132125,187.741842 C319.516601,187.741842 319.828281,188.053522 319.828281,188.437999 C319.828281,188.808744 319.538467,189.111799 319.173029,189.132973 L319.132125,189.134155 L0.696156635,189.134155 C0.311679942,189.134155 0,188.822475 0,188.437999 C0,188.067253 0.28981464,187.764198 0.655252145,187.743024 L0.696156635,187.741842 L67.1210662,187.74236 C66.4134122,187.396333 65.9260334,186.669369 65.9260334,185.828571 C65.9260334,184.652714 66.8792545,183.699492 68.0551124,183.699492 L82.1569253,183.699492 C83.3327832,183.699492 84.2860044,184.652714 84.2860044,185.828571 C84.2860044,186.669369 83.7986255,187.396333 83.0909715,187.74236 L95.3942279,187.741784 C95.1583481,187.340937 95.0230602,186.873795 95.0230602,186.375054 C95.0230602,184.884566 96.2313394,183.676287 97.7218274,183.676287 L111.71,183.676 L119.340951,155.660387 L64.5406817,155.660624 C62.7707034,155.660624 61.3313237,154.245163 61.2919507,152.484443 L61.291,101.869 L59.4455619,102.483831 C59.1139067,102.594158 58.7580314,102.441077 58.6048884,102.138237 L58.5652544,102.043006 L50.324228,77.2695667 C50.2644993,77.0900155 50.2819732,76.9033655 50.3586167,76.7456282 L50.3663462,76.7319742 L50.3663462,76.7319742 L50.3723774,76.7187932 L50.3978045,76.6757096 L50.3978045,76.6757096 L50.373,76.718 L50.401,76.669 L50.4336252,76.6234756 L50.4336252,76.6234756 L50.4554375,76.5975431 L50.4554375,76.5975431 C50.5574957,76.4739576 50.6976933,76.3927031 50.8493569,76.3615832 L61.291,72.887 L61.2919507,67.9031182 C61.2919507,66.1331399 62.7074117,64.6937603 64.4681317,64.6551813 L206.217839,64.6543872 C207.987817,64.6543872 209.427197,66.0698483 209.46657,67.8305682 L209.465827,72.4287892 C217.811684,75.7711415 236.399264,83.3140081 244.060829,86.4254254 L243.999924,86.513302 C244.164577,86.2260109 244.507292,86.0961208 244.818536,86.1971993 L244.858937,86.2116993 L245.866512,86.6083829 L243.284992,82.1667849 L243.252845,82.0999319 C241.903337,81.8404834 240.553516,81.4593567 239.209336,80.9531597 C232.076821,78.2671675 228.444464,71.8402128 227.615231,63.0077847 C227.070478,57.2054525 227.853342,50.5637273 229.034634,46.416411 L229.146519,46.0350097 L229.283648,45.5854494 C229.744883,44.0854934 230.220127,42.6616468 230.709427,41.3121941 C224.409434,28.8458272 231.993186,11.057499 260.330094,9.51878173 Z M206.475395,155.650604 L206.555389,155.642861 C206.480607,155.650748 206.405604,155.656013 206.330516,155.658647 L206.217839,155.660624 L156.069951,155.660387 L163.436,183.676 L177.415518,183.676287 C178.906006,183.676287 180.114286,184.884566 180.114286,186.375054 C180.114286,186.873795 179.978998,187.340937 179.743118,187.741784 L216.798,187.741 L220.971226,166.345182 C215.931699,163.190681 211.099268,159.608679 206.475395,155.650604 Z M154.629951,155.660387 L151.336951,155.660387 L157.915,183.676 L161.997,183.676 L154.629951,155.660387 Z M149.905951,155.660387 L120.783951,155.660387 L113.152,183.676 L156.485,183.676 L149.905951,155.660387 Z M171.687203,85.1120367 L171.611014,85.1719902 C171.237108,85.4595217 170.732237,86.2281485 170.134728,87.4970571 C169.61333,88.604775 169.247463,89.9050456 169.023457,91.3589073 C168.672772,93.6349441 168.688244,96.0807046 168.926157,98.3855299 L168.954405,98.6481049 C168.978278,98.8611687 169.002894,99.0596804 169.027595,99.2422884 L169.058373,99.4613992 L169.093462,99.6884004 C169.158221,100.067384 168.903491,100.427108 168.524507,100.491867 C168.486813,100.498308 168.449309,100.501588 168.412266,100.5019 C168.35556,100.521569 168.29498,100.534591 168.231797,100.53932 L167.502979,100.595775 C163.490656,100.917417 160.441466,101.346946 158.847107,101.886715 L155.279116,103.125995 L154.655426,103.346342 C153.320673,103.819874 152.091152,104.269221 150.918071,104.715633 L150.648339,104.818609 C149.260166,105.350292 148.003403,105.859098 146.888967,106.344854 L146.681681,106.435663 C144.978524,107.185626 143.657402,107.864129 142.782336,108.452294 C142.33611,108.752219 142.0197,109.020308 141.84595,109.238724 C141.804653,109.290638 141.77492,109.335333 141.755517,109.371218 L141.74979,109.381987 L141.759221,109.389017 C141.782099,109.404666 141.81073,109.421479 141.845158,109.438905 L141.881521,109.456515 C142.076485,109.54699 142.370424,109.624779 142.750422,109.682321 C143.507152,109.796911 144.555556,109.825504 145.836898,109.774588 C147.894676,109.692819 150.451269,109.410501 152.892768,109.039352 C153.589522,108.301614 154.444325,107.545038 155.425646,106.777319 C156.39439,106.019439 157.429585,105.295028 158.464529,104.627752 L158.731193,104.457119 C158.949189,104.318701 159.156351,104.18982 159.350622,104.071227 L159.697723,103.862138 L159.852118,103.771511 C160.185286,103.579621 160.610929,103.69415 160.802819,104.027318 C160.987601,104.348146 160.888242,104.754726 160.583126,104.955752 L160.186717,105.192345 L159.961817,105.329646 C159.730839,105.471795 159.48203,105.628339 159.218997,105.797929 C158.217238,106.44381 157.215731,107.144645 156.283552,107.873919 C154.943309,108.922435 153.864234,109.939162 153.145895,110.876092 C152.426891,111.813892 152.119193,112.609995 152.226947,113.211556 C152.437726,114.388276 152.886559,115.000289 153.492828,115.249308 C153.863036,115.401366 154.279393,115.411766 154.665585,115.333105 L154.700542,115.325312 C154.863866,114.823864 155.118469,114.304681 155.454597,113.769172 C156.106062,112.731279 157.054745,111.647301 158.224622,110.540636 C159.011768,109.796023 159.852791,109.084754 160.693677,108.429801 C160.951209,108.229213 161.192847,108.046388 161.414028,107.883327 L161.606814,107.742435 L161.823308,107.587975 C162.138972,107.368479 162.572805,107.44644 162.792301,107.762104 C163.011796,108.077768 162.933836,108.511601 162.618172,108.731097 L162.545522,108.782421 C162.48345,108.82662 162.411094,108.878808 162.329319,108.938598 L162.148081,109.072223 C161.961924,109.21059 161.761334,109.363034 161.549232,109.528237 C160.741189,110.15761 159.933284,110.840869 159.181431,111.552098 C158.089622,112.584912 157.213307,113.586201 156.633853,114.509368 C156.003937,115.512932 155.767064,116.359492 155.933225,117.00305 C156.211758,118.081835 156.663398,118.658444 157.228495,118.896153 C157.618708,119.060296 158.058174,119.05901 158.475072,118.951706 C158.535668,118.93611 158.584622,118.921267 158.619731,118.909516 C158.747449,118.323444 159.036952,117.694434 159.472352,117.040935 C159.989038,116.265432 160.698909,115.457015 161.55482,114.630762 C162.183125,114.024228 162.85405,113.442646 163.524838,112.905237 L163.721909,112.748659 C163.850423,112.647414 163.97304,112.552525 164.088749,112.464461 L164.316811,112.293079 L164.427227,112.21217 C164.739381,111.98771 165.174393,112.0588 165.398852,112.370954 C165.614679,112.671102 165.557253,113.084839 165.275013,113.315765 L165.012629,113.511279 L164.848142,113.636479 C164.706845,113.744975 164.555254,113.863749 164.395379,113.991835 C163.755859,114.504194 163.116475,115.058435 162.521826,115.632479 C161.731984,116.394951 161.084511,117.132308 160.631044,117.812925 C159.574212,119.399142 159.679172,120.301928 161.213545,120.862589 C164.336654,122.003776 166.42078,122.166063 167.649671,121.797477 L167.729191,121.772454 C167.753332,121.764472 167.775125,121.756886 167.794626,121.749799 L167.815751,121.741784 L167.841893,121.686317 L167.857949,121.649505 C168.021647,121.264131 168.042035,120.884053 167.852399,120.542935 C167.501882,119.912425 166.472316,119.374195 164.53009,119.074068 C164.150123,119.015353 163.889697,118.65973 163.948412,118.279764 C164.007127,117.899797 164.36275,117.639371 164.742716,117.698086 C165.11833,117.756128 165.469897,117.823944 165.797905,117.901394 C165.890151,117.867663 165.992556,117.854423 166.09803,117.865334 C166.697436,117.927342 167.32919,118.016217 168.047113,118.136029 L168.534234,118.219613 C168.688614,118.246771 168.847503,118.275332 169.021242,118.307117 L170.35033,118.554673 C174.173494,119.25984 175.563479,119.334585 176.648818,118.733204 C176.975137,118.552393 177.383148,118.661611 177.577315,118.974335 L177.606121,119.024904 L177.691954,119.180466 C177.74884,119.282698 177.813943,119.398364 177.887251,119.52712 L178.120477,119.932823 C178.386732,120.391921 178.692421,120.906084 179.037417,121.471661 L179.132481,121.627181 C180.415087,123.721117 181.949255,126.055798 183.732869,128.570981 C187.469519,133.840257 191.72888,139.109977 196.503927,144.190527 C196.653788,144.262525 196.772076,144.38782 196.836953,144.541207 L197.481796,145.220738 C198.918805,146.719775 200.401138,148.201041 201.928612,149.659586 C213.857891,161.050546 227.291199,169.857053 242.192277,175.074259 C246.447819,176.574323 251.116966,176.382539 255.233956,174.539062 C261.208268,171.850425 268.626197,167.405809 275.381923,162.245608 C283.327489,156.176575 289.949093,149.483326 294.505857,142.526294 L294.690065,142.242669 L262.86921,127.05021 L245.735615,147.443611 C245.535265,147.682074 245.202478,147.75717 244.920934,147.632434 L244.866917,147.60587 L244.22005,147.266318 C243.930608,147.113773 243.616278,146.947483 243.278176,146.767924 L242.357076,146.277251 C240.351769,145.205951 238.117528,143.993784 235.711524,142.665106 C228.836752,138.868622 221.961735,134.898732 215.543256,130.949818 L214.689073,130.422705 C211.574025,128.494571 208.646431,126.617551 205.936848,124.804574 L205.460165,124.48478 C197.874305,119.381988 192.262403,114.948094 189.050846,111.347344 L188.864975,111.136998 L188.415678,110.667465 C184.07252,106.145646 180.838703,103.184593 178.558772,101.488333 L178.479626,101.429673 C177.673626,100.834612 177.06033,100.454474 176.620387,100.246314 L176.524283,100.202428 C176.449638,100.16969 176.388535,100.146339 176.340489,100.130932 L176.316055,100.123336 L176.037128,100.123568 C175.818282,100.123568 175.623022,100.022585 175.495402,99.864675 C175.378241,99.7827945 175.285033,99.6635646 175.235769,99.5171495 L175.167195,99.3096113 C174.713966,97.9127821 174.337176,96.2442979 173.905773,93.8946601 L173.312602,90.5558556 C172.75757,87.4714108 172.340509,85.8762749 171.864455,85.2406043 L171.777625,85.1279336 C171.741971,85.0837262 171.728589,85.0812728 171.687203,85.1120367 Z M136.871356,161.819289 C140.655888,161.819289 143.723858,164.887259 143.723858,168.671791 C143.723858,172.456323 140.655888,175.524293 136.871356,175.524293 C133.086824,175.524293 130.018854,172.456323 130.018854,168.671791 C130.018854,164.887259 133.086824,161.819289 136.871356,161.819289 Z M136.871356,163.211603 C133.855777,163.211603 131.411168,165.656212 131.411168,168.671791 C131.411168,171.68737 133.855777,174.13198 136.871356,174.13198 C139.886935,174.13198 142.331545,171.68737 142.331545,168.671791 C142.331545,165.656212 139.886935,163.211603 136.871356,163.211603 Z M68.316,99.532 L62.684,101.406 L62.684264,152.411893 C62.684264,153.417819 63.4843423,154.236877 64.482859,154.267427 L201.924038,154.268253 C201.921761,154.251155 201.920105,154.233861 201.919093,154.216394 L201.917912,154.175489 L201.917415,151.565628 C201.599587,151.267735 201.282808,150.968039 200.96708,150.666559 C199.450561,149.218474 197.978225,147.74835 196.550207,146.260889 C196.02917,147.307678 194.958341,148.032887 193.71548,148.06012 L71.5649021,148.060914 C69.7949238,148.060914 68.3555442,146.645453 68.3161711,144.884733 L68.316,99.532 Z M203.309947,152.853098 L203.310225,154.175489 L203.302951,154.267387 L204.886961,154.268923 C204.358505,153.801892 203.832833,153.329924 203.309947,152.853098 Z M84.6300195,93.2679497 C84.7070926,93.4250477 84.7244295,93.6095761 84.6694638,93.7837648 L84.6277075,93.8867351 C84.6070385,93.928015 84.5828213,93.9663445 84.5556108,94.0015391 L84.5371089,94.0244555 L84.5371089,94.0244555 L84.5178978,94.0467967 C84.5106488,94.0541543 84.5036449,94.0614399 84.496502,94.0685525 C84.4470646,94.1200159 84.38873,94.1641665 84.3229867,94.1986423 L84.2190013,94.2428048 L69.708,99.069 L69.7084844,144.812183 C69.7084844,145.818109 70.5085628,146.637167 71.5070795,146.667717 L71.5649021,146.6686 L193.64293,146.6686 C194.561791,146.6686 195.324733,146.001025 195.473201,145.124426 C190.657886,140.001687 186.36471,134.689251 182.597139,129.376371 L182.214797,128.834578 C180.574629,126.498979 179.150937,124.322878 177.945198,122.354432 L177.754025,122.041032 C177.410718,121.475839 177.106891,120.962426 176.842657,120.504439 L176.685714,120.230892 L176.625499,120.251339 C175.879759,120.492084 174.987059,120.55841 173.910324,120.487945 L173.774771,120.478427 C172.836226,120.408131 172.132413,120.302071 170.368868,119.974952 L168.978859,119.715823 C169.010828,119.765254 169.040973,119.815455 169.069308,119.866423 C169.499027,120.639402 169.455564,121.449643 169.139441,122.193852 C169.049833,122.404806 168.957249,122.565929 168.885368,122.668959 C168.837045,122.738221 168.776523,122.798113 168.706759,122.845707 C168.577059,122.934191 168.360569,123.037846 168.049668,123.131096 C166.507575,123.593621 164.122587,123.407907 160.735694,122.170333 C159.660802,121.777567 159.001117,121.198947 158.712248,120.491223 L158.656,120.337 L158.614862,120.347694 C157.989052,120.474092 157.328974,120.448901 156.688636,120.179542 C155.697957,119.762812 154.966779,118.829316 154.585121,117.351119 C154.535347,117.158338 154.505022,116.961907 154.493371,116.761936 C153.99342,116.804738 153.472475,116.746132 152.963835,116.537214 C151.893011,116.097385 151.147242,115.08048 150.856447,113.457045 C150.696934,112.566527 150.978202,111.623177 151.618454,110.627399 C149.604726,110.899704 147.591645,111.098272 145.892181,111.165803 L145.64059,111.175062 C142.573183,111.278627 140.820972,110.984831 140.41109,109.841207 C139.959349,108.573418 141.383808,107.398956 144.495521,105.905578 L144.496461,96.4034133 L143.939666,96.4037708 L143.939666,94.3222625 L144.496461,94.3214133 L144.496461,82.8514133 L143.916461,82.8519217 L143.916461,80.7704133 L145.99797,80.7704133 L145.997461,81.3894133 L157.509461,81.3894133 L157.51008,80.7704133 L159.591588,80.7704133 L159.591461,81.3894133 L171.038461,81.3894133 L171.038724,80.7704133 L173.120232,80.7704133 L173.120232,82.8519217 L172.613461,82.8514133 L172.614231,84.0223461 C172.727885,84.1133072 172.835843,84.2230062 172.936543,84.3508534 C173.592225,85.1832976 174.015743,86.695172 174.580219,89.7461851 L175.243091,93.4676609 L175.368583,94.1454968 C175.708019,95.9472752 176.016069,97.3136109 176.358912,98.4549254 L176.445,98.734 L176.487721,98.7376344 C176.961095,98.7956079 177.8094,99.212814 179.218387,100.244695 L179.470539,100.431519 C181.842222,102.209003 185.153587,105.251952 189.571356,109.860911 L189.881369,110.185011 L189.902367,110.208016 C191.276865,111.783346 193.157016,113.543205 195.498969,115.467245 L195.499347,73.5280638 C195.499347,72.5221374 194.699269,71.7030792 193.700752,71.6725295 L193.64293,71.6716461 L77.445,71.671 L84.6300195,93.2679497 Z M209.466,104.403 L209.465311,125.463595 C211.618862,126.86412 213.892551,128.299513 216.272841,129.763967 L216.861067,130.123031 C216.834583,128.190469 216.958907,126.6149 217.28905,125.595939 C219.409867,119.043804 226.464296,111.352797 226.67758,111.12124 L226.682524,111.115881 L209.466,104.403 Z M206.217839,66.0467005 L203.309951,66.0463872 L203.309907,121.324544 C204.395047,122.082141 205.529367,122.856697 206.711111,123.6474 L207.451583,124.140835 L208.074,124.552 L208.074257,67.9031182 C208.074257,66.8971918 207.274178,66.0781336 206.275662,66.0475839 L206.217839,66.0467005 Z M201.917951,66.0463872 L64.5406817,66.0467005 C63.5347552,66.0467005 62.7156971,66.8467789 62.6851473,67.8452956 L62.684264,67.9031182 L62.684,72.423 L75.4684637,68.1702209 C75.6553736,68.0832016 75.8789088,68.079707 76.0771294,68.1800444 C76.2769297,68.2811814 76.4069418,68.4655047 76.4463691,68.6695818 L76.982,70.279 L193.64293,70.2793328 C195.412908,70.2793328 196.852288,71.6947939 196.891661,73.4555138 L196.891301,116.58767 C198.405805,117.782783 200.084504,119.035941 201.917842,120.342711 L201.917951,66.0463872 Z M261.184513,78.3457256 C256.125183,81.5867956 250.593719,83.0083309 245.012538,82.3696323 L248.076284,87.6397416 C248.401542,88.1993705 247.855238,88.8534043 247.254759,88.6502668 L247.219381,88.6373217 L244.910457,87.7282669 L244.89552,87.7550435 C244.80267,87.9223378 244.707942,88.0969741 244.610408,88.28148 L244.536718,88.4217494 C244.131547,89.1977619 243.736057,90.0333855 243.365831,90.9235886 C242.157004,93.8302008 241.455888,96.721398 241.510112,99.3939769 C241.621717,104.894609 244.893525,108.770556 252.412852,110.443307 C258.26454,111.745451 264.335092,110.696872 270.141027,107.658472 C275.03875,105.095363 279.550107,101.193474 282.962922,96.7326664 L283.010645,96.6697027 L275.459477,93.3682384 C275.313242,93.3043013 275.193877,93.1922815 275.120698,93.0515196 L275.100149,93.0084481 L266.743002,73.8258088 C265.026998,75.5549242 263.161587,77.0791871 261.184513,78.3457256 Z M157.509461,82.3174133 L145.997461,82.3174133 L145.99797,82.8519217 L145.424461,82.8514133 L145.424461,94.3214133 L146.021175,94.3222625 L146.021175,96.4037708 L145.424461,96.4034133 L145.423515,105.472959 C145.648691,105.370694 145.881065,105.266885 146.120583,105.161416 L146.546478,104.975769 C147.627624,104.509128 148.831483,104.023538 150.150347,103.518401 C151.416304,103.033528 152.741882,102.547878 154.189099,102.034444 L155.900214,101.434418 L158.317274,100.596625 C160.07147,99.9823472 163.311623,99.527572 167.616912,99.1900309 C167.590974,98.9855835 167.56553,98.7641707 167.541203,98.5284905 C167.292107,96.1153312 167.275927,93.5577208 167.647381,91.146886 C167.890416,89.5695266 168.291752,88.1431975 168.875035,86.9040062 L168.988526,86.6663721 C169.627585,85.3476505 170.198823,84.5015708 170.762269,84.0682837 C171.067114,83.8338592 171.381319,83.7136215 171.68587,83.7003847 L171.685461,82.8514133 L171.038724,82.8519217 L171.038461,82.3174133 L159.591461,82.3174133 L159.591588,82.8519217 L157.51008,82.8519217 L157.509461,82.3174133 Z M67.7324489,86.2058538 L60.3964489,100.698854 L82.1964489,93.4478538 L67.7324489,86.2058538 Z M52.1724489,78.4148538 L59.2884489,99.8038538 L66.4874489,85.5818538 L52.1724489,78.4148538 Z M75.6244489,70.6148538 L68.3614489,84.9628538 L82.8034489,92.1948538 L75.6244489,70.6148538 Z M74.3734489,70.0028538 L52.8084489,77.1758538 L67.1164489,84.3398538 L74.3734489,70.0028538 Z M247.410629,23.1180773 L247.321746,23.1374721 C242.599671,24.2084509 238.436276,27.9885966 234.848671,35.1212893 C236.533105,34.5679471 238.198146,35.1085787 239.709638,36.3445222 C240.078442,36.6460921 240.409196,36.9679175 240.698618,37.290354 C240.874713,37.4865366 241.000401,37.6427378 241.071469,37.7394366 C241.299158,38.049243 241.232589,38.4849692 240.922782,38.7126583 C240.624892,38.9315901 240.210581,38.8784635 239.976737,38.5986362 L239.899781,38.4998412 L239.883205,38.4791365 C239.821087,38.4019391 239.747277,38.3148528 239.662488,38.2203927 C239.418285,37.948333 239.13805,37.6756622 238.828286,37.422369 C237.399903,36.2543844 235.939086,35.9194159 234.482423,36.8240282 C234.329853,36.9187765 234.154899,36.9473708 233.991089,36.9176499 C232.835585,39.4538304 231.743634,42.3634612 230.715386,45.6683337 L230.479229,46.4380227 L230.438287,46.5750644 C229.266892,50.5409884 228.463895,57.1519948 229.001448,62.8776395 C229.785897,71.2330543 233.148688,77.1830484 239.700019,79.650176 C246.765201,82.3108121 253.977405,81.3091838 260.433471,77.1733462 C266.407964,73.3460107 271.343877,67.0304676 274.075876,59.8425853 C275.235148,56.7925426 275.987351,53.7572525 276.358827,50.8363505 C262.39545,45.0057612 249.721523,32.6807763 247.410629,23.1180773 Z M247.965352,66.5278216 C248.234059,66.8028108 248.228966,67.2435633 247.953977,67.5122701 C245.70459,69.7102674 243.441284,69.8102044 241.530781,68.6166244 C241.274521,68.456527 241.047426,68.2849057 240.850623,68.1120135 L240.765167,68.0351587 C240.686125,67.962292 240.626397,67.9018525 240.586627,67.8580107 C240.328308,67.5732412 240.349751,67.1329811 240.63452,66.8746621 C240.908337,66.6262785 241.325914,66.6365499 241.587274,66.8908665 L241.63821,66.9438219 C241.664537,66.9704228 241.708698,67.0125571 241.769544,67.0660113 C241.912061,67.1912134 242.079415,67.3176865 242.26849,67.4358106 C243.662503,68.3067149 245.219118,68.237982 246.980904,66.5164464 C247.255893,66.2477396 247.696645,66.2528325 247.965352,66.5278216 Z M277.492576,52.664145 L277.443455,52.9369291 C277.007483,55.3665295 276.322638,57.8502081 275.377351,60.3372552 C274.460573,62.7492955 273.30445,65.0669119 271.948838,67.2339885 L271.854,67.191 L272.058257,67.2839479 C272.366273,67.4188086 272.700978,67.5522349 273.057946,67.6789414 C274.87491,68.3238758 276.718582,68.612465 278.409348,68.3535212 C281.140553,67.9352321 283.194671,66.1304816 284.359574,62.4818755 C285.46053,59.0324091 284.902923,56.6635407 283.041991,55.0346336 C281.727334,53.8838904 279.914591,53.1730588 277.492576,52.664145 Z M246.443822,38.7465059 C246.782037,38.8983685 246.93979,39.2868904 246.809418,39.6289371 L246.793741,39.6667367 L239.071095,56.8655547 L243.033369,57.8768822 C243.392598,57.9685704 243.614566,58.3243305 243.544707,58.6836529 L243.535736,58.7235791 C243.444047,59.082808 243.088287,59.3047763 242.728965,59.2349169 L242.689039,59.225946 L237.925007,58.0099924 C237.519786,57.9065653 237.299557,57.4737592 237.446203,57.0886433 L237.462097,57.0503047 L245.523591,39.096425 C245.681078,38.7456828 246.093079,38.5890187 246.443822,38.7465059 Z M252.463982,47.8382118 C253.344023,48.0312184 253.81551,49.2907837 253.517077,50.6515299 C253.218644,52.012276 252.263303,52.9589159 251.383262,52.7659094 C250.503221,52.5729028 250.031734,51.3133374 250.330167,49.9525913 C250.628599,48.5918452 251.583941,47.6452053 252.463982,47.8382118 Z M235.587855,44.1912659 C236.467896,44.3842725 236.939383,45.6438379 236.64095,47.004584 C236.342518,48.3653301 235.387176,49.31197 234.507135,49.1189635 C233.627094,48.925957 233.155607,47.6663916 233.45404,46.3056454 C233.752473,44.9448993 234.707814,43.9982594 235.587855,44.1912659 Z M259.977152,42.2631976 C260.343569,42.6378169 260.664232,43.037007 260.938666,43.4366283 L261.017753,43.5536381 C261.142555,43.7413621 261.232249,43.8916947 261.285814,43.9906955 C261.468773,44.3288497 261.342963,44.7512955 261.004809,44.9342548 C260.679179,45.1104377 260.275385,45.0002993 260.082547,44.6899433 L260.014576,44.5724744 L259.999041,44.5465764 C259.941047,44.450478 259.87153,44.3421808 259.790933,44.224819 C259.55933,43.8875671 259.288074,43.549884 258.981801,43.236755 C257.752188,41.9796168 256.396489,41.5075767 254.883845,42.1743591 C254.532032,42.3294403 254.121114,42.1699579 253.966032,41.8181452 C253.810951,41.4663325 253.970434,41.0554139 254.322246,40.9003327 C256.452738,39.9611992 258.382903,40.6332624 259.977152,42.2631976 Z M168.226251,39.8944162 C168.610728,39.8944162 168.922408,40.2060962 168.922408,40.5905729 C168.922408,40.9613183 168.632593,41.2643738 168.267155,41.2855477 L168.226251,41.2867295 L159.088035,41.2867295 C158.703558,41.2867295 158.391878,40.9750496 158.391878,40.5905729 C158.391878,40.2198275 158.681693,39.9167719 159.04713,39.895598 L159.088035,39.8944162 L168.226251,39.8944162 Z M185.989848,36.7640319 C186.374324,36.7640319 186.686004,37.0757118 186.686004,37.4601885 C186.686004,37.8309339 186.39619,38.1339895 186.030752,38.1551634 L185.989848,38.1563452 L158.985932,38.1563452 C158.601455,38.1563452 158.289775,37.8446652 158.289775,37.4601885 C158.289775,37.0894432 158.57959,36.7863876 158.945027,36.7652137 L158.985932,36.7640319 L185.989848,36.7640319 Z M187.646701,33.7635968 C188.031177,33.7635968 188.342857,34.0752768 188.342857,34.4597534 C188.342857,34.8304988 188.053043,35.1335544 187.687605,35.1547283 L187.646701,35.1559101 L159.187817,35.1559101 C158.803341,35.1559101 158.491661,34.8442301 158.491661,34.4597534 C158.491661,34.0890081 158.781475,33.7859525 159.146913,33.7647786 L159.187817,33.7635968 L187.646701,33.7635968 Z M185.989848,30.7631617 C186.374324,30.7631617 186.686004,31.0748417 186.686004,31.4593183 C186.686004,31.8300637 186.39619,32.1331193 186.030752,32.1542932 L185.989848,32.155475 L159.791153,32.155475 C159.406676,32.155475 159.094996,31.843795 159.094996,31.4593183 C159.094996,31.088573 159.384811,30.7855174 159.750249,30.7643435 L159.791153,30.7631617 L185.989848,30.7631617 Z M298.152284,0 C303.892521,0 308.545903,4.65338154 308.545903,10.3936186 C308.545903,16.1338556 303.892521,20.7872371 298.152284,20.7872371 C292.412047,20.7872371 287.758666,16.1338556 287.758666,10.3936186 C287.758666,4.65338154 292.412047,0 298.152284,0 Z"/>
    <path fill="#1988E0" d="M219.378693,40.1493396 C221.098727,32.4543485 227.285969,27.2221021 233.286717,28.563428 C238.588099,29.7484274 241.836678,35.6377169 241.335879,42.3002761 L248.757834,43.9365081 C251.028548,37.3882682 256.633157,33.1828875 262.083891,34.401271 C267.207791,35.5465984 270.414037,41.0865038 270.170808,47.4717099 C270.193847,47.4766969 270.216852,47.4843572 270.239636,47.4933037 L270.278644,47.5099911 L279.101269,51.6010716 C279.45007,51.762812 279.601713,52.1766878 279.439973,52.5254891 C279.284223,52.8613719 278.894668,53.0144302 278.554562,52.8808805 L278.515555,52.8641931 L270.054861,48.9410084 C269.981005,49.558573 269.874893,50.1813433 269.735206,50.8062658 C268.015172,58.5012569 261.82793,63.7335033 255.827182,62.3921773 C249.826435,61.0508513 246.455833,53.6821737 248.175867,45.9871826 C248.229657,45.7465437 248.287814,45.5083132 248.350199,45.2726169 L241.177821,43.6910347 C241.113295,44.1151753 241.033506,44.5412964 240.938032,44.9684228 C239.217997,52.6634139 233.030755,57.8956603 227.030008,56.5543343 C221.02926,55.2130083 217.658659,47.8443307 219.378693,40.1493396 Z M261.780167,35.7600529 C256.624455,34.6076147 251.102358,39.2773812 249.534649,46.2909063 C247.966941,53.3044314 250.975194,59.8809573 256.130906,61.0333955 C261.286618,62.1858336 266.808716,57.5160671 268.376424,50.502542 C269.944133,43.489017 266.935879,36.9124911 261.780167,35.7600529 Z M232.982993,29.9222099 C227.827281,28.7697717 222.305183,33.4395382 220.737475,40.4530633 C219.169766,47.4665884 222.17802,54.0431143 227.333732,55.1955525 C232.489444,56.3479906 238.011541,51.6782241 239.57925,44.664699 C241.146959,37.651174 238.138705,31.0746481 232.982993,29.9222099 Z"/>
  </g>
</svg>
