<svg xmlns="http://www.w3.org/2000/svg" width="673" height="160"><g fill="none" fill-rule="evenodd"><path fill="currentColor" fill-opacity=".4" d="M653 42H305.8a8 8 0 01-7.8-8V16a8 8 0 00-8-8H106a8 8 0 00-8 8v18a8 8 0 01-8 8H20V8a8 8 0 018-8h617a8 8 0 018 8v34z"/><path fill="currentColor" d="M118 25h93a1 1 0 110 2h-93a1 1 0 110-2z" opacity=".5"/><path fill="currentColor" fill-rule="nonzero" d="M645 0a8 8 0 018 8v152H20V8a8 8 0 018-8h617zm0 1H28a7 7 0 00-7 6.8V159h631V8a7 7 0 00-6.8-7h-.2z"/><path fill="currentColor" d="M653 159h20v1h-20zM0 159h20v1H0z"/><circle cx="39" cy="21" r="6" fill="currentColor" opacity=".9"/><circle cx="59" cy="21" r="6" fill="currentColor" opacity=".8"/><circle cx="79" cy="21" r="6" fill="currentColor" opacity=".7"/><rect width="476" height="24" x="94" y="48" fill="currentColor" opacity=".4" rx="12"/><path fill="currentColor" fill-rule="nonzero" d="M631 63v1h-12v-1h12zm4-10v1h-16v-1h16zm-16 6v-1h16v1h-16zM54.1 61l6.9 5.6V68l-9-7.5 9-7.5v1.4L54.1 60H67v1z"/><circle cx="591" cy="60" r="40" fill="#1988E0" opacity=".1"/><path fill="#1988E0" fill-rule="nonzero" d="M591 53a5 5 0 015 5v.1a4 4 0 01-.8 7.9H587a4 4 0 01-1-7.9V58a5 5 0 015-5zm0 2a3 3 0 00-3 2.8v1.9l-1.5.4a2 2 0 00.4 3.9h8.2a2 2 0 00.6-3.9h-.2l-1.5-.4V58a3 3 0 00-3-3z"/></g></svg>