<svg xmlns="http://www.w3.org/2000/svg" width="70" height="184"><defs><filter id="a"><feColorMatrix in="SourceGraphic" values="0 0 0 0 1.000000 0 0 0 0 1.000000 0 0 0 0 1.000000 0 0 0 1.000000 0"/></filter><filter id="b"><feColorMatrix in="SourceGraphic" values="0 0 0 0 1.000000 0 0 0 0 1.000000 0 0 0 0 1.000000 0 0 0 1.000000 0"/></filter><filter id="c"><feColorMatrix in="SourceGraphic" values="0 0 0 0 1.000000 0 0 0 0 1.000000 0 0 0 0 1.000000 0 0 0 1.000000 0"/></filter><filter id="d"><feColorMatrix in="SourceGraphic" values="0 0 0 0 1.000000 0 0 0 0 1.000000 0 0 0 0 1.000000 0 0 0 1.000000 0"/></filter></defs><g fill="none" fill-rule="evenodd"><g transform="translate(0 58)"><rect width="32" height="32" fill="#E13E54" rx="6"/><path fill="#FFF" fill-rule="nonzero" d="M18.9 18.2l3 3a.5.5 0 11-.8.7l-3-3a5 5 0 11.7-.7zM15 19a4 4 0 100-8 4 4 0 000 8z"/></g><g transform="translate(0 20)"><rect width="32" height="32" fill="#6D7278" rx="6"/><g filter="url(#a)"><path fill="#000" fill-rule="nonzero" d="M16 9l-3.5 5h7l-3.4-5zm1.3 0H20c.6 0 1.3.3 1.6.8l3.1 3.7c.2.1.3.3.3.5h-4.2l-3.5-5zm-2.6 0H12c-.5 0-1.3.3-1.6.8l-3.1 3.7a2 2 0 00-.3.5h4.2l3.5-5zm2.6 14.7l.1-.1 7.2-7.2c.4-.4.6-.9.6-1.4H20l-2.6 8.7zm-1.2.5h-.2L13.2 15h5.6l-2.7 9.2zM6.8 15c0 .5.2 1 .6 1.4l7.2 7.2.1.1-2.6-8.7H6.8z"/></g></g><path fill="#FFD229" d="M45.7 76h16.6c2.7 0 3.7.3 4.6.8 1 .5 1.8 1.3 2.3 2.3.5 1 .8 2 .8 4.6v16.6c0 2.7-.3 3.7-.8 4.6-.5 1-1.3 1.8-2.3 2.3-1 .5-2 .8-4.6.8H45.7c-2.7 0-3.7-.3-4.6-.8-1-.5-1.8-1.3-2.3-2.3-.5-1-.8-2-.8-4.6V83.7c0-2.7.3-3.7.8-4.6.5-1 1.3-1.8 2.3-2.3 1-.5 2-.8 4.6-.8z"/><path fill="#000" fill-rule="nonzero" d="M49 100a5 5 0 01-1-10c.4-3.3 3-6 6-6 3.3 0 6 3.1 6 7v1a4 4 0 110 8H49z" opacity=".4"/><path fill="#12AB66" d="M45.7 114h16.6c2.7 0 3.7.3 4.6.8 1 .5 1.8 1.3 2.3 2.3.5 1 .8 2 .8 4.6v16.6c0 2.7-.3 3.7-.8 4.6-.5 1-1.3 1.8-2.3 2.3-1 .5-2 .8-4.6.8H45.7c-2.7 0-3.7-.3-4.6-.8-1-.5-1.8-1.3-2.3-2.3-.5-1-.8-2-.8-4.6v-16.6c0-2.7.3-3.7.8-4.6.5-1 1.3-1.8 2.3-2.3 1-.5 2-.8 4.6-.8z"/><path fill="#FFF" fill-rule="nonzero" d="M54 122a8 8 0 01.2 16H54a8 8 0 110-16zm0 3a4 4 0 00-4 4v5l2-2 2 2 2-2 2 2v-5a4 4 0 00-4-4zm-1.5 3a1 1 0 100 2 1 1 0 000-2zm3 0a1 1 0 100 2 1 1 0 000-2z"/><path fill="#608381" d="M45.7 152h16.6c2.7 0 3.7.3 4.6.8 1 .5 1.8 1.3 2.3 2.3.5 1 .8 2 .8 4.6v16.6c0 2.7-.3 3.7-.8 4.6-.5 1-1.3 1.8-2.3 2.3-1 .5-2 .8-4.6.8H45.7c-2.7 0-3.7-.3-4.6-.8-1-.5-1.8-1.3-2.3-2.3-.5-1-.8-2-.8-4.6v-16.6c0-2.7.3-3.7.8-4.6.5-1 1.3-1.8 2.3-2.3 1-.5 2-.8 4.6-.8z"/><path fill="#553CDA" d="M45.7 38h16.6c2.7 0 3.7.3 4.6.8 1 .5 1.8 1.3 2.3 2.3.5 1 .8 2 .8 4.6v16.6c0 2.7-.3 3.7-.8 4.6-.5 1-1.3 1.8-2.3 2.3-1 .5-2 .8-4.6.8H45.7c-2.7 0-3.7-.3-4.6-.8-1-.5-1.8-1.3-2.3-2.3-.5-1-.8-2-.8-4.6V45.7c0-2.7.3-3.7.8-4.6.5-1 1.3-1.8 2.3-2.3 1-.5 2-.8 4.6-.8z"/><g filter="url(#b)" transform="translate(38 38)"><g fill="#000" fill-rule="nonzero"><path d="M19.3 9h.1c.2 0 .4.2.4.5l-.4 3.5h3.3a.5.5 0 010 1h-3.4l-.6 4h4a.5.5 0 010 1h-4l-.5 3.6a.5.5 0 01-1 0v-.2l.4-3.4h-4l-.4 3.6a.5.5 0 01-1 0v-.2l.4-3.4H9.3a.5.5 0 010-1h3.4l.6-4h-4a.5.5 0 010-1h4l.5-3.6c0-.2.3-.4.5-.4h.1c.2 0 .4.2.4.5l-.4 3.5h4l.4-3.6c0-.2.3-.4.5-.4zm-1.6 9l.6-4h-4l-.6 4h4z"/><path opacity=".1" d="M15 15h3l-1 2h-3z"/></g></g><path fill="#E77438" d="M45.7 0h16.6C65 0 66 .3 67 .8c1 .5 1.8 1.3 2.3 2.3.5 1 .8 2 .8 4.6v16.6c0 2.7-.3 3.7-.8 4.6-.5 1-1.3 1.8-2.3 2.3-1 .5-2 .8-4.6.8H45.7c-2.7 0-3.7-.3-4.6-.8-1-.5-1.8-1.3-2.3-2.3-.5-1-.8-2-.8-4.6V7.7c0-2.7.3-3.7.8-4.6.5-1 1.3-1.8 2.3-2.3 1-.5 2-.8 4.6-.8z"/><g><path fill="#1F7FC7" d="M7.7 96h16.6c2.7 0 3.7.3 4.6.8 1 .5 1.8 1.3 2.3 2.3.5 1 .8 2 .8 4.6v16.6c0 2.7-.3 3.7-.8 4.6-.5 1-1.3 1.8-2.3 2.3-1 .5-2 .8-4.6.8H7.7c-2.7 0-3.7-.3-4.6-.8-1-.5-1.8-1.3-2.3-2.3-.5-1-.8-2-.8-4.6v-16.6c0-2.7.3-3.7.8-4.6.5-1 1.3-1.8 2.3-2.3 1-.5 2-.8 4.6-.8z"/><g filter="url(#c)" transform="translate(0 96)"><g transform="translate(7 8)" fill="#000" fill-rule="nonzero"><path d="M0 4h18v1H0z"/><rect width="18" height="12" y="4" opacity=".9" rx="1"/><path d="M0 1c0-.6.5-1 1-1h5l2 2H0V1zm0 1h17c.6 0 1 .4 1 1v1H0V2z" opacity=".6"/></g></g></g><g><path fill="#7AA3C1" d="M7.7 134h16.6c2.7 0 3.7.3 4.6.8 1 .5 1.8 1.3 2.3 2.3.5 1 .8 2 .8 4.6v16.6c0 2.7-.3 3.7-.8 4.6-.5 1-1.3 1.8-2.3 2.3-1 .5-2 .8-4.6.8H7.7c-2.7 0-3.7-.3-4.6-.8-1-.5-1.8-1.3-2.3-2.3-.5-1-.8-2-.8-4.6v-16.6c0-2.7.3-3.7.8-4.6.5-1 1.3-1.8 2.3-2.3 1-.5 2-.8 4.6-.8z"/><g filter="url(#d)" transform="translate(0 134)"><path fill="#000" fill-rule="nonzero" d="M26 16.5a9.5 9.5 0 10-19 0 9.5 9.5 0 0019 0zm-10-2.4L14.3 16H13l3.5-4 3.5 4h-1.3L17 14v7h-1v-7z"/></g></g></g></svg>